<svg xmlns="http://www.w3.org/2000/svg" width="400" height="190"><linearGradient id="a" gradientUnits="userSpaceOnUse" x1="275.741" y1="63.419" x2="290.973" y2="63.419" gradientTransform="translate(0 2)"><stop offset=".006" stop-color="#131636"/><stop offset=".096" stop-color="#161333"/><stop offset=".186" stop-color="#181328"/><stop offset=".994" stop-color="#12121a"/></linearGradient><path d="M276.7 68.1c.4-.8 1.1-1.3 1.9-1.7.9-.5 1.8-.9 2.7-1.3 1.9-.7 3.8-1.2 5.9-1.4 1.2-.1 2.3-.2 3.4-.1.6 0 .6-1 0-1-4.3-.1-8.6.9-12.3 2.9-.9.5-1.9 1.1-2.4 2.1-.1.2 0 .5.2.7.1.1.5 0 .6-.2z" fill="url(#a)"/><linearGradient id="b" gradientUnits="userSpaceOnUse" x1="172.564" y1="138.554" x2="175.901" y2="138.554" gradientTransform="translate(0 2)"><stop offset=".006" stop-color="#131636"/><stop offset=".096" stop-color="#161333"/><stop offset=".186" stop-color="#181328"/><stop offset=".994" stop-color="#12121a"/></linearGradient><path d="M173.9 128.7c0 1.6.3 3.2.6 4.9.3 1.5.4 3.1.5 4.6.1 3.1-.1 6.2-.8 9.2-.4 1.7-.9 3.4-1.5 5-.1.2.1.6.3.6.3.1.5-.1.6-.3 1.1-3 1.8-6 2.2-9.1.3-3.2.3-6.3-.2-9.4-.3-1.8-.7-3.6-.7-5.5 0-.7-1-.7-1 0z" fill="url(#b)"/><linearGradient id="c" gradientUnits="userSpaceOnUse" x1="79.417" y1="94.34" x2="89.611" y2="94.34" gradientTransform="translate(0 2)"><stop offset=".006" stop-color="#131636"/><stop offset=".096" stop-color="#161333"/><stop offset=".186" stop-color="#181328"/><stop offset=".994" stop-color="#12121a"/></linearGradient><path d="M79.7 96.7a9.4 9.4 0 0 0 7.7.3c.7-.3 1.4-.6 2-1 .5-.4 0-1.2-.5-.8-2.5 1.7-6 2-8.8.6-.2-.1-.5 0-.7.2 0 .3.1.6.3.7z" fill="url(#c)"/><linearGradient id="d" gradientUnits="userSpaceOnUse" x1="89.013" y1="121.197" x2="95.035" y2="121.197" gradientTransform="translate(0 2)"><stop offset=".006" stop-color="#131636"/><stop offset=".096" stop-color="#161333"/><stop offset=".186" stop-color="#181328"/><stop offset=".994" stop-color="#12121a"/></linearGradient><path d="M95 133.4c.3-5.6-.7-11.3-2.9-16.4-.6-1.4-1.3-2.9-2.1-4.2-.3-.6-1.2 0-.8.5 2.8 4.7 4.5 10.1 4.9 15.5.1 1.5.1 3.1 0 4.7-.1.6.9.6.9-.1z" fill="url(#d)"/><linearGradient id="e" gradientUnits="userSpaceOnUse" x1="348.092" y1="34.697" x2="353.415" y2="34.697" gradientTransform="translate(0 2)"><stop offset=".006" stop-color="#131636"/><stop offset=".096" stop-color="#161333"/><stop offset=".186" stop-color="#181328"/><stop offset=".994" stop-color="#12121a"/></linearGradient><path d="M350.7 33c2.1 3.1 2.5 7.4.9 10.8 1.7-3.1 2.2-6.7 1.6-10.1-.2-1-.5-2-1.1-2.8s-1.6-1.3-2.6-1.2c-3.3.6.5 2.4 1.2 3.3z" fill="url(#e)"/><linearGradient id="f" gradientUnits="userSpaceOnUse" x1="259.795" y1="39.561" x2="265.564" y2="39.561" gradientTransform="translate(0 2)"><stop offset=".006" stop-color="#131636"/><stop offset=".096" stop-color="#161333"/><stop offset=".186" stop-color="#181328"/><stop offset=".994" stop-color="#12121a"/></linearGradient><path d="M260.7 43.1c-.9-1.9-1.1-4.2-.6-6.3 1.5 1.9 3 3.8 4.3 5.8 3.6 5.5-1.8 4.5-3.7.5z" fill="url(#f)"/><linearGradient id="g" gradientUnits="userSpaceOnUse" x1="263.04" y1="55.022" x2="272.257" y2="55.022" gradientTransform="translate(0 2)"><stop offset=".006" stop-color="#131636"/><stop offset=".096" stop-color="#161333"/><stop offset=".186" stop-color="#181328"/><stop offset=".994" stop-color="#12121a"/></linearGradient><path d="M265.8 53.8c2.1 0 4.1 1.3 5.1 3.1s.9 4.2-.2 6c.8-1 1.1-2.4 1.4-3.7.2-1.1.4-2.3.1-3.3-.2-.8-.7-1.5-1.3-2.1-.8-.9-1.7-1.7-2.8-2.2-1.1-.5-2.4-.5-3.4.1-.9.6-1.5 1.6-1.5 2.7.7 0 1.6-.6 2.6-.6z" fill="url(#g)"/><linearGradient id="h" gradientUnits="userSpaceOnUse" x1="249.946" y1="75.853" x2="253.078" y2="75.853" gradientTransform="translate(0 2)"><stop offset=".006" stop-color="#131636"/><stop offset=".096" stop-color="#161333"/><stop offset=".186" stop-color="#181328"/><stop offset=".994" stop-color="#12121a"/></linearGradient><path d="M250.8 81.5c-.6-1.9-.9-4-.7-6.1.1-1.3.3-2.6-.1-3.8 2 3 3.2 6.6 3.2 10.3 0 .8-.1 1.6-.6 2.3-1-.5-1.5-1.7-1.8-2.7z" fill="url(#h)"/><linearGradient id="i" gradientUnits="userSpaceOnUse" x1="248.779" y1="93.26" x2="260.832" y2="93.26" gradientTransform="translate(0 2)"><stop offset=".006" stop-color="#131636"/><stop offset=".096" stop-color="#161333"/><stop offset=".186" stop-color="#181328"/><stop offset=".994" stop-color="#12121a"/></linearGradient><path d="M257.9 94c1.9 1.9 2.8 4.6 2.6 7.2.7-2.9.2-6-1.4-8.5-1-1.5-2.5-2.8-4.3-3.2-1.1-.2-2.2 0-3.3.1-1 .1-2.2.5-2.7 1.4 1 .8 3.2.2 4.4.5 1.8.4 3.5 1.3 4.7 2.5z" fill="url(#i)"/><linearGradient id="j" gradientUnits="userSpaceOnUse" x1="236.187" y1="93.151" x2="245.671" y2="93.151" gradientTransform="translate(0 2)"><stop offset=".006" stop-color="#131636"/><stop offset=".096" stop-color="#161333"/><stop offset=".186" stop-color="#181328"/><stop offset=".994" stop-color="#12121a"/></linearGradient><path d="M242.3 93.9c-1.2-2-3.9-3.2-6.1-2.3 1.6-1.5 4.1-1.9 6.1-1.1 2 .9 3.4 3 3.4 5.1 0 1.7-1 4.1-2.7 4.7-.7-2 .7-4.1-.7-6.4z" fill="url(#j)"/><linearGradient id="k" gradientUnits="userSpaceOnUse" x1="235.595" y1="109.711" x2="240.213" y2="109.711" gradientTransform="translate(0 2)"><stop offset=".006" stop-color="#131636"/><stop offset=".096" stop-color="#161333"/><stop offset=".186" stop-color="#181328"/><stop offset=".994" stop-color="#12121a"/></linearGradient><path d="M236.2 112.3c.5 1.5 1.3 3 2.1 4.3.6 1 1.2 1.9 1.8 2.9-.8-1.9-.6-4-.3-6s.7-4 .3-6c-.3-1.5-1.8-4.7-3.6-3-1.4 1.4-.8 6.1-.3 7.8z" fill="url(#k)"/><linearGradient id="l" gradientUnits="userSpaceOnUse" x1="226" y1="89.638" x2="234.911" y2="89.638" gradientTransform="translate(0 2)"><stop offset=".006" stop-color="#131636"/><stop offset=".096" stop-color="#161333"/><stop offset=".186" stop-color="#181328"/><stop offset=".994" stop-color="#12121a"/></linearGradient><path d="M228.7 93.7c.6-1.2 1.2-2.5 1.9-3.6 1.1-1.9 2.6-3.4 4.4-4.5-1.4 1.2-1.5 3.2-1.9 5-.6 1.9-1.7 3.7-3 5.1-.4.5-3.2 3-3.9 1.7-.4-.7 2.2-3.2 2.5-3.7z" fill="url(#l)"/><linearGradient id="m" gradientUnits="userSpaceOnUse" x1="210.292" y1="93.403" x2="222.814" y2="93.403" gradientTransform="translate(0 2)"><stop offset=".006" stop-color="#131636"/><stop offset=".096" stop-color="#161333"/><stop offset=".186" stop-color="#181328"/><stop offset=".994" stop-color="#12121a"/></linearGradient><path d="M218.4 97.2c-2.2 1.8-5.3 2.4-8.1 1.7 1.3.9 2.7 1.6 4.3 2 .7.2 1.5.4 2.3.4 1.9-.1 3.6-1.5 4.5-3.2 1.4-2.3 1.8-5.2 1.1-7.9 0-.2-.2-.4-.3-.6-1.3 2.7-1 5.5-3.8 7.6z" fill="url(#m)"/><linearGradient id="n" gradientUnits="userSpaceOnUse" x1="163.356" y1="134.224" x2="176.518" y2="134.224" gradientTransform="translate(0 2)"><stop offset=".006" stop-color="#131636"/><stop offset=".096" stop-color="#161333"/><stop offset=".186" stop-color="#181328"/><stop offset=".994" stop-color="#12121a"/></linearGradient><path d="M171.2 134.3c1.9-.1 4.3.1 5.4 1.7-2.2.4-4.4 1.3-6.6 1.8-2.1.5-4.6.8-6.6-.2 1.2-2.7 5.2-3.2 7.8-3.3z" fill="url(#n)"/><linearGradient id="o" gradientUnits="userSpaceOnUse" x1="154.509" y1="140.603" x2="158.986" y2="140.603" gradientTransform="translate(0 2)"><stop offset=".006" stop-color="#131636"/><stop offset=".096" stop-color="#161333"/><stop offset=".186" stop-color="#181328"/><stop offset=".994" stop-color="#12121a"/></linearGradient><path d="M155.2 135.3c-.2 1.2.3 2.4.7 3.5 1 2.5 3.9 8.6 2.9 11.2-4.1-3-5-10.3-3.6-14.7z" fill="url(#o)"/><linearGradient id="p" gradientUnits="userSpaceOnUse" x1="153.803" y1="166.68" x2="165.203" y2="166.68" gradientTransform="translate(0 2)"><stop offset=".006" stop-color="#131636"/><stop offset=".096" stop-color="#161333"/><stop offset=".186" stop-color="#181328"/><stop offset=".994" stop-color="#12121a"/></linearGradient><path d="M157.7 167.4c2.5 2 4.6 4.6 7.5 5.9 0-2.1-1-4.2-2.5-5.7s-3.5-2.5-5.6-3.1c-1-.3-2.5-.6-3.3 0 .6 1.2 2.8 2 3.9 2.9z" fill="url(#p)"/><linearGradient id="q" gradientUnits="userSpaceOnUse" x1="138.387" y1="165.394" x2="146.308" y2="165.394" gradientTransform="translate(0 2)"><stop offset=".006" stop-color="#131636"/><stop offset=".096" stop-color="#161333"/><stop offset=".186" stop-color="#181328"/><stop offset=".994" stop-color="#12121a"/></linearGradient><path d="M145.4 168c-.8-1.3-2.1-2.1-3.6-2.4-1.4-.2-3.2.4-3.5 1.8 0-1.9 1.5-3.8 3.5-4 1.9-.2 3.9 1.2 4.4 3.1.2.9.1 1.8 0 2.6s-.2 1.6-.1 2.4c.4-1.3-.2-2.4-.7-3.5z" fill="url(#q)"/><linearGradient id="r" gradientUnits="userSpaceOnUse" x1="117.808" y1="140.572" x2="125.266" y2="140.572" gradientTransform="translate(0 2)"><stop offset=".006" stop-color="#131636"/><stop offset=".096" stop-color="#161333"/><stop offset=".186" stop-color="#181328"/><stop offset=".994" stop-color="#12121a"/></linearGradient><path d="M122.6 143.3c1.3-1.7 2-3.9 1.9-6.1 1.4 2.3.9 5.4-.4 7.7-.6 1-1.3 1.9-2.2 2.5-.9.6-4.4 1.3-3.9-.6.2-1 3.7-2.4 4.6-3.5z" fill="url(#r)"/><linearGradient id="s" gradientUnits="userSpaceOnUse" x1="114.213" y1="163.13" x2="121.396" y2="163.13" gradientTransform="translate(0 2)"><stop offset=".006" stop-color="#131636"/><stop offset=".096" stop-color="#161333"/><stop offset=".186" stop-color="#181328"/><stop offset=".994" stop-color="#12121a"/></linearGradient><path d="M118.5 158.5c-3.9 3.8-5.3 10.1-3.3 15.2 1.7-4 3.4-8.1 5-12.1.3-.8 1.9-3.9.9-4.7-.9-.9-1.9.9-2.6 1.6z" fill="url(#s)"/><linearGradient id="t" gradientUnits="userSpaceOnUse" x1="177.668" y1="145.244" x2="212.261" y2="145.244" gradientTransform="translate(0 2)"><stop offset=".006" stop-color="#131636"/><stop offset=".096" stop-color="#161333"/><stop offset=".186" stop-color="#181328"/><stop offset=".994" stop-color="#12121a"/></linearGradient><path d="M185.2 160.2c.6 1.3 1 2.7 1.9 3.8s2.3 2 3.7 1.8c2.2-.2 3.6-2.9 3.3-5.1-.3-2.2-1.8-4.1-3.2-5.9-1.4-1.8-2.8-3.7-3.1-5.9 1.8.1 3.1 1.7 4.3 3.1 2.9 3.4 6.7 6.4 11.1 6.5.9 0 1.9-.1 2.4-.9.4-.6.3-1.3.1-2-1.2-4.5-5.8-7.2-10-9.3-.2-.1-.5-.2-.6-.5-.5-.6.1-1.6.9-1.8.8-.2 1.5.1 2.3.4 4.4 1.4 9.5 0 12.6-3.3.8-.8 1.4-1.9 1.4-3.1-.1-1.7-1.9-2.9-3.6-3.1-1.7-.1-3.3.6-4.9 1.3-2 .9-4 1.8-6 2.6 0-1.7.7-3.3 1.2-5s.2-3.7-1.2-4.6c-1.8-1.2-4.3.2-5.2 2.1-.9 1.9-.8 4.2-1.2 6.3-.3 2.1-1.4 4.4-3.4 5-.3-2.6-.5-5.2-.8-7.8-.1-1.2-.4-2.5-1.5-2.9-.9-.3-1.9.3-2.4 1.1s-.6 1.7-.8 2.6c-.5 2.2-1.3 4.3-2.4 6.3-1.1 1.8-2.8 3.2-2.1 5.3.6 1.7 2.7 3.6 3.7 5.3 1.2 2.6 2.4 5.2 3.5 7.7z" fill="url(#t)"/><linearGradient id="u" gradientUnits="userSpaceOnUse" x1="241.863" y1="56.275" x2="266.11" y2="56.275" gradientTransform="translate(0 2)"><stop offset=".006" stop-color="#131636"/><stop offset=".096" stop-color="#161333"/><stop offset=".186" stop-color="#181328"/><stop offset=".994" stop-color="#12121a"/></linearGradient><path d="M258 70.9c1 .3 2 .7 3.1.7s2.2-.4 2.7-1.2c.9-1.3 0-3.3-1.3-4.2-1.4-.9-3.1-.9-4.8-1-1.6 0-3.4-.1-4.7-1 .9-.9 2.4-.9 3.7-1 3.2 0 6.7-.7 8.8-3.2.4-.5.8-1.2.6-1.8-.1-.5-.6-.8-1.1-1-3.1-1.4-6.7-.1-9.8 1.3-.2.1-.4.1-.6.1-.6 0-.8-.8-.6-1.3s.8-.8 1.3-1.1c2.8-1.8 4.4-5.3 4-8.6-.1-.8-.4-1.7-1.1-2.2-1-.7-2.5-.3-3.3.6-.8.9-1.2 2.1-1.6 3.3-.4 1.5-.9 3.1-1.3 4.6-1-.8-1.5-1.9-2.2-2.9s-1.9-1.9-3.2-1.5c-1.5.4-1.9 2.5-1.3 3.9s1.9 2.4 3 3.6c1 1.2 1.8 2.8 1.2 4.3-1.6-1.1-3.2-2.1-4.7-3.2-.7-.5-1.6-.9-2.3-.5-.6.3-.7 1.2-.5 1.8s.6 1.2 1.1 1.7c1 1.3 1.8 2.7 2.4 4.3.6 1.4.5 3 2 3.7 1.2.5 3.3.1 4.6.4 2 .3 4 .8 5.9 1.4z" fill="url(#u)"/><linearGradient id="v" gradientUnits="userSpaceOnUse" x1="321.405" y1="31.553" x2="348.276" y2="31.553" gradientTransform="translate(0 2)"><stop offset=".006" stop-color="#131636"/><stop offset=".096" stop-color="#161333"/><stop offset=".186" stop-color="#181328"/><stop offset=".994" stop-color="#12121a"/></linearGradient><path d="M323.3 33.8c-.6.8-1.3 1.7-1.6 2.7-.3 1-.3 2.2.3 3 1 1.3 3.2 1.1 4.4 0 1.3-1.1 1.8-2.7 2.4-4.3.6-1.5 1.2-3.2 2.4-4.2.6 1.2.2 2.5-.2 3.8-.9 3.1-1.3 6.6.4 9.3.3.6.8 1.1 1.5 1.1.5 0 .9-.4 1.3-.7 2.3-2.5 2.1-6.4 1.8-9.8v-.6c.2-.6 1-.5 1.4-.1s.5 1 .6 1.6c.8 3.2 3.7 5.8 7 6.4.8.1 1.8.1 2.4-.4 1-.7 1.1-2.3.5-3.4-.6-1.1-1.7-1.8-2.7-2.5-1.3-.9-2.7-1.8-4-2.6 1-.7 2.3-.8 3.5-1.3 1.2-.4 2.3-1.3 2.4-2.5 0-1.6-1.8-2.5-3.4-2.4-1.5.2-2.9 1.1-4.3 1.8-1.4.6-3.2.9-4.4-.1 1.5-1.2 3-2.4 4.4-3.6.6-.5 1.4-1.3 1.2-2-.1-.6-.9-1-1.6-1s-1.3.3-1.9.5c-1.5.6-3.2.9-4.8 1-1.5.1-3-.5-4.1.8-.8 1-1.1 3.1-1.8 4.3-.9 1.8-2 3.6-3.1 5.2z" fill="url(#v)"/><linearGradient id="w" gradientUnits="userSpaceOnUse" x1="100.259" y1="94.061" x2="354.771" y2="94.061" gradientTransform="translate(0 2)"><stop offset=".006" stop-color="#131636"/><stop offset=".096" stop-color="#161333"/><stop offset=".186" stop-color="#181328"/><stop offset=".994" stop-color="#12121a"/></linearGradient><path d="M100.5 102.5c4.9 6 6.5 13.9 8.3 21.2 1.9 8.2 4.4 16.4 7.4 24.2 1.5 3.9 3.1 7.9 4.8 11.7 1.5 3.4 3.1 6.9 5.1 10 1.8 2.6 4 5.2 6.9 6.5s6.2 1.3 9.1 0c6.6-2.8 10.4-9.8 13.7-15.8 3.9-7.3 7.1-15 9.4-22.9 2.1-7.2 3.2-14.7 5.9-21.8 1.3-3.5 3-6.9 5.4-9.8 2.5-3 5.6-5.2 8.9-7.3 6.2-3.9 13.1-7.2 17.7-13.2 2.1-2.8 3.1-5.7 4-9 .4-1.3.8-2.9 1.9-3.8 1.5-1.2 3.5 0 4.8 1 5.4 3.8 6.2 11.5 8.1 17.3 1.8 5.4 5 11.8 11.2 13 7 1.3 12.6-4.6 15.9-10.1 3.9-6.4 6.6-13.5 8.9-20.5 2.4-7.1 4.4-14.4 7.1-21.4 1.3-3.6 2.9-7 4.6-10.4.9-1.6 1.8-3.2 2.8-4.7 1.1-1.6 2.2-3.4 3.7-4.6 3.2-2.6 7.2-1.2 10.6.1 3.5 1.4 6.8 2.8 10.7 2.7 7.9-.3 14.3-5.5 21.5-7.8 3.1-1 6.5-1.6 9.8-1 1.6.3 3.1.8 4.4 1.7 1.3 1 2.3 2.3 3.3 3.6 1.8 2.5 4.3 4.6 7.6 3.5 3.2-1 5.4-4.2 6.9-7 1.8-3.7 3.2-7.5 3.9-11.5.2-1.3-1.7-1.8-1.9-.5-.8 4.1-2.2 8.2-4.2 11.9-1.4 2.7-4.7 7-8.2 5.1-1.4-.8-2.3-2.3-3.2-3.5-.9-1.2-1.9-2.3-3.2-3.2-2.5-1.7-5.6-2.3-8.6-2.2-7.4.3-13.4 4.3-20 7-3.7 1.5-7.7 2.6-11.6 1.7-3.6-.8-6.8-2.7-10.3-3.7-3.2-.8-6.5-.4-9 1.9-2.6 2.4-4.5 5.9-6.2 9-3.5 6.4-6 13.4-8.2 20.3-2.3 7.1-4.4 14.2-7.1 21.1-1.4 3.5-3 6.9-4.9 10.1-1.8 3.2-3.9 6.2-6.9 8.3-2.7 2-6.2 2.9-9.4 1.5-2.8-1.3-4.7-3.8-6.1-6.5-2.9-5.7-3.3-12.3-6.4-18-1.5-2.6-3.6-5-6.4-6.2-2.9-1.3-5.5-.1-6.8 2.7-.6 1.4-.9 2.8-1.3 4.3-.4 1.7-1.1 3.2-1.9 4.6-1.9 3.1-4.6 5.6-7.6 7.7-6.1 4.4-13.2 7.3-18.5 12.6-5.1 5.1-7.6 12-9.5 18.9-2 7.5-3.5 15.1-6.2 22.4-2.8 7.6-6.3 15.1-10.7 21.8-3.5 5.3-9.8 11.8-16.7 8.3-3-1.5-5.1-4.4-6.7-7.2-1.9-3.4-3.5-6.9-5-10.5-3.4-7.7-6.2-15.7-8.6-23.8-2.1-7.5-3.3-15.3-6.2-22.5-1.3-3.3-2.9-6.3-5.1-9.1-1.1-.6-2.4.8-1.7 1.8z" fill="url(#w)"/><linearGradient id="x" gradientUnits="userSpaceOnUse" x1="136.757" y1="124.622" x2="190.22" y2="124.622" gradientTransform="translate(0 2)"><stop offset=".006" stop-color="#28356e"/><stop offset=".227" stop-color="#242f66"/><stop offset=".541" stop-color="#231f53"/><stop offset=".765" stop-color="#1e1042"/><stop offset=".994" stop-color="#21112e"/></linearGradient><path d="M140.3 120.2c.8 3.9 1.7 7.9 2.5 11.9 1.3 6.1 2 14.1 5.4 19.3 3.4 5.3 9.9 7.7 16.1 7.2 3.6-.3 6.9-2.1 9.4-4.6s4.4-5.6 6-8.8c4.4-9.3 5.9-19.7 7.4-29.8l3-20.7c-1.3-.2-2.6.7-3.3 1.9-.6 1.2-.8 2.5-1 3.9-1.5 13-4.4 25.8-8.6 38.2-1.4 4-2.9 8.1-5.7 11.4-2.7 3.3-6.9 5.7-11.1 5.2-4.3-.4-7.9-3.6-10.1-7.4-2.1-3.8-2.9-8.2-3.7-12.4-1.1-5.8-2.1-11.6-3.2-17.4-.3-1.4-.6-3-1.4-4.1-1.2-1.6-6.1-2.4-5.5.6.1.5 1.9 1.4 2.2 2 1.1.9 1.4 2.4 1.6 3.6z" fill="url(#x)"/><linearGradient id="y" gradientUnits="userSpaceOnUse" x1="43.219" y1="62.623" x2="356.781" y2="62.623" gradientTransform="translate(0 2)"><stop offset=".006" stop-color="#131636"/><stop offset=".096" stop-color="#161333"/><stop offset=".186" stop-color="#181328"/><stop offset=".994" stop-color="#12121a"/></linearGradient><path d="M46.2 90.7c10.5-3.8 22.1-3.9 32.7-.3 5.4 1.9 10.3 4.7 14.8 8.2 4.8 3.7 9.4 7.8 14.8 10.7 19.9 11 44.5 8 64.3-1.6 10.6-5.1 20.2-12.2 29.1-19.9 9.1-7.9 17.3-16.6 25.9-25 8.2-7.8 17.1-14.3 27.6-18.6 9.7-4 20.1-6.5 30.4-8.5 21.1-4.1 42.8-6.2 62.7-14.7 2.4-1 4.8-2.2 7.1-3.4 2.8-1.5.3-5.7-2.5-4.3-18.9 10-40.6 12.6-61.5 16.4-21.1 3.7-42.3 8.9-59.3 22.7-9.5 7.6-17.5 16.9-26.4 25.2-8.6 8-17.6 15.6-27.7 21.6-18.5 11.1-42.4 16.8-63 7.9-10.9-4.7-18.5-14.2-29.2-19.2-10.3-4.8-21.9-6.3-33-4.2-2.7.5-5.4 1.3-8 2.2-3 1.2-1.8 5.9 1.2 4.8z" fill="url(#y)"/><linearGradient id="z" gradientUnits="userSpaceOnUse" x1="63.325" y1="103.046" x2="141.256" y2="103.046" gradientTransform="translate(0 2)"><stop offset=".006" stop-color="#28356e"/><stop offset=".227" stop-color="#242f66"/><stop offset=".541" stop-color="#231f53"/><stop offset=".765" stop-color="#1e1042"/><stop offset=".994" stop-color="#21112e"/></linearGradient><path d="M73.3 88.7c7.2 8.1 9.8 19.5 16.8 27.7 2.5 2.9 5.5 5.5 8.7 7.6 5.7 3.9 12.2 6.9 19.1 6.8s13.9-4.1 16.2-10.6c.7-2.1.9-4.4 1.9-6.3 1-2 2.6-2.4 5.3-2.5-2-2.3-5.8-2.1-8.2-.2s-2.7 6.6-4.3 9.1c-4.4 6.7-9 8.3-15.8 6.9-9.6-2-18.5-10.7-23.9-18.9-3.6-5.3-6.6-11-9-16.9-1.3-3.1-2.5-6.3-4.5-9-1.5-2-11.2-5.7-12.2.1-.4 2.4 3-1.6 9.9 6.2z" fill="url(#z)"/><linearGradient id="A" gradientUnits="userSpaceOnUse" x1="186.064" y1="70.152" x2="233.964" y2="70.152" gradientTransform="translate(0 2)"><stop offset=".006" stop-color="#28356e"/><stop offset=".227" stop-color="#242f66"/><stop offset=".541" stop-color="#231f53"/><stop offset=".765" stop-color="#1e1042"/><stop offset=".994" stop-color="#21112e"/></linearGradient><path d="M192.5 86.4c3.3-1.4 7-1.6 10.7-1.7 3.6-.1 7.3-.3 10.7-1.7 3.6-1.5 6.5-4.5 8-8.2 1.2-3.1 1.3-6.5 1.6-9.9.2-3.3.6-6.8 2.4-9.6 1.7-2.9 5-5 8.3-4.4-3.4 2.5-5.3 4.2-6.4 9.1-.9 4-1.8 8.2-2.2 12.2-.3 3.1-1.9 6.3-3.6 8.9-2.4 3.9-7.1 5.8-11.6 6.5s-9.2.5-13.6 1.5c-1.9.4-3.8 1.1-5.6 1.9-1.4.6-3.4 2.5-4.8 2.6-.2-3.2 3.4-6 6.1-7.2z" fill="url(#A)"/><linearGradient id="B" gradientUnits="userSpaceOnUse" x1="236.537" y1="49.763" x2="307.156" y2="49.763" gradientTransform="translate(0 2)"><stop offset=".006" stop-color="#28356e"/><stop offset=".227" stop-color="#242f66"/><stop offset=".541" stop-color="#231f53"/><stop offset=".765" stop-color="#1e1042"/><stop offset=".994" stop-color="#21112e"/></linearGradient><path d="M243.4 63.2c3.7 5.6 12.9 11.4 19.6 11.4 4.6 0 15.3-5.4 20.1-22.2 1.6-5.7 2.8-11.7 5.2-17.1 2.5-5.4 7.1-9.4 13.1-9.6 2.1 0 4.8.5 5.8 1.4-3.2.6-5.4.9-9.3 1.6-4.6.8-6.2 6.9-7.7 11.3-2.1 6.3-3.6 12.8-6.1 18.9s-6.2 12-11.6 15.8c-2.6 1.8-5.7 3.1-9 3.2-1.8.1-3.6-.2-5.4-.6-5.1-1.3-9.8-4.1-13.5-7.8-3.3-3.3-7.6-8.8-8-13.8-.4-4.9 5.5 5.6 6.8 7.5z" fill="url(#B)"/><linearGradient id="C" gradientUnits="userSpaceOnUse" x1="76.681" y1="143.785" x2="111.113" y2="143.785" gradientTransform="translate(0 2)"><stop offset=".006" stop-color="#131636"/><stop offset=".096" stop-color="#161333"/><stop offset=".186" stop-color="#181328"/><stop offset=".994" stop-color="#12121a"/></linearGradient><path d="M83 130.6c-1.3.1-2.7.2-4 .8s-2.3 1.7-2.4 3.1c-.1 1.8 1.5 3.2 3.2 3.7 1.7.4 3.5 0 5.2-.5 1.6-.4 3.2-.8 4.9-1.2.6 1.1-.1 2.5-1.2 3.2s-2.2.9-3.4 1.3c-3 1-5.7 3.1-7.3 5.8-.6 1.1-1.1 2.3-.8 3.5.5 1.9 3 2.7 5 2.2 1.9-.6 3.5-2 5-3.2.6-.4 1.2-.9 1.9-.7 1.3.4.9 2.3.3 3.6-1.3 2.6-2.3 5.6-1.6 8.4s3.4 5.3 6.3 4.8c3.2-.6 4.6-4.3 4.8-7.5.2-2.6-.1-5.2-.8-7.7 1.7 1.8 4 3 6.4 3.3 1.1.1 2.4 0 3.2-.8 1.2-1.4-.1-3.6-1.3-5-1.9-2-3.7-4.1-5.5-6.2-.8-.9-1.6-2.6-.5-3.2.2-.1.6-.1.8-.1 3.1.2 5.4 4.6 8.3 3.4 2.1-.9 1.9-4 .6-5.8-2-2.7-5.4-3.7-8.5-4.9s-5.2-2.6-7.6-4.7c-.8 1.2-.7 2.7-2.1 3.6-2.1 1.1-6.5.7-8.9.8z" fill="url(#C)"/><linearGradient id="D" gradientUnits="userSpaceOnUse" x1="85.292" y1="89.264" x2="111.371" y2="89.264" gradientTransform="translate(0 2)"><stop offset=".006" stop-color="#131636"/><stop offset=".096" stop-color="#161333"/><stop offset=".186" stop-color="#181328"/><stop offset=".994" stop-color="#12121a"/></linearGradient><path d="M87.1 91.3c-.2-2.1-.4-4.1-.4-6.2 0-.6 0-1.1.3-1.6.7-1 2.4-.6 3.2.4.7 1 1 2.3 1.8 3.2.2.3.6.6 1 .6.3 0 .6-.2.8-.5.7-.9.9-2.1 1-3.2.1-1.2.2-2.4.8-3.3.6-.9 2.1-1.5 3-.7.7.6.8 1.5.7 2.4-.1.9-.4 1.8-.1 2.6.2.8 1.1 1.7 1.9 1.3.5-.2.7-.6 1-1 .8-1.5 1.3-3.3 2.7-4.3 1.4-1 3.6-.7 4.7.7s.9 3.6-.4 4.7c-1.8 1.6-4.7 1-6.7 2.4-.3.2-.6.6-.6.9-.1.9 1.1 1.3 2 1.3 2 0 4-.2 5.9.5.8.3 1.7.9 1.9 1.7.2.8-.2 1.6-.7 2.2-1.6 1.7-4.4 1.4-6.6.8s-4.6-1.6-6.8-.9c-.3.1-.7.3-.8.6-.2.5.4 1 .9 1.2 2.2 1 4.6 1.7 6.5 3.3.2.2.4.4.5.6.2.6-.3 1.3-.9 1.6-2.2 1.2-4.8-.6-6.9-1.8-3.4-2-7.3-3.2-11.2-3.3-.1-.2.1-.5.3-.6 1.5-1.2 1.4-3.7 1.2-5.6z" fill="url(#D)"/><linearGradient id="E" gradientUnits="userSpaceOnUse" x1="158.986" y1="112.753" x2="190.625" y2="112.753" gradientTransform="translate(0 2)"><stop offset=".006" stop-color="#131636"/><stop offset=".096" stop-color="#161333"/><stop offset=".186" stop-color="#181328"/><stop offset=".994" stop-color="#12121a"/></linearGradient><path d="M162 124.2c-.9-.3-1.9-.5-2.5-1.3-1.3-1.5.3-4 2.3-4.4 1.9-.3 3.8.7 5.5 1.8.9.6 2.2 1.2 3 .5 1-.9 0-2.5-1.1-3.4-1.7-1.5-3.3-3-5-4.5-1.5-1.3-3.1-3.5-1.9-5 1.2-1.5 3.6-.7 4.9.7 1.3 1.3 2.3 3.2 4.1 3.8.6.2 1.4.2 1.9-.3.6-.6.5-1.5.4-2.3-.4-2.7-.7-5.5-1.2-8.2-.2-1.3-.4-2.7 0-3.9.4-1.3 1.5-2.5 2.8-2.5 2.2 0 3.2 2.8 3.4 5 .3 3.5.2 7-.1 10.5l2.9-2.9c1.4-1.4 2.9-2.8 4.8-3.2s4.3.7 4.4 2.6c.1 1.5-1.1 2.8-2.5 3.5s-2.9.9-4.3 1.6c-2.3 1.2-4 3.6-4.3 6.2 1.9.5 3.6-.8 5.2-1.8s4-1.5 5.2 0c.4.6.6 1.3.6 1.9.1 2.7-1.7 5.4-4.2 6.4-1.2.5-2.4.6-3.6.9-4 1.2-6.3 4.7-7.1 8.5-1.8-5.5-8.3-8.8-13.6-10.2z" fill="url(#E)"/><linearGradient id="F" gradientUnits="userSpaceOnUse" x1="284.803" y1="60.074" x2="317.687" y2="60.074" gradientTransform="translate(0 2)"><stop offset=".006" stop-color="#131636"/><stop offset=".096" stop-color="#161333"/><stop offset=".186" stop-color="#181328"/><stop offset=".994" stop-color="#12121a"/></linearGradient><path d="M290.2 76.2c1.8 1.7 5.3 1.5 6.1-.7 1-2.8-2.6-5.1-2.9-8 0-.4 0-.7.2-1.1.4-.7 1.4-.8 2.2-.5.7.4 1.3 1.1 1.7 1.7 1.2 1.7 2.4 3.3 3.6 5 .8 1.1 1.6 2.2 2.8 2.9 1.2.7 2.8.8 3.8 0 1.7-1.4.8-4.2-.8-5.7s-3.7-2.5-4.7-4.4c-.1-.3-.3-.6-.2-.9.1-.3.4-.4.7-.6 2.4-.8 4.8.8 7.3 1.3 1.9.3 3.8 0 5.4-1 1.9-1.2 3.2-3.8 1.9-5.5-.7-.9-1.9-1.3-3.1-1.5-3.2-.5-6.7 0-9.6 1.3-1.3.6-3.2 1.2-3.8-.2-.1-.4-.1-.8 0-1.3.6-1.8 2.3-2.9 3.6-4.1 1.3-1.3 2.5-3.3 1.4-4.9-1-1.6-3.6-1.3-5 0s-1.9 3.2-2.7 4.9c-.7 1.7-1.7 3.2-2.9 4.6-.5.6-1.1 1.2-1.8 1.1-.7-.1-1.2-1-1.2-1.7 0-.8.4-1.4.8-2.1.7-1.4 1.3-2.9 1.6-4.5.1-.4.1-.8 0-1.2-.4-.8-1.7-.6-2.4 0-2.4 1.8-3 5-3.8 7.8-.6 2.2-2.5 3.5-3.2 5.4-.7 1.7-.1 1.6.8 3.1 1.8 3.4 1.2 8.1 4.2 10.8z" fill="url(#F)"/><linearGradient id="G" gradientUnits="userSpaceOnUse" x1="66.825" y1="84.403" x2="73.743" y2="84.403" gradientTransform="translate(0 2)"><stop offset=".006" stop-color="#28356e"/><stop offset=".227" stop-color="#242f66"/><stop offset=".541" stop-color="#231f53"/><stop offset=".765" stop-color="#1e1042"/><stop offset=".994" stop-color="#21112e"/></linearGradient><path d="M70.2 88.3c1.2-.1 2.5.1 3.6.6-.5-.6-1-1.1-1.5-1.7-.7-.7-1.4-1.5-2.3-2.1s-2-1-3.1-1.1c1.5 1.1 2.8 2.4 3.3 4.3z" fill="url(#G)"/><linearGradient id="H" gradientUnits="userSpaceOnUse" x1="134.876" y1="112.003" x2="140.389" y2="112.003" gradientTransform="translate(0 2)"><stop offset=".006" stop-color="#28356e"/><stop offset=".227" stop-color="#242f66"/><stop offset=".541" stop-color="#231f53"/><stop offset=".765" stop-color="#1e1042"/><stop offset=".994" stop-color="#21112e"/></linearGradient><path d="M138.6 114.4c-.1-.6 0-1.4.2-2 .2-.4.4-.7.8-.8-.8.2-1.7.4-2.4.8s-1.3 1.1-1.6 1.8c-.4.7-.6 1.5-.8 2.3h3.4c.2 0 1.8-.1 2-.2s-1-.1-1.1-.3c-.1-.5-.3-1.1-.5-1.6z" fill="url(#H)"/><linearGradient id="I" gradientUnits="userSpaceOnUse" x1="186.62" y1="89.103" x2="201.272" y2="89.103" gradientTransform="translate(0 2)"><stop offset=".006" stop-color="#28356e"/><stop offset=".227" stop-color="#242f66"/><stop offset=".541" stop-color="#231f53"/><stop offset=".765" stop-color="#1e1042"/><stop offset=".994" stop-color="#21112e"/></linearGradient><path d="M193 90.1c.6-.2 1.3-.4 1.9-.5 2.1-.5 4.3-1 6.5-1.1-1.2.9-2.3 1.8-3.3 2.8-.5.5-1 1-1.7 1.1-.4 0-.7-.1-1.1-.1-.7-.1-1.4-.2-2.2-.1-2.2.1-4.5.6-6.5 1.6 1-.6 1.9-1.4 3-2 1.1-.8 2.2-1.3 3.4-1.7z" fill="url(#I)"/><linearGradient id="J" gradientUnits="userSpaceOnUse" x1="226.711" y1="59.153" x2="229.74" y2="59.153" gradientTransform="translate(0 2)"><stop offset=".006" stop-color="#28356e"/><stop offset=".227" stop-color="#242f66"/><stop offset=".541" stop-color="#231f53"/><stop offset=".765" stop-color="#1e1042"/><stop offset=".994" stop-color="#21112e"/></linearGradient><path d="M226.7 64.1l3-3c-.6-.3-1.1-1-1.3-1.6-.1-.4-.1-.8-.2-1.2-.6.2-.8 2.1-.9 2.6-.2 1-.4 2.1-.6 3.2z" fill="url(#J)"/><linearGradient id="K" gradientUnits="userSpaceOnUse" x1="291.998" y1="29.803" x2="296.556" y2="29.803" gradientTransform="translate(0 2)"><stop offset=".006" stop-color="#28356e"/><stop offset=".227" stop-color="#242f66"/><stop offset=".541" stop-color="#231f53"/><stop offset=".765" stop-color="#1e1042"/><stop offset=".994" stop-color="#21112e"/></linearGradient><path d="M293.8 31.4c.7-1 1.7-1.8 2.8-2.3-1.3 1.2-1.8 3.2-1.1 4.9 0-.1-1.3.2-1.5.2-.5.1-1.5.3-1.9.4 0 0 .7-1.6.9-1.9.2-.4.4-.8.8-1.3z" fill="url(#K)"/><linearGradient id="L" gradientUnits="userSpaceOnUse" x1="174.475" y1="111.653" x2="187.45" y2="111.653" gradientTransform="translate(0 2)"><stop offset=".006" stop-color="#28356e"/><stop offset=".227" stop-color="#242f66"/><stop offset=".541" stop-color="#231f53"/><stop offset=".765" stop-color="#1e1042"/><stop offset=".994" stop-color="#21112e"/></linearGradient><path d="M175.6 114.1c-.3 5.5-1 11-.7 16.5.3-2.4 1.9-4.6 4.1-5.7 2-1 4.4-1 6.4-1.9.8-.4 1.7-1 1.9-1.9.3-.9-.1-2-1-2.2-.4-.1-.8 0-1.3.1-1.9.6-3.8 1.5-5.8 1.7-.6 0-1.2 0-1.7-.4-.4-.3-.5-.9-.6-1.4-.2-2.3 1.3-4.4 2.9-6 1.7-1.6 3.7-2.7 5.3-4.4.3-.2.5-.6.3-.9-.1-.1-.2-.1-.4-.2-.6-.1-1.3.2-1.8.6-1.7 1-3.2 2.1-4.7 3.4-.3.3-.7.6-1.1.5-.6-.2-.6-1-.5-1.6.2-1.3.1-2.8 0-4.1-.2-2.6-.5-5.2-.9-7.8 0-.4-.1-.8-.3-1.1-.6-.9-1.8-.5-1.4.5.3 1.2.6 2.2.8 3.5.4 2.7.5 5.4.4 8.1.3 1.6.2 3.1.1 4.7z" fill="url(#L)"/><linearGradient id="M" gradientUnits="userSpaceOnUse" x1="286.361" y1="65.138" x2="316.22" y2="65.138" gradientTransform="translate(0 2)"><stop offset=".006" stop-color="#28356e"/><stop offset=".227" stop-color="#242f66"/><stop offset=".541" stop-color="#231f53"/><stop offset=".765" stop-color="#1e1042"/><stop offset=".994" stop-color="#21112e"/></linearGradient><path d="M289.7 61.9c4.8-1.2 9.6-2 14.5-2.6 1.6-.2 3.2-.4 4.9-.3 1.2 0 2.4.2 3.5.4 1.2.2 2.3.6 3.2 1.3.3.2.6.6.3.9 0 0-.1.1-.2.1-1.1.7-2.4.8-3.7.6-1.3-.2-2.5-.7-3.7-1-2-.6-4.2-.7-6.3-.4-.7.1-1.5.3-1.9.9-.3.5-.3 1-.2 1.6 0 .8.2 1.7.6 2.5 1.1 2.5 4.3 3.7 4.8 6.3.1.5 0 1.1-.3 1.4-.6.5-1.5 0-2-.6-.9-1-1.4-2.4-2.1-3.6-.6-1.2-1.5-2.4-2.5-3.3-.6-.6-1.3-1.3-2.2-1.6-.9-.4-1.9-.5-2.8-.5s-1.8.1-2.6.4c-.8.4-1.5 1-1.8 1.9-.3 1 .2 2.1.9 2.9.6.8 1.5 1.4 2.2 2.2.7.8 1.3 1.8 1.2 2.8 0 .2-.1.5-.2.7-.3.5-1 .6-1.5.4s-.9-.6-1.3-1c-1.3-1.7-1.5-3.9-1.9-6-.3-1.5-.8-3.1-1.9-4.2-.6-.6-.7-1 .2-1.5 1-.3 2-.5 2.8-.7z" fill="url(#M)"/><linearGradient id="N" gradientUnits="userSpaceOnUse" x1="82.882" y1="143.403" x2="104.212" y2="143.403" gradientTransform="translate(0 2)"><stop offset=".006" stop-color="#28356e"/><stop offset=".227" stop-color="#242f66"/><stop offset=".541" stop-color="#231f53"/><stop offset=".765" stop-color="#1e1042"/><stop offset=".994" stop-color="#21112e"/></linearGradient><path d="M90.1 132.1c-1.5.4-3.1.6-4.6 1-.3.1-.6.2-.8.5-.2.2-.2.7 0 .9.1.1.3.1.4.1 1.1 0 2.2-.2 3.2-.5 1.1-.2 2.2-.4 3.2 0s1.9 1.3 1.9 2.4c0 .6-.3 1.1-.7 1.6-1.6 2.1-4.4 3.2-6 5.3-.2.3-.3.6-.1.9.1.1.3.1.5.1 1.3-.1 2.1-1.3 3.3-1.6.3-.1.8 0 .9.3s-.1.6-.4.8c-1.9 1.6-4.3 2.4-6.4 3.6-.6.4-1.3.8-1.6 1.5-.1.1-.1.3-.1.5.1.4.8.3 1.2.1 1.6-.8 3.1-1.6 4.7-2.4.9-.5 2-.9 2.8-.4.7.5 1 1.5.8 2.4-.1 1.1-.7 2-1.1 3.1-.8 2.2-.9 4.6-.3 6.9.2.8.6 1.6 1.1 2.2.1.1.3.3.5.3.3 0 .5-.3.6-.6.5-1.3.9-2.6 1-3.9 0 1 .2 2 .4 3 0 .3.1.7.4 1s.6.4.9.3c.4-.2.4-.6.4-1.1.1-2.8-.2-5.6-.9-8.3-.2-.9-.5-1.9-.6-2.8-.1-.6 0-1.4.5-1.8.6-.5 1.4-.3 2 .1.6.4 1.1 1 1.6 1.4.7.6 1.8.8 2.7.7.2 0 .5-.1.6-.3.3-.4.1-.9-.1-1.4-1-1.8-2.2-3.3-3.6-4.7-.6-.6-1.2-1.1-1.6-1.8-.4-.6-.6-1.5-.3-2.2.4.2.7.3 1.1.5.5-.6.4-1.5 0-2.1s-.9-1.2-1.4-1.7c-.2-.3-.5-.6-.3-1 .1-.1.2-.2.4-.3.9-.3 1.8.5 2.5 1.1 1.3.9 3.1 1.3 4.7 1 .1 0 .2 0 .3-.1.1-.2 0-.4-.1-.6-.7-1-1.9-1.6-3.1-2.1-1.5-.7-3-1.4-4.5-2.2-1.2-.6-2.5-1.3-2.5-2.6-.2.4-.2.8-.5 1.2-.2.4-.6.7-1 1-.2 0-1.1.4-2 .7z" fill="url(#N)"/></svg>