<svg version="1.1" id="Layer_1" xmlns="http://www.w3.org/2000/svg" xmlns:xlink="http://www.w3.org/1999/xlink" x="0" y="0" width="1000" height="1000" xml:space="preserve"><style>.st3{fill:#feebde}.st11{fill:#676b86}.st32{fill:none;stroke:#e8ddb5;stroke-width:.6835;stroke-linecap:round;stroke-linejoin:round;stroke-miterlimit:10}.st77{opacity:.32;fill:#f9b2a3;enable-background:new}.st127{fill:#fff4f0}</style><defs><path id="XMLID_64_" d="M816.1 999.1l-632.2 1.4V-.5h632.2z"/></defs><clipPath id="XMLID_66_"><use xlink:href="#XMLID_64_" overflow="visible"/></clipPath><path id="XMLID_195_" clip-path="url(#XMLID_66_)" fill="#c1e4dc" d="M183.9-.9h633.8v1001.4H183.9z"/><defs><path id="XMLID_63_" d="M816.1 999.1l-632.2 1.4V-.5h632.2z"/></defs><clipPath id="XMLID_67_"><use xlink:href="#XMLID_63_" overflow="visible"/></clipPath><linearGradient id="XMLID_68_" gradientUnits="userSpaceOnUse" x1="503.21" y1="158.087" x2="499.022" y2="649.501" gradientTransform="translate(0 -208)"><stop offset=".019" stop-color="#c1e4dc" stop-opacity=".5"/><stop offset="1" stop-color="#fdd6bc" stop-opacity=".8"/></linearGradient><path id="XMLID_194_" opacity=".81" clip-path="url(#XMLID_67_)" fill="url(#XMLID_68_)" d="M183.9-.9h633.8v469.6H183.9z"/><defs><path id="XMLID_62_" d="M816.1 999.1l-632.2 1.4V-.5h632.2z"/></defs><clipPath id="XMLID_69_"><use xlink:href="#XMLID_62_" overflow="visible"/></clipPath><g clip-path="url(#XMLID_69_)"><path id="XMLID_193_" class="st3" d="M530.3 360.3v.4l-5.9 8.7-5.5 7.9h-335V187.8c10.7-2.4 22.2-2.2 32.4.8 24.7 6.9 44.5 25.1 63.3 42.5 10.1 9.5 20.2 18.8 30.3 28.3 4.2 4 8.7 7.9 15.8 5.5 4.4-1.4 7.9-4.7 9.9-8.9 7.7-15.8-2.8-35.8 16-48.3 5.3-3.6 11.7-5.5 18-5.5 15.6 0 29.1 8.9 40.6 18.8 25.1 22.2 43.9 51.4 53.6 83.5 2.2 7.1 11.7 8.9 15.8 2.8 0 0 0-.2.2-.2 4.2-6.3 7.3-14.2 17.2-13.8 5.5.2 10.7 3.2 13.8 7.7 12.5 17.2 19.3 38.2 19.5 59.3z"/><linearGradient id="XMLID_70_" gradientUnits="userSpaceOnUse" x1="425.701" y1="369.481" x2="284.701" y2="601.225" gradientTransform="translate(0 -208)"><stop offset=".011" stop-color="#c1e4dc" stop-opacity="0"/><stop offset="1" stop-color="#c1e4dc"/></linearGradient><path id="XMLID_192_" d="M530.3 360.3v.4l-5.9 8.7-5.5 7.9h-335V187.8c10.7-2.4 22.2-2.2 32.4.8 24.7 6.9 44.5 25.1 63.3 42.5 10.1 9.5 20.2 18.8 30.3 28.3 4.2 4 8.7 7.9 15.8 5.5 4.4-1.4 7.9-4.7 9.9-8.9 7.7-15.8-2.8-35.8 16-48.3 5.3-3.6 11.7-5.5 18-5.5 15.6 0 29.1 8.9 40.6 18.8 25.1 22.2 43.9 51.4 53.6 83.5 2.2 7.1 11.7 8.9 15.8 2.8 0 0 0-.2.2-.2 4.2-6.3 7.3-14.2 17.2-13.8 5.5.2 10.7 3.2 13.8 7.7 12.5 17.2 19.3 38.2 19.5 59.3z" opacity=".43" fill="url(#XMLID_70_)"/><path id="XMLID_191_" class="st3" d="M209.8 364.3c-2.6-17.4 7.1-35.8 22.9-43.5 15.8-7.7 36.4-4.2 48.5 8.7 3.4 3.6 7.9 8.1 12.1 5.7 3.2-1.8 3.6-5.9 3.4-9.5-.2-9.3-.6-18.6 2-27.7 2.6-8.9 8.5-17.4 17.2-20.4 10.7-3.8 22.4 1.6 32 7.5 19.2 11.9 36.4 27.1 50.6 44.7 3.6 4.5 9.5 9.5 14.2 6.1 3.4-2.4 3-7.5 4.5-11.3 2.2-5.3 8.7-8.1 14.6-7.7 5.9.4 11.3 3.4 16 6.7 9.5 6.3 18.2 14 25.7 22.9 3.2 3.8 7.3 8.1 12.1 7.1 4.5-.8 6.7-5.9 10.3-8.9 6.5-5.7 17.2-4.2 23.9 1.4 6.7 5.5 10.5 13.8 13.6 22-1 0-4.2 1.6-4.9 1.6l-318.7-5.4z"/><g><path id="XMLID_190_" class="st3" d="M817.5 299.2v64.1l-253.6.2c8.5-18 19.8-34.6 33-49.3 6.3-6.9 13.7-13.6 22.9-16 9.1-2.2 20.4 1.6 23.5 10.5 1.4 3.8 1.6 8.3 4.9 10.3 4.7 3 10.3-2.6 13.5-7.3 16.2-24.1 37.2-45.1 61.3-61.3 7.7-5.1 15.8-9.9 24.7-12.1 8.9-2.2 19-1.6 26.7 3.6 8.3 5.3 13.1 15 14.6 24.9 1.6 9.7.6 19.8 0 29.7-.4 5.5 0 12.5 4.9 14.8 4.9 2.4 10.3-1.4 14.6-4.9 3.1-2.6 6-5 9-7.2z"/><linearGradient id="XMLID_71_" gradientUnits="userSpaceOnUse" x1="715.323" y1="399.922" x2="685.542" y2="606.528" gradientTransform="translate(0 -208)"><stop offset=".011" stop-color="#c1e4dc" stop-opacity="0"/><stop offset="1" stop-color="#c1e4dc"/></linearGradient><path id="XMLID_189_" d="M817.5 299.2v64.1l-251.4.2h-2.4c8.5-18 19.8-34.6 33-49.3 6.3-6.9 13.7-13.6 22.9-16 9.1-2.2 20.4 1.6 23.5 10.5 1.4 3.8 1.6 8.3 4.9 10.3 4.7 3 10.3-2.6 13.5-7.3 16.2-24.1 37.2-45.1 61.3-61.3 7.7-5.1 15.8-9.9 24.7-12.1 8.9-2.2 19-1.6 26.7 3.6 8.3 5.3 13.1 15 14.6 24.9 1.6 9.7.6 19.8 0 29.7-.4 5.5 0 12.5 4.9 14.8 4.9 2.4 10.3-1.4 14.6-4.9 3.3-2.6 6.2-5 9.2-7.2z" opacity=".43" fill="url(#XMLID_71_)"/><path id="XMLID_188_" class="st3" d="M817.5 312.9v57.8l-253.6-4.9c.8-.8 1.4-1.6 2.2-2.4 11.3-12.3 25.9-21.6 41.9-26.1 5.1-1.6 11.5-2.4 15.4 1.4 2.8 2.8 3.4 7.1 6.5 9.7 2.8 2.2 6.9 2.2 10.3.6 3.4-1.4 5.9-4 8.5-6.5 14.8-13.8 31.8-25.3 50-34 10.5-4.9 23.3-8.9 33.4-3.4 6.7 3.8 10.9 11.3 12.5 18.8s.8 15.4.2 23.1c16.6-10.9 34-20.4 52-28.3 6.7-2.7 13.8-5.4 20.7-5.8z"/></g><g><linearGradient id="XMLID_72_" gradientUnits="userSpaceOnUse" x1="171.344" y1="674.877" x2="512.067" y2="674.877" gradientTransform="matrix(1 0 0 -1 0 1002)"><stop offset=".006" stop-color="#131536"/><stop offset=".096" stop-color="#151332"/><stop offset=".186" stop-color="#181327"/><stop offset=".994" stop-color="#11121a"/></linearGradient><path id="XMLID_187_" d="M512.1 375.8c0 3.8-2.8 7.7-7.7 7.7H185.1c-4 0-7.1-3-7.5-6.7l-4-36.6-2.2-18.8c-.4-3 1-5.7 3.6-7.3l67.3-42.1c1.6-1 3.4-1.4 5.1-1 1.4.2 2.6.8 3.8 1.6l40.8 32.8c.2.2.6.4.8.6 1.8 1.2 4 1.4 5.9.8l41.9-11.9c2.4-.6 4.9-.2 6.9 1.4.6.4 1.2 1 1.6 1.8l23.1 35.2c.2.2.2.4.4.6 1.4 1.8 3.6 2.8 5.7 3l38.4.8c.4 0 .8 0 1.2.2 1.6.2 3 1 4.2 2.2L450 369c1.6 1.6 3.8 2.6 5.9 2.4l48.1-3c1.2 0 2.6.2 3.8.8 2.9 1 4.3 3.8 4.3 6.6z" fill="url(#XMLID_72_)"/><linearGradient id="XMLID_73_" gradientUnits="userSpaceOnUse" x1="171.253" y1="513.314" x2="247.088" y2="513.314" gradientTransform="translate(0 -208)"><stop offset=".006" stop-color="#131536"/><stop offset=".096" stop-color="#151332"/><stop offset=".186" stop-color="#181327"/><stop offset=".994" stop-color="#11121a"/></linearGradient><path id="XMLID_186_" d="M247.2 270.7c-1.2 7.9-7.9 16.8-11.3 23.3-1.4 2.6-2.8 5.1-4.9 6.9s-5.7 2.4-8.1.8c-12.9 13.5-27.1 25.3-42.3 35.6-1.8 1.2-3.6 2.4-5.5 2.6h-1.4l-2.2-18.8c-.4-3 1-5.7 3.6-7.3l67.3-42.1c1.2-.8 3-1.2 4.8-1z" opacity=".5" fill="url(#XMLID_73_)"/><linearGradient id="XMLID_74_" gradientUnits="userSpaceOnUse" x1="288.722" y1="516.966" x2="347.173" y2="516.966" gradientTransform="translate(0 -208)"><stop offset=".006" stop-color="#131536"/><stop offset=".096" stop-color="#151332"/><stop offset=".186" stop-color="#181327"/><stop offset=".994" stop-color="#11121a"/></linearGradient><path id="XMLID_185_" d="M347.3 296c-1.2 1.4-2.8 2.6-4.4 3.6-3.4 2-7.3 3.4-9.7 6.3-2 2.4-3 5.5-4.7 7.9-2 2.4-5.7 4.2-8.1 2.2-1-.8-1.6-2-2.6-2.8-1.6-1.2-4-.8-5.7.2s-3 2.6-4.5 4c-4.9 4.7-12.1 6.9-18.8 6.1 1.6-6.1 2.6-11.9 3.6-18 1.8 1.2 4 1.4 5.9.8l41.9-11.9c2.5-.5 5.1.1 7.1 1.6z" opacity=".5" fill="url(#XMLID_74_)"/><linearGradient id="XMLID_75_" gradientUnits="userSpaceOnUse" x1="370.337" y1="550.376" x2="417.766" y2="550.376" gradientTransform="translate(0 -208)"><stop offset=".006" stop-color="#131536"/><stop offset=".096" stop-color="#151332"/><stop offset=".186" stop-color="#181327"/><stop offset=".994" stop-color="#11121a"/></linearGradient><path id="XMLID_184_" d="M417.7 337.4c-8.1 6.7-18.8 10.1-29.1 13.3-2.2.6-5.1 1-6.1-1-1-2.2 1.6-4.7.8-6.9s-3.6-2.4-5.7-2c-2.2.4-4.7 1-6.3-.8-1.4-1.4-1-3.8.2-5.3.2-.4.6-.6 1-1 1.4 1.8 3.6 2.8 5.7 3l38.4.8c.3-.3.7-.1 1.1-.1z" opacity=".5" fill="url(#XMLID_75_)"/></g><g><linearGradient id="XMLID_77_" gradientUnits="userSpaceOnUse" x1="188.424" y1="651.168" x2="350.839" y2="651.168" gradientTransform="matrix(1 0 0 -1 0 1002)"><stop offset=".006" stop-color="#28356e"/><stop offset=".227" stop-color="#252e66"/><stop offset=".541" stop-color="#221f53"/><stop offset=".765" stop-color="#1d1042"/><stop offset=".994" stop-color="#20102e"/></linearGradient><path id="XMLID_183_" d="M188.4 368.4c10.3-12.3 22.8-22.7 36.4-31.1 3.4-2 6.9-4 10.7-4.2 4-.2 8.1 1.8 9.3 5.5 1 3 0 6.7 2.4 8.9s6.1.4 8.9-1.4c5.3-3.4 10.7-7.1 16.8-8.7 6.1-1.4 13.5-.2 17.2 4.9 2 2.6 2.8 5.9 4.9 8.3 4 4.5 11.1 4.4 16.8 2.6 5.7-1.8 11.1-5.1 17.2-5.7 10.1-1 20.4 7.1 21.8 17.2-.4.2-2.2 1.4-2.6 1.4l-159.8 2.3z" fill="url(#XMLID_77_)"/><path id="XMLID_182_" class="st11" d="M603.9 364.1c5.9-5.3 12.1-10.9 19.4-14.4s15.8-5.3 23.5-2.6c4.4 1.4 8.3 4.4 12.9 4.7 5.5.6 10.9-2.6 15.4-5.9 8.3-6.1 15.6-13.3 24.1-19.2 8.5-5.9 18.2-10.5 28.5-10.5s21 5.7 24.5 15.2c2.4 6.3 2.4 14.6 8.3 17.8 8.1 4.2 17.2-6.3 26.1-4.5 6.1 1.2 9.7 7.5 15.4 9.9 5.7 2.4 12.3.2 18.6 0s13.8 3.6 13.5 9.7c-4 1.8-6.9 3-11.3 3l-218.9-3.2z"/></g></g><g><defs><path id="XMLID_61_" d="M816.1 999.1l-632.2 1.4V-.5h632.2z"/></defs><clipPath id="XMLID_78_"><use xlink:href="#XMLID_61_" overflow="visible"/></clipPath><path id="XMLID_181_" clip-path="url(#XMLID_78_)" fill="#fdd6bc" d="M178.9 553.8h639.2v446.7H178.9z"/><defs><path id="XMLID_60_" d="M816.1 999.1l-632.2 1.4V-.5h632.2z"/></defs><clipPath id="XMLID_164_"><use xlink:href="#XMLID_60_" overflow="visible"/></clipPath><g clip-path="url(#XMLID_164_)"><linearGradient id="XMLID_165_" gradientUnits="userSpaceOnUse" x1="490.883" y1="803.984" x2="511.832" y2="1301.172" gradientTransform="translate(0 -208)"><stop offset=".015" stop-color="#faf9f9" stop-opacity=".5"/><stop offset="1" stop-color="#e5999d" stop-opacity=".8"/></linearGradient><path id="XMLID_180_" opacity=".43" fill="url(#XMLID_165_)" d="M178.9 553.8h639.2v446.7H178.9z"/><linearGradient id="XMLID_166_" gradientUnits="userSpaceOnUse" x1="178.928" y1="1078.507" x2="818.104" y2="1078.507" gradientTransform="translate(0 -208)"><stop offset=".015" stop-color="#faf9f9" stop-opacity=".5"/><stop offset="1" stop-color="#e5999d" stop-opacity=".8"/></linearGradient><path id="XMLID_179_" d="M818.1 747.3v253H178.9V805.2c42.1-28.7 89.6-49.3 139.5-59.9 26.3-5.5 55.2-8.1 79.1 4.4 21.6 11.3 35.4 32.8 54.8 47.5 34.8 26.5 83.3 27.5 126.4 19.2 81.7-15.4 156.5-58.6 239-69.2 0 .3.2.1.4.1z" opacity=".43" fill="url(#XMLID_166_)"/><path id="XMLID_178_" class="st3" d="M818.1 575.8V629c-2.8.4-5.5.8-8.3 1.2-112.6 13.5-226.3 26.9-339.3 15.8-8.1-.8-16.4-1.8-23.3-5.7-7.1-4-12.7-11.5-11.7-19.6.6-4.2 2.8-8.3 2.4-12.5-.6-10.5-14.2-13.8-24.7-14.2-47.1-2.2-94.4-3-141.6-2.4-23.9.2-48.1.8-72 1.8-3.8.2-13.3 2-20.6 1.6v-22.4c.2-.2.4-.2.4-.4.4-.4 1-.8 1.4-1 7.1-4.7 15.6-6.9 23.9-8.9 12.3-3 24.5-5.7 36.8-8.5 90.2-20 182-34.2 274.6-35 82.5-.6 165.6 9.5 243.9 35 19.6 6.3 38.8 13.6 57.6 22h.5z"/></g><g><defs><path id="XMLID_59_" d="M816.1 999.1l-632.2 1.4V-.5h632.2z"/></defs><clipPath id="XMLID_167_"><use xlink:href="#XMLID_59_" overflow="visible"/></clipPath><linearGradient id="XMLID_168_" gradientUnits="userSpaceOnUse" x1="181.105" y1="514.786" x2="819.291" y2="514.786" gradientTransform="matrix(1 0 0 -1 0 1002)"><stop offset="0" stop-color="#076794"/><stop offset="1" stop-color="#086d65"/></linearGradient><path id="XMLID_177_" d="M819.3 360.1v250.4c-111.2 4.4-222.8 4.9-334.1 1.4-5.9-.2-12.3-.4-17.4-3.4-3-1.6-5.5-4.4-6.7-7.3 0-.2-.2-.4-.2-.6-.8-2.2-.8-4.5 0-6.5 1.6-4.4 6.7-7.5 6.9-12.1.2-4-2.8-6.5-6.9-7.9l-1.8-.6c-2.6-.6-5.5-1-8.1-1-90 .2-180 2-269.8 5.1V360.1h638.1z" clip-path="url(#XMLID_167_)" fill="url(#XMLID_168_)"/></g><g><defs><path id="XMLID_58_" d="M816.1 999.1l-632.2 1.4V-.5h632.2z"/></defs><clipPath id="XMLID_169_"><use xlink:href="#XMLID_58_" overflow="visible"/></clipPath><g clip-path="url(#XMLID_169_)"><linearGradient id="XMLID_170_" gradientUnits="userSpaceOnUse" x1="181.698" y1="771.857" x2="819.885" y2="771.857" gradientTransform="translate(0 -208)"><stop offset=".006" stop-color="#28356e"/><stop offset=".227" stop-color="#252e66"/><stop offset=".541" stop-color="#221f53"/><stop offset=".765" stop-color="#1d1042"/><stop offset=".994" stop-color="#20102e"/></linearGradient><path id="XMLID_176_" d="M819.9 528.9v82.7c-111.2 4.4-222.8 4.9-334.1 1.4-5.9-.2-12.3-.4-17.4-3.4-5.1-2.8-9.1-9.1-6.9-14.4 1.6-4.4 6.7-7.5 6.9-12.1.4-7.1-9.5-9.5-16.8-9.5-90 .2-180 2-269.8 5.1v-43.1c10.1-4 23.7-4 34.4-5.1 63.1-6.9 126.4-11.9 189.7-14.8 35.2-1.6 70.4-2.8 105.6-3.2 12.5-.2 26.3.4 34.8 9.5 5.1 5.5 7.1 13.5 12.3 19 8.3 9.1 22.4 9.7 34.8 9.3 60.3-1.4 120.5-7.7 179.8-18.6 13.8-2.6 28.1-5.3 41.9-3.8 1.6.4 3.2.6 4.8 1z" opacity=".3" fill="url(#XMLID_170_)"/><linearGradient id="SVGID_1_" gradientUnits="userSpaceOnUse" x1="183.281" y1="522.574" x2="822.061" y2="522.574" gradientTransform="matrix(1 0 0 -1 0 1002)"><stop offset=".006" stop-color="#28356e"/><stop offset=".227" stop-color="#252e66"/><stop offset=".541" stop-color="#221f53"/><stop offset=".765" stop-color="#1d1042"/><stop offset=".994" stop-color="#20102e"/></linearGradient><path d="M819.9 586.5l-325.6 11.1c-10.1.4-20.6.6-31.3.6 0 .2.2.4.2.6h4.4c9.1 0 18-.4 26.7-.6L819.9 587h1.6v-.6h-1.6zm0-19.6c-38.8 7.7-82.1 11.3-132.5 11.3h-5.9c-35.4-.2-71.2-2-105.8-3.8-29.5-1.6-59.9-3.2-89.8-3.6-8.1-.2-16.2-.2-24.3.2l1.8.6c7.3-.4 14.8-.4 22.4-.2 30.1.6 60.3 2.2 89.8 3.6 34.6 1.8 70.6 3.6 105.8 3.8 53.2.4 98.5-3.4 138.7-11.3.6-.2 1.2-.2 1.6-.4v-.6c-.6.2-1.2.2-1.8.4zm0-30.5h-71.6l-193.5-.2-103.7-.2c-78.7 0-160-.2-239.6 8.3h-.2c-8.9 1-18.6 2-27.9 2v.6c9.3 0 19-1 27.9-2h.2c79.5-8.5 160.8-8.3 239.6-8.3H555l189.1.2H821.5v-.6l-1.6.2zm-89.6-12.9c-61.5 1.4-124-.4-185.2-2.6-13.5-.4-27.1-1-40.6-1.6-33.4-1.2-67.5-2.6-101.5-3.6h-.2c-37.4-1-75-1.4-112.2-.8-34.2.6-72.2 2.2-107.4 12.1v.6c35.2-9.9 73.2-11.5 107.4-12.1 34.4-.6 69-.2 103.5.6h.2c37 1 73.8 2.4 110.2 3.8 13.6.6 27.3 1 41.1 1.6 60.9 2.2 123.2 4 184.6 2.6 29.3-.6 61.3-2.2 91.2-9.7v-.6c-29.8 7.6-61.9 9.1-91.1 9.7zm91.4-37.7c-21.4 2.6-42.9 2.6-63.9 2.4-4.9 0-9.9-.2-14.8-.2l-51.4-1.4c-10.1-.4-20.4-.8-30.5-1.2-24.5-1-48.9-2.2-72.8-3.4-131.8-6.5-267.9-13.1-399.2 9.3-1.8.2-3.8.8-5.5 1.4v.6c2-.6 4-1.2 5.7-1.4 68.6-11.7 138.7-15.4 208.7-15.4 63.7 0 127.6 3.2 190.5 6.3 18.6 1 37.4 1.8 56.4 2.8l-35.8-1c-74.2-2-150.7-4-225.9 1.6-54.8 4-110 12.1-163.2 20-9.1 1.4-18.2 2.8-27.3 4-1.8.2-5.1.6-8.7.4v.6c3.6.2 6.9-.2 8.7-.4 9.1-1.4 18.2-2.8 27.3-4 53.4-7.9 108.4-16 163.2-20 75.2-5.5 151.7-3.6 225.9-1.6l48.7 1.4 34.2 1c17.2.6 34.2 1 51.4 1.4l48.3 1.2c10.1.2 20.2.6 30.5 1.2v-.6c-10.1-.6-20.4-.8-30.5-1.2l-14.4-.4c14.8-.2 29.9-.8 44.9-2.4v-1h-.5zm0-32.5v-.6c-105.4-1.6-212.5-3-319.7-1-46.9-3.2-94.2-6.1-141.6-6.9-18-.4-36-.4-54 0-41.3 1-82.3 4-122.8 10.5v.6c40.8-6.5 82.1-9.7 123.4-10.5 16.8-.4 33.4-.4 50.2-.2 45.9.8 91.8 3.4 137.3 6.5-83.5 1.6-167 5.3-249.7 12.5l-4.5.4c-18.8 1.6-37.8 3.4-56.8 3.2v.6c19 .2 38.2-1.4 56.8-3.2l4.5-.4c85.3-7.3 171.1-11.1 257-12.7 6.9.4 13.6 1 20.4 1.4 98.5 6.7 200.4 13.8 299.3 3.4v-.6c-98.9 10.5-200.6 3.4-299.1-3.4-4.4-.2-8.7-.6-13.1-.8 104.8-1.8 209.3-.4 312.4 1.2zm-243-35.8l-83.5 1.4-3.6.6 88.4-1.4c-.3-.2-.9-.4-1.3-.6zm225.8 8.9c-69.4-.8-139.3-1-209.1-.4-49.9.4-99.5 1.2-149.4 2.2-47.5 1-95 2.4-142 4.2-23.1.8-46.3 1.8-69.2 2.8-17 .8-34.2 1.4-51.2.4v.6c17 1 34.2.2 51.2-.4 22.9-1 46.1-1.8 69.2-2.8 46.1-1.6 92.2-3 138.3-4 51.4-1.2 102.9-2 154.3-2.4 68.6-.6 137.5-.4 205.7.4 6.5 0 12.9.2 19.4.2v-.6c-5.8-.2-11.5-.2-17.2-.2zm14.4-36c-1.2-.2-2.6-.2-4.2-.2-209.7-5.7-422-1.4-631.5 13.1v.6c209.5-14.4 421.8-19 631.5-13.1 1.4 0 2.8.2 4.2.2 1 0 1.8.2 2.6.4v-.6c-.8-.2-1.6-.4-2.6-.4zm0 23.2c-3 .4-6.1.4-8.9.4l-231.3 3.6-83.5 1.4-190.5 3-44.7.6c-25.1.4-50.8.8-76.6 2.4v.6c25.5-1.6 51.4-2 76.6-2.4l44.9-.6 186.9-3 88.4-1.4 229.9-3.6c2.8 0 5.9 0 8.9-.4.8 0 1.8-.2 2.6-.4v-.6c-.9 0-1.7.2-2.7.4zm-194.7-53.5l-441 16v.6L642 360.1h-17.8zm185.4 5c-.4-2-1.4-3.6-2.6-4.9h-.8c1.4 1.4 2.4 3 2.8 4.9 1 5.3-3.8 10.3-8.9 12.5-5.5 2.4-12.1 2.4-17.8 2.4l-500.9 3.6c-30.1.2-65.7.4-98.1 9.1v.6c32.4-8.7 68.1-8.9 98.1-9.1l500.9-3.6c5.7 0 12.3-.2 18-2.4 5.3-2.2 10.3-7.6 9.3-13.1z" opacity=".24" fill="url(#SVGID_1_)"/></g></g><g><defs><path id="XMLID_45_" d="M816.1 999.1l-632.2 1.4V-.5h632.2z"/></defs><clipPath id="XMLID_171_"><use xlink:href="#XMLID_45_" overflow="visible"/></clipPath><linearGradient id="XMLID_172_" gradientUnits="userSpaceOnUse" x1="499.407" y1="681.688" x2="499.407" y2="513.225" gradientTransform="translate(0 -208)"><stop offset=".006" stop-color="#28356e"/><stop offset=".227" stop-color="#252e66"/><stop offset=".541" stop-color="#221f53"/><stop offset=".765" stop-color="#1d1042"/><stop offset=".994" stop-color="#20102e"/></linearGradient><path id="XMLID_163_" d="M818.9 360.1V422c-4.7 1.6-9.7 3-14.6 4.4-.8.2-1.4.4-2.2.6-32.2 8.9-65.3 15-98.5 18.4-30.3 3-61.9 3.2-89.6-9.3-6.1-2.8-11.9-6.1-17.6-9.3l-1.2-.6c-4.9-2.8-10.1-5.5-15.2-7.9-.4-.2-1-.4-1.4-.6-2-.8-4.2-1.6-6.3-2.4-21.4-6.7-44.5-2.6-66.7 1.6-3.6.6-7.1 1.4-10.7 2l-3.6.6c-15.2 3-30.5 5.7-45.5 8.7-1.4.2-2.6.4-4 .8-27.3 5.3-54.6 10.5-81.9 15.6-1 .2-2 .4-3.2.6-7.5 1.4-15 3-22.6 4.4-9.5 1.8-21.8 2-27.7-4.2l-.6-.6c-1.2-1.2-2-2.8-2.4-4.5-.6-2.4-.4-4.7-.2-7.1v-.6c.6-3.2 1.2-6.3.8-9.5v-.4c0-.2 0-.4-.2-.6-1.4-8.3-9.9-14-18.4-15.2-8.7-1.2-17.6 1.2-26.3 3.4-25.9 6.3-52.6 9.5-79.3 9.3v-59h639v-.5z" clip-path="url(#XMLID_171_)" fill="url(#XMLID_172_)"/></g></g><g><defs><path id="XMLID_44_" d="M816.1 999.1l-632.2 1.4V-.5h632.2z"/></defs><clipPath id="XMLID_173_"><use xlink:href="#XMLID_44_" overflow="visible"/></clipPath><linearGradient id="XMLID_174_" gradientUnits="userSpaceOnUse" x1="746.773" y1="666.172" x2="740.029" y2="696.233" gradientTransform="translate(0 -208)"><stop offset=".011" stop-color="#c1e4dc" stop-opacity="0"/><stop offset="1" stop-color="#8cb2af"/></linearGradient><path id="XMLID_162_" d="M821.7 486.4c-14.8 1.8-29.7 2.4-44.5 2.4l14.2.4c10.1.2 20.2.6 30.3 1.2v.6c-10.1-.6-20.2-.8-30.3-1.2l-48.1-1.2c-17-.4-34-.8-51-1.4l-34-1 3.8-1 30.3 1.2 51 1.4c4.9 0 9.7.2 14.6.2 20.8.2 42.3.2 63.5-2.4l.2.8z" opacity=".3" clip-path="url(#XMLID_173_)" fill="url(#XMLID_174_)"/></g><g><defs><path id="XMLID_43_" d="M816.1 999.1l-632.2 1.4V-.5h632.2z"/></defs><clipPath id="XMLID_175_"><use xlink:href="#XMLID_43_" overflow="visible"/></clipPath><g clip-path="url(#XMLID_175_)"><linearGradient id="XMLID_196_" gradientUnits="userSpaceOnUse" x1="708.322" y1="596.32" x2="692.035" y2="668.914" gradientTransform="translate(0 -208)"><stop offset=".006" stop-color="#131536"/><stop offset=".096" stop-color="#151332"/><stop offset=".186" stop-color="#181327"/><stop offset=".994" stop-color="#11121a"/></linearGradient><path id="XMLID_161_" d="M565.3 442.2L529.5 457c-2.2 1-2.2 4.2.2 4.9l12.3 3.8c5.9 1.8 11.9 3.8 18 4.7 26.1 4.5 52.6-4.9 79.1-3.6 11.7.6 23.3 3.6 35 4.9 17.4 2 34.8 1 52.2-.2l127.4-8.3c1.2 0 2.2-1 2.4-2.2.8-3.6 2-7.1 2.8-10.5.4-1.6-.6-3-2.2-3.2-95.8-10-202.8-41.7-291.4-5.1z" opacity=".3" fill="url(#XMLID_196_)"/><linearGradient id="XMLID_197_" gradientUnits="userSpaceOnUse" x1="539.615" y1="620.539" x2="848.803" y2="620.539" gradientTransform="matrix(1 0 0 -1 0 1002)"><stop offset=".006" stop-color="#131536"/><stop offset=".096" stop-color="#151332"/><stop offset=".186" stop-color="#181327"/><stop offset=".994" stop-color="#11121a"/></linearGradient><path id="XMLID_160_" d="M848.2 457.1c.2 1.6-1 3-2.6 3H569.8c-3.8 0-17 0-26.3-1-.6 0-1-.2-1.6-.2-2.6-.4-3.2-3.8-1-4.9 20.4-10.9 43.1-25.9 64.5-37.8 10.3-5.7 20.2-10.7 29.3-14.2 13.1-4.9 27.5-5.7 41.5-4.2 3.8.4 7.5.8 11.1 1.6 5.5 1 11.5 2 16.8.6h.2c.8-.2 1.6-.4 2.4-.8 10.3-4.4 12.9-17.4 17.6-27.7 5.9-12.9 17.2-22.9 30.5-27.5.6-.2 1-.4 1.6-.6 11.3-3.6 23.3-3.2 34.8-5.7 20.8-4.9 37.6-19.2 53.2-34 1.8-1.6 4.7-.2 4.4 2.2-2.6 20.4-4.4 40.6-5.3 60.7-1.1 30.1-.1 60 4.7 90.5z" fill="url(#XMLID_197_)"/><linearGradient id="XMLID_198_" gradientUnits="userSpaceOnUse" x1="543.522" y1="621.253" x2="848.195" y2="621.253" gradientTransform="translate(0 -208)"><stop offset=".006" stop-color="#131536"/><stop offset=".096" stop-color="#151332"/><stop offset=".186" stop-color="#181327"/><stop offset=".994" stop-color="#11121a"/></linearGradient><path id="XMLID_159_" d="M848.2 457.1c.2 1.6-1 3-2.6 3H569.8c-3.8 0-17 0-26.3-1 1.2-1.4 3-2.8 4.9-4.2 15.8-11.3 37.6-16.8 55.4-24.1 1.8-.8 3.6-1.4 5.3-2 6.7-2.4 13.7-4 20-1.4 5.3 2.2 9.1 6.7 14.2 9.3 10.9 5.5 23.9.4 34.8-5.3 10.7-5.7 22.6-12.3 34.4-9.7 10.1 2.2 18.2 10.7 28.5 11.1 9.1.4 17-5.5 23.9-11.3 17.6-14 35.4-28.3 53-42.3 7.5-6.1 15.8-12.5 25.5-12.7-1 30.2 0 60.1 4.8 90.6z" opacity=".5" fill="url(#XMLID_198_)"/><linearGradient id="XMLID_199_" gradientUnits="userSpaceOnUse" x1="695.65" y1="589.394" x2="754.8" y2="589.394" gradientTransform="translate(0 -208)"><stop offset=".006" stop-color="#131536"/><stop offset=".096" stop-color="#151332"/><stop offset=".186" stop-color="#181327"/><stop offset=".994" stop-color="#11121a"/></linearGradient><path id="XMLID_158_" d="M754.8 344.1c-.4 2.4-1.4 4.7-2.4 7.1-5.7 12.9-11.3 25.9-19.2 37.8-7.7 11.7-17.8 22.4-30.5 28.7-2.6 1.4-6.9 1.6-7.1-1.4 0-1 .4-1.8.8-2.6 2.4-4.5 5.1-8.9 7.9-13.6h.2c.8-.2 1.6-.4 2.4-.8 10.3-4.4 12.9-17.4 17.6-27.7 5.8-12.6 17-22.9 30.3-27.5z" opacity=".5" fill="url(#XMLID_199_)"/><linearGradient id="XMLID_200_" gradientUnits="userSpaceOnUse" x1="539.76" y1="645.83" x2="617.9" y2="645.83" gradientTransform="translate(0 -208)"><stop offset=".006" stop-color="#131536"/><stop offset=".096" stop-color="#151332"/><stop offset=".186" stop-color="#181327"/><stop offset=".994" stop-color="#11121a"/></linearGradient><path id="XMLID_157_" d="M617.1 441.8c-1.6 3-4.7 4.7-7.7 6.3-8.5 4.4-17.4 8.5-26.5 11.9h-13.1c-3.8 0-17 0-26.3-1-.6 0-1-.2-1.6-.2-2.6-.4-3.2-3.8-1-4.9 20.4-10.9 43.1-25.9 64.5-37.8 1.8-.4 3.8-.8 5.5-.2 3 .8 5.5 4.2 4.2 6.9-.8 1.8-3 2.6-4.5 3.8-.8.6-1.4 1.2-1.8 2.2-.4 1-.4 2 .2 3 1.2 1.4 3.4 1 5.1 1.6 3.6.9 4.6 5.5 3 8.4z" opacity=".19" fill="url(#XMLID_200_)"/><linearGradient id="XMLID_201_" gradientUnits="userSpaceOnUse" x1="648.37" y1="552.573" x2="844.217" y2="552.573" gradientTransform="matrix(1 0 0 -1 0 1002)"><stop offset=".006" stop-color="#131536"/><stop offset=".096" stop-color="#151332"/><stop offset=".186" stop-color="#181327"/><stop offset=".994" stop-color="#11121a"/></linearGradient><path id="XMLID_156_" d="M844.2 408.8c-4 29.1-7.5 53-11.3 81.7H648.4c18.6-16.8 53.4-7.7 72.2-25.1 6.5-6.1 10.9-15.6 19.6-18.2 8.9-2.6 19.2 3.6 27.7-.6 6.7-3.4 9.1-11.5 13.1-18 6.1-9.9 17.2-15.8 28.7-18.4 11-2.4 22.8-2 34.5-1.4z" fill="url(#XMLID_201_)"/></g></g><g><defs><path id="XMLID_20_" d="M816.1 999.1l-632.2 1.4V-.5h632.2z"/></defs><clipPath id="XMLID_202_"><use xlink:href="#XMLID_20_" overflow="visible"/></clipPath><path id="XMLID_155_" d="M414.5 619.7c19-42.5 46.9-81.3 81.1-113 1.8-1.8 11.9-10.1 4.4-11.1-3.6-.6-10.9 6.3-13.8 8.3-9.1 6.5-17.6 14-25.3 22.4-15.4 16.6-27.9 36-36.2 57.2-2.4 5.9-4.4 11.9-5.9 18-1.7 5.7-1.9 13-4.3 18.2z" clip-path="url(#XMLID_202_)" fill="none"/></g><g><defs><path id="XMLID_19_" d="M816.1 999.1l-632.2 1.4V-.5h632.2z"/></defs><clipPath id="XMLID_203_"><use xlink:href="#XMLID_19_" overflow="visible"/></clipPath><g clip-path="url(#XMLID_203_)"><linearGradient id="XMLID_204_" gradientUnits="userSpaceOnUse" x1="165.167" y1="165.102" x2="276.061" y2="165.102" gradientTransform="matrix(1 0 0 -1 0 1002)"><stop offset=".006" stop-color="#28356e"/><stop offset=".227" stop-color="#252e66"/><stop offset=".541" stop-color="#221f53"/><stop offset=".765" stop-color="#1d1042"/><stop offset=".994" stop-color="#20102e"/></linearGradient><path id="XMLID_154_" d="M263.6 746.7c-7.5 1.4-14.6 3.8-22.2 4.5 9.1 3 17.4 5.7 25.9 9.7 5.1 21 8.7 44.3 8.7 68.8-9.1-3.8-18.2-7.3-27.3-11.1 8.3 6.9 16.4 14 24.1 21.8.8.6 1.8 2 2.8 3.2v1c-1.8 28.7-7.3 53.6-14.4 74.8-4.4-9.3-8.7-18.6-12.9-28.1 2.6 5.5 3.4 29.5 8.3 40.6-19 49.5-44.9 75-44.9 75s-27.1-26.5-40-78.5c8.3-12.5 17.6-24.3 27.5-34.8-10.5 6.1-20.8 12.7-30.7 19.8-3.4-18.8-4.5-40.6-2.4-64.9 10.5-7.3 21.2-14.4 32-21.4-10.3 3.6-20.6 7.1-30.9 10.7 2.4-18.8 5.7-36 9.7-52 8.5-8.3 17.4-16.2 26.9-23.7-7.5 2.6-15 5.1-22.6 7.7 19-65.5 47.1-102.7 47.1-102.7s21.3 31.9 35.3 79.6z" fill="url(#XMLID_204_)"/><path id="XMLID_153_" class="st32" d="M226.8 681.8s-19.6 261.9-15 325.2"/></g><g><defs><path id="XMLID_17_" d="M816.1 999.1l-632.2 1.4V-.5h632.2z"/></defs><clipPath id="XMLID_205_"><use xlink:href="#XMLID_17_" overflow="visible"/></clipPath><g clip-path="url(#XMLID_205_)"><linearGradient id="XMLID_206_" gradientUnits="userSpaceOnUse" x1="191.647" y1="126.031" x2="418.694" y2="126.031" gradientTransform="matrix(1 0 0 -1 0 1002)"><stop offset=".006" stop-color="#131536"/><stop offset=".096" stop-color="#151332"/><stop offset=".186" stop-color="#181327"/><stop offset=".994" stop-color="#11121a"/></linearGradient><path id="XMLID_152_" d="M395.7 833.1c-6.7-3.8-13.6-6.3-20.2-10.3 5.1 7.9 9.9 15.4 14.2 23.9-9.1 19.6-21 40-36.6 59.2-4.7-8.7-9.5-17.2-14.2-25.9 2.2 10.7 4 21.4 5.1 32 .2 1 .2 2.6.2 4.4-.2.2-.4.4-.6.8-19.4 21.2-39.4 37-58.2 49.1 2.6-9.9 4.9-20 7.5-29.9-1.6 5.9-15.8 24.9-19 36.8-45.9 26.5-82.1 29.9-82.1 29.9s-4.4-37.6 18.2-86.3c14.2-4.5 28.9-7.9 43.3-9.9-12.1-2-24.1-3.2-36.2-4 9.3-16.8 22-34.4 39-52 12.7.8 25.5 2 38.4 3.6-10.3-3.8-20.6-7.3-30.7-11.1 13.6-13.1 27.1-24.5 40.2-34.4 11.9-1.2 23.9-1.8 35.8-1.6-7.5-2.8-15-5.5-22.4-8.1 56-39 101.1-50.4 101.1-50.4s-3.8 38.1-22.8 84.2z" fill="url(#XMLID_206_)"/><path id="XMLID_151_" class="st32" d="M407.8 759.5s-179.8 191.3-216 243.3"/><linearGradient id="XMLID_207_" gradientUnits="userSpaceOnUse" x1="183.281" y1="67.475" x2="433.333" y2="67.475" gradientTransform="matrix(1 0 0 -1 0 1002)"><stop offset=".006" stop-color="#131536"/><stop offset=".096" stop-color="#151332"/><stop offset=".186" stop-color="#181327"/><stop offset=".994" stop-color="#11121a"/></linearGradient><path id="XMLID_150_" d="M433.3 1000.5h-250V918c7.3-10.3 15.6-19.8 25.5-27.9 1.2-1 2.2-1.8 3.4-2.6.4-.2.8-.6 1.2-.8 14.8-10.9 33-17.8 51-18.2h.8c5.9 0 11.9.6 17.6 2 4.9 1.2 9.7 3.2 14 5.7.2.2.4.2.6.4 8.7 4.9 16.2 12.3 21.6 20.6.2.2.2.4.4.6 5.7 9.3 8.7 20 7.5 30.9 0 .8-.2 1.4-.2 2.2 0 .4 0 .6-.2 1-1.4 9.7-3.8 20.2 3 26.7.8.8 1.6 1.4 2.6 2 .2.2.4.2.8.4 3.8 2 8.5 2.2 12.9 1.4 5.7-1 10.9-3.6 16.4-5.1 10.9-3.2 22.7-3 33.4.6.4 0 .6.2 1 .4 6.3 2.2 12.3 5.5 17.4 9.7 3.4 2.8 6.3 5.9 8.9 9.5.2.2.4.4.4.6 5.1 6.2 8.5 14.1 10 22.4z" fill="url(#XMLID_207_)"/><linearGradient id="XMLID_208_" gradientUnits="userSpaceOnUse" x1="183.478" y1="70.344" x2="213.35" y2="70.344" gradientTransform="matrix(1 0 0 -1 0 1002)"><stop offset=".006" stop-color="#28356e"/><stop offset=".227" stop-color="#252e66"/><stop offset=".541" stop-color="#221f53"/><stop offset=".765" stop-color="#1d1042"/><stop offset=".994" stop-color="#20102e"/></linearGradient><path id="XMLID_149_" d="M213.4 886.6c-13.1 28.9-23.1 59.2-29.9 90.2v-3c6.7-29.5 16.4-58.6 28.9-86.3.2-.4.6-.6 1-.9z" fill="url(#XMLID_208_)"/><linearGradient id="XMLID_209_" gradientUnits="userSpaceOnUse" x1="187.039" y1="67.574" x2="265.18" y2="67.574" gradientTransform="matrix(1 0 0 -1 0 1002)"><stop offset=".006" stop-color="#28356e"/><stop offset=".227" stop-color="#252e66"/><stop offset=".541" stop-color="#221f53"/><stop offset=".765" stop-color="#1d1042"/><stop offset=".994" stop-color="#20102e"/></linearGradient><path id="XMLID_148_" d="M265.2 868.4c-30.1 41.3-56 85.7-77.3 132.1h-.9c21.4-46.5 47.3-90.8 77.2-132.1h1z" fill="url(#XMLID_209_)"/><linearGradient id="XMLID_210_" gradientUnits="userSpaceOnUse" x1="190.204" y1="63.717" x2="297.624" y2="63.717" gradientTransform="matrix(1 0 0 -1 0 1002)"><stop offset=".006" stop-color="#28356e"/><stop offset=".227" stop-color="#252e66"/><stop offset=".541" stop-color="#221f53"/><stop offset=".765" stop-color="#1d1042"/><stop offset=".994" stop-color="#20102e"/></linearGradient><path id="XMLID_147_" d="M297.6 876.5c-36 36.4-73.8 77.9-106.6 124h-.8c32.6-46.1 70.6-87.8 106.6-124.4.4.2.6.2.8.4z" fill="url(#XMLID_210_)"/><linearGradient id="XMLID_211_" gradientUnits="userSpaceOnUse" x1="207.218" y1="53.232" x2="319.583" y2="53.232" gradientTransform="matrix(1 0 0 -1 0 1002)"><stop offset=".006" stop-color="#28356e"/><stop offset=".227" stop-color="#252e66"/><stop offset=".541" stop-color="#221f53"/><stop offset=".765" stop-color="#1d1042"/><stop offset=".994" stop-color="#20102e"/></linearGradient><path id="XMLID_146_" d="M319.6 897.6c-39.4 31.8-76.6 66.3-111.4 102.9h-1c35-36.8 72.4-71.4 112-103.5.2.2.2.4.4.6z" fill="url(#XMLID_211_)"/><linearGradient id="XMLID_212_" gradientUnits="userSpaceOnUse" x1="231.946" y1="36.516" x2="326.902" y2="36.516" gradientTransform="matrix(1 0 0 -1 0 1002)"><stop offset=".006" stop-color="#28356e"/><stop offset=".227" stop-color="#252e66"/><stop offset=".541" stop-color="#221f53"/><stop offset=".765" stop-color="#1d1042"/><stop offset=".994" stop-color="#20102e"/></linearGradient><path id="XMLID_145_" d="M326.9 930.5c0 .4 0 .6-.2 1-32 21.6-63.5 44.7-93.6 69h-1.2c30.5-24.5 62.4-48.1 95-70z" fill="url(#XMLID_212_)"/><linearGradient id="XMLID_214_" gradientUnits="userSpaceOnUse" x1="264.191" y1="21.678" x2="332.837" y2="21.678" gradientTransform="matrix(1 0 0 -1 0 1002)"><stop offset=".006" stop-color="#28356e"/><stop offset=".227" stop-color="#252e66"/><stop offset=".541" stop-color="#221f53"/><stop offset=".765" stop-color="#1d1042"/><stop offset=".994" stop-color="#20102e"/></linearGradient><path id="XMLID_144_" d="M332.8 960.5c-22.8 12.9-45.1 26.3-67.3 40h-1.4c22.4-13.8 44.9-27.3 67.9-40.4.4.2.6.2.8.4z" fill="url(#XMLID_214_)"/><linearGradient id="XMLID_215_" gradientUnits="userSpaceOnUse" x1="309.098" y1="23.261" x2="396.735" y2="23.261" gradientTransform="matrix(1 0 0 -1 0 1002)"><stop offset=".006" stop-color="#131536"/><stop offset=".096" stop-color="#151332"/><stop offset=".186" stop-color="#181327"/><stop offset=".994" stop-color="#11121a"/></linearGradient><path id="XMLID_143_" d="M396.7 957.6l-86.1 42.7H309l86.6-43.1c.3.2.7.4 1.1.4z" fill="url(#XMLID_215_)"/><linearGradient id="XMLID_216_" gradientUnits="userSpaceOnUse" x1="361.917" y1="13.37" x2="423.441" y2="13.37" gradientTransform="matrix(1 0 0 -1 0 1002)"><stop offset=".006" stop-color="#28356e"/><stop offset=".227" stop-color="#252e66"/><stop offset=".541" stop-color="#221f53"/><stop offset=".765" stop-color="#1d1042"/><stop offset=".994" stop-color="#20102e"/></linearGradient><path id="XMLID_142_" d="M423.4 977.4c-20 7.3-40 15-59.7 23.1h-1.8c20.2-8.1 40.6-16 61.1-23.7.2.2.2.4.4.6z" fill="url(#XMLID_216_)"/><g><path id="XMLID_141_" class="st11" d="M140.9 1173.6c-.6 0-1-.4-1.2-1-.2-.6-15.6-50.4-15.8-120.9 0-64.9 13.5-161 77.9-250.2 123.2-170.3 220.8-215.6 221.8-216 .6-.4 1.6 0 1.8.6.4.6 0 1.6-.6 1.8-1 .4-97.9 45.5-220.8 215.2-64.1 88.6-77.3 184-77.3 248.7 0 70 15.4 119.5 15.6 120.1.2.8-.2 1.6-1 1.8 0-.1-.2-.1-.4-.1z"/><linearGradient id="XMLID_217_" gradientUnits="userSpaceOnUse" x1="346.487" y1="383.734" x2="433.926" y2="383.734" gradientTransform="matrix(1 0 0 -1 0 1002)"><stop offset=".006" stop-color="#131536"/><stop offset=".096" stop-color="#151332"/><stop offset=".186" stop-color="#181327"/><stop offset=".994" stop-color="#11121a"/></linearGradient><path id="XMLID_140_" d="M415.7 599.1c5.7-3.2 11.9-6.5 18.2-5.9-13.5 10.3-27.5 19.6-42.1 28.1-14.2 8.1-29.7 17-45.3 22.2 1.2-5.5 1.8-3.2 10.1-8.3 6.1-3.8 12.5-8.5 18.6-12.3 13.4-8.2 26.9-16.1 40.5-23.8z" fill="url(#XMLID_217_)"/><linearGradient id="XMLID_218_" gradientUnits="userSpaceOnUse" x1="346.685" y1="397.746" x2="396.339" y2="397.746" gradientTransform="matrix(1 0 0 -1 0 1002)"><stop offset=".006" stop-color="#131536"/><stop offset=".096" stop-color="#151332"/><stop offset=".186" stop-color="#181327"/><stop offset=".994" stop-color="#11121a"/></linearGradient><path id="XMLID_139_" d="M396.3 568.4c-2.2 2-3.6 6.3-4.9 8.9-1.8 3.2-3.8 6.3-5.5 9.5-4 6.3-7.9 12.7-12.3 18.8-8.1 11.7-16.6 24.7-26.9 34.4 9.1-27 28.7-52.6 49.6-71.6z" fill="url(#XMLID_218_)"/><linearGradient id="XMLID_219_" gradientUnits="userSpaceOnUse" x1="327.1" y1="387.755" x2="370.424" y2="387.755" gradientTransform="matrix(1 0 0 -1 0 1002)"><stop offset=".006" stop-color="#131536"/><stop offset=".096" stop-color="#151332"/><stop offset=".186" stop-color="#181327"/><stop offset=".994" stop-color="#11121a"/></linearGradient><path id="XMLID_138_" d="M370.4 571.4c-6.1 15-13.1 29.9-20.2 44.3-3.6 7.3-7.5 14.4-11.3 21.6-2 3.4-3.8 6.9-5.7 10.3-1.6 2.8-3.6 8.1-6.1 9.5 1-15.2 9.1-32.4 16-45.9 3.8-7.3 7.9-14.2 12.5-21 2.4-3.4 4.7-6.7 7.5-9.9 1.8-2.6 6.1-5.7 7.3-8.9z" fill="url(#XMLID_219_)"/><linearGradient id="XMLID_220_" gradientUnits="userSpaceOnUse" x1="327.891" y1="358.266" x2="419.88" y2="358.266" gradientTransform="matrix(1 0 0 -1 0 1002)"><stop offset=".006" stop-color="#131536"/><stop offset=".096" stop-color="#151332"/><stop offset=".186" stop-color="#181327"/><stop offset=".994" stop-color="#11121a"/></linearGradient><path id="XMLID_137_" d="M327.9 657.9c15.2-5.9 30.5-11.3 46.1-16.2 7.7-2.4 15.6-4.7 23.3-6.7 3.8-1 7.5-2 11.5-3 3-.8 8.1-3 11.1-2.2-11.7 9.9-29.7 16-44.1 20.4-7.7 2.4-15.8 4.2-23.7 5.5-4.2.6-8.1 1.2-12.3 1.6-3.6.2-8.9-.6-11.9.6z" fill="url(#XMLID_220_)"/><linearGradient id="XMLID_221_" gradientUnits="userSpaceOnUse" x1="308.492" y1="370.742" x2="339.365" y2="370.742" gradientTransform="matrix(1 0 0 -1 0 1002)"><stop offset=".006" stop-color="#131536"/><stop offset=".096" stop-color="#151332"/><stop offset=".186" stop-color="#181327"/><stop offset=".994" stop-color="#11121a"/></linearGradient><path id="XMLID_136_" d="M339.4 585.7c-4 15.8-8.5 31.5-13.6 46.9-2.6 7.7-5.3 15.4-8.1 22.9-1.4 3.8-2.8 7.3-4.2 11.1-1.2 3-2.4 8.5-4.7 10.3-1.4-15.2 4.4-33.4 9.3-47.7 2.6-7.7 5.7-15.2 9.3-22.6 1.8-3.8 3.8-7.3 5.9-10.9 1.5-2.9 5.3-6.9 6.1-10z" fill="url(#XMLID_221_)"/><linearGradient id="XMLID_222_" gradientUnits="userSpaceOnUse" x1="313.846" y1="339.596" x2="409.594" y2="339.596" gradientTransform="matrix(1 0 0 -1 0 1002)"><stop offset=".006" stop-color="#131536"/><stop offset=".096" stop-color="#151332"/><stop offset=".186" stop-color="#181327"/><stop offset=".994" stop-color="#11121a"/></linearGradient><path id="XMLID_135_" d="M409.6 648.6c-2.4.6-5.7 4.2-7.7 5.5-2.8 1.8-5.5 3.6-8.5 5.1-5.9 3.2-12.1 5.9-18.4 8.3-12.5 4.5-25.7 7.3-39 8.1-6.5.4-16 1.4-22.2-.8 31.3-11.2 63.7-18.9 95.8-26.2z" fill="url(#XMLID_222_)"/><linearGradient id="XMLID_223_" gradientUnits="userSpaceOnUse" x1="289.595" y1="358.18" x2="318.198" y2="358.18" gradientTransform="matrix(1 0 0 -1 0 1002)"><stop offset=".006" stop-color="#131536"/><stop offset=".096" stop-color="#151332"/><stop offset=".186" stop-color="#181327"/><stop offset=".994" stop-color="#11121a"/></linearGradient><path id="XMLID_134_" d="M318.2 592.2c-3.4 4.9-4.7 13.3-6.7 19-2.2 6.7-4.2 13.5-6.1 20.2-3.8 13.6-7.1 27.3-9.9 41.1-1.4 7.3-1.8 15.8-4.2 22.9-3-3.4-1.2-15.4-1-20 .4-7.1 1.2-14.4 2.6-21.6 2.6-14 7.1-27.9 13.3-40.8 3.5-7 7.4-14.1 12-20.8z" fill="url(#XMLID_223_)"/><linearGradient id="XMLID_224_" gradientUnits="userSpaceOnUse" x1="263.803" y1="342.354" x2="311.472" y2="342.354" gradientTransform="matrix(1 0 0 -1 0 1002)"><stop offset=".006" stop-color="#131536"/><stop offset=".096" stop-color="#151332"/><stop offset=".186" stop-color="#181327"/><stop offset=".994" stop-color="#11121a"/></linearGradient><path id="XMLID_133_" d="M276.7 656.5c8.5-22.2 21-42.9 34.8-62.1-15 32.8-27.9 66.9-38.2 101.5-2.8 9.5-4.5 20-8.1 29.1-2.6-2.2-.8-12.7-.6-16 .4-6.1 1.2-12.3 2.2-18.2 2.3-12 6.9-22.8 9.9-34.3z" fill="url(#XMLID_224_)"/><linearGradient id="XMLID_225_" gradientUnits="userSpaceOnUse" x1="231.679" y1="325.737" x2="266.17" y2="325.737" gradientTransform="matrix(1 0 0 -1 0 1002)"><stop offset=".006" stop-color="#131536"/><stop offset=".096" stop-color="#151332"/><stop offset=".186" stop-color="#181327"/><stop offset=".994" stop-color="#11121a"/></linearGradient><path id="XMLID_132_" d="M231.7 708.7c1.2-38.8 13.3-77 34.4-109.4-3.4 5.1-4.9 12.9-6.9 18.8-2.2 6.3-4.2 12.9-5.9 19.4-3.6 13.3-6.3 26.5-8.5 40.2-2 13.5-3.2 26.9-3.8 40.4-.2 6.9-.2 13.8 0 20.6 0 2.6 2.4 17.2-2.4 14.2-2-1.2-3.2-8.3-3.8-10.3-1-3.6-1.8-7.3-2.2-10.9-.9-7.8-1-15.5-.9-23z" fill="url(#XMLID_225_)"/><linearGradient id="XMLID_226_" gradientUnits="userSpaceOnUse" x1="214.783" y1="316.523" x2="233.776" y2="316.523" gradientTransform="matrix(1 0 0 -1 0 1002)"><stop offset=".006" stop-color="#131536"/><stop offset=".096" stop-color="#151332"/><stop offset=".186" stop-color="#181327"/><stop offset=".994" stop-color="#11121a"/></linearGradient><path id="XMLID_131_" d="M216.9 721c-5.5-38.4-.2-78.1 15.2-113.6-2.4 5.5-2.6 13.6-3.6 19.6-1 6.7-1.8 13.5-2.6 20.2-1.2 13.6-1.8 27.3-1.4 40.9.4 13.5 1.4 27.1 3.4 40.4 1 6.7 2.2 13.6 3.4 20.4.6 2.6 5.1 16.6 0 14.4-2.2-.8-4.5-7.5-5.3-9.5-1.6-3.4-3-6.9-4.2-10.5-2.3-7.1-3.9-14.6-4.9-22.3z" fill="url(#XMLID_226_)"/><linearGradient id="XMLID_227_" gradientUnits="userSpaceOnUse" x1="245.917" y1="340.525" x2="287.535" y2="340.525" gradientTransform="matrix(1 0 0 -1 0 1002)"><stop offset=".006" stop-color="#131536"/><stop offset=".096" stop-color="#151332"/><stop offset=".186" stop-color="#181327"/><stop offset=".994" stop-color="#11121a"/></linearGradient><path id="XMLID_130_" d="M246.6 692.5c3.6-38.6 17.8-76 40.9-107-3.6 4.9-5.7 12.7-7.9 18.2-2.6 6.3-4.9 12.7-7.1 19-4.4 12.9-7.9 26.1-10.9 39.6-2.8 13.3-4.9 26.7-6.1 40.2-.6 6.9-1 13.6-1.4 20.6 0 2.6 1.2 17.4-3.4 14-1.8-1.4-2.6-8.3-3.2-10.5-.8-3.6-1.2-7.3-1.6-11.1-.1-7.6.1-15.3.7-23z" fill="url(#XMLID_227_)"/><linearGradient id="XMLID_228_" gradientUnits="userSpaceOnUse" x1="204.28" y1="307.144" x2="223.248" y2="307.144" gradientTransform="matrix(1 0 0 -1 0 1002)"><stop offset=".006" stop-color="#131536"/><stop offset=".096" stop-color="#151332"/><stop offset=".186" stop-color="#181327"/><stop offset=".994" stop-color="#11121a"/></linearGradient><path id="XMLID_129_" d="M218.7 613.6c-3.8 9.7-4.2 22.4-5.3 32.6-1.2 11.3-2 22.6-2 33.8-.2 22.6 1.8 45.5 6.1 67.9 1 5.5 2.4 11.3 3.6 16.8.4 2 4.9 13.1-.4 11.3-2.6-.8-4.7-11.5-5.5-14-1.6-5.1-3.2-10.3-4.4-15.4-5.1-20.8-7.1-42.3-6.3-63.5.9-24 5.7-47.6 14.2-69.5z" fill="url(#XMLID_228_)"/><linearGradient id="XMLID_229_" gradientUnits="userSpaceOnUse" x1="153.409" y1="253.432" x2="196.535" y2="253.432" gradientTransform="matrix(1 0 0 -1 0 1002)"><stop offset=".006" stop-color="#131536"/><stop offset=".096" stop-color="#151332"/><stop offset=".186" stop-color="#181327"/><stop offset=".994" stop-color="#11121a"/></linearGradient><path id="XMLID_128_" d="M163.7 753.2c-6.7-22.8-9.7-46.7-10.3-70.4 8.1 35.2 18.8 70 31.9 103.7 3.6 9.3 8.5 18.6 11.3 27.9-3.4 0-8.5-9.5-10.3-12.3-3.4-5.1-6.5-10.3-9.3-15.8-5.6-10.7-8.8-22.2-13.3-33.1z" fill="url(#XMLID_229_)"/><linearGradient id="XMLID_230_" gradientUnits="userSpaceOnUse" x1="122.413" y1="233.549" x2="179.659" y2="233.549" gradientTransform="matrix(1 0 0 -1 0 1002)"><stop offset=".006" stop-color="#131536"/><stop offset=".096" stop-color="#151332"/><stop offset=".186" stop-color="#181327"/><stop offset=".994" stop-color="#11121a"/></linearGradient><path id="XMLID_127_" d="M149.3 807c-18.8-33.8-28.1-72.8-26.7-111.6-.2 6.1 2.4 13.7 3.8 19.6 1.4 6.5 3.2 13.3 4.9 19.8 3.8 13.1 8.1 26.1 13.3 38.8 5.1 12.5 11.1 24.7 17.6 36.6 3.4 5.9 6.9 11.9 10.5 17.8 1.4 2.2 10.9 13.7 5.3 13.5-2.4 0-6.9-5.3-8.5-6.9-2.8-2.6-5.1-5.3-7.5-8.3-5-6.2-9-12.7-12.7-19.3z" fill="url(#XMLID_230_)"/><linearGradient id="XMLID_231_" gradientUnits="userSpaceOnUse" x1="91.489" y1="215.734" x2="172.533" y2="215.734" gradientTransform="matrix(1 0 0 -1 0 1002)"><stop offset=".006" stop-color="#131536"/><stop offset=".096" stop-color="#151332"/><stop offset=".186" stop-color="#181327"/><stop offset=".994" stop-color="#11121a"/></linearGradient><path id="XMLID_126_" d="M136.8 824.4c-24.3-30.1-40.4-66.9-45.3-105.2.8 6.1 4.7 13.1 6.9 18.6 2.6 6.3 5.3 12.5 8.3 18.6 5.9 12.3 12.5 24.3 19.8 35.8 7.3 11.5 15 22.6 23.5 33 4.4 5.3 8.7 10.7 13.5 15.6 1.8 2 13.1 11.5 7.5 12.5-2.2.4-7.7-4.2-9.5-5.3-3.2-2.2-6.1-4.4-8.9-6.9-5.7-5.2-10.9-10.7-15.8-16.7z" fill="url(#XMLID_231_)"/><linearGradient id="XMLID_232_" gradientUnits="userSpaceOnUse" x1="139.158" y1="250.262" x2="188.751" y2="250.262" gradientTransform="matrix(1 0 0 -1 0 1002)"><stop offset=".006" stop-color="#131536"/><stop offset=".096" stop-color="#151332"/><stop offset=".186" stop-color="#181327"/><stop offset=".994" stop-color="#11121a"/></linearGradient><path id="XMLID_125_" d="M160.1 790.2c-16.8-34.8-23.7-74.4-20-113-.6 6.1 1.6 13.7 2.6 19.8 1 6.7 2.4 13.3 3.8 20 3 13.3 6.5 26.5 11.1 39.4 4.4 12.9 9.5 25.3 15.4 37.6 3 6.1 6.1 12.3 9.5 18.4 1.2 2.4 10.1 14.2 4.4 13.8-2.4-.2-6.5-5.7-8.1-7.5-2.6-2.8-4.9-5.7-7.1-8.7-4.4-6.1-8.2-12.9-11.6-19.8z" fill="url(#XMLID_232_)"/><linearGradient id="XMLID_233_" gradientUnits="userSpaceOnUse" x1="81.796" y1="208.806" x2="168.477" y2="208.806" gradientTransform="matrix(1 0 0 -1 0 1002)"><stop offset=".006" stop-color="#131536"/><stop offset=".096" stop-color="#151332"/><stop offset=".186" stop-color="#181327"/><stop offset=".994" stop-color="#11121a"/></linearGradient><path id="XMLID_124_" d="M81.8 724.1c1.8 10.3 7.9 21.4 12.1 30.7 4.7 10.3 9.9 20.4 15.6 30.1 11.5 19.6 24.9 38 40.2 55 3.8 4.4 7.7 8.5 11.7 12.5 1.4 1.4 10.9 8.7 5.5 9.9-2.6.6-9.9-7.5-12.1-9.3-4-3.6-7.9-7.3-11.7-11.1-15-15.2-27.9-32.6-38-51.2-11.2-20.9-19.3-43.4-23.3-66.6z" fill="url(#XMLID_233_)"/><linearGradient id="XMLID_234_" gradientUnits="userSpaceOnUse" x1="189.542" y1="297.188" x2="215.9" y2="297.188" gradientTransform="matrix(1 0 0 -1 0 1002)"><stop offset=".006" stop-color="#131536"/><stop offset=".096" stop-color="#151332"/><stop offset=".186" stop-color="#181327"/><stop offset=".994" stop-color="#11121a"/></linearGradient><path id="XMLID_123_" d="M198.1 624c-3 9.9-2.4 22.6-2.6 32.8-.4 11.3 0 22.6.8 33.8 1.6 22.6 5.5 45.1 11.7 67.1 1.6 5.5 3.2 10.9 4.9 16.4.6 2 5.9 12.7.6 11.3-2.6-.6-5.7-11.1-6.7-13.7-2-4.9-4-10.1-5.5-15-6.7-20.4-10.7-41.5-11.5-62.9-1.2-23.5 1.6-47.2 8.3-69.8z" fill="url(#XMLID_234_)"/><linearGradient id="XMLID_235_" gradientUnits="userSpaceOnUse" x1="169.62" y1="276.818" x2="208.417" y2="276.818" gradientTransform="matrix(1 0 0 -1 0 1002)"><stop offset=".006" stop-color="#131536"/><stop offset=".096" stop-color="#151332"/><stop offset=".186" stop-color="#181327"/><stop offset=".994" stop-color="#11121a"/></linearGradient><path id="XMLID_122_" d="M204.8 796.1c-30.9-39.8-42.5-93.8-30.7-142.6 1.2 42.5 11.9 84.7 29.3 123.4 3 6.7 5.1 11.7 4.9 18 .1 1.8-2.3 2.6-3.5 1.2z" fill="url(#XMLID_235_)"/><g><linearGradient id="XMLID_236_" gradientUnits="userSpaceOnUse" x1="278.435" y1="299.793" x2="415.924" y2="299.793" gradientTransform="matrix(1 0 0 -1 0 1002)"><stop offset=".006" stop-color="#131536"/><stop offset=".096" stop-color="#151332"/><stop offset=".186" stop-color="#181327"/><stop offset=".994" stop-color="#11121a"/></linearGradient><path id="XMLID_121_" d="M347.5 711.3c23.5-3.4 46.5-10.7 68.4-20-35.4 7.3-71.4 12.1-107.4 14.2-9.9.6-20.4 0-30.1 1.4 1.4 3.2 12.1 3.8 15.4 4.2 6.1 1 12.1 1.6 18.2 2 11.9.4 23.6-1.4 35.5-1.8z" fill="url(#XMLID_236_)"/><linearGradient id="XMLID_237_" gradientUnits="userSpaceOnUse" x1="295.052" y1="317.369" x2="419.485" y2="317.369" gradientTransform="matrix(1 0 0 -1 0 1002)"><stop offset=".006" stop-color="#131536"/><stop offset=".096" stop-color="#151332"/><stop offset=".186" stop-color="#181327"/><stop offset=".994" stop-color="#11121a"/></linearGradient><path id="XMLID_120_" d="M357.6 692.9c21.4-3.2 42.1-9.9 61.9-18.4-32 6.7-64.5 11.3-97.1 13.5-8.9.6-18.4 0-27.3 1.4 1.4 2.8 10.9 3.2 13.8 3.8 5.5.8 10.9 1.4 16.4 1.6 11.1.5 21.6-1.3 32.3-1.9z" fill="url(#XMLID_237_)"/><linearGradient id="XMLID_238_" gradientUnits="userSpaceOnUse" x1="248.518" y1="272.67" x2="401.087" y2="272.67" gradientTransform="matrix(1 0 0 -1 0 1002)"><stop offset=".006" stop-color="#131536"/><stop offset=".096" stop-color="#151332"/><stop offset=".186" stop-color="#181327"/><stop offset=".994" stop-color="#11121a"/></linearGradient><path id="XMLID_119_" d="M293.3 748.7c38.6-3 76.4-16.6 107.8-39.2-4.9 3.6-12.7 5.5-18.4 7.7-6.3 2.4-12.7 4.7-19.2 6.7-13.1 4.2-26.3 7.5-39.6 10.1s-26.7 4.4-40.2 5.5c-6.9.6-13.8.8-20.6 1-2.6 0-17.4-1.6-14.2 3 1.4 1.8 8.3 2.8 10.5 3.2 3.6.8 7.3 1.4 11.1 1.8 7.5 1 15.3.8 22.8.2z" fill="url(#XMLID_238_)"/><linearGradient id="XMLID_239_" gradientUnits="userSpaceOnUse" x1="234.962" y1="246.885" x2="389.811" y2="246.885" gradientTransform="matrix(1 0 0 -1 0 1002)"><stop offset=".006" stop-color="#131536"/><stop offset=".096" stop-color="#151332"/><stop offset=".186" stop-color="#181327"/><stop offset=".994" stop-color="#11121a"/></linearGradient><path id="XMLID_118_" d="M279.4 770.6c38.8 0 77.3-10.9 110.4-31.1-5.1 3.2-13.1 4.5-19 6.3-6.5 2-13.1 3.8-19.6 5.3-13.3 3.2-26.7 5.5-40.4 7.3-13.5 1.6-26.9 2.4-40.6 2.6-6.9 0-13.8-.2-20.6-.6-2.6-.2-17.2-2.8-14.4 2 1.2 2 8.1 3.4 10.3 4 3.6 1.2 7.3 2 10.9 2.6 7.8 1.2 15.5 1.8 23 1.6z" fill="url(#XMLID_239_)"/><linearGradient id="XMLID_240_" gradientUnits="userSpaceOnUse" x1="266.01" y1="292.281" x2="413.352" y2="292.281" gradientTransform="matrix(1 0 0 -1 0 1002)"><stop offset=".006" stop-color="#131536"/><stop offset=".096" stop-color="#151332"/><stop offset=".186" stop-color="#181327"/><stop offset=".994" stop-color="#11121a"/></linearGradient><path id="XMLID_117_" d="M311.1 729.5c37.8-3.4 73.6-17.4 102.3-40.2-4.5 3.6-11.9 5.5-17.4 7.9-5.9 2.6-12.1 4.7-18.2 6.9-12.5 4.4-25.1 7.9-38.2 10.7-12.9 2.8-25.9 4.7-39.2 5.9-6.7.6-13.5 1-20.2 1.2-2.6 0-17.2-1.2-13.6 3.2 1.4 1.8 8.5 2.6 10.7 3 3.8.8 7.3 1.2 11.1 1.6 7.6.8 15.2.4 22.7-.2z" fill="url(#XMLID_240_)"/><linearGradient id="XMLID_241_" gradientUnits="userSpaceOnUse" x1="224.456" y1="234.414" x2="385.657" y2="234.414" gradientTransform="matrix(1 0 0 -1 0 1002)"><stop offset=".006" stop-color="#131536"/><stop offset=".096" stop-color="#151332"/><stop offset=".186" stop-color="#181327"/><stop offset=".994" stop-color="#11121a"/></linearGradient><path id="XMLID_116_" d="M385.7 753.6c-9.1 5.1-21.6 7.3-31.5 9.9-10.9 2.8-22 5.1-33.2 6.9-22.4 3.4-45.1 4.7-68.1 3.6-5.7-.2-11.5-.6-17-1.2-2-.2-13.6-3-11.1 2 1.2 2.4 12.1 3 14.6 3.6 5.3 1 10.7 1.6 16 2.2 21.4 2 42.9 1.2 63.9-2.8 23.2-4.6 45.8-12.7 66.4-24.2z" fill="url(#XMLID_241_)"/><linearGradient id="XMLID_242_" gradientUnits="userSpaceOnUse" x1="194.359" y1="181.135" x2="332.639" y2="181.135" gradientTransform="matrix(1 0 0 -1 0 1002)"><stop offset=".006" stop-color="#131536"/><stop offset=".096" stop-color="#151332"/><stop offset=".186" stop-color="#181327"/><stop offset=".994" stop-color="#11121a"/></linearGradient><path id="XMLID_115_" d="M261.8 829.2c23.7 1 47.7-2.2 70.8-7.3-36.2.8-72.4-1-108.4-5.3-9.9-1.2-20-3.8-29.9-4.2 1 3.4 11.3 5.7 14.4 6.9 5.7 2 11.7 3.8 17.6 5.1 12 2.8 23.6 3 35.5 4.8z" fill="url(#XMLID_242_)"/><linearGradient id="XMLID_243_" gradientUnits="userSpaceOnUse" x1="178.008" y1="150.199" x2="333.43" y2="150.199" gradientTransform="matrix(1 0 0 -1 0 1002)"><stop offset=".006" stop-color="#131536"/><stop offset=".096" stop-color="#151332"/><stop offset=".186" stop-color="#181327"/><stop offset=".994" stop-color="#11121a"/></linearGradient><path id="XMLID_114_" d="M218.9 859.1c37.6 9.5 77.5 8.5 114.5-3-5.9 1.8-13.8 1.2-19.8 1.4-6.7.4-13.5.4-20.4.4-13.6-.2-27.3-1.2-40.8-3-13.5-1.8-26.7-4.4-40-7.5-6.7-1.6-13.3-3.6-20-5.5-2.6-.8-16-6.9-14.4-1.6.6 2.2 7.1 5.3 8.9 6.3 3.2 2 6.5 3.6 9.9 5.1 7.3 3.2 14.6 5.4 22.1 7.4z" fill="url(#XMLID_243_)"/><linearGradient id="XMLID_244_" gradientUnits="userSpaceOnUse" x1="173.532" y1="133.936" x2="325.913" y2="133.936" gradientTransform="matrix(1 0 0 -1 0 1002)"><stop offset=".006" stop-color="#131536"/><stop offset=".096" stop-color="#151332"/><stop offset=".186" stop-color="#181327"/><stop offset=".994" stop-color="#11121a"/></linearGradient><path id="XMLID_113_" d="M211.8 873.9C248 887.6 288 891.1 325.9 884c-5.9 1.2-13.8-.4-20-.8-6.7-.4-13.5-1.2-20.2-2-13.5-1.8-26.9-4.4-40.2-7.5-13.1-3.2-26.1-7.3-38.8-12.1-6.5-2.4-12.9-4.9-19.2-7.9-2.4-1-15-8.7-14-3.2.4 2.2 6.3 6.1 8.1 7.3 3 2.4 6.1 4.4 9.3 6.3 6.8 3.9 13.7 7 20.9 9.8z" fill="url(#XMLID_244_)"/><linearGradient id="XMLID_245_" gradientUnits="userSpaceOnUse" x1="187.405" y1="169.481" x2="343.717" y2="169.481" gradientTransform="matrix(1 0 0 -1 0 1002)"><stop offset=".006" stop-color="#131536"/><stop offset=".096" stop-color="#151332"/><stop offset=".186" stop-color="#181327"/><stop offset=".994" stop-color="#11121a"/></linearGradient><path id="XMLID_112_" d="M230.4 839.9c38.4 4.9 78.1-.8 113.4-16.4-5.5 2.6-13.5 2.8-19.6 3.8-6.7 1.2-13.5 2-20.2 2.8-13.6 1.4-27.3 2-41 2-13.5-.2-27.1-1.2-40.6-2.8-6.9-.8-13.6-2-20.4-3.2-2.6-.4-16.6-4.9-14.4.2 1 2.2 7.5 4.4 9.7 5.3 3.4 1.6 6.9 2.8 10.5 4 7.5 1.9 15 3.3 22.6 4.3z" fill="url(#XMLID_245_)"/><linearGradient id="XMLID_246_" gradientUnits="userSpaceOnUse" x1="166.242" y1="126.052" x2="324.33" y2="126.052" gradientTransform="matrix(1 0 0 -1 0 1002)"><stop offset=".006" stop-color="#131536"/><stop offset=".096" stop-color="#151332"/><stop offset=".186" stop-color="#181327"/><stop offset=".994" stop-color="#11121a"/></linearGradient><path id="XMLID_111_" d="M324.3 894.7c-10.3 1.6-22.7-.8-33-2-11.3-1.2-22.4-3-33.4-5.3-22.2-4.7-43.9-11.7-64.9-20.8-5.1-2.4-10.5-4.7-15.6-7.3-1.8-1-11.7-7.7-11.1-2.2.2 2.8 10.3 7.1 12.5 8.5 4.5 2.8 9.3 5.3 14.2 7.7 19.2 9.5 39.8 16.2 60.7 20 23.4 4.3 47.3 4.9 70.6 1.4z" fill="url(#XMLID_246_)"/><linearGradient id="XMLID_247_" gradientUnits="userSpaceOnUse" x1="215.69" y1="216.605" x2="378.139" y2="216.605" gradientTransform="matrix(1 0 0 -1 0 1002)"><stop offset=".006" stop-color="#131536"/><stop offset=".096" stop-color="#151332"/><stop offset=".186" stop-color="#181327"/><stop offset=".994" stop-color="#11121a"/></linearGradient><path id="XMLID_110_" d="M378.1 775.6c-9.5 4.4-22 5.5-32.2 7.3-11.1 2-22.4 3.4-33.6 4.2-22.6 1.6-45.5 1-68.1-2-5.7-.8-11.3-1.6-17-2.6-2-.4-13.3-4.2-11.3 1 1 2.6 11.9 4 14.4 4.7 5.1 1.4 10.5 2.6 15.8 3.4 21.2 3.8 42.7 4.5 63.9 2.6 23.6-2.8 46.8-8.9 68.1-18.6z" fill="url(#XMLID_247_)"/><linearGradient id="XMLID_248_" gradientUnits="userSpaceOnUse" x1="207.611" y1="197.155" x2="354.004" y2="197.155" gradientTransform="matrix(1 0 0 -1 0 1002)"><stop offset=".006" stop-color="#131536"/><stop offset=".096" stop-color="#151332"/><stop offset=".186" stop-color="#181327"/><stop offset=".994" stop-color="#11121a"/></linearGradient><path id="XMLID_109_" d="M208.6 795.6c43.5 25.3 98.5 29.7 145.4 11.3-42.3 4.4-85.5-.4-126.2-12.5-6.9-2-12.3-3.6-18.6-2.4-1.8.4-2.2 2.8-.6 3.6z" fill="url(#XMLID_248_)"/></g></g><g><linearGradient id="XMLID_249_" gradientUnits="userSpaceOnUse" x1="152.42" y1="228.308" x2="293.668" y2="228.308" gradientTransform="matrix(1 0 0 -1 0 1002)"><stop offset=".006" stop-color="#131536"/><stop offset=".096" stop-color="#151332"/><stop offset=".186" stop-color="#181327"/><stop offset=".994" stop-color="#11121a"/></linearGradient><path id="XMLID_108_" d="M152.4 978.7c7.3 5.1 13.5 10.1 19.2 14.8l.8.8c8.7 7.3 16.2 14.8 25.1 23.5.2.2.4.4.8.6 2.8 2.8 5.7 5.5 8.7 8.5.8-10.9 1.6-21.6 2.6-32.4 0-.4 0-1 .2-1.4.6-6.5 1.2-13.1 1.8-19.4 0-.4 0-.8.2-1.2 1.2-13.5 2.6-26.9 4.2-40.6 0-.4.2-1 .2-1.4.4-3 .6-6.1 1-9.1 0-.6.2-1.2.2-1.6 1.8-16.2 3.8-32.2 5.9-48.5 0-.4.2-1 .2-1.4.8-6.3 1.8-12.9 2.6-19.2 0-.4.2-.8.2-1.2 2.4-16.4 4.9-33 7.5-49.5.2-.6.2-1.4.4-2 1.4-8.1 2.6-16.4 4.2-24.5 0-.6.2-1 .2-1.6 2-11.9 4.2-23.7 6.3-35.6.2-.6.2-1.2.4-2 3.6-18.8 7.3-37.6 11.1-56.2.2-.8.2-1.4.4-2.2 3.2-14.6 6.3-29.3 9.7-43.9.2-1 .4-2 .6-2.8 1.6-7.1 3.4-14 4.9-21.2.2-.6.2-1 .4-1.6 2.2-9.3 4.4-18.4 6.7-27.7.2-.6.2-1 .4-1.6 1-3.8 2-7.7 3-11.5.2-.4.2-.8.4-1.2 3-11.9 6.1-23.7 9.5-35.4 0-.2.2-.6.2-.8 0-.2.2-.6.2-.8 0-.2 0-.2.2-.4.2-.8.4-1.4.6-2.2v-.2-.2c0-.2 0-.2.2-.4-.2-.4-.4-1-.6-1.4-.4-.8-1-1.6-1.6-2-.2-.2-.2-.2-.4-.2-.6-.4-1.2-.6-2-.6-.2.2-.2.4-.2.6-.2.2-.2.6-.4 1v.2c-.6 1.2-1 2.4-1.6 3.6-.2.2-.2.4-.2.6-.2.2-.2.4-.2.6-.2.4-.4.8-.4 1-.2.6-.6 1.2-.8 1.8-1.4 3.2-2.8 6.3-4.2 9.5-.2.6-.4 1-.6 1.6-1 2.2-2 4.5-2.8 6.7-.2.4-.4.8-.4 1-3 7.1-5.9 14.2-8.9 21.4-.2.4-.2.6-.4 1-2 4.9-4 10.1-5.9 15 0 .2-.2.4-.2.8-1.6 4.2-3.4 8.3-4.9 12.7-.2.4-.4 1-.6 1.4-3.6 9.1-6.9 18.2-10.3 27.3-.2.6-.4 1.2-.6 2-5.3 14.4-10.3 29.1-15.2 43.7-.2.6-.4 1-.6 1.4-1.8 5.5-3.6 10.9-5.3 16.4-.2.4-.2.8-.4 1.2-7.1 21.6-13.6 43.3-20 65.3-.2.4-.2.8-.4 1.4-1.8 6.1-3.4 12.1-5.1 18.2-.2.4-.2.6-.2 1-2.8 10.1-5.5 20-8.1 30.1-.2.4-.2.8-.4 1.4-1.8 6.7-3.4 13.5-5.1 20.2 0 .2-.2.6-.2.8-3.4 13.7-6.7 27.5-9.9 41.1 0 .4-.2.6-.2 1-1 4.4-2 8.7-3 13.3 0 .2-.2.6-.2.8-1.6 7.3-3.2 14.8-4.7 22.2-.2.4-.2.8-.2 1.4-3.2 14.8-6.1 29.9-8.9 44.7 0 .4-.2.6-.2 1-2.1 7.1-3.7 14.8-4.9 22.5z" fill="url(#XMLID_249_)"/><path id="XMLID_107_" class="st77" d="M288.7 520.6c.6 0 1.4.2 2 .6l.2.2c.6.4 1.2 1.2 1.6 1.8.2.4.6 1 .8 1.4v.4c0 .2 0 .2.2.4v-.2-.2c0-.2 0-.2.2-.4-.2-.4-.4-1-.6-1.4-.4-.8-1-1.6-1.6-2-.2-.2-.2-.2-.4-.2-.6-.4-1.2-.6-2-.6-.4-.2-.4 0-.4.2z"/><path id="XMLID_106_" class="st77" d="M282.6 566.1c.2-.4.2-.8.4-1.2-1.6-8.9-2.8-17.8-2-26.3-.2.6-.4 1-.6 1.6-.8 8.5.4 17.2 2.2 25.9z"/><path id="XMLID_105_" class="st77" d="M277.2 546.9c-.2.4-.4.8-.4 1l2.2 31.5c.2-.6.2-1 .4-1.6l-2.2-30.9z"/><path id="XMLID_104_" class="st77" d="M267.6 570.4l4.4 38c.2-.6.2-1 .4-1.6l-4.4-37.6c0 .4-.2.8-.4 1.2z"/><path id="XMLID_103_" class="st77" d="M261.2 586.3c4.9 14.8 5.7 30.9 5.1 46.3.2-1 .4-2 .6-2.8.6-14.8-.6-30.1-5.5-44.1 0 0 0 .2-.2.6z"/><path id="XMLID_102_" class="st77" d="M256.3 678.6c.2-.8.2-1.4.4-2.2-.8-25.9-1-51.8-.4-77.5-.2.4-.4 1-.6 1.4-.4 26.1-.2 52.2.6 78.3z"/><path id="XMLID_101_" class="st77" d="M244.8 736.6c.2-.6.2-1.2.4-2-3-35.6-2.8-71.6.6-107.2-.2.6-.4 1.2-.6 2-3.4 35.8-3.6 71.6-.4 107.2z"/><path id="XMLID_100_" class="st77" d="M229.2 674.5c1 33.2 4 66.5 8.9 99.3 0-.6.2-1 .2-1.6-4.9-32.8-7.7-65.9-8.7-99.1 0 .4-.2 1-.4 1.4z"/><path id="XMLID_99_" class="st77" d="M223.4 692.1l10.3 108c.2-.6.2-1.4.4-2l-10.3-107.2c-.2.4-.4.8-.4 1.2z"/><path id="XMLID_98_" class="st77" d="M205.4 774.6c4.5 26.3 12.5 52 20.6 76.4 0-.4.2-.8.2-1.2-8.1-23.9-15.6-49.3-20.2-75.2-1-5.7-1.8-11.5-2.6-17-.2.4-.2.8-.4 1.4.7 4.9 1.4 10.2 2.4 15.6z"/><path id="XMLID_97_" class="st77" d="M197.7 777.9l25.5 93.6c0-.4.2-1 .2-1.4L198.1 777c-.4.2-.4.5-.4.9z"/><path id="XMLID_96_" class="st77" d="M204.4 872.9c4.5 15.8 9.1 32 12.5 48.5 0-.6.2-1.2.2-1.6-3.4-16-7.9-31.7-12.3-47.1-1.6-5.7-3.4-11.5-4.9-17.2-4.4-15.4-8.1-31.5-10.5-47.5-.2.4-.2.8-.4 1.4 2.4 15.6 6.1 31.3 10.3 46.3 1.8 5.7 3.4 11.7 5.1 17.2z"/><path id="XMLID_95_" class="st77" d="M183.9 830.4c13.1 33 23.7 67.1 31.9 101.7 0-.4.2-1 .2-1.4-8.1-34.4-18.8-68.3-31.8-101.1-.1.2-.3.6-.3.8z"/><path id="XMLID_94_" class="st77" d="M199.9 943.3c3.8 9.9 7.7 20.2 11.7 30.5 0-.4 0-.8.2-1.2-3.8-9.9-7.5-19.8-11.3-29.5-9.1-23.3-18.2-47.3-26.3-71.6 0 .4-.2.6-.2 1 7.7 23.9 16.8 47.7 25.9 70.8z"/><path id="XMLID_93_" class="st77" d="M170.6 886.6c16.8 34.6 28.5 71.4 39 108 0-.4 0-1 .2-1.4-10.5-36.4-22-73.2-38.8-107.4-.2.2-.2.6-.4.8z"/><path id="XMLID_92_" class="st77" d="M165.7 909.9c4 20.2 10.5 39.8 17 59.1 5.3 15.8 10.9 32.2 14.8 48.7.2.2.4.4.8.6-4-16.8-9.5-33.4-15-49.5-6.7-19.6-13.5-39.8-17.2-60.3-.2.6-.4 1-.4 1.4z"/><path id="XMLID_91_" class="st77" d="M156.6 955.6l15 37.8.8.8-15.6-39.6c0 .4-.2.8-.2 1z"/></g><g><linearGradient id="XMLID_250_" gradientUnits="userSpaceOnUse" x1="284.37" y1="457.355" x2="486.752" y2="457.355" gradientTransform="matrix(1 0 0 -1 0 1002)"><stop offset=".006" stop-color="#131536"/><stop offset=".096" stop-color="#151332"/><stop offset=".186" stop-color="#181327"/><stop offset=".994" stop-color="#11121a"/></linearGradient><path id="XMLID_90_" d="M308.1 527.9c5.1-4.4 15.2-10.9 31.7-14.2 0 0-12.9 7.1-19.8 14.6 14 .6 30.9 1.6 48.3 3.4 3.2-2.2 6.9-4.7 7.7-5.1 4.4-2.2 10.3-4.7 15-4.5-4.9 3.4-9.5 6.5-13.1 10.9 3.8.4 7.7 1 11.5 1.6 9.5 1.4 19 4.5 28.1 9.1l23.1-5.5-15.6 9.5c34.6 19.6 61.7 52.8 61.7 52.8s2.2-69.4-72.4-101.9-130 29.3-130 29.3 9.4-.6 23.8 0z" fill="url(#XMLID_250_)"/><linearGradient id="XMLID_251_" gradientUnits="userSpaceOnUse" x1="298.217" y1="452.78" x2="486.152" y2="452.78" gradientTransform="matrix(1 0 0 -1 0 1002)"><stop offset=".006" stop-color="#131536"/><stop offset=".096" stop-color="#151332"/><stop offset=".186" stop-color="#181327"/><stop offset=".994" stop-color="#11121a"/></linearGradient><path id="XMLID_89_" d="M486.2 602.9s-5.1-70.4-70.2-97.7c-64.9-27.3-117.7 12.5-117.7 12.5" fill="url(#XMLID_251_)"/><g><linearGradient id="XMLID_252_" gradientUnits="userSpaceOnUse" x1="285.557" y1="412.513" x2="455.54" y2="412.513" gradientTransform="matrix(1 0 0 -1 0 1002)"><stop offset=".006" stop-color="#131536"/><stop offset=".096" stop-color="#151332"/><stop offset=".186" stop-color="#181327"/><stop offset=".994" stop-color="#11121a"/></linearGradient><path id="XMLID_88_" d="M307.5 534.8c6.3-2.4 18-4.9 34.8-2.2 0 0-14.4 2.2-23.7 6.7 12.9 5.5 28.5 12.5 43.9 20.2 3.8-1 8.1-2 8.9-2.2 4.9-.6 11.3-1 15.8 1-5.7 1.4-11.1 2.8-16 5.5 3.4 1.8 6.9 3.6 10.3 5.5 8.5 4.5 16.2 11.1 23.1 18.4l23.7 3-18 3.6c25.5 30.5 39.2 71 39.2 71s26.5-64.3-32-120.9-131.9-18.2-131.9-18.2 8.7 3.1 21.9 8.6z" fill="url(#XMLID_252_)"/><linearGradient id="XMLID_253_" gradientUnits="userSpaceOnUse" x1="302.767" y1="408.679" x2="452.717" y2="408.679" gradientTransform="matrix(1 0 0 -1 0 1002)"><stop offset=".006" stop-color="#131536"/><stop offset=".096" stop-color="#151332"/><stop offset=".186" stop-color="#181327"/><stop offset=".994" stop-color="#11121a"/></linearGradient><path id="XMLID_87_" d="M449 668s19.8-67.9-31.5-116.1c-51.2-48.5-114.7-29.5-114.7-29.5" fill="url(#XMLID_253_)"/></g><g><linearGradient id="XMLID_254_" gradientUnits="userSpaceOnUse" x1="287.733" y1="378.952" x2="407.428" y2="378.952" gradientTransform="matrix(1 0 0 -1 0 1002)"><stop offset=".006" stop-color="#131536"/><stop offset=".096" stop-color="#151332"/><stop offset=".186" stop-color="#181327"/><stop offset=".994" stop-color="#11121a"/></linearGradient><path id="XMLID_86_" d="M287.7 524.7s0 .2 0 0c.6.6 1.2 1.4 2.4 2.6l.2.2c.2.2.2.4.4.4l.2.2c.4.4.8.8 1.2 1.4.8.8 1.8 1.8 2.8 3 .2.2.4.4.6.8 2.4 2.6 5.1 5.5 8.3 9.1 6.7.6 18.4 3.4 32.2 13.1-.8-.2-14.2-4.4-24.3-4.2 9.3 10.5 20.2 23.5 30.9 37.2 4 .8 8.3 1.8 8.9 2 4.5 1.6 10.7 4 13.8 7.7-5.7-1.2-11.3-2.2-16.8-2 2.4 3.2 4.5 6.3 6.9 9.3 5.7 7.9 9.9 17 13.1 26.5l20.2 12.9-17.6-4.5c9.9 38.4 4.5 81.1 4.5 81.1s3.4-3 7.9-8.7c13.3-16.8 36.6-57.2 15.4-114.1-4-10.5-8.9-19.6-14.4-27.3-2.6-3.4-5.1-6.7-7.9-9.7l-4.2-4.2c-11.7-11.3-24.7-18.6-37-23.3-2.4-1-4.7-1.8-6.9-2.6-6.7-2.2-13.3-3.8-19-4.7-4.5-.8-8.5-1.2-11.9-1.6-1 0-1.8-.2-2.8-.2H293c-2.4-.2-4-.2-4.9-.2-.2-.2-.4-.2-.4-.2z" fill="url(#XMLID_254_)"/><linearGradient id="XMLID_255_" gradientUnits="userSpaceOnUse" x1="306.131" y1="375.49" x2="404.193" y2="375.49" gradientTransform="matrix(1 0 0 -1 0 1002)"><stop offset=".006" stop-color="#131536"/><stop offset=".096" stop-color="#151332"/><stop offset=".186" stop-color="#181327"/><stop offset=".994" stop-color="#11121a"/></linearGradient><path id="XMLID_85_" d="M374.8 723.7s47.3-52.6 22-118.3c-25.3-65.9-90.6-76.2-90.6-76.2" fill="url(#XMLID_255_)"/></g></g><g><linearGradient id="XMLID_256_" gradientUnits="userSpaceOnUse" x1="90.698" y1="524.562" x2="297.822" y2="524.562" gradientTransform="matrix(1 0 0 -1 0 1002)"><stop offset=".006" stop-color="#131536"/><stop offset=".096" stop-color="#151332"/><stop offset=".186" stop-color="#181327"/><stop offset=".994" stop-color="#11121a"/></linearGradient><path id="XMLID_84_" d="M278.4 514.8c-1.8-6.5-6.1-17.6-17.6-29.9 0 0 6.3 13.3 7.7 23.5-11.9-7.5-26.3-16.4-41.3-24.9-1.4-3.8-3-7.9-3.4-8.5-2.4-4.4-5.5-9.9-9.7-12.5 2.2 5.5 4 10.9 4.5 16.4-3.4-1.8-6.9-3.6-10.3-5.3-8.5-4.4-18.2-7.1-28.3-8.9l-15.8-18 7.3 16.8c-39.6-4-80.9 7.5-80.9 7.5s38.2-58.2 117.9-41.5 89.2 98.7 89.2 98.7-7.2-5.4-19.3-13.4z" fill="url(#XMLID_256_)"/><linearGradient id="XMLID_257_" gradientUnits="userSpaceOnUse" x1="90.302" y1="529.949" x2="293.074" y2="529.949" gradientTransform="matrix(1 0 0 -1 0 1002)"><stop offset=".006" stop-color="#131536"/><stop offset=".096" stop-color="#151332"/><stop offset=".186" stop-color="#181327"/><stop offset=".994" stop-color="#11121a"/></linearGradient><path id="XMLID_83_" d="M90.3 473.7s44.9-54.6 113.7-39.4c68.8 15 89 78.1 89 78.1" fill="url(#XMLID_257_)"/><g><linearGradient id="XMLID_258_" gradientUnits="userSpaceOnUse" x1="83.181" y1="494.798" x2="297.426" y2="494.798" gradientTransform="matrix(1 0 0 -1 0 1002)"><stop offset=".006" stop-color="#131536"/><stop offset=".096" stop-color="#151332"/><stop offset=".186" stop-color="#181327"/><stop offset=".994" stop-color="#11121a"/></linearGradient><path id="XMLID_82_" d="M274.3 523.5c-4-5.5-11.9-14.4-27.1-22 0 0 10.7 10.1 15.4 19.2-13.6-3-30.3-6.3-47.5-8.9-2.6-3-5.5-6.3-6.1-6.9-3.8-3.2-8.7-7.3-13.5-8.3 4 4.4 7.5 8.7 9.9 13.8-3.8-.6-7.7-1-11.5-1.4-9.5-1.2-19.6-.4-29.5 1.6l-21-11.3 12.7 13.3c-38.4 10.1-73 35.4-73 35.4s15.4-67.9 95.9-80.3c80.5-12.5 118.3 61.1 118.3 61.1s-9-2.1-23-5.3z" fill="url(#XMLID_258_)"/><linearGradient id="XMLID_259_" gradientUnits="userSpaceOnUse" x1="83.181" y1="492.736" x2="286.744" y2="492.736" gradientTransform="matrix(1 0 0 -1 0 1002)"><stop offset=".006" stop-color="#131536"/><stop offset=".096" stop-color="#151332"/><stop offset=".186" stop-color="#181327"/><stop offset=".994" stop-color="#11121a"/></linearGradient><path id="XMLID_81_" d="M83.2 548.3s22.9-66.9 92.8-76.8 110.8 41.9 110.8 41.9" fill="url(#XMLID_259_)"/></g><g><linearGradient id="XMLID_260_" gradientUnits="userSpaceOnUse" x1="109.792" y1="432.106" x2="296.437" y2="432.106" gradientTransform="matrix(1 0 0 -1 0 1002)"><stop offset=".006" stop-color="#131536"/><stop offset=".096" stop-color="#151332"/><stop offset=".186" stop-color="#181327"/><stop offset=".994" stop-color="#11121a"/></linearGradient><path id="XMLID_80_" d="M273.1 531.7c-5.9-3.4-17-7.9-33.8-8.1 0 0 13.8 4.5 22.4 10.7-13.6 3.4-30.1 7.5-46.7 12.5-3.6-1.6-7.7-3.4-8.5-3.6-4.7-1.4-11.1-2.8-15.6-1.6 5.5 2.4 10.5 4.5 14.8 8.1-3.8 1.2-7.3 2.4-11.1 3.8-9.1 3.2-17.8 8.1-25.9 14.2l-23.9-1L162 573c-30.3 25.7-50.6 63.5-50.6 63.5s-15.2-67.7 52-113.8 133.1 4.2 133.1 4.2-9.4 1.6-23.4 4.8z" fill="url(#XMLID_260_)"/><linearGradient id="XMLID_261_" gradientUnits="userSpaceOnUse" x1="111.066" y1="430.401" x2="279.82" y2="430.401" gradientTransform="matrix(1 0 0 -1 0 1002)"><stop offset=".006" stop-color="#131536"/><stop offset=".096" stop-color="#151332"/><stop offset=".186" stop-color="#181327"/><stop offset=".994" stop-color="#11121a"/></linearGradient><path id="XMLID_79_" d="M111.5 636.5s-8.3-70.2 50.4-109.4c58.6-39.2 117.9-9.9 117.9-9.9" fill="url(#XMLID_261_)"/></g></g></g></g><g><defs><path id="XMLID_16_" d="M816.1 999.1l-632.2 1.4V-.5h632.2z"/></defs><clipPath id="XMLID_262_"><use xlink:href="#XMLID_16_" overflow="visible"/></clipPath><g clip-path="url(#XMLID_262_)"><linearGradient id="XMLID_263_" gradientUnits="userSpaceOnUse" x1="531.454" y1="92.105" x2="818.104" y2="92.105" gradientTransform="matrix(1 0 0 -1 0 1002)"><stop offset=".006" stop-color="#131536"/><stop offset=".096" stop-color="#151332"/><stop offset=".186" stop-color="#181327"/><stop offset=".994" stop-color="#11121a"/></linearGradient><path id="XMLID_76_" d="M818.1 819.3v181.2H531.5c4.4-17.2 14.6-32.8 28.9-43.5 17.4-13.1 40.8-18.2 62.1-13.8 10.7 2.2 22.4 6.5 32.2 1.8 11.1-5.3 14-19.2 18.2-30.7 5.7-16.2 16.4-30.9 31.1-39.8 14.6-9.1 33.2-12.1 49.3-6.3 9.1 3.4 18.6 9.3 27.7 6.3 9.7-3.2 13.5-14.2 17.4-23.5 4.5-11.5 11.2-22.4 19.7-31.7z" fill="url(#XMLID_263_)"/><linearGradient id="XMLID_264_" gradientUnits="userSpaceOnUse" x1="660.239" y1="387.854" x2="871.517" y2="387.854" gradientTransform="matrix(1 0 0 -1 0 1002)"><stop offset=".006" stop-color="#131536"/><stop offset=".096" stop-color="#151332"/><stop offset=".186" stop-color="#181327"/><stop offset=".994" stop-color="#11121a"/></linearGradient><path id="XMLID_42_" d="M871.5 802.5c-6.3 6.3-11.7 12.1-16.6 17.6l-.8.8c-7.5 8.7-13.8 17.2-21.2 27.1-.2.2-.4.6-.6.8-2.4 3.2-4.7 6.3-7.3 9.9-2.6-10.5-4.9-21.2-7.7-31.7-.2-.4-.2-1-.4-1.4-1.6-6.3-3.2-12.7-4.7-19 0-.4-.2-.8-.2-1.2-3.4-13.1-6.9-26.3-10.5-39.4-.2-.4-.2-1-.4-1.4-.8-3-1.6-5.9-2.4-8.9-.2-.6-.2-1-.4-1.6-4.4-15.6-8.9-31.3-13.7-46.9-.2-.4-.2-.8-.4-1.4-1.8-6.1-3.8-12.5-5.7-18.6-.2-.4-.2-.8-.4-1.2-4.9-16-9.9-31.9-15.2-47.7-.2-.6-.4-1.2-.6-2-2.6-7.9-5.1-15.6-7.9-23.5-.2-.6-.4-1-.6-1.6-4-11.5-7.9-22.8-11.9-34l-.6-1.8c-6.3-18-13.1-35.8-19.8-53.8-.2-.8-.6-1.4-.8-2-5.3-14-10.9-27.9-16.4-41.9-.4-1-.8-1.8-1-2.8-2.8-6.7-5.5-13.5-8.3-20.2-.2-.4-.4-1-.6-1.4-3.6-8.7-7.3-17.4-11.1-26.3-.2-.6-.4-1-.6-1.6-1.6-3.6-3.2-7.3-4.7-10.9l-.6-1.2c-4.9-11.3-9.9-22.4-14.8-33.6 0-.2-.2-.4-.4-.8-.2-.2-.2-.4-.4-.8 0-.2-.2-.2-.2-.4-.4-.8-.6-1.4-1-2.2 0-.2 0-.2-.2-.2v-.2c0-.2-.2-.2-.2-.4.2-.6.2-1 .4-1.6.4-.8.8-1.6 1.4-2.4 0-.2.2-.2.2-.4.6-.4 1.2-.8 1.8-1 .2.2.2.4.4.6.2.2.4.6.6.8v.2c.8 1 1.4 2.2 2.2 3.2.2.2.2.4.4.6.2.2.2.4.4.6.2.4.4.6.6 1 .4.6.6 1 1 1.6 1.8 3 3.8 5.7 5.5 8.7.4.4.6 1 1 1.4 1.4 2 2.6 4.2 3.8 6.1.2.4.4.6.6 1 4.2 6.5 8.1 13.1 12.1 19.8.2.4.4.6.6 1 2.8 4.5 5.5 9.3 8.3 13.8.2.2.2.4.4.6 2.4 4 4.5 7.7 6.7 11.7.2.4.6.8.8 1.4 4.9 8.3 9.7 16.8 14.4 25.3.4.6.6 1.2 1 1.8 7.5 13.5 14.8 27.1 22 40.8.2.4.4 1 .8 1.4 2.6 5.1 5.3 10.3 7.9 15.4l.6 1.2c10.3 20.2 20.4 40.8 30.1 61.3l.6 1.2c2.8 5.7 5.3 11.5 7.9 17.2.2.4.2.6.4 1 4.4 9.5 8.5 19 12.7 28.5l.6 1.2c2.8 6.3 5.5 12.7 8.3 19.2.2.2.2.6.4.8 5.5 13.1 10.9 26.1 16.2 39.2.2.2.2.6.4 1 1.6 4.2 3.4 8.3 4.9 12.7.2.2.2.6.4.8 2.8 6.9 5.5 14 8.1 21.2.2.4.4.8.4 1.2 5.3 14.2 10.7 28.5 15.8 42.7.2.4.2.6.4 1 2.7 8.3 5.2 15.7 7.8 23z" fill="url(#XMLID_264_)"/><linearGradient id="XMLID_265_" gradientUnits="userSpaceOnUse" x1="661.03" y1="628.114" x2="664.987" y2="628.114" gradientTransform="matrix(1 0 0 -1 0 1002)"><stop offset=".006" stop-color="#131536"/><stop offset=".096" stop-color="#151332"/><stop offset=".186" stop-color="#181327"/><stop offset=".994" stop-color="#11121a"/></linearGradient><path id="XMLID_41_" d="M665 371.4c-.6 0-1.4.4-1.8.8l-.2.2c-.6.6-1 1.2-1.2 2.2-.2.6-.4 1-.4 1.6v.8c0-.2 0-.2-.2-.2v-.2c0-.2-.2-.2-.2-.4.2-.6.2-1 .4-1.6.4-.8.8-1.6 1.4-2.4 0-.2.2-.2.2-.4.6-.4 1.2-.8 1.8-1 0 .4 0 .6.2.6z" opacity=".32" fill="url(#XMLID_265_)"/><linearGradient id="XMLID_266_" gradientUnits="userSpaceOnUse" x1="675.472" y1="600.221" x2="678.303" y2="600.221" gradientTransform="matrix(1 0 0 -1 0 1002)"><stop offset=".006" stop-color="#131536"/><stop offset=".096" stop-color="#151332"/><stop offset=".186" stop-color="#181327"/><stop offset=".994" stop-color="#11121a"/></linearGradient><path id="XMLID_40_" d="M678.2 415.5l-.6-1.2c.2-9.1 0-18-2.2-26.3.4.4.6 1 1 1.4 1.8 8.3 2 17.2 1.8 26.1z" opacity=".32" fill="url(#XMLID_266_)"/><linearGradient id="XMLID_267_" gradientUnits="userSpaceOnUse" x1="680.22" y1="590.131" x2="683.582" y2="590.131" gradientTransform="matrix(1 0 0 -1 0 1002)"><stop offset=".006" stop-color="#131536"/><stop offset=".096" stop-color="#151332"/><stop offset=".186" stop-color="#181327"/><stop offset=".994" stop-color="#11121a"/></linearGradient><path id="XMLID_39_" d="M680.2 395.7c.2.4.4.6.6 1l2.8 31.3c-.2-.6-.4-1-.6-1.6l-2.8-30.7z" opacity=".32" fill="url(#XMLID_267_)"/><linearGradient id="XMLID_268_" gradientUnits="userSpaceOnUse" x1="692.88" y1="565.7" x2="695.056" y2="565.7" gradientTransform="matrix(1 0 0 -1 0 1002)"><stop offset=".006" stop-color="#131536"/><stop offset=".096" stop-color="#151332"/><stop offset=".186" stop-color="#181327"/><stop offset=".994" stop-color="#11121a"/></linearGradient><path id="XMLID_38_" d="M693.5 417.5l1.6 38.4c-.2-.4-.4-1-.6-1.4l-1.6-37.8c.2 0 .4.4.6.8z" opacity=".32" fill="url(#XMLID_268_)"/><linearGradient id="XMLID_269_" gradientUnits="userSpaceOnUse" x1="700.423" y1="547.203" x2="704.354" y2="547.203" gradientTransform="matrix(1 0 0 -1 0 1002)"><stop offset=".006" stop-color="#131536"/><stop offset=".096" stop-color="#151332"/><stop offset=".186" stop-color="#181327"/><stop offset=".994" stop-color="#11121a"/></linearGradient><path id="XMLID_37_" d="M702.2 431.9c-2.6 15.4-1 31.5 2.2 46.5-.4-1-.8-1.8-1-2.8-2.8-14.4-4.2-29.9-1.6-44.5.2.5.4.7.4.8z" opacity=".32" fill="url(#XMLID_269_)"/><linearGradient id="XMLID_270_" gradientUnits="userSpaceOnUse" x1="709.102" y1="518.815" x2="721.763" y2="518.815" gradientTransform="matrix(1 0 0 -1 0 1002)"><stop offset=".006" stop-color="#131536"/><stop offset=".096" stop-color="#151332"/><stop offset=".186" stop-color="#181327"/><stop offset=".994" stop-color="#11121a"/></linearGradient><path id="XMLID_36_" d="M721.8 522.6c-.2-.8-.6-1.4-.8-2-3.2-25.7-7.3-51.2-11.9-76.8.2.4.6.8.8 1.4 4.5 25.5 8.5 51.4 11.9 77.4z" opacity=".32" fill="url(#XMLID_270_)"/><linearGradient id="XMLID_271_" gradientUnits="userSpaceOnUse" x1="724.335" y1="477.865" x2="742.337" y2="477.865" gradientTransform="matrix(1 0 0 -1 0 1002)"><stop offset=".006" stop-color="#131536"/><stop offset=".096" stop-color="#151332"/><stop offset=".186" stop-color="#181327"/><stop offset=".994" stop-color="#11121a"/></linearGradient><path id="XMLID_35_" d="M742.3 577.9l-.6-1.8c-2.8-35.6-8.5-71-17.4-105.8.4.6.6 1.2 1 1.8 8.7 34.8 14.3 70.2 17 105.8z" opacity=".32" fill="url(#XMLID_271_)"/><linearGradient id="XMLID_272_" gradientUnits="userSpaceOnUse" x1="747.085" y1="438.696" x2="754.602" y2="438.696" gradientTransform="matrix(1 0 0 -1 0 1002)"><stop offset=".006" stop-color="#131536"/><stop offset=".096" stop-color="#151332"/><stop offset=".186" stop-color="#181327"/><stop offset=".994" stop-color="#11121a"/></linearGradient><path id="XMLID_34_" d="M747.9 514.2c4.4 33 6.5 66.3 6.7 99.5-.2-.6-.4-1-.6-1.6-.4-33.2-2.6-66.3-6.9-99.3.4.5.6 1 .8 1.4z" opacity=".32" fill="url(#XMLID_272_)"/><linearGradient id="XMLID_273_" gradientUnits="userSpaceOnUse" x1="755.789" y1="417.726" x2="763.109" y2="417.726" gradientTransform="matrix(1 0 0 -1 0 1002)"><stop offset=".006" stop-color="#131536"/><stop offset=".096" stop-color="#151332"/><stop offset=".186" stop-color="#181327"/><stop offset=".994" stop-color="#11121a"/></linearGradient><path id="XMLID_33_" d="M756.4 530.7l6.7 108.4c-.2-.6-.4-1.2-.6-2l-6.7-107.6.6 1.2z" opacity=".32" fill="url(#XMLID_273_)"/><linearGradient id="XMLID_274_" gradientUnits="userSpaceOnUse" x1="778.341" y1="362.236" x2="787.127" y2="362.236" gradientTransform="matrix(1 0 0 -1 0 1002)"><stop offset=".006" stop-color="#131536"/><stop offset=".096" stop-color="#151332"/><stop offset=".186" stop-color="#181327"/><stop offset=".994" stop-color="#11121a"/></linearGradient><path id="XMLID_32_" d="M787 609.2c-.4 26.7-4.2 53.4-8.3 78.5-.2-.4-.2-.8-.4-1.2 4.2-24.9 7.7-51.2 8.1-77.5 0-5.9 0-11.5-.2-17.2l.6 1.2c.2 5.5.4 10.9.2 16.2z" opacity=".32" fill="url(#XMLID_274_)"/><linearGradient id="XMLID_275_" gradientUnits="userSpaceOnUse" x1="784.474" y1="342.948" x2="795.354" y2="342.948" gradientTransform="matrix(1 0 0 -1 0 1002)"><stop offset=".006" stop-color="#131536"/><stop offset=".096" stop-color="#151332"/><stop offset=".186" stop-color="#181327"/><stop offset=".994" stop-color="#11121a"/></linearGradient><path id="XMLID_31_" d="M795.4 611.4l-10.5 96.3c-.2-.4-.2-.8-.4-1.4l10.5-95.9c0 .4.2.6.4 1z" opacity=".32" fill="url(#XMLID_275_)"/><linearGradient id="XMLID_276_" gradientUnits="userSpaceOnUse" x1="798.322" y1="303.976" x2="808.627" y2="303.976" gradientTransform="matrix(1 0 0 -1 0 1002)"><stop offset=".006" stop-color="#131536"/><stop offset=".096" stop-color="#151332"/><stop offset=".186" stop-color="#181327"/><stop offset=".994" stop-color="#11121a"/></linearGradient><path id="XMLID_30_" d="M803.5 706.3c-2 16.4-4 33.2-4.7 49.9-.2-.6-.2-1-.4-1.6.8-16.2 2.8-32.4 4.7-48.5.8-5.9 1.4-11.9 2.2-17.8 1.8-16 3.2-32.2 2.8-48.5l.6 1.2c.2 15.8-1.2 31.8-3 47.5-.7 6-1.4 11.9-2.2 17.8z" opacity=".32" fill="url(#XMLID_276_)"/><linearGradient id="XMLID_277_" gradientUnits="userSpaceOnUse" x1="801.289" y1="288.645" x2="817.115" y2="288.645" gradientTransform="matrix(1 0 0 -1 0 1002)"><stop offset=".006" stop-color="#131536"/><stop offset=".096" stop-color="#151332"/><stop offset=".186" stop-color="#181327"/><stop offset=".994" stop-color="#11121a"/></linearGradient><path id="XMLID_29_" d="M817.1 661c-7.7 34.6-12.9 70-15.4 105.4-.2-.4-.2-1-.4-1.4 2.6-35.2 7.9-70.4 15.6-104.8 0 .2 0 .6.2.8z" opacity=".32" fill="url(#XMLID_277_)"/><linearGradient id="XMLID_278_" gradientUnits="userSpaceOnUse" x1="812.169" y1="248.585" x2="833.732" y2="248.585" gradientTransform="matrix(1 0 0 -1 0 1002)"><stop offset=".006" stop-color="#131536"/><stop offset=".096" stop-color="#151332"/><stop offset=".186" stop-color="#181327"/><stop offset=".994" stop-color="#11121a"/></linearGradient><path id="XMLID_28_" d="M819.1 775c-2.2 10.5-4.5 21.2-6.7 31.8 0-.4-.2-.8-.2-1.2 2.2-10.3 4.4-20.8 6.5-30.9 5.1-24.5 10.7-49.5 14.6-74.8.2.2.2.6.4 1-4.1 25.2-9.5 49.9-14.6 74.1z" opacity=".32" fill="url(#XMLID_278_)"/><linearGradient id="XMLID_279_" gradientUnits="userSpaceOnUse" x1="817.115" y1="231.572" x2="838.876" y2="231.572" gradientTransform="matrix(1 0 0 -1 0 1002)"><stop offset=".006" stop-color="#131536"/><stop offset=".096" stop-color="#151332"/><stop offset=".186" stop-color="#181327"/><stop offset=".994" stop-color="#11121a"/></linearGradient><path id="XMLID_27_" d="M838.9 714.4c-11.3 36.8-16.8 75-21.4 112.8-.2-.4-.2-1-.4-1.4 4.5-37.6 10.3-75.6 21.4-112.2.2.2.4.6.4.8z" opacity=".32" fill="url(#XMLID_279_)"/><linearGradient id="XMLID_280_" gradientUnits="userSpaceOnUse" x1="832.546" y1="209.613" x2="847.58" y2="209.613" gradientTransform="matrix(1 0 0 -1 0 1002)"><stop offset=".006" stop-color="#131536"/><stop offset=".096" stop-color="#151332"/><stop offset=".186" stop-color="#181327"/><stop offset=".994" stop-color="#11121a"/></linearGradient><path id="XMLID_26_" d="M847.6 736.8c-.8 20.4-4.2 41-7.5 61.1-2.8 16.4-5.5 33.4-6.9 50.4-.2.2-.4.6-.6.8 1.4-17.2 4.2-34.4 7.1-51.2 3.4-20.6 6.9-41.3 7.7-62.3 0 .4 0 .8.2 1.2z" opacity=".32" fill="url(#XMLID_280_)"/><linearGradient id="XMLID_281_" gradientUnits="userSpaceOnUse" x1="854.109" y1="201.7" x2="863.802" y2="201.7" gradientTransform="matrix(1 0 0 -1 0 1002)"><stop offset=".006" stop-color="#131536"/><stop offset=".096" stop-color="#151332"/><stop offset=".186" stop-color="#181327"/><stop offset=".994" stop-color="#11121a"/></linearGradient><path id="XMLID_25_" d="M863.8 780.5l-8.9 39.8-.8.8 9.3-41.5c.2.3.2.5.4.9z" opacity=".32" fill="url(#XMLID_281_)"/><g><linearGradient id="XMLID_282_" gradientUnits="userSpaceOnUse" x1="480.776" y1="585.601" x2="670.328" y2="585.601" gradientTransform="matrix(1 0 0 -1 0 1002)"><stop offset=".006" stop-color="#131536"/><stop offset=".096" stop-color="#151332"/><stop offset=".186" stop-color="#181327"/><stop offset=".994" stop-color="#11121a"/></linearGradient><path id="XMLID_24_" d="M647 381.7c-5.7-3.6-16.8-8.3-33.6-9.1 0 0 13.8 4.9 22 11.5-13.8 2.8-30.3 6.5-47.1 10.9-3.6-1.8-7.5-3.6-8.3-4-4.7-1.4-10.9-3.2-15.6-2.2 5.3 2.6 10.3 4.9 14.6 8.7-3.8 1-7.5 2.2-11.1 3.4-9.3 2.8-18 7.5-26.3 13.5l-23.7-1.8 16.8 6.9c-31.3 24.7-52.8 61.7-52.8 61.7S468.5 413 537.4 369c68.6-43.7 132.9 8.5 132.9 8.5s-9.3 1.6-23.3 4.2z" fill="url(#XMLID_282_)"/><linearGradient id="XMLID_283_" gradientUnits="userSpaceOnUse" x1="482.627" y1="581.173" x2="655.096" y2="581.173" gradientTransform="matrix(1 0 0 -1 0 1002)"><stop offset=".006" stop-color="#131536"/><stop offset=".096" stop-color="#151332"/><stop offset=".186" stop-color="#181327"/><stop offset=".994" stop-color="#11121a"/></linearGradient><path id="XMLID_23_" d="M482.8 483.8s-5.9-70.4 54-107.6c59.7-37.2 118.3-6.1 118.3-6.1" fill="url(#XMLID_283_)"/><g><linearGradient id="XMLID_284_" gradientUnits="userSpaceOnUse" x1="516.175" y1="546.865" x2="669.141" y2="546.865" gradientTransform="matrix(1 0 0 -1 0 1002)"><stop offset=".006" stop-color="#131536"/><stop offset=".096" stop-color="#151332"/><stop offset=".186" stop-color="#181327"/><stop offset=".994" stop-color="#11121a"/></linearGradient><path id="XMLID_22_" d="M648.6 388.6c-6.7-1.2-18.6-2-34.6 3.2 0 0 14.6-.2 24.5 3-11.9 7.5-26.1 16.6-40.2 26.7-4-.4-8.3-.8-9.1-.8-4.9.2-11.3.8-15.4 3.4 5.9.4 11.5 1 16.8 3-3.2 2.4-6.1 4.5-9.3 6.9-7.7 5.9-14.2 13.5-20 21.8l-22.9 6.7 18.2.6c-20.4 34-27.5 76.4-27.5 76.4s-36.2-59.3 12.7-124.4c48.9-65.1 127.4-38.8 127.4-38.8s-8.4 4.8-20.6 12.3z" fill="url(#XMLID_284_)"/><linearGradient id="XMLID_285_" gradientUnits="userSpaceOnUse" x1="519.352" y1="543.578" x2="651.139" y2="543.578" gradientTransform="matrix(1 0 0 -1 0 1002)"><stop offset=".006" stop-color="#131536"/><stop offset=".096" stop-color="#151332"/><stop offset=".186" stop-color="#181327"/><stop offset=".994" stop-color="#11121a"/></linearGradient><path id="XMLID_21_" d="M529.7 542.1s-30.3-63.9 12.9-119.7c42.9-55.8 108.6-47.3 108.6-47.3" fill="url(#XMLID_285_)"/></g><g><linearGradient id="XMLID_286_" gradientUnits="userSpaceOnUse" x1="565.502" y1="522.673" x2="666.569" y2="522.673" gradientTransform="matrix(1 0 0 -1 0 1002)"><stop offset=".006" stop-color="#131536"/><stop offset=".096" stop-color="#151332"/><stop offset=".186" stop-color="#181327"/><stop offset=".994" stop-color="#11121a"/></linearGradient><path id="XMLID_18_" d="M666.6 375.6l-.2.2c-.2.4-1 1.2-1.8 2.6l-.2.2c-.2.2-.2.4-.4.6 0 0-.2.2-.2.4-.4.4-.6 1-1 1.4-.6 1-1.4 2.2-2.2 3.4-.2.2-.4.6-.6.8-2 2.8-4.2 6.3-6.7 10.3-6.5 1.8-17.6 6.3-29.9 17.8.8-.4 13.5-6.5 23.3-7.9-7.5 11.9-16.2 26.3-24.7 41.5-3.8 1.4-7.9 3-8.5 3.4-4.4 2.4-9.9 5.7-12.5 9.7 5.5-2.2 10.9-4 16.4-4.5-1.8 3.4-3.6 6.9-5.3 10.3-4.4 8.7-7.1 18.4-8.7 28.3l-17.8 15.8 16.8-7.3c-3.8 39.6 8.1 80.7 8.1 80.7s-3.8-2.4-9.1-7.3c-15.6-14.4-45.1-50.6-33.2-110.4 2.2-11.1 5.7-20.6 9.9-29.1 2-3.8 4-7.3 6.3-10.7 1.2-1.6 2.2-3.2 3.4-4.7 9.7-12.9 21.6-22.2 33-28.9 2.2-1.2 4.4-2.4 6.5-3.6 6.3-3.4 12.5-5.7 18-7.5 4.4-1.6 8.1-2.6 11.5-3.4 1-.2 1.8-.4 2.6-.6.4 0 .8-.2 1.2-.2H661.2c2.4-.4 4-.8 4.7-.8.5-.5.7-.5.7-.5z" fill="url(#XMLID_286_)"/><linearGradient id="XMLID_287_" gradientUnits="userSpaceOnUse" x1="569.127" y1="517.628" x2="649.161" y2="517.628" gradientTransform="matrix(1 0 0 -1 0 1002)"><stop offset=".006" stop-color="#131536"/><stop offset=".096" stop-color="#151332"/><stop offset=".186" stop-color="#181327"/><stop offset=".994" stop-color="#11121a"/></linearGradient><path id="XMLID_15_" d="M611.8 585.9s-54.8-44.5-40.2-113.4c14.6-68.8 77.5-89.6 77.5-89.6" fill="url(#XMLID_287_)"/></g></g><g><linearGradient id="XMLID_288_" gradientUnits="userSpaceOnUse" x1="657.048" y1="681.727" x2="852.724" y2="681.727" gradientTransform="matrix(1 0 0 -1 0 1002)"><stop offset=".006" stop-color="#131536"/><stop offset=".096" stop-color="#151332"/><stop offset=".186" stop-color="#181327"/><stop offset=".994" stop-color="#11121a"/></linearGradient><path id="XMLID_14_" d="M674.1 364.3c.6-6.7 3.2-18.4 12.7-32.4 0 0-4.2 14-4 24.3 10.5-9.3 23.3-20.4 37-31.3.8-4 1.6-8.3 2-8.9 1.6-4.5 4-10.7 7.5-13.8-1.2 5.7-2.2 11.3-1.8 16.8 3.2-2.4 6.1-4.7 9.3-6.9 7.7-5.7 16.8-9.9 26.5-13.3l12.9-20.2-4.5 17.8c38.4-10.1 81.1-5.1 81.1-5.1s-46.9-51.4-123-22.4c-76.2 28.9-72.6 111.6-72.6 111.6s6.2-6.5 16.9-16.2z" fill="url(#XMLID_288_)"/><linearGradient id="XMLID_289_" gradientUnits="userSpaceOnUse" x1="659.448" y1="687.212" x2="853.515" y2="687.212" gradientTransform="matrix(1 0 0 -1 0 1002)"><stop offset=".006" stop-color="#131536"/><stop offset=".096" stop-color="#151332"/><stop offset=".186" stop-color="#181327"/><stop offset=".994" stop-color="#11121a"/></linearGradient><path id="XMLID_13_" d="M853.5 294.1s-52.8-46.9-118.5-21c-65.7 25.7-75.6 91.2-75.6 91.2" fill="url(#XMLID_289_)"/></g><g><linearGradient id="XMLID_290_" gradientUnits="userSpaceOnUse" x1="657.469" y1="659.668" x2="872.111" y2="659.668" gradientTransform="matrix(1 0 0 -1 0 1002)"><stop offset=".006" stop-color="#131536"/><stop offset=".096" stop-color="#151332"/><stop offset=".186" stop-color="#181327"/><stop offset=".994" stop-color="#11121a"/></linearGradient><path id="XMLID_12_" d="M679.6 372.2c3-6.1 9.5-16.2 23.3-25.9 0 0-8.9 11.7-12.3 21.6 13.1-5.1 29.1-10.9 45.5-16.2 2-3.4 4.4-7.1 4.9-7.7 3.2-3.8 7.5-8.5 11.9-10.3-3.2 4.9-5.9 9.9-7.7 15.2 3.8-1.2 7.5-2.2 11.1-3.2 9.3-2.6 19.4-3.4 29.5-3l19-14.4-10.5 15c39.6 4 77.7 23.5 77.7 23.5s-25.9-64.5-107.4-64.1c-81.3.4-107.2 79.1-107.2 79.1s8.8-4.3 22.2-9.6z" fill="url(#XMLID_290_)"/><linearGradient id="XMLID_291_" gradientUnits="userSpaceOnUse" x1="665.778" y1="666.201" x2="872.111" y2="666.201" gradientTransform="matrix(1 0 0 -1 0 1002)"><stop offset=".006" stop-color="#131536"/><stop offset=".096" stop-color="#151332"/><stop offset=".186" stop-color="#181327"/><stop offset=".994" stop-color="#11121a"/></linearGradient><path id="XMLID_11_" d="M872.1 366.5s-33-62.3-103.7-61.3c-70.4 1.2-102.7 59-102.7 59" fill="url(#XMLID_291_)"/></g><linearGradient id="XMLID_292_" gradientUnits="userSpaceOnUse" x1="658.459" y1="601.515" x2="858.318" y2="601.515" gradientTransform="matrix(1 0 0 -1 0 1002)"><stop offset=".006" stop-color="#28356e"/><stop offset=".227" stop-color="#252e66"/><stop offset=".541" stop-color="#221f53"/><stop offset=".765" stop-color="#1d1042"/><stop offset=".994" stop-color="#20102e"/></linearGradient><path id="XMLID_10_" d="M682 380.1c5.3-4.2 15.6-10.5 32.2-13.3 0 0-13.1 6.7-20.4 14 14 1 30.9 2.6 48.1 4.9 3.4-2.2 7.1-4.5 7.7-4.9 4.4-2 10.5-4.5 15.2-4.2-4.9 3.2-9.7 6.3-13.5 10.3 3.8.6 7.7 1.2 11.5 2 9.5 1.6 18.8 5.3 27.9 9.9l23.3-4.7-15.8 9.1c33.8 20.6 59.9 54.8 59.9 54.8s4.5-69.4-69-104.3-130.8 24.9-130.8 24.9 9.3.5 23.7 1.5z" fill="url(#XMLID_292_)"/><linearGradient id="XMLID_293_" gradientUnits="userSpaceOnUse" x1="673.295" y1="599.377" x2="858.263" y2="599.377" gradientTransform="matrix(1 0 0 -1 0 1002)"><stop offset=".006" stop-color="#131536"/><stop offset=".096" stop-color="#151332"/><stop offset=".186" stop-color="#181327"/><stop offset=".994" stop-color="#11121a"/></linearGradient><path id="XMLID_9_" d="M858.3 458.3s-3-70.6-66.9-100.1c-64.1-29.5-118.1 8.7-118.1 8.7" fill="url(#XMLID_293_)"/></g></g></g><g><defs><path id="XMLID_1_" d="M816.1 999.1l-632.2 1.4V-.5h632.2z"/></defs><clipPath id="XMLID_294_"><use xlink:href="#XMLID_1_" overflow="visible"/></clipPath><g clip-path="url(#XMLID_294_)"><g opacity=".48"><linearGradient id="XMLID_295_" gradientUnits="userSpaceOnUse" x1="183.676" y1="281.726" x2="817.511" y2="281.726" gradientTransform="translate(0 -208)"><stop offset=".015" stop-color="#faf9f9" stop-opacity=".5"/><stop offset="1" stop-color="#faf9f9" stop-opacity=".8"/></linearGradient><path id="XMLID_8_" d="M817.5 41.4v56.4c-4.4 1-8.5 2.2-12.5 3.4-37.2 11.3-78.3 21.8-118.5 15.8-26.3-3.8-49.1-14.4-75.6-18-41-5.5-81.9 6.9-119.9 18s-81.3 21.6-120.7 12.7c-40.2-9.1-67.1-37-109.6-40.6-27.1-2.2-52 6.1-77.2 14V37.3c25.5-6.7 51.2-12.7 78.3-16 35-4.2 72.8-3.4 104.6 6.7 14.6 4.6 28.1 11.1 43.7 14 30.1 5.5 61.5-3.4 90.8-10.5 29.5-7.1 59.9-12.3 91-15.8 15.2-1.8 32.4-2.6 44.3 3.6 18.8 9.7 12.9 30.5 31.1 40.6 15.4 8.5 39 4.9 58.4.8 31.1-6.4 61.5-12.9 91.8-19.3z" opacity=".55" fill="url(#XMLID_295_)"/><linearGradient id="XMLID_296_" gradientUnits="userSpaceOnUse" x1="183.676" y1="449.351" x2="817.511" y2="449.351" gradientTransform="translate(0 -208)"><stop offset=".015" stop-color="#faf9f9" stop-opacity=".5"/><stop offset="1" stop-color="#faf9f9" stop-opacity=".8"/></linearGradient><path id="XMLID_7_" d="M817.5 184.1v78.1c-59.5 15.6-122.3 25.9-185.8 29.9-21.2 1.4-46.9.6-57.6-12.1-4.9-5.9-5.7-13.6-13.5-17.8-10.3-5.5-25.1-1.4-36.8 2.8-51.4 17.8-107.6 29.1-164.8 33-11.1.8-22.6 1.2-33.4-.8-10.9-2-21-6.9-24.9-14.2-2.2-4.4-2.2-9.1-5.1-13.1-4.4-5.9-14.4-8.7-24.1-8.7-9.5 0-18.8 2.4-27.7 4.5-20 5.1-40.2 10.5-60.1 15.6v-66.1c29.7-5.3 59.9-9.7 90.2-13.5 17.8-2.2 38.6-3.6 51.8 4.9 12.5 8.1 13.6 22.7 27.3 29.9 15 7.9 36.4 3 53.6-2.2 48.9-14.6 97.9-29.3 146.8-43.9 10.3-3 20.8-6.1 31.8-6.5 11.1-.4 23.1 2.4 29.3 8.9 9.1 10.1 1.8 25.7 15.2 33 9.3 5.1 22.9 2.8 34.2.2 52.5-12.3 103.6-26.3 153.6-41.9z" opacity=".55" fill="url(#XMLID_296_)"/></g><ellipse id="XMLID_5_" class="st3" cx="564.3" cy="158.8" rx="68.1" ry="68.1"/><path id="XMLID_4_" class="st127" d="M471.3 62.4H296.8c3.6-2.2 6.7-4.9 9.5-7.9C311.9 49 317 43 323.5 38.7c4.4-2.8 10.3-4.7 14.8-2.2 3 1.8 4.7 5.1 5.3 8.5.6 3.4.2 6.9-.4 10.3 8.3-10.3 17-20.6 27.7-28.5 4.7-3.6 10.7-6.5 16.2-4.7 6.3 2 9.1 9.3 9.5 16 .2 6.5-1.2 13.3 0 19.8 4.5-6.1 9.9-10.7 16.6-14.2 2.6-1.4 5.7-2.6 8.5-2 3.4 1 5.3 4.4 5.9 7.7s-.4 6.7-1.2 10.1c3.6-7.3 10.1-14 16.6-18.8 3-2.2 6.3-4 10.1-4.6 3.8-.6 7.7.2 10.5 2.8 2.8 2.6 3.8 6.5 4.5 10.3 1.2 4.3 2.2 8.9 3.2 13.2z"/><path id="XMLID_3_" class="st127" d="M817.5 168.2v18.4H689.1c3.6-2.2 6.7-4.9 9.5-7.9l5.3-5.3c3.8-3.8 7.5-7.5 11.9-10.3 4.4-2.8 10.3-4.7 14.6-2.2 3 1.8 4.7 5.1 5.3 8.5s.2 6.9-.4 10.3c8.3-10.3 17-20.6 27.7-28.5 4.7-3.6 10.7-6.5 16.2-4.7 6.3 2 9.1 9.3 9.5 16 .2 6.5-1.2 13.3 0 19.8 4.5-6.1 9.9-10.7 16.6-14.2 2.6-1.4 5.5-2.6 8.5-2 1.7.2 2.9 1 3.7 2.1z"/><path id="XMLID_2_" class="st127" d="M409.2 178.9h-82.3c6.1-7.9 13.8-14.8 22.4-20.2 3.6-2.2 8.1-4.4 11.9-2.6 2.8 1.4 4.4 4.4 4.7 7.3.4 3-.2 6.1-1 9.1 3.4-4.6 7.7-8.3 12.9-10.9 1.6-.8 3.2-1.4 4.9-1.6 1.8-.2 3.6.2 4.9 1.4 2 1.6 2.6 4.6 2.4 7.1 0 2.6-.6 5.3 0 7.9 3.2-3.2 6.5-5.3 10.7-6.9 1.6-.6 3.4-1.2 4.9-.6 2.2.6 3.4 3 3.6 4.9.4 2.2.2 3.7 0 5.1z"/></g></g></svg>