<svg xmlns="http://www.w3.org/2000/svg" width="400" height="200"><linearGradient id="a" gradientUnits="userSpaceOnUse" x1="499.086" y1="-266.668" x2="512.992" y2="-266.668" gradientTransform="matrix(-1 -.00925 -.00925 1 677.235 340.502)"><stop offset=".006" stop-color="#131636"/><stop offset=".096" stop-color="#171434"/><stop offset=".186" stop-color="#1a1429"/><stop offset=".994" stop-color="#14141c"/></linearGradient><path d="M179.7 68.3c-1.8 1-3.9 1-5.9.9-2.1-.1-4.2-.5-6.2-1.4-.3-.1-.7.1-.8.4-.1.3.1.7.4.8 2.2.8 4.4 1.3 6.7 1.4 2.2.1 4.5 0 6.4-1.1.7-.4.1-1.4-.6-1z" fill="url(#a)"/><linearGradient id="b" gradientUnits="userSpaceOnUse" x1="584.548" y1="-278.793" x2="609.907" y2="-278.793" gradientTransform="matrix(-1 -.00925 -.00925 1 677.235 340.502)"><stop offset=".006" stop-color="#131636"/><stop offset=".096" stop-color="#171434"/><stop offset=".186" stop-color="#1a1429"/><stop offset=".994" stop-color="#14141c"/></linearGradient><path d="M94.1 49.1c-1.1-1.6-3-2.4-5.1-3-1.8-.4-3.8-.4-5.8-.3-4.4.1-8.8.3-13.2.5 3.8 1.8 6.8 5.1 8.2 9 1.3 3.6 1.6 7.9 4.6 10.1 2.3 1.7 5.8 1.4 7.9-.6 2.4-2.4.8-5.3 2-7.9.4-1 1.6-1.3 2.2-2.6.7-1.4.3-3.7-.8-5.2z" fill="url(#b)"/><linearGradient id="c" gradientUnits="userSpaceOnUse" x1="504.378" y1="-273.938" x2="527.382" y2="-273.938" gradientTransform="matrix(-1 -.00925 -.00925 1 677.235 340.502)"><stop offset=".006" stop-color="#131636"/><stop offset=".096" stop-color="#171434"/><stop offset=".186" stop-color="#1a1429"/><stop offset=".994" stop-color="#14141c"/></linearGradient><path d="M175.3 61.5c0-.5-.5-.9-.8-1.3-.9-.9-1.9-1.7-2.8-2.4-1.7-1.1-3.6-1.7-5.4-2.4-4.6-1.6-9.1-3.2-13.7-4.8 1.6 2.1 2 4.6 2 7.2-.1 2.5-.4 5.1-.1 7.6.6 5.4 5.3 9 10.7 6.7 2.9-1.1 11.1-6.6 10.1-10.6z" fill="url(#c)"/><linearGradient id="d" gradientUnits="userSpaceOnUse" x1="478.309" y1="-226.038" x2="503.067" y2="-226.038" gradientTransform="matrix(-1 -.00925 -.00925 1 677.235 340.502)"><stop offset=".006" stop-color="#131636"/><stop offset=".096" stop-color="#171434"/><stop offset=".186" stop-color="#1a1429"/><stop offset=".994" stop-color="#14141c"/></linearGradient><path d="M199 114.7c-2.1 1.8-4.9 2-7.6 2.1-.5 2.3-3.3 3.4-5.7 2.8-2.3-.6-3.9-2.6-5.2-4.5-2.8-4.5-4.5-9.7-4.3-15.1-.1 5.7 13.5 4.1 16.7 3.8 5.7-.6 11.1 6.4 6.1 10.9z" fill="url(#d)"/><linearGradient id="e" gradientUnits="userSpaceOnUse" x1="472.965" y1="-219.511" x2="487.362" y2="-219.511" gradientTransform="matrix(-1 -.00925 -.00925 1 677.235 340.502)"><stop offset=".006" stop-color="#131636"/><stop offset=".096" stop-color="#171434"/><stop offset=".186" stop-color="#1a1429"/><stop offset=".994" stop-color="#14141c"/></linearGradient><path d="M205.1 114.3c-1 1.5-2.6 2.3-4.3 2.9-.9.3-2.1.6-3.1.7-1 .1-2.1.1-3-.3s-1.6-1.1-1.8-2.1c-.2-.8-1.4-.4-1.2.3.6 2.4 2.9 3.4 5.1 3.4 1.2 0 2.5-.2 3.7-.6 1-.3 2-.7 2.9-1.3 1.1-.6 1.9-1.5 2.5-2.4.7-.7-.4-1.3-.8-.6z" fill="url(#e)"/><linearGradient id="f" gradientUnits="userSpaceOnUse" x1="410.733" y1="-221.062" x2="430.471" y2="-221.062" gradientTransform="matrix(-1 -.00925 -.00925 1 677.235 340.502)"><stop offset=".006" stop-color="#131636"/><stop offset=".096" stop-color="#171434"/><stop offset=".186" stop-color="#1a1429"/><stop offset=".994" stop-color="#14141c"/></linearGradient><path d="M266.6 123.6c2.1-2.6 2.3-6.2 1.1-9.3-1.2-3.1-3.6-5.5-6.3-7.4-2.3-1.6-5-3-7.8-3.3 1.9 1.9 1.3 5.2 0 7.6s-3.3 4.3-4.3 6.9c-1 2.7-.5 6.1 1.7 8 2.5 2.2 5 1.1 7.7.4 2.8-.7 5.9-.3 7.9-2.9z" fill="url(#f)"/><linearGradient id="g" gradientUnits="userSpaceOnUse" x1="645.022" y1="-266.053" x2="657.727" y2="-266.053" gradientTransform="matrix(-1 -.00925 -.00925 1 677.235 340.502)"><stop offset=".006" stop-color="#131636"/><stop offset=".096" stop-color="#171434"/><stop offset=".186" stop-color="#1a1429"/><stop offset=".994" stop-color="#14141c"/></linearGradient><path d="M33.8 61.5c-4 2.5-7.6 5.8-10.3 9.6-.8 1.1-1.5 2.3-1.7 3.8 0 .8 1.2.8 1.3 0 0-1.1.7-2.1 1.3-2.9.6-.9 1.2-1.8 2-2.7 1.5-1.6 3-3.3 4.9-4.7 1-.8 2-1.5 3.1-2.2.7-.3.1-1.5-.6-.9z" fill="url(#g)"/><linearGradient id="h" gradientUnits="userSpaceOnUse" x1="624.192" y1="-245.673" x2="628.192" y2="-245.673" gradientTransform="matrix(-1 -.00925 -.00925 1 677.235 340.502)"><stop offset=".006" stop-color="#131636"/><stop offset=".096" stop-color="#171434"/><stop offset=".186" stop-color="#1a1429"/><stop offset=".994" stop-color="#14141c"/></linearGradient><path d="M52.7 97.4c1.4-2 2.3-4.4 2.5-6.9.2-2.2.1-4.5-.8-6.6-.5-1.2-1.2-2.3-2-3.2-.6-.7-1.4.3-.9.9 3 3 3 8 1.7 11.7-.4 1.2-.9 2.4-1.7 3.4-.2.3-.1.7.2.9.3.1.8.1 1-.2z" fill="url(#h)"/><linearGradient id="i" gradientUnits="userSpaceOnUse" x1="580.932" y1="-269.464" x2="599.58" y2="-269.464" gradientTransform="matrix(-1 -.00925 -.00925 1 677.235 340.502)"><stop offset=".006" stop-color="#131636"/><stop offset=".096" stop-color="#171434"/><stop offset=".186" stop-color="#1a1429"/><stop offset=".994" stop-color="#14141c"/></linearGradient><path d="M98.7 69.9c-1.4-2.2-3.5-3.9-5.5-5.5-1.1-.8-2.3-1.6-3.4-2.4-1.3-.7-2.6-1.2-3.9-1.4-1.6-.3-3.2-.2-4.8-.2-.8 0-.8 1.3 0 1.3 2.6 0 5.5-.1 7.9 1.1 1.2.6 2.2 1.4 3.4 2.1 1 .7 1.9 1.4 2.9 2.3 1 .9 2 1.9 2.7 3.2 0 .8 1 .2.7-.5z" fill="url(#i)"/><linearGradient id="j" gradientUnits="userSpaceOnUse" x1="571.413" y1="-299.407" x2="578.052" y2="-299.407" gradientTransform="matrix(-1 -.00925 -.00925 1 677.235 340.502)"><stop offset=".006" stop-color="#131636"/><stop offset=".096" stop-color="#171434"/><stop offset=".186" stop-color="#1a1429"/><stop offset=".994" stop-color="#14141c"/></linearGradient><path d="M106.7 26.9c1.3 4.7.6 10-2.1 14.1-.7 1.2-1.6 2.3-2.6 3.2-.7.6.2 1.5.9.9 3.8-3.6 5.8-8.9 5.7-14.3 0-1.5-.3-3-.6-4.4-.2-.7-1.6-.2-1.3.5z" fill="url(#j)"/><linearGradient id="k" gradientUnits="userSpaceOnUse" x1="522.341" y1="-300.793" x2="538.27" y2="-300.793" gradientTransform="matrix(-1 -.00925 -.00925 1 677.235 340.502)"><stop offset=".006" stop-color="#131636"/><stop offset=".096" stop-color="#171434"/><stop offset=".186" stop-color="#1a1429"/><stop offset=".994" stop-color="#14141c"/></linearGradient><path d="M156.4 29.5c.2 1.3-.6 2.5-1.2 3.5s-1.4 1.8-2.3 2.8c-1.8 1.8-3.8 3.2-6.3 3.7-1.3.4-2.8.4-4.2.3-.4 0-.7.1-.8.4-.1.3.1.7.4.8 2.8.4 5.8-.2 8.2-1.6 2.3-1.4 4.2-3.3 5.8-5.5.9-1.4 1.7-3 1.5-4.6-.1-.4-.4-.5-.8-.4-.1 0-.3.3-.3.6z" fill="url(#k)"/><linearGradient id="l" gradientUnits="userSpaceOnUse" x1="494.211" y1="-257.868" x2="514.965" y2="-257.868" gradientTransform="matrix(-1 -.00925 -.00925 1 677.235 340.502)"><stop offset=".006" stop-color="#131636"/><stop offset=".096" stop-color="#171434"/><stop offset=".186" stop-color="#1a1429"/><stop offset=".994" stop-color="#14141c"/></linearGradient><path d="M184.2 79.6c-2.1 1.8-4.9 2-7.4 1.3-2.8-.8-5.3-2.3-7.7-4-1.3-.9-2.5-2.1-3.6-3.2-.6-.7-1.4.3-.9.9 2.1 2.2 4.5 4 7.1 5.6 2.7 1.6 5.8 2.7 8.9 2.2 1.6-.2 3.1-.9 4.4-1.9.8-.4-.1-1.3-.8-.9z" fill="url(#l)"/><linearGradient id="m" gradientUnits="userSpaceOnUse" x1="482.266" y1="-255.764" x2="497.473" y2="-255.764" gradientTransform="matrix(-1 -.00925 -.00925 1 677.235 340.502)"><stop offset=".006" stop-color="#131636"/><stop offset=".096" stop-color="#171434"/><stop offset=".186" stop-color="#1a1429"/><stop offset=".994" stop-color="#14141c"/></linearGradient><path d="M197.2 85.3c.4-1.2-1-2.3-1.8-3.1-.9-.8-1.8-1.7-2.7-2.4-1.8-1.4-3.9-2.7-6-3.7-1.2-.6-2.5-1.1-3.7-1.5-.8-.3-1.1 1-.3 1.2 4 1.4 7.9 3.6 11.2 6.4.5.5.9.8 1.4 1.2.3.3 1 .8.9 1.2-.4 1.1.8 1.5 1 .7z" fill="url(#m)"/><linearGradient id="n" gradientUnits="userSpaceOnUse" x1="463.081" y1="-215.168" x2="471.85" y2="-215.168" gradientTransform="matrix(-1 -.00925 -.00925 1 677.235 340.502)"><stop offset=".006" stop-color="#131636"/><stop offset=".096" stop-color="#171434"/><stop offset=".186" stop-color="#1a1429"/><stop offset=".994" stop-color="#14141c"/></linearGradient><path d="M216 126.4c-.1-1.9-.7-3.8-1.8-5.5-.6-.9-1.2-1.6-1.8-2.4-.6-.8-1-1.5-1.8-2.2-.7-.7-1.6-1.2-2.6-1.3-.4 0-.6.3-.6.7 0 .4.3.6.7.6.9.1 1.6.8 2.2 1.3.8.8 1.5 1.7 2.1 2.7.7.9 1.4 1.7 1.7 2.8.5.9.7 2 .7 3.2.1.8 1.4.9 1.2.1z" fill="url(#n)"/><linearGradient id="o" gradientUnits="userSpaceOnUse" x1="396.355" y1="-165.833" x2="405.541" y2="-165.833" gradientTransform="matrix(-1 -.00925 -.00925 1 677.235 340.502)"><stop offset=".006" stop-color="#131636"/><stop offset=".096" stop-color="#171434"/><stop offset=".186" stop-color="#1a1429"/><stop offset=".994" stop-color="#14141c"/></linearGradient><path d="M273.8 176.3c1.9.2 3.8-.7 5.4-1.8.9-.6 1.7-1.2 2.2-2 .6-.8.7-1.8.9-2.8.2-1.2.3-2.5.1-3.7-.1-.4-.4-.5-.8-.4-.4.1-.5.4-.4.8.3 1.2 0 2.4-.1 3.6-.2.5-.1 1-.4 1.4-.3.5-.6.9-1 1.2-1.6 1.2-3.6 2.6-5.7 2.4-.4 0-.6.3-.6.7-.2.4 0 .6.4.6z" fill="url(#o)"/><linearGradient id="p" gradientUnits="userSpaceOnUse" x1="388.476" y1="-202.833" x2="407.895" y2="-202.833" gradientTransform="matrix(-1 -.00925 -.00925 1 677.235 340.502)"><stop offset=".006" stop-color="#131636"/><stop offset=".096" stop-color="#171434"/><stop offset=".186" stop-color="#1a1429"/><stop offset=".994" stop-color="#14141c"/></linearGradient><path d="M289.4 128.3c.1 1.6-.6 2.9-1.5 4.2-1 1.3-2.2 2.7-3.4 3.7-2.2 2-5.4 3-8.4 2.8-1.4-.1-3-.4-3.8-1.8-.4-.7-1.5-.2-1.1.7.6 1.5 2.3 2 3.7 2.3 1.7.2 3.4.2 5.1-.3 1.7-.5 3.2-1.2 4.5-2.2 1.4-1 2.7-2.5 3.8-4 1.3-1.6 2.3-3.2 2.2-5.4 0-.4-.3-.6-.7-.6-.1.1-.4.3-.4.6z" fill="url(#p)"/><linearGradient id="q" gradientUnits="userSpaceOnUse" x1="355.783" y1="-230.337" x2="679.522" y2="-230.337" gradientTransform="matrix(-1 -.00925 -.00925 1 677.235 340.502)"><stop offset=".006" stop-color="#131636"/><stop offset=".096" stop-color="#171434"/><stop offset=".186" stop-color="#1a1429"/><stop offset=".994" stop-color="#14141c"/></linearGradient><path d="M320 163.7c-6 4.3-13.3 7.3-20.9 7.3-6.4-.1-12.8-2.6-17.3-7.2-5.4-5.3-6-12.9-7.1-20.1-1-6.7-3.2-13-7.5-18.2-3.9-4.9-9.3-8.7-15.1-10.8-7.4-2.7-15.1-2.3-22.7-1.6-12.9 1.1-29.4 2.8-36.5-10.7-3.1-5.8-4.2-12.7-5.8-19.1-1.6-6.1-4.1-12-7.6-17.3-6.9-10.7-17-19.4-28.7-24.3-12.3-5.1-26-5.7-38.9-2.4-12.9 3.5-24.1 11-32.7 21.3-4.2 5-8 10.5-13.5 14.1-6.5 4.4-14.3 4.1-21.7 2.4-7.7-1.7-15.3-4.7-23.2-4.7-6.2 0-12.6 2.1-16.8 6.6C2 81.2.6 83.7.1 86.6c-.5 2.4 3.3 3.1 3.7.7 1.2-5.9 6.9-9.5 12.5-10.7 7.4-1.5 15.1 1.1 22.1 3 7.6 2 15.6 3.7 23.2 1.3 6.1-2 10.9-6.5 15-11.4 4.3-5 8.2-10.5 13.4-14.7 4.9-4.3 10.7-7.6 16.8-9.9 12.2-4.7 26.2-5.4 38.8-1.1 11.8 4 22.3 12 29.5 22.3 3.6 5.2 6.3 10.9 8 17 1.8 6.5 2.7 13.1 5.6 19.3 2.7 6 7.3 10.7 13.5 13.2 6.1 2.4 12.9 2.7 19.4 2.2 7.9-.5 16-2 23.9-.8 6.4 1 12.2 4 16.8 8.6 4.7 4.7 7.7 10.6 8.7 17 1.2 7.2 1.4 14.8 6 21 8.2 11.4 23.6 13.7 36.1 8.7 3.4-1.3 6.5-3.2 9.5-5.4 1.5-1.6-.7-4.7-2.6-3.2z" fill="url(#q)"/><linearGradient id="r" gradientUnits="userSpaceOnUse" x1="355.803" y1="-230.854" x2="679.516" y2="-230.854" gradientTransform="matrix(-1 -.00925 -.00925 1 677.235 340.502)"><stop offset=".006" stop-color="#28366f"/><stop offset=".227" stop-color="#243066"/><stop offset=".541" stop-color="#231f52"/><stop offset=".765" stop-color="#1e1041"/><stop offset=".994" stop-color="#22122e"/></linearGradient><path d="M4.2 81.8C8.6 77.3 14.9 75 21 75.2c8 0 15.4 3 23.2 4.7 7.4 1.8 15 2 21.7-2.4 5.5-3.8 9.3-9.2 13.6-14.3 8.4-10.3 19.6-17.9 32.7-21.3 12.9-3.3 26.6-2.7 38.9 2.4 11.7 4.9 21.9 13.5 28.7 24.3 3.4 5.3 5.9 11.2 7.6 17.3 1.7 6.5 2.6 13.2 5.8 19.1 7.2 13.5 23.6 11.9 36.5 10.7 7.6-.7 15.5-1.1 22.7 1.6 6 2.1 11.2 5.9 15.1 10.8 4.3 5.2 6.5 11.5 7.5 18.2 1 7.2 1.7 14.6 7.1 20.1 4.5 4.6 10.9 7.2 17.3 7.2 7.6.1 14.8-2.8 20.9-7.3.9-.6 1.7-.4 2.3.1 1.3-1.5-.7-4.3-2.5-2.8-6 4.3-13.3 7.3-20.9 7.3-6.4-.1-12.8-2.6-17.3-7.2-5.4-5.3-6-12.9-7.1-20.1-1-6.7-3.2-13-7.5-18.2-3.9-4.9-9.3-8.7-15.1-10.8-7.4-2.7-15.1-2.3-22.7-1.6-12.9 1.1-29.4 2.8-36.5-10.7-3.1-5.8-4.2-12.7-5.8-19.1-1.6-6.1-4.1-12-7.6-17.3-6.9-10.7-17-19.4-28.7-24.3-12.3-5.1-26-5.7-38.9-2.4C98.8 42.5 87.9 50 79.2 60.4c-4.2 5-8 10.5-13.5 14.1-6.4 4.4-14.3 4.1-21.7 2.4-7.7-1.6-15.3-4.6-23.3-4.6-6.2 0-12.5 2.1-16.8 6.7-2 2.2-3.4 4.7-3.9 7.6-.1.7.1 1.3.4 1.6.9-2.5 2.1-4.7 3.8-6.4z" fill="url(#r)"/><linearGradient id="s" gradientUnits="userSpaceOnUse" x1="378.648" y1="-212.062" x2="402.797" y2="-212.062" gradientTransform="matrix(-1 -.00925 -.00925 1 677.235 340.502)"><stop offset=".006" stop-color="#131636"/><stop offset=".096" stop-color="#171434"/><stop offset=".186" stop-color="#1a1429"/><stop offset=".994" stop-color="#14141c"/></linearGradient><path d="M289.9 138c2.1 0 4.3-.2 6-1.5s2.7-3.3 3.4-5.3c2.2-6.6 1-14.7-4.2-19.5.7 2.1-.6 4.5-2.3 5.7-1.7 1.4-4.1 1.9-6.1 2.4-2.7.6-5.2 1.6-7.3 3.3-2.2 1.7-3.5 4.3-3.1 7 .6 3.5 3.3 3.8 6.1 4.9 2.7 1.1 4.4 2.9 7.5 3z" fill="url(#s)"/><linearGradient id="t" gradientUnits="userSpaceOnUse" x1="401.487" y1="-164.603" x2="424.823" y2="-164.603" gradientTransform="matrix(-1 -.00925 -.00925 1 677.235 340.502)"><stop offset=".006" stop-color="#131636"/><stop offset=".096" stop-color="#171434"/><stop offset=".186" stop-color="#1a1429"/><stop offset=".994" stop-color="#14141c"/></linearGradient><path d="M276.8 171.7c-.4-1.5-1.6-2.9-2.9-3.3-2.1-.7-4.3.2-6.4.9-2.5.7-5.2 1-7.7.2s-4.7-2.5-5.7-4.8c.5 4 2.4 7.8 5.6 10.6 3 2.6 7.1 4.1 11.2 4.1 4.5-.2 7.5-2.8 5.9-7.7z" fill="url(#t)"/><linearGradient id="u" gradientUnits="userSpaceOnUse" x1="453.776" y1="-204.499" x2="474.853" y2="-204.499" gradientTransform="matrix(-1 -.00925 -.00925 1 677.235 340.502)"><stop offset=".006" stop-color="#131636"/><stop offset=".096" stop-color="#171434"/><stop offset=".186" stop-color="#1a1429"/><stop offset=".994" stop-color="#14141c"/></linearGradient><path d="M220.7 121.8c1.6.7 2.5 2.4 2.9 4.1.3 1.7.1 3.4.1 5.1-.3 3.8.1 7.7 1.7 11.2-.7-1.8-2.5-3-4.2-3.7-1.8-.6-3.8-.9-5.5-1.3-2.9-.7-5.6-2.1-7.8-4-1.1-.9-2.2-2-2.7-3.5-.6-1.5-.7-3.1 0-4.2 1.1-2 3.8-2.5 5.9-2.1 2.1.4 3.2.8 5-.2 1.4-1.1 2.3-2.4 4.6-1.4z" fill="url(#u)"/><linearGradient id="v" gradientUnits="userSpaceOnUse" x1="464.656" y1="-252.095" x2="487.206" y2="-252.095" gradientTransform="matrix(-1 -.00925 -.00925 1 677.235 340.502)"><stop offset=".006" stop-color="#131636"/><stop offset=".096" stop-color="#171434"/><stop offset=".186" stop-color="#1a1429"/><stop offset=".994" stop-color="#14141c"/></linearGradient><path d="M198 92.9c2 .3 4.1.2 6.1.3 3.6.1 7.2.7 10.7 1.9-1.9-3-2.2-6.6-3.4-9.8-1.2-3.4-3.2-6.5-5.8-9.1-2-1.8-4.7-3.5-7.5-2.8-2.3.8-3.3 2.8-3.4 4.9-.2 2.5 0 3.1-1.4 5.1-2.5 4.4-.2 8.5 4.7 9.5z" fill="url(#v)"/><linearGradient id="w" gradientUnits="userSpaceOnUse" x1="507.928" y1="-264.999" x2="532.783" y2="-264.999" gradientTransform="matrix(-1 -.00925 -.00925 1 677.235 340.502)"><stop offset=".006" stop-color="#131636"/><stop offset=".096" stop-color="#171434"/><stop offset=".186" stop-color="#1a1429"/><stop offset=".994" stop-color="#14141c"/></linearGradient><path d="M171.7 72.2c.1-1.8-.9-3.6-2.4-4.6-1.2-.7-2.5-1-3.8-1.2-3.4-.6-6.9-1-10.1-2.1-3.3-1-6.5-2.9-8.5-5.9 1.1 6.4 4 12.4 7.6 17.8 1.2 1.8 2.5 3.7 4.3 4.9 1.8 1.3 4.1 2 6.2 1.6 3.5-.8 2.7-3.2 3.7-5.5.6-1.7 2.9-2.4 3-5z" fill="url(#w)"/><linearGradient id="x" gradientUnits="userSpaceOnUse" x1="511.277" y1="-310.385" x2="531.955" y2="-310.385" gradientTransform="matrix(-1 -.00925 -.00925 1 677.235 340.502)"><stop offset=".006" stop-color="#131636"/><stop offset=".096" stop-color="#171434"/><stop offset=".186" stop-color="#1a1429"/><stop offset=".994" stop-color="#14141c"/></linearGradient><path d="M165.9 35.1c2.7-2.5 3.6-6.8 2.2-10.2-.7-1.7-1.9-3.1-3.1-4.4-2.2-2.5-4.7-4.9-7.4-7 1 2.4.5 5.4-1.3 7.2-1.8 2-4.7 2.7-6.5 4.6-1.2 1.4-1.8 3.3-1.9 5.2.1 1.4.6 3 1.8 3.6.6.3 1.3.2 2 .1 1.4-.2 2.8-.5 4.2-1.1-4.2 5.8 7.4 4.4 10 2z" fill="url(#x)"/><linearGradient id="y" gradientUnits="userSpaceOnUse" x1="570.753" y1="-307.777" x2="592.47" y2="-307.777" gradientTransform="matrix(-1 -.00925 -.00925 1 677.235 340.502)"><stop offset=".006" stop-color="#131636"/><stop offset=".096" stop-color="#171434"/><stop offset=".186" stop-color="#1a1429"/><stop offset=".994" stop-color="#14141c"/></linearGradient><path d="M103.3 19.5c-4.3-3.5-11.1-4.1-15.6-.9 3.8-.7 7.6 2.2 8.1 5.9.4 3.1-1.4 6.2-.5 9.2.9 2.8 3.8 4.6 6.7 4.5 11.5-.4 7.3-13.9 1.3-18.7z" fill="url(#y)"/><linearGradient id="z" gradientUnits="userSpaceOnUse" x1="566.761" y1="-264.971" x2="592.775" y2="-264.971" gradientTransform="matrix(-1 -.00925 -.00925 1 677.235 340.502)"><stop offset=".006" stop-color="#131636"/><stop offset=".096" stop-color="#171434"/><stop offset=".186" stop-color="#1a1429"/><stop offset=".994" stop-color="#14141c"/></linearGradient><path d="M106.7 71.6c-.6-2.8-1-5.6-2-8.3-.5-1.2-1.1-2.3-2.1-3.1-1.9-1.6-5-1.6-6.9 0-2 1.6-2.6 4.3-1.8 6.8-1.4-.3-2.9-.5-4.3.1-1.4.5-2.6 1.7-2.7 3.2-.2 1.7.9 3.5 2.5 4.3 1.5 1 3.3 1.1 5.1 1.6 6.3 1.2 12.3 3 18.3 5.3-2.8-2.9-5.1-5.8-6.1-9.9z" fill="url(#z)"/><linearGradient id="A" gradientUnits="userSpaceOnUse" x1="624.745" y1="-239.079" x2="646.112" y2="-239.079" gradientTransform="matrix(-1 -.00925 -.00925 1 677.235 340.502)"><stop offset=".006" stop-color="#131636"/><stop offset=".096" stop-color="#171434"/><stop offset=".186" stop-color="#1a1429"/><stop offset=".994" stop-color="#14141c"/></linearGradient><path d="M51.2 100.2c-3.2 2.8-7.5 3.6-11.8 3.6-2.3 0-4.8-.5-6.1-2.3 1.7.8 3.7.6 5.1-.4 1.5-.9 2.5-2.7 2.5-4.5 0-1.8-.8-3.7-.2-5.4.7-2 3.1-2.9 5.1-3.2 3.2-.8 7.1-1.4 8.4 2.4 1.4 3.2-.3 7.5-3 9.8z" fill="url(#A)"/><linearGradient id="B" gradientUnits="userSpaceOnUse" x1="634.758" y1="-275.989" x2="656.57" y2="-275.989" gradientTransform="matrix(-1 -.00925 -.00925 1 677.235 340.502)"><stop offset=".006" stop-color="#131636"/><stop offset=".096" stop-color="#171434"/><stop offset=".186" stop-color="#1a1429"/><stop offset=".994" stop-color="#14141c"/></linearGradient><path d="M36.5 68.6c2.2-.6 4-2 4.9-4 .4-1.1.6-2.3.8-3.5.6-4.5 1.5-8.8 3-12.9-.7 2.2-2.9 3.5-5.2 4.1-2.3.6-4.5.6-6.7 1.3-2.5.7-4.7 2.3-6.7 4.1-1.6 1.4-3.1 3.3-3.4 5.4-.1.9.1 1.9.8 2.3.7.5 1.5.5 2.5.4 2.7-.3 2.5 1 4 2.3 1.6 1.3 3.9 1.1 6 .5z" fill="url(#B)"/><linearGradient id="C" gradientUnits="userSpaceOnUse" x1="510.817" y1="-264.065" x2="523.2" y2="-264.065" gradientTransform="matrix(-1 -.00925 -.00925 1 677.235 340.502)"><stop offset=".006" stop-color="#28366f"/><stop offset=".227" stop-color="#243066"/><stop offset=".541" stop-color="#231f52"/><stop offset=".765" stop-color="#1e1041"/><stop offset=".994" stop-color="#22122e"/></linearGradient><path d="M168.8 71.4c0-.3 0-.5-.3-.7-.1-.2-.4-.2-.6-.3-1.9-.5-4 0-6-.1s-4.3-.4-5.4-2.2c1.7 3.2 13.8 12 12.3 3.3z" fill="url(#C)"/><linearGradient id="D" gradientUnits="userSpaceOnUse" x1="381.617" y1="-210.51" x2="397.508" y2="-210.51" gradientTransform="matrix(-1 -.00925 -.00925 1 677.235 340.502)"><stop offset=".006" stop-color="#28366f"/><stop offset=".227" stop-color="#243066"/><stop offset=".541" stop-color="#231f52"/><stop offset=".765" stop-color="#1e1041"/><stop offset=".994" stop-color="#22122e"/></linearGradient><path d="M297.5 118.7c-.5 1.8-1.8 3.2-3.5 4-1.6.8-3.4 1.3-5.3 1.7-1.3.3-2.7.6-3.9.9-.8.2-1.6.3-2.3 1-1.4 1-1.3 3.3-.4 4.9 6.1 9.6 14.9-7 15.4-12.5z" fill="url(#D)"/><linearGradient id="E" gradientUnits="userSpaceOnUse" x1="638.63" y1="-275.517" x2="651.449" y2="-275.517" gradientTransform="matrix(-1 -.00925 -.00925 1 677.235 340.502)"><stop offset=".006" stop-color="#28366f"/><stop offset=".227" stop-color="#243066"/><stop offset=".541" stop-color="#231f52"/><stop offset=".765" stop-color="#1e1041"/><stop offset=".994" stop-color="#22122e"/></linearGradient><path d="M41.2 53.9c-4 1.7-7.8 3.4-11.1 5.9-.6.5-1.3 1.1-1.6 1.9-.3.8-.2 1.8.6 2.3 1 .6 2.3-.2 3.2-1 1.6-1.4 3.3-2.8 4.8-4.3-.8.6 2.2 3.5 2.7 3.8.5-3 .7-5.9 1.4-8.6z" fill="url(#E)"/><linearGradient id="F" gradientUnits="userSpaceOnUse" x1="512.631" y1="-306.344" x2="528.763" y2="-306.344" gradientTransform="matrix(-1 -.00925 -.00925 1 677.235 340.502)"><stop offset=".006" stop-color="#28366f"/><stop offset=".227" stop-color="#243066"/><stop offset=".541" stop-color="#231f52"/><stop offset=".765" stop-color="#1e1041"/><stop offset=".994" stop-color="#22122e"/></linearGradient><path d="M158.6 24.2c-2.9.8-5.6 2.8-7 5.3-.2.3-.3.7-.2 1 0 .5.6.8 1 .8 1.6.6 3.4.2 5-.1-2.1 4.3 7.2 4.3 9.2.8.4-.7 1.2-2.6.8-3.3-.7-1.7-.7-.6-2.4-.8-2.6-.3-5.3-.6-6.4-3.7z" fill="url(#F)"/><linearGradient id="G" gradientUnits="userSpaceOnUse" x1="458.688" y1="-205.091" x2="471.633" y2="-205.091" gradientTransform="matrix(-1 -.00925 -.00925 1 677.235 340.502)"><stop offset=".006" stop-color="#28366f"/><stop offset=".227" stop-color="#243066"/><stop offset=".541" stop-color="#231f52"/><stop offset=".765" stop-color="#1e1041"/><stop offset=".994" stop-color="#22122e"/></linearGradient><path d="M216.3 128.8c-.2-.3-.4-.7-.8-.9-.3-.2-.8-.2-1.2-.3-1.1-.2-2.2-.8-3.2-1.1-1.1-.3-2.5-.3-3.3.7-.7.9-.4 2.1.2 3.1.7.9 1.6 1.5 2.7 2 2.8 1.5 6.3 3.4 9.6 3.8-1.3-2.6-2.6-5-4-7.3z" fill="url(#G)"/></svg>