<svg xmlns="http://www.w3.org/2000/svg" width="400" height="200"><linearGradient id="a" gradientUnits="userSpaceOnUse" x1="446.733" y1="995.182" x2="463.462" y2="995.182" gradientTransform="scale(1 -1) rotate(3.967 16550.55 -3381.76)"><stop offset=".006" stop-color="#131636"/><stop offset=".096" stop-color="#171434"/><stop offset=".186" stop-color="#1a1429"/><stop offset=".994" stop-color="#14141c"/></linearGradient><path d="M183.7 130.5c2.1-1.2 4.6-1.5 7.1-1.6 2.5-.1 5.1.3 7.5 1.1.4.2.8-.2 1-.6.2-.4-.1-.8-.6-1-2.5-.7-5.4-1.1-8.2-1.1-2.6.1-5.4.4-7.6 1.8-.9.6-.1 1.9.8 1.4z" fill="url(#a)"/><linearGradient id="b" gradientUnits="userSpaceOnUse" x1="549.594" y1="980.82" x2="580.068" y2="980.82" gradientTransform="scale(1 -1) rotate(3.967 16550.55 -3381.76)"><stop offset=".006" stop-color="#131636"/><stop offset=".096" stop-color="#171434"/><stop offset=".186" stop-color="#1a1429"/><stop offset=".994" stop-color="#14141c"/></linearGradient><path d="M288.1 145.2c1.6 1.8 3.9 2.8 6.3 3.1 2.4.3 4.7.1 7.2-.3 5.2-.6 10.5-1.2 15.8-1.8-4.7-1.8-8.7-5.4-10.7-10-1.9-4.2-2.6-9.3-6.7-11.7-2.9-1.8-7.2-1.2-9.5 1.5-2.6 3.2-.4 6.4-1.7 9.6-.5 1.4-1.9 1.9-2.2 3.3-.6 1.9.1 4.6 1.5 6.3z" fill="url(#b)"/><linearGradient id="c" gradientUnits="userSpaceOnUse" x1="453.13" y1="986.712" x2="480.836" y2="986.712" gradientTransform="scale(1 -1) rotate(3.967 16550.55 -3381.76)"><stop offset=".006" stop-color="#131636"/><stop offset=".096" stop-color="#171434"/><stop offset=".186" stop-color="#1a1429"/><stop offset=".994" stop-color="#14141c"/></linearGradient><path d="M189.6 138c.2.6.6 1.1 1.1 1.5 1.1 1 2.4 1.8 3.7 2.6 2.1 1.2 4.4 1.7 6.8 2.3 5.7 1.5 11.3 3 17 4.5-2-2.2-2.9-5.4-3.1-8.5-.2-3.1 0-6.2-.6-9.2-1.3-6.4-7.4-10.2-13.4-7-3.8 1.9-12.9 9.1-11.5 13.8z" fill="url(#c)"/><linearGradient id="d" gradientUnits="userSpaceOnUse" x1="421.76" y1="1044.261" x2="451.593" y2="1044.261" gradientTransform="scale(1 -1) rotate(3.967 16550.55 -3381.76)"><stop offset=".006" stop-color="#131636"/><stop offset=".096" stop-color="#171434"/><stop offset=".186" stop-color="#1a1429"/><stop offset=".994" stop-color="#14141c"/></linearGradient><path d="M156.2 76.4c2.2-2.2 5.8-2.8 8.9-3.2.4-2.8 3.7-4.5 6.5-3.9 2.8.6 4.9 2.7 6.6 5 3.9 5.1 6.1 11.4 6.6 17.7-.3-6.8-16.7-3.7-20.5-3.1-6.7 1.1-13.7-6.5-8.1-12.5z" fill="url(#d)"/><linearGradient id="e" gradientUnits="userSpaceOnUse" x1="415.275" y1="1052.101" x2="432.619" y2="1052.101" gradientTransform="scale(1 -1) rotate(3.967 16550.55 -3381.76)"><stop offset=".006" stop-color="#131636"/><stop offset=".096" stop-color="#171434"/><stop offset=".186" stop-color="#1a1429"/><stop offset=".994" stop-color="#14141c"/></linearGradient><path d="M148.9 77.5c1-1.9 2.9-3.1 4.8-3.8 1.1-.5 2.4-.8 3.5-1.1 1.1-.3 2.5-.3 3.6.2 1.2.4 2 1.2 2.2 2.2.3.9 1.8.4 1.5-.5-.9-2.7-3.9-3.8-6.5-3.6-1.5.1-2.9.5-4.3 1.1-1.2.5-2.4.9-3.5 1.8-1.2.9-2.2 1.8-2.8 3.2-.4.8.9 1.5 1.5.5z" fill="url(#e)"/><linearGradient id="f" gradientUnits="userSpaceOnUse" x1="340.411" y1="1050.201" x2="364.195" y2="1050.201" gradientTransform="scale(1 -1) rotate(3.967 16550.55 -3381.76)"><stop offset=".006" stop-color="#131636"/><stop offset=".096" stop-color="#171434"/><stop offset=".186" stop-color="#1a1429"/><stop offset=".994" stop-color="#14141c"/></linearGradient><path d="M74 72.1c-2.2 3.3-2.1 7.7-.3 11.2 1.8 3.6 4.9 6.3 8.3 8.2 2.9 1.8 6.3 3.1 9.8 3.4-2.4-2.2-2.1-6.1-.7-9.1 1.4-2.9 3.6-5.5 4.5-8.7.9-3.4 0-7.3-2.8-9.5-3.2-2.4-6-.9-9.2.1-3.5 1.4-7.3 1-9.6 4.4z" fill="url(#f)"/><linearGradient id="g" gradientUnits="userSpaceOnUse" x1="622.428" y1="996.05" x2="637.723" y2="996.05" gradientTransform="scale(1 -1) rotate(3.967 16550.55 -3381.76)"><stop offset=".006" stop-color="#131636"/><stop offset=".096" stop-color="#171434"/><stop offset=".186" stop-color="#1a1429"/><stop offset=".994" stop-color="#14141c"/></linearGradient><path d="M359.4 124.8c4.6-3.2 8.5-7.6 11.4-12.6.8-1.5 1.7-3 1.6-4.7-.1-.9-1.6-.8-1.5.1 0 1.4-.6 2.6-1.3 3.9-.7 1.2-1.3 2.3-2 3.4-1.6 2.2-3.5 4.2-5.3 6-1.1 1.1-2.3 1.9-3.5 2.8-1.1.4-.1 1.6.6 1.1z" fill="url(#g)"/><linearGradient id="h" gradientUnits="userSpaceOnUse" x1="597.34" y1="1020.739" x2="602.155" y2="1020.739" gradientTransform="scale(1 -1) rotate(3.967 16550.55 -3381.76)"><stop offset=".006" stop-color="#131636"/><stop offset=".096" stop-color="#171434"/><stop offset=".186" stop-color="#1a1429"/><stop offset=".994" stop-color="#14141c"/></linearGradient><path d="M333.3 83.4c-1.5 2.6-2.2 5.6-2.4 8.6 0 2.7.3 5.4 1.5 7.8.6 1.4 1.6 2.6 2.8 3.7.7.7 1.7-.5 1-1.2-3.7-3.4-4.4-9.2-3.2-13.9.4-1.5 1-2.9 1.7-4.2.2-.4.1-.8-.4-1.1-.3-.2-.7 0-1 .3z" fill="url(#h)"/><linearGradient id="i" gradientUnits="userSpaceOnUse" x1="545.238" y1="992.057" x2="567.667" y2="992.057" gradientTransform="scale(1 -1) rotate(3.967 16550.55 -3381.76)"><stop offset=".006" stop-color="#131636"/><stop offset=".096" stop-color="#171434"/><stop offset=".186" stop-color="#1a1429"/><stop offset=".994" stop-color="#14141c"/></linearGradient><path d="M280.7 120.8c1.8 2.6 4.6 4.5 7.2 6.1 1.5.9 2.9 1.7 4.4 2.5s3.2 1.1 4.9 1.2c1.9.1 3.9-.1 5.9-.3.9-.1.9-1.7-.1-1.5-3.2.4-6.5.7-9.5-.6-1.4-.6-2.8-1.5-4.2-2.3-1.3-.8-2.5-1.5-3.6-2.4-1.3-1-2.5-2.1-3.5-3.5-.7-.8-2-.1-1.5.8z" fill="url(#i)"/><linearGradient id="j" gradientUnits="userSpaceOnUse" x1="533.809" y1="955.926" x2="541.802" y2="955.926" gradientTransform="scale(1 -1) rotate(3.967 16550.55 -3381.76)"><stop offset=".006" stop-color="#131636"/><stop offset=".096" stop-color="#171434"/><stop offset=".186" stop-color="#1a1429"/><stop offset=".994" stop-color="#14141c"/></linearGradient><path d="M275.2 173.1c-2.1-5.5-1.6-11.9 1.1-17.3.7-1.5 1.7-2.9 2.8-4.1.7-.7-.5-1.7-1.2-1-4.1 4.8-6.2 11.3-5.5 17.5.2 1.8.6 3.5 1.2 5.2.4 1.2 1.9.6 1.6-.3z" fill="url(#j)"/><linearGradient id="k" gradientUnits="userSpaceOnUse" x1="474.76" y1="954.475" x2="493.922" y2="954.475" gradientTransform="scale(1 -1) rotate(3.967 16550.55 -3381.76)"><stop offset=".006" stop-color="#131636"/><stop offset=".096" stop-color="#171434"/><stop offset=".186" stop-color="#1a1429"/><stop offset=".994" stop-color="#14141c"/></linearGradient><path d="M215.2 174.7c-.4-1.6.4-3.1 1.1-4.4.7-1.2 1.4-2.4 2.5-3.5 1.9-2.3 4.4-4.1 7.2-5 1.7-.5 3.3-.9 5-.7.4.1.8-.1 1-.6.2-.4-.2-.9-.6-1-3.5-.2-6.9.7-9.8 2.7-2.7 1.8-4.8 4.4-6.5 7.1-1 1.8-1.8 3.8-1.2 5.8 0 .4.6.6 1 .4.3 0 .5-.4.3-.8z" fill="url(#k)"/><linearGradient id="l" gradientUnits="userSpaceOnUse" x1="440.857" y1="1005.975" x2="465.844" y2="1005.975" gradientTransform="scale(1 -1) rotate(3.967 16550.55 -3381.76)"><stop offset=".006" stop-color="#131636"/><stop offset=".096" stop-color="#171434"/><stop offset=".186" stop-color="#1a1429"/><stop offset=".994" stop-color="#14141c"/></linearGradient><path d="M177 117.2c2.3-2.3 5.8-2.8 8.8-2.3 3.3.6 6.7 2.3 9.5 4.2 1.6 1.1 3.1 2.2 4.5 3.5.7.7 1.7-.5 1-1.2-2.7-2.5-5.8-4.5-9.1-6s-7.1-2.6-10.9-1.9c-1.9.4-3.7 1.2-5 2.8-.6.6.6 1.5 1.2.9z" fill="url(#l)"/><linearGradient id="m" gradientUnits="userSpaceOnUse" x1="426.494" y1="1008.455" x2="444.776" y2="1008.455" gradientTransform="scale(1 -1) rotate(3.967 16550.55 -3381.76)"><stop offset=".006" stop-color="#131636"/><stop offset=".096" stop-color="#171434"/><stop offset=".186" stop-color="#1a1429"/><stop offset=".994" stop-color="#14141c"/></linearGradient><path d="M161.1 111.6c-.4 1.6 1.4 2.7 2.4 3.4 1.2 1 2.2 1.7 3.5 2.6 2.4 1.5 4.9 2.8 7.6 3.9 1.5.5 3.1 1.1 4.7 1.5 1 .3 1.3-1.2.3-1.5-5.1-1.4-9.9-3.6-14-6.8-.6-.4-1.2-1-1.8-1.4-.3-.3-1.3-.9-1.1-1.4 0-1-1.4-1.3-1.6-.3z" fill="url(#m)"/><linearGradient id="n" gradientUnits="userSpaceOnUse" x1="403.403" y1="1057.432" x2="413.958" y2="1057.432" gradientTransform="scale(1 -1) rotate(3.967 16550.55 -3381.76)"><stop offset=".006" stop-color="#131636"/><stop offset=".096" stop-color="#171434"/><stop offset=".186" stop-color="#1a1429"/><stop offset=".994" stop-color="#14141c"/></linearGradient><path d="M134.5 64.1c.2 2.3 1.1 4.5 2.6 6.2.7 1 1.7 1.8 2.5 2.8.8.8 1.5 1.7 2.3 2.3.9.7 2 1.2 3.2 1.3.4.1.7-.5.7-.8 0-.4-.4-.7-.8-.7-1 .1-2-.7-2.7-1.5-1-.9-1.9-2-2.8-3.1-.9-.9-1.8-1.9-2.4-3.1-.7-1.2-.9-2.4-1.1-3.7-.1-.8-1.6-.6-1.5.3z" fill="url(#n)"/><linearGradient id="o" gradientUnits="userSpaceOnUse" x1="323.088" y1="1116.731" x2="334.146" y2="1116.731" gradientTransform="scale(1 -1) rotate(3.967 16550.55 -3381.76)"><stop offset=".006" stop-color="#131636"/><stop offset=".096" stop-color="#171434"/><stop offset=".186" stop-color="#1a1429"/><stop offset=".994" stop-color="#14141c"/></linearGradient><path d="M60.6 9.6c-2.4-.1-4.5 1.2-6.2 2.6-.9.7-2 1.6-2.5 2.5-.5 1-.8 2.2-.7 3.4-.1 1.5-.1 3 .3 4.5 0 .4.6.6 1 .4.4 0 .6-.5.4-1-.3-1.4-.3-2.9-.2-4.4.1-.6.1-1.2.4-1.8.2-.7.5-1 1.2-1.6 1.8-1.7 4-3.5 6.7-3.5.4.1.7-.5.7-.8-.3-.1-.7-.2-1.1-.3z" fill="url(#o)"/><linearGradient id="p" gradientUnits="userSpaceOnUse" x1="313.591" y1="1072.359" x2="336.993" y2="1072.359" gradientTransform="scale(1 -1) rotate(3.967 16550.55 -3381.76)"><stop offset=".006" stop-color="#131636"/><stop offset=".096" stop-color="#171434"/><stop offset=".186" stop-color="#1a1429"/><stop offset=".994" stop-color="#14141c"/></linearGradient><path d="M46.5 68.5c-.3-1.8.5-3.6 1.6-5.1 1.1-1.7 2.3-3.4 3.6-4.8 2.5-2.6 6.1-4.2 9.8-4.2 1.6 0 3.8.3 4.7 1.7.6.8 1.8 0 1.2-.9-1-1.6-2.9-2.3-4.7-2.3-2-.2-4.2.2-6.1.7-2 .6-3.8 1.7-5.3 3-1.7 1.5-3 3.4-4.2 5.1-1.3 2-2.4 4.1-2.2 6.6 0 .4.4.8.8.7.4.4.8-.1.8-.5z" fill="url(#p)"/><linearGradient id="q" gradientUnits="userSpaceOnUse" x1="274.34" y1="1038.98" x2="663.733" y2="1038.98" gradientTransform="scale(1 -1) rotate(3.967 16550.55 -3381.76)"><stop offset=".006" stop-color="#131636"/><stop offset=".096" stop-color="#171434"/><stop offset=".186" stop-color="#1a1429"/><stop offset=".994" stop-color="#14141c"/></linearGradient><path d="M6.4 29.1c6.9-5.9 15.3-10 24.3-10.7 7.7-.6 15.6 2 21.5 7 7 5.9 8.5 14.8 10.4 23.4 1.9 7.9 5.1 15.2 10.8 21.1 5.3 5.4 11.9 9.6 19.2 11.6 9 2.5 18.5 1.4 27.4-.2 15.4-2.7 35-6.2 44.8 9.4 4.4 6.8 6.2 14.8 8.8 22.4 2.5 7.3 6.1 14 10.7 20.1 9.1 12.3 22.2 21.7 36.6 26.5 15.2 5 31.9 4.6 46.9-.8 15.3-5.3 28-15.5 37.1-28.6 4.4-6.4 8.7-13.4 14.9-18.4 7.3-5.9 16.7-6.2 25.8-5.1 9.4 1.2 18.7 4.1 28.3 3.4 7.3-.5 14.8-3.6 19.6-9.6 2.2-2.7 3.6-6 3.9-9.5.4-2.9-4.2-3.5-4.6-.5-.9 7.1-7.3 12.1-13.9 14-8.8 2.5-18.2.1-26.8-1.5-9.3-1.7-19.1-3.1-28 .7-7.1 3-12.4 8.9-17 15.1-4.8 6.5-8.9 13.4-14.5 19-5.6 5.4-12.1 10-19.3 13.5-14.2 6.8-31 9-46.4 5-14.7-3.7-28-12.3-37.4-24.1-4.8-6-8.6-12.4-11.2-19.6-2.8-7.5-4.4-15.6-8.4-22.7-3.8-6.9-9.7-12.2-17.4-14.5-7.6-2.3-15.7-2-23.4-.8-9.4 1.3-19 3.9-28.5 3.2-7.8-.6-15.1-3.8-21.1-8.7-6.1-5.1-10.1-11.9-12.2-19.6-2.1-8.3-3.1-17.4-9-24.4C47.6 12.1 28.8 10.9 14.4 18c-3.9 2-7.6 4.5-10.9 7.3-2.4 2.2.7 5.7 2.9 3.8z" fill="url(#q)"/><linearGradient id="r" gradientUnits="userSpaceOnUse" x1="274.286" y1="1038.248" x2="663.796" y2="1038.248" gradientTransform="scale(1 -1) rotate(3.967 16550.55 -3381.76)"><stop offset=".006" stop-color="#28366f"/><stop offset=".227" stop-color="#243066"/><stop offset=".541" stop-color="#231f52"/><stop offset=".765" stop-color="#1e1041"/><stop offset=".994" stop-color="#22122e"/></linearGradient><path d="M393 97.7c-4.7 5.9-12.1 9-19.6 9.6-9.7.7-18.9-2.1-28.3-3.4-9-1.4-18.3-.9-25.8 5.1-6.2 5-10.3 11.9-14.9 18.4-9.4 13.2-21.8 23.3-37.1 28.6-15.2 5.3-31.6 5.8-46.9.8-14.5-4.8-27.6-14.2-36.6-26.5-4.7-6.1-8.2-13-10.7-20.1-2.7-7.5-4.4-15.6-8.8-22.4-9.9-15.5-29.5-12.1-44.8-9.4-9.1 1.6-18.4 2.8-27.4.2-7.3-1.9-13.9-6.1-19.2-11.6-5.7-6-8.9-13.1-10.8-21.1-2-8.5-3.4-17.4-10.4-23.4-5.9-5.1-13.8-7.5-21.5-7-9.1.5-17.5 4.6-24.4 10.5-.9.8-2 .7-2.7.1-1.6 2 1.1 5 3.3 3.2 6.8-5.9 15.3-9.9 24.4-10.7 7.7-.6 15.6 2 21.5 7 7 5.9 8.5 14.8 10.4 23.4 1.9 7.9 5.1 15.2 10.8 21.1 5.3 5.4 11.9 9.6 19.2 11.6 9 2.5 18.5 1.4 27.4-.2 15.4-2.7 35-6.2 44.8 9.4 4.4 6.8 6.2 14.8 8.8 22.4 2.5 7.3 6.1 14 10.7 20.1 9.1 12.3 22.2 21.7 36.6 26.5 15.2 5 31.9 4.6 46.9-.8 15.3-5.3 28-15.5 37.1-28.6 4.4-6.4 8.7-13.4 14.9-18.4 7.3-5.9 16.7-6.2 25.8-5.1 9.4 1.2 18.7 4.1 28.3 3.4 7.3-.5 14.8-3.6 19.6-9.6 2.2-2.7 3.6-6 3.9-9.5.1-.9-.2-1.5-.8-1.9-.5 3.1-1.8 5.8-3.7 8.3z" fill="url(#r)"/><linearGradient id="s" gradientUnits="userSpaceOnUse" x1="301.768" y1="1061.138" x2="330.838" y2="1061.138" gradientTransform="scale(1 -1) rotate(3.967 16550.55 -3381.76)"><stop offset=".006" stop-color="#131636"/><stop offset=".096" stop-color="#171434"/><stop offset=".186" stop-color="#1a1429"/><stop offset=".994" stop-color="#14141c"/></linearGradient><path d="M44.8 57c-2.5.2-5.1.8-7.2 2.3-2 1.7-3 4.2-3.7 6.7-2.1 8.3.2 17.8 6.9 23.1-1-2.4.3-5.3 2.2-7.1 2-1.7 4.7-2.6 7-3.5 3.1-1.1 6.1-2.3 8.4-4.6 2.3-2.2 3.8-5.6 3-8.8-1-4.1-4.4-4.3-7.7-5.2-3-.9-5.1-3.1-8.9-2.9z" fill="url(#s)"/><linearGradient id="t" gradientUnits="userSpaceOnUse" x1="329.295" y1="1118.019" x2="357.41" y2="1118.019" gradientTransform="scale(1 -1) rotate(3.967 16550.55 -3381.76)"><stop offset=".006" stop-color="#131636"/><stop offset=".096" stop-color="#171434"/><stop offset=".186" stop-color="#1a1429"/><stop offset=".994" stop-color="#14141c"/></linearGradient><path d="M57.5 15.3c.7 1.7 2.1 3.2 3.9 3.7 2.5.7 5-.8 7.7-1.6 2.9-1.1 6.2-1.6 9.2-.9 3 .6 5.9 2.6 7.5 5.3-1-4.8-3.8-9.4-7.7-12.1-3.9-2.9-8.9-4.3-13.8-3.8-5.8.4-9.3 3.7-6.8 9.4z" fill="url(#t)"/><linearGradient id="u" gradientUnits="userSpaceOnUse" x1="392.252" y1="1070.074" x2="417.637" y2="1070.074" gradientTransform="scale(1 -1) rotate(3.967 16550.55 -3381.76)"><stop offset=".006" stop-color="#131636"/><stop offset=".096" stop-color="#171434"/><stop offset=".186" stop-color="#1a1429"/><stop offset=".994" stop-color="#14141c"/></linearGradient><path d="M129.5 70.1c-1.9-.7-3.3-2.5-3.8-4.5-.6-2-.4-4.1-.4-6.1-.1-4.7-.9-9.3-3-13.3 1 2.1 3.2 3.4 5.5 4 2.1.7 4.6.6 6.9 1.1 3.5.7 6.8 2 9.8 4.1 1.4 1 2.7 2.2 3.6 3.8.9 1.5 1.1 3.5.4 5.1-1.1 2.5-4.2 3.4-6.8 3.1-2.7-.4-3.8-.7-6 .7-2.4 1.2-3.5 2.9-6.2 2z" fill="url(#u)"/><linearGradient id="v" gradientUnits="userSpaceOnUse" x1="405.287" y1="1012.981" x2="432.407" y2="1012.981" gradientTransform="scale(1 -1) rotate(3.967 16550.55 -3381.76)"><stop offset=".006" stop-color="#131636"/><stop offset=".096" stop-color="#171434"/><stop offset=".186" stop-color="#1a1429"/><stop offset=".994" stop-color="#14141c"/></linearGradient><path d="M159.4 102.6c-2.4-.3-4.9.1-7.4.2-4.4.2-8.7-.2-13-1.2 2.5 3.3 3.3 7.7 5 11.5 1.8 4 4.5 7.6 7.9 10.3 2.5 2.1 6 3.7 9.1 2.6 2.8-1.1 3.6-3.6 3.5-6.3 0-3-.2-3.8 1.2-6.4 2.9-5.2-.3-10.1-6.3-10.7z" fill="url(#v)"/><linearGradient id="w" gradientUnits="userSpaceOnUse" x1="457.405" y1="997.65" x2="487.339" y2="997.65" gradientTransform="scale(1 -1) rotate(3.967 16550.55 -3381.76)"><stop offset=".006" stop-color="#131636"/><stop offset=".096" stop-color="#171434"/><stop offset=".186" stop-color="#1a1429"/><stop offset=".994" stop-color="#14141c"/></linearGradient><path d="M192.9 124.9c.1 2.1 1.4 4.2 3.4 5.2 1.4.7 3 .9 4.6 1.1 4.2.3 8.4.5 12.4 1.6 4 .9 8.1 2.9 10.6 6.1-1.9-7.5-6-14.5-10.8-20.6-1.5-2.1-3.4-4.2-5.5-5.6-2.2-1.4-5-2.2-7.6-1.4-4.1 1.3-2.9 4-3.8 7.1-.9 2.4-3.4 3.4-3.3 6.5z" fill="url(#w)"/><linearGradient id="x" gradientUnits="userSpaceOnUse" x1="461.414" y1="942.654" x2="486.305" y2="942.654" gradientTransform="scale(1 -1) rotate(3.967 16550.55 -3381.76)"><stop offset=".006" stop-color="#131636"/><stop offset=".096" stop-color="#171434"/><stop offset=".186" stop-color="#1a1429"/><stop offset=".994" stop-color="#14141c"/></linearGradient><path d="M203.3 169c-3.1 3.3-3.6 8.5-1.7 12.5 1 1.9 2.6 3.6 4.1 5.1 3 2.8 6.2 5.3 9.6 7.7-1.5-2.8-1.2-6.3.7-8.8 2-2.6 5.3-3.7 7.3-6.1 1.3-1.8 1.9-4.1 1.6-6.4-.2-1.6-1-3.6-2.6-4.1-.8-.3-1.6-.1-2.4 0-1.7.4-3.4 1-5 1.7 5.1-7.7-8.8-4.8-11.6-1.6z" fill="url(#x)"/><linearGradient id="y" gradientUnits="userSpaceOnUse" x1="533.018" y1="945.885" x2="559.135" y2="945.885" gradientTransform="scale(1 -1) rotate(3.967 16550.55 -3381.76)"><stop offset=".006" stop-color="#131636"/><stop offset=".096" stop-color="#171434"/><stop offset=".186" stop-color="#1a1429"/><stop offset=".994" stop-color="#14141c"/></linearGradient><path d="M279.8 181.5c5.6 3.8 13.8 4 19-.3-4.4 1.3-9.4-1.9-10.4-6.4-.7-3.6 1.1-7.5-.3-11-1.3-3.3-5.1-5.1-8.5-4.7-13.6 1.7-7.2 17.5.2 22.4z" fill="url(#y)"/><linearGradient id="z" gradientUnits="userSpaceOnUse" x1="528.241" y1="997.422" x2="559.57" y2="997.422" gradientTransform="scale(1 -1) rotate(3.967 16550.55 -3381.76)"><stop offset=".006" stop-color="#131636"/><stop offset=".096" stop-color="#171434"/><stop offset=".186" stop-color="#1a1429"/><stop offset=".994" stop-color="#14141c"/></linearGradient><path d="M271 119.4c1.1 3.2 1.7 6.7 3.3 9.7.6 1.4 1.5 2.7 2.8 3.6 2.4 1.7 6.1 1.5 8.3-.7 2.2-2 2.8-5.5 1.6-8.3 1.7.2 3.6.2 5.1-.6 1.6-.7 2.9-2.2 2.9-4 .2-2.1-1.4-4-3.4-5.1-2-.9-4.1-1.1-6.3-1.3-7.7-.8-15.1-2.4-22.4-4.7 3.5 3.6 6.4 6.6 8.1 11.4z" fill="url(#z)"/><linearGradient id="A" gradientUnits="userSpaceOnUse" x1="597.996" y1="1028.439" x2="623.731" y2="1028.439" gradientTransform="scale(1 -1) rotate(3.967 16550.55 -3381.76)"><stop offset=".006" stop-color="#131636"/><stop offset=".096" stop-color="#171434"/><stop offset=".186" stop-color="#1a1429"/><stop offset=".994" stop-color="#14141c"/></linearGradient><path d="M334.9 79.9c3.5-3.6 8.8-5 13.8-5.4 2.7-.1 5.8 0 7.6 2.2-2-.7-4.5-.3-6.2 1-1.7 1.3-2.7 3.6-2.5 5.7.2 2.1 1.4 4.3.8 6.5-.6 2.5-3.4 3.6-5.9 4.4-3.9 1.2-8.5 2.4-10.3-2-1.9-4.1-.4-9.3 2.7-12.4z" fill="url(#A)"/><linearGradient id="B" gradientUnits="userSpaceOnUse" x1="610.06" y1="984.197" x2="636.319" y2="984.197" gradientTransform="scale(1 -1) rotate(3.967 16550.55 -3381.76)"><stop offset=".006" stop-color="#131636"/><stop offset=".096" stop-color="#171434"/><stop offset=".186" stop-color="#1a1429"/><stop offset=".994" stop-color="#14141c"/></linearGradient><path d="M355.5 116.4c-2.5.9-4.7 2.7-5.6 5.3-.5 1.4-.6 2.8-.5 4.2-.3 5.3-1.1 10.7-2.4 15.8.6-2.6 3.2-4.4 5.8-5.3 2.6-.9 5.4-1.1 7.9-2.1 2.9-1.2 5.4-3.1 7.7-5.5 1.8-1.9 3.4-4.1 3.6-6.8 0-1-.3-2.2-1.2-2.8-.8-.5-2-.4-3-.1-3.1.7-3-.8-5.1-2.3-2.1-1.7-4.8-1.2-7.2-.4z" fill="url(#B)"/><linearGradient id="C" gradientUnits="userSpaceOnUse" x1="460.89" y1="998.589" x2="475.795" y2="998.589" gradientTransform="scale(1 -1) rotate(3.967 16550.55 -3381.76)"><stop offset=".006" stop-color="#28366f"/><stop offset=".227" stop-color="#243066"/><stop offset=".541" stop-color="#231f52"/><stop offset=".765" stop-color="#1e1041"/><stop offset=".994" stop-color="#22122e"/></linearGradient><path d="M196.5 125.5c.2.2.2.6.4.8.2.1.5.3.9.3 2.4.5 4.9-.3 7.3-.6 2.5-.3 5.2.1 6.6 2.2-2.5-3.5-17.8-13-15.2-2.7z" fill="url(#C)"/><linearGradient id="D" gradientUnits="userSpaceOnUse" x1="305.358" y1="1063.002" x2="324.466" y2="1063.002" gradientTransform="scale(1 -1) rotate(3.967 16550.55 -3381.76)"><stop offset=".006" stop-color="#28366f"/><stop offset=".227" stop-color="#243066"/><stop offset=".541" stop-color="#231f52"/><stop offset=".765" stop-color="#1e1041"/><stop offset=".994" stop-color="#22122e"/></linearGradient><path d="M37.4 81c.4-2.2 1.9-4.1 3.8-5.3 1.9-1.3 4-1.9 6.1-2.6 1.6-.5 3.1-1 4.5-1.4.9-.3 1.9-.6 2.6-1.3 1.6-1.5 1.4-4.3.1-5.9-7.9-11-16.9 9.8-17.1 16.5z" fill="url(#D)"/><linearGradient id="E" gradientUnits="userSpaceOnUse" x1="614.747" y1="984.551" x2="630.196" y2="984.551" gradientTransform="scale(1 -1) rotate(3.967 16550.55 -3381.76)"><stop offset=".006" stop-color="#28366f"/><stop offset=".227" stop-color="#243066"/><stop offset=".541" stop-color="#231f52"/><stop offset=".765" stop-color="#1e1041"/><stop offset=".994" stop-color="#22122e"/></linearGradient><path d="M351.2 134.7c4.5-2.3 9.2-4.7 12.8-8.1.8-.7 1.4-1.5 1.7-2.3.3-1 0-2.2-.9-2.7-1.3-.7-2.8.4-3.7 1.4-1.8 1.9-3.7 3.8-5.5 5.7.8-.8-3-4-3.6-4.3-.3 3.3-.2 6.8-.8 10.3z" fill="url(#E)"/><linearGradient id="F" gradientUnits="userSpaceOnUse" x1="463.046" y1="947.755" x2="482.444" y2="947.755" gradientTransform="scale(1 -1) rotate(3.967 16550.55 -3381.76)"><stop offset=".006" stop-color="#28366f"/><stop offset=".227" stop-color="#243066"/><stop offset=".541" stop-color="#231f52"/><stop offset=".765" stop-color="#1e1041"/><stop offset=".994" stop-color="#22122e"/></linearGradient><path d="M213.2 181.2c3.5-1.2 6.4-3.8 7.9-7.2.2-.4.3-.9.2-1.2-.1-.5-.8-.8-1.3-1-2.1-.5-4 .1-5.9.6 2.2-5.3-9.1-4.5-11.1 0-.3.9-1.1 3.2-.7 4 .8 2 .9.5 2.8.8 3.3.2 6.3.5 8.1 4z" fill="url(#F)"/><linearGradient id="G" gradientUnits="userSpaceOnUse" x1="398.116" y1="1069.364" x2="413.703" y2="1069.364" gradientTransform="scale(1 -1) rotate(3.967 16550.55 -3381.76)"><stop offset=".006" stop-color="#28366f"/><stop offset=".227" stop-color="#243066"/><stop offset=".541" stop-color="#231f52"/><stop offset=".765" stop-color="#1e1041"/><stop offset=".994" stop-color="#22122e"/></linearGradient><path d="M134 61.2c.2.4.6.7 1 .9.5.2 1 .2 1.5.3 1.4.2 2.6.9 4 1.1 1.4.3 3 .1 3.8-1.1.7-1.1.4-2.7-.5-3.7s-2.2-1.6-3.4-2c-3.5-1.5-8-3.4-11.8-3.5 1.8 2.6 3.5 5.3 5.4 8z" fill="url(#G)"/></svg>