<svg xmlns="http://www.w3.org/2000/svg" width="400" height="200"><linearGradient id="a" gradientUnits="userSpaceOnUse" x1="204.884" y1="-127.057" x2="219.916" y2="-127.057" gradientTransform="matrix(1 0 0 -1 0 2)"><stop offset=".006" stop-color="#131636"/><stop offset=".096" stop-color="#171434"/><stop offset=".186" stop-color="#1a1429"/><stop offset=".994" stop-color="#14141c"/></linearGradient><path d="M205.9 130.1c2-1 4.2-1.1 6.4-1 2.3.1 4.6.6 6.7 1.4.3.1.8-.2.8-.5.1-.4-.1-.7-.5-.8-2.3-.9-4.8-1.4-7.2-1.5-2.3-.1-4.8.1-7 1.2-.7.4 0 1.6.8 1.2z" fill="url(#a)"/><linearGradient id="b" gradientUnits="userSpaceOnUse" x1="297.316" y1="-139.821" x2="324.736" y2="-139.821" gradientTransform="matrix(1 0 0 -1 0 2)"><stop offset=".006" stop-color="#131636"/><stop offset=".096" stop-color="#171434"/><stop offset=".186" stop-color="#1a1429"/><stop offset=".994" stop-color="#14141c"/></linearGradient><path d="M298.6 149.8c1.3 1.7 3.4 2.7 5.4 3.1 2.1.4 4.2.3 6.4.2 4.7-.2 9.5-.4 14.3-.7-4.1-1.9-7.4-5.4-9-9.7-1.5-3.9-1.8-8.6-5.2-11-2.6-1.8-6.4-1.5-8.5.8-2.6 2.6-.9 5.7-2.1 8.5-.5 1.1-1.8 1.5-2.3 2.8-.7 2-.2 4.5 1 6z" fill="url(#b)"/><linearGradient id="c" gradientUnits="userSpaceOnUse" x1="210.657" y1="-134.748" x2="235.541" y2="-134.748" gradientTransform="matrix(1 0 0 -1 0 2)"><stop offset=".006" stop-color="#131636"/><stop offset=".096" stop-color="#171434"/><stop offset=".186" stop-color="#1a1429"/><stop offset=".994" stop-color="#14141c"/></linearGradient><path d="M210.7 137.2c.1.5.5 1 .9 1.4.9 1 2 1.8 3.2 2.6 1.8 1.1 3.9 1.8 5.9 2.5 5 1.7 9.9 3.4 14.9 5.1-1.8-2.1-2.2-5-2.3-7.8 0-2.8.4-5.5 0-8.3-.7-5.8-5.9-9.7-11.6-7.1-3.3 1.4-12 7.4-11 11.6z" fill="url(#c)"/><linearGradient id="d" gradientUnits="userSpaceOnUse" x1="182.455" y1="-83.015" x2="209.237" y2="-83.015" gradientTransform="matrix(1 0 0 -1 0 2)"><stop offset=".006" stop-color="#131636"/><stop offset=".096" stop-color="#171434"/><stop offset=".186" stop-color="#1a1429"/><stop offset=".994" stop-color="#14141c"/></linearGradient><path d="M184.5 80c2.1-2 5.3-2.2 8.2-2.3.5-2.5 3.6-3.8 6-3.1 2.4.7 4.3 2.7 5.7 4.8 3.2 4.8 4.8 10.6 4.8 16.3.1-6.1-14.7-4.4-18.2-4-6 .6-11.8-6.8-6.5-11.7z" fill="url(#d)"/><linearGradient id="e" gradientUnits="userSpaceOnUse" x1="176.645" y1="-75.954" x2="192.217" y2="-75.954" gradientTransform="matrix(1 0 0 -1 0 2)"><stop offset=".006" stop-color="#131636"/><stop offset=".096" stop-color="#171434"/><stop offset=".186" stop-color="#1a1429"/><stop offset=".994" stop-color="#14141c"/></linearGradient><path d="M177.9 80.6c1-1.6 2.8-2.6 4.6-3.2 1-.3 2.1-.7 3.2-.8 1.1-.1 2.2-.1 3.2.3.9.4 1.7 1.1 1.9 2.2.2.9 1.5.5 1.3-.4-.6-2.5-3.3-3.6-5.6-3.6-1.3.1-2.6.3-3.9.7-1.1.3-2.2.8-3.2 1.4-1.1.7-2.1 1.5-2.8 2.7-.3.7.8 1.4 1.3.7z" fill="url(#e)"/><linearGradient id="f" gradientUnits="userSpaceOnUse" x1="109.346" y1="-77.666" x2="130.701" y2="-77.666" gradientTransform="matrix(1 0 0 -1 0 2)"><stop offset=".006" stop-color="#131636"/><stop offset=".096" stop-color="#171434"/><stop offset=".186" stop-color="#1a1429"/><stop offset=".994" stop-color="#14141c"/></linearGradient><path d="M111.2 71.1c-2.2 2.8-2.3 6.8-1 10.1 1.4 3.3 4 5.9 6.9 7.9 2.6 1.8 5.4 3.2 8.5 3.5-2.1-2.1-1.5-5.7-.1-8.2 1.5-2.6 3.6-4.7 4.6-7.5 1-3 .4-6.6-1.9-8.7-2.7-2.4-5.3-1.1-8.3-.4-3.1.8-6.4.4-8.7 3.3z" fill="url(#f)"/><linearGradient id="g" gradientUnits="userSpaceOnUse" x1="362.749" y1="-126.331" x2="376.491" y2="-126.331" gradientTransform="matrix(1 0 0 -1 0 2)"><stop offset=".006" stop-color="#131636"/><stop offset=".096" stop-color="#171434"/><stop offset=".186" stop-color="#1a1429"/><stop offset=".994" stop-color="#14141c"/></linearGradient><path d="M363.8 136c4.4-2.7 8.2-6.3 11-10.6.8-1.3 1.7-2.6 1.7-4.1.1-.9-1.3-.9-1.4 0-.1 1.2-.8 2.3-1.5 3.3s-1.4 2-2.1 2.9c-1.5 1.8-3.3 3.6-5.2 5.1-1 .8-2.2 1.6-3.3 2.3-.7.4 0 1.6.8 1.1z" fill="url(#g)"/><linearGradient id="h" gradientUnits="userSpaceOnUse" x1="340.217" y1="-104.209" x2="344.544" y2="-104.209" gradientTransform="matrix(1 0 0 -1 0 2)"><stop offset=".006" stop-color="#131636"/><stop offset=".096" stop-color="#171434"/><stop offset=".186" stop-color="#1a1429"/><stop offset=".994" stop-color="#14141c"/></linearGradient><path d="M342.9 97.3c-1.5 2.2-2.3 4.8-2.7 7.5-.3 2.3-.1 4.8.9 7.1.5 1.3 1.3 2.4 2.2 3.4.6.7 1.6-.3 1-1-3.2-3.3-3.3-8.5-2-12.7.4-1.3 1-2.6 1.8-3.7.2-.3.1-.8-.3-.9-.3-.1-.6 0-.9.3z" fill="url(#h)"/><linearGradient id="i" gradientUnits="userSpaceOnUse" x1="293.45" y1="-129.848" x2="313.611" y2="-129.848" gradientTransform="matrix(1 0 0 -1 0 2)"><stop offset=".006" stop-color="#131636"/><stop offset=".096" stop-color="#171434"/><stop offset=".186" stop-color="#1a1429"/><stop offset=".994" stop-color="#14141c"/></linearGradient><path d="M293.5 127.5c1.5 2.4 3.7 4.2 6 5.9 1.2.9 2.4 1.7 3.8 2.4 1.4.8 2.8 1.2 4.4 1.4 1.7.2 3.5.2 5.2.1.9-.1.9-1.4 0-1.4-2.9.1-5.9.2-8.5-1.1-1.3-.7-2.4-1.5-3.6-2.3-1.1-.8-2.2-1.5-3.2-2.4-1.1-1-2.1-2.1-2.9-3.4-.5-.7-1.6 0-1.2.8z" fill="url(#i)"/><linearGradient id="j" gradientUnits="userSpaceOnUse" x1="283.135" y1="-162.42" x2="290.317" y2="-162.42" gradientTransform="matrix(1 0 0 -1 0 2)"><stop offset=".006" stop-color="#131636"/><stop offset=".096" stop-color="#171434"/><stop offset=".186" stop-color="#1a1429"/><stop offset=".994" stop-color="#14141c"/></linearGradient><path d="M285.2 174c-1.5-5.1-.7-10.8 2.1-15.3.8-1.3 1.7-2.4 2.8-3.5.7-.6-.3-1.6-1-1-4 4-6.2 9.7-6 15.4.1 1.6.3 3.2.8 4.8.2.9 1.5.5 1.3-.4z" fill="url(#j)"/><linearGradient id="k" gradientUnits="userSpaceOnUse" x1="230.052" y1="-163.703" x2="247.289" y2="-163.703" gradientTransform="matrix(1 0 0 -1 0 2)"><stop offset=".006" stop-color="#131636"/><stop offset=".096" stop-color="#171434"/><stop offset=".186" stop-color="#1a1429"/><stop offset=".994" stop-color="#14141c"/></linearGradient><path d="M231.4 171.7c-.2-1.4.5-2.7 1.3-3.9.7-1.1 1.5-2.1 2.4-3 1.8-1.9 4.1-3.4 6.7-4.1 1.5-.4 3-.5 4.6-.3.4.1.8-.1.8-.5.1-.3-.1-.8-.5-.8-3.1-.4-6.3.3-8.9 1.8-2.5 1.5-4.6 3.6-6.2 6-1 1.5-1.8 3.2-1.5 5.1.1.4.5.5.8.5.4 0 .6-.4.5-.8z" fill="url(#k)"/><linearGradient id="l" gradientUnits="userSpaceOnUse" x1="199.611" y1="-117.17" x2="222.076" y2="-117.17" gradientTransform="matrix(1 0 0 -1 0 2)"><stop offset=".006" stop-color="#131636"/><stop offset=".096" stop-color="#171434"/><stop offset=".186" stop-color="#1a1429"/><stop offset=".994" stop-color="#14141c"/></linearGradient><path d="M200.8 117.7c2.1-2 5.3-2.2 8-1.5 3 .8 5.8 2.4 8.3 4.2 1.4 1 2.7 2.2 3.8 3.4.6.7 1.6-.3 1-1-2.2-2.4-4.9-4.4-7.8-6-2.9-1.6-6.3-2.8-9.6-2.3-1.7.3-3.4 1-4.6 2.2-.7.7.2 1.6.9 1z" fill="url(#l)"/><linearGradient id="m" gradientUnits="userSpaceOnUse" x1="186.692" y1="-115.124" x2="203.126" y2="-115.124" gradientTransform="matrix(1 0 0 -1 0 2)"><stop offset=".006" stop-color="#131636"/><stop offset=".096" stop-color="#171434"/><stop offset=".186" stop-color="#1a1429"/><stop offset=".994" stop-color="#14141c"/></linearGradient><path d="M186.8 111.8c-.4 1.3 1 2.4 1.9 3.2.9.9 2 1.7 3 2.5 2 1.5 4.2 2.9 6.6 3.9 1.4.6 2.7 1.1 4.1 1.6.8.3 1.2-1 .4-1.3-4.5-1.5-8.6-3.8-12.2-6.9-.5-.4-1-.9-1.5-1.4-.3-.3-1-.8-.9-1.3.1-.8-1.2-1.2-1.4-.3z" fill="url(#m)"/><linearGradient id="n" gradientUnits="userSpaceOnUse" x1="165.951" y1="-71.208" x2="175.435" y2="-71.208" gradientTransform="matrix(1 0 0 -1 0 2)"><stop offset=".006" stop-color="#131636"/><stop offset=".096" stop-color="#171434"/><stop offset=".186" stop-color="#1a1429"/><stop offset=".994" stop-color="#14141c"/></linearGradient><path d="M165.9 67.6c.1 2.1.8 4.1 2 5.8.7.9 1.4 1.7 2.1 2.6.6.8 1.2 1.6 1.9 2.2.8.8 1.7 1.3 2.8 1.4.4 0 .7-.3.7-.7 0-.4-.3-.7-.7-.7-1-.1-1.7-.8-2.3-1.5-.8-.9-1.6-1.9-2.3-2.9-.8-.9-1.5-1.9-2-3-.5-1-.8-2.2-.8-3.4 0-.7-1.4-.7-1.4.2z" fill="url(#n)"/><linearGradient id="o" gradientUnits="userSpaceOnUse" x1="93.797" y1="-17.936" x2="103.731" y2="-17.936" gradientTransform="matrix(1 0 0 -1 0 2)"><stop offset=".006" stop-color="#131636"/><stop offset=".096" stop-color="#171434"/><stop offset=".186" stop-color="#1a1429"/><stop offset=".994" stop-color="#14141c"/></linearGradient><path d="M103 14.2c-2.1-.3-4.1.9-5.8 2-.9.6-1.8 1.3-2.4 2.1-.6.9-.8 2-.9 3-.2 1.4-.2 2.7.1 4 .1.4.5.5.8.5.4-.1.5-.5.5-.8-.2-1.3-.2-2.6.1-3.9.1-.5.2-1.1.4-1.6.3-.5.7-.9 1.1-1.3 1.7-1.4 3.9-2.9 6.2-2.7.4.1.7-.3.7-.7-.1-.4-.4-.6-.8-.6z" fill="url(#o)"/><linearGradient id="p" gradientUnits="userSpaceOnUse" x1="85.257" y1="-57.825" x2="106.272" y2="-57.825" gradientTransform="matrix(1 0 0 -1 0 2)"><stop offset=".006" stop-color="#131636"/><stop offset=".096" stop-color="#171434"/><stop offset=".186" stop-color="#1a1429"/><stop offset=".994" stop-color="#14141c"/></linearGradient><path d="M86.7 66.1c-.2-1.7.7-3.2 1.7-4.5 1.1-1.5 2.2-2.9 3.6-4.1 2.4-2.2 5.7-3.3 9-3.1 1.5.1 3.4.4 4.1 1.8.4.8 1.6.1 1.2-.7-.8-1.5-2.5-2.2-4.1-2.4-1.8-.3-3.7-.2-5.5.3s-3.5 1.3-4.9 2.5c-1.6 1.2-2.8 2.8-4 4.4-1.3 1.6-2.5 3.6-2.3 5.8.1.4.3.7.7.7.1 0 .5-.4.5-.7z" fill="url(#p)"/><linearGradient id="q" gradientUnits="userSpaceOnUse" x1="50.025" y1="-87.657" x2="399.979" y2="-87.657" gradientTransform="matrix(1 0 0 -1 0 2)"><stop offset=".006" stop-color="#131636"/><stop offset=".096" stop-color="#171434"/><stop offset=".186" stop-color="#1a1429"/><stop offset=".994" stop-color="#14141c"/></linearGradient><path d="M53.2 28.3c6.5-4.8 14.3-8.1 22.5-8.1 7 0 13.9 2.7 18.8 7.6 5.9 5.8 6.6 13.8 7.9 21.6 1.1 7.2 3.6 13.9 8.3 19.6 4.4 5.2 10.1 9.4 16.5 11.6 7.9 2.7 16.4 2.3 24.6 1.5 14-1.4 31.7-3.3 39.6 11.2 3.5 6.4 4.6 13.7 6.5 20.6 1.8 6.6 4.6 12.9 8.3 18.7 7.5 11.5 18.6 20.8 31.3 25.9 13.4 5.4 28.2 6 42.1 2.2 14-3.9 25.9-12.1 35.1-23.3 4.4-5.4 8.6-11.5 14.5-15.5 7-4.8 15.4-4.6 23.4-2.9 8.4 1.8 16.5 4.8 25.1 4.8 6.7 0 13.5-2.4 18.1-7.3 2.1-2.3 3.6-5.1 4.1-8.2.5-2.6-3.5-3.3-4-.7-1.2 6.4-7.3 10.4-13.3 11.7-8 1.7-16.3-1-24-3-8.2-2.1-16.9-3.9-25.1-1.1-6.6 2.2-11.8 7.2-16.2 12.4-4.6 5.5-8.8 11.4-14.3 16.2-5.4 4.6-11.5 8.3-18.1 10.9-13.2 5.2-28.3 6.1-41.9 1.7-12.9-4.2-24.3-12.8-32.1-23.8-3.9-5.5-6.9-11.7-8.8-18.2-2-6.9-3.1-14.2-6.1-20.8-3-6.5-7.9-11.5-14.7-14-6.6-2.5-13.9-2.8-20.9-2.2-8.5.7-17.2 2.3-25.8 1.1-6.9-1-13.3-4.2-18.3-9.1-5.1-5-8.3-11.3-9.6-18.3-1.4-7.8-1.7-16-6.6-22.7-8.9-12.6-25.6-14.8-39.1-9.3-3.6 1.5-7.1 3.5-10.2 5.8-2.1 1.6.3 4.9 2.4 3.4z" fill="url(#q)"/><linearGradient id="r" gradientUnits="userSpaceOnUse" x1="50.053" y1="-88.374" x2="400" y2="-88.374" gradientTransform="matrix(1 0 0 -1 0 2)"><stop offset=".006" stop-color="#28366f"/><stop offset=".227" stop-color="#243066"/><stop offset=".541" stop-color="#231f52"/><stop offset=".765" stop-color="#1e1041"/><stop offset=".994" stop-color="#22122e"/></linearGradient><path d="M395.5 113.8c-4.6 5-11.4 7.3-18.1 7.3-8.6 0-16.8-3-25.1-4.8-8.1-1.7-16.4-2-23.4 2.9-5.9 4-10 10.1-14.5 15.5-9.1 11.2-21.1 19.5-35.1 23.3-13.9 3.8-28.7 3.3-42.1-2.2-12.7-5.2-23.8-14.5-31.3-25.9-3.8-5.8-6.5-12.1-8.3-18.7-1.8-6.9-3-14.3-6.5-20.6-7.9-14.6-25.6-12.6-39.6-11.2-8.3.8-16.6 1.3-24.6-1.5-6.4-2.2-12.1-6.4-16.5-11.6-4.7-5.7-7.2-12.4-8.3-19.6-1.3-7.8-2-15.8-7.9-21.6-5-4.8-11.9-7.6-18.8-7.6-8.2 0-16 3.2-22.5 8.1-.9.7-1.8.4-2.4-.1-1.5 1.7.8 4.5 2.7 3 6.5-4.8 14.3-8.1 22.5-8.1 7 0 13.9 2.7 18.8 7.6 5.9 5.8 6.6 13.8 7.9 21.6 1.1 7.2 3.6 13.9 8.3 19.6 4.4 5.2 10.1 9.4 16.5 11.6 7.9 2.7 16.4 2.3 24.6 1.5 14-1.4 31.7-3.3 39.6 11.2 3.5 6.4 4.6 13.7 6.5 20.6 1.8 6.6 4.6 12.9 8.3 18.7 7.5 11.5 18.6 20.8 31.3 25.9 13.4 5.4 28.2 6 42.1 2.2 14-3.9 25.9-12.1 35.1-23.3 4.4-5.4 8.6-11.5 14.5-15.5 7-4.8 15.4-4.6 23.4-2.9 8.4 1.8 16.5 4.8 25.1 4.8 6.7 0 13.5-2.4 18.1-7.3 2.1-2.3 3.6-5.1 4.1-8.2.2-.8-.1-1.4-.5-1.7-.7 2.5-2 5-3.9 7z" fill="url(#r)"/><linearGradient id="s" gradientUnits="userSpaceOnUse" x1="74.731" y1="-67.901" x2="100.852" y2="-67.901" gradientTransform="matrix(1 0 0 -1 0 2)"><stop offset=".006" stop-color="#131636"/><stop offset=".096" stop-color="#171434"/><stop offset=".186" stop-color="#1a1429"/><stop offset=".994" stop-color="#14141c"/></linearGradient><path d="M86 55.7c-2.3-.1-4.7.3-6.5 1.6-1.9 1.4-3 3.6-3.7 5.8-2.3 7.2-.9 16 4.8 21.1-.8-2.3.5-4.8 2.4-6.3 1.9-1.4 4.3-2.1 6.6-2.7 2.8-.8 5.7-1.8 7.9-3.6s3.8-4.8 3.3-7.7c-.7-3.7-3.6-4.1-6.6-5.2-3-1-4.9-3-8.2-3z" fill="url(#s)"/><linearGradient id="t" gradientUnits="userSpaceOnUse" x1="99.34" y1="-16.65" x2="124.59" y2="-16.65" gradientTransform="matrix(1 0 0 -1 0 2)"><stop offset=".006" stop-color="#131636"/><stop offset=".096" stop-color="#171434"/><stop offset=".186" stop-color="#1a1429"/><stop offset=".994" stop-color="#14141c"/></linearGradient><path d="M99.8 19.1c.5 1.6 1.7 3 3.2 3.5 2.2.8 4.6-.3 6.9-1 2.7-.8 5.6-1 8.3-.3s5.2 2.6 6.3 5.2c-.5-4.4-2.7-8.5-6-11.4s-7.8-4.4-12.1-4.2c-5.1.2-8.4 2.9-6.6 8.2z" fill="url(#t)"/><linearGradient id="u" gradientUnits="userSpaceOnUse" x1="155.936" y1="-59.781" x2="178.734" y2="-59.781" gradientTransform="matrix(1 0 0 -1 0 2)"><stop offset=".006" stop-color="#131636"/><stop offset=".096" stop-color="#171434"/><stop offset=".186" stop-color="#1a1429"/><stop offset=".994" stop-color="#14141c"/></linearGradient><path d="M161 72.6c-1.7-.7-2.8-2.5-3.1-4.3s-.1-3.7 0-5.5c.2-4.1-.2-8.4-2-12.1.8 2 2.7 3.3 4.6 4 2 .7 4.1.9 6.1 1.4 3.1.8 6 2.2 8.5 4.3 1.3 1 2.4 2.2 3 3.6.7 1.5.8 3.2 0 4.6-1.2 2.1-4 2.8-6.4 2.3s-3.4-.9-5.4.3c-1.8 1-2.9 2.4-5.3 1.4z" fill="url(#u)"/><linearGradient id="v" gradientUnits="userSpaceOnUse" x1="167.693" y1="-111.201" x2="192.07" y2="-111.201" gradientTransform="matrix(1 0 0 -1 0 2)"><stop offset=".006" stop-color="#131636"/><stop offset=".096" stop-color="#171434"/><stop offset=".186" stop-color="#1a1429"/><stop offset=".994" stop-color="#14141c"/></linearGradient><path d="M185.8 103.7c-2.2-.4-4.5-.2-6.7-.3-3.9-.1-7.8-.7-11.5-1.9 2 3.2 2.4 7.1 3.8 10.7 1.3 3.7 3.5 7 6.4 9.7 2.2 2 5.2 3.8 8 2.8 2.5-.8 3.4-3 3.5-5.4.1-2.7.1-3.3 1.5-5.6 2.9-4.6.4-9.1-5-10z" fill="url(#v)"/><linearGradient id="w" gradientUnits="userSpaceOnUse" x1="214.53" y1="-124.958" x2="241.407" y2="-124.958" gradientTransform="matrix(1 0 0 -1 0 2)"><stop offset=".006" stop-color="#131636"/><stop offset=".096" stop-color="#171434"/><stop offset=".186" stop-color="#1a1429"/><stop offset=".994" stop-color="#14141c"/></linearGradient><path d="M214.5 125.7c-.1 2 1 3.9 2.7 4.9 1.2.8 2.7 1 4.1 1.3 3.7.6 7.5 1 11 2.1 3.6 1.1 7 3.1 9.1 6.2-1.3-6.9-4.5-13.3-8.3-19.2-1.3-2-2.7-3.9-4.6-5.4-1.9-1.4-4.4-2.2-6.7-1.6-3.8.9-2.9 3.4-3.9 6-.9 2.1-3.3 2.9-3.4 5.7z" fill="url(#w)"/><linearGradient id="x" gradientUnits="userSpaceOnUse" x1="218.121" y1="-174.29" x2="240.494" y2="-174.29" gradientTransform="matrix(1 0 0 -1 0 2)"><stop offset=".006" stop-color="#131636"/><stop offset=".096" stop-color="#171434"/><stop offset=".186" stop-color="#1a1429"/><stop offset=".994" stop-color="#14141c"/></linearGradient><path d="M221.1 165.8c-2.9 2.8-3.8 7.4-2.2 11.1.8 1.8 2 3.4 3.4 4.8 2.5 2.7 5.2 5.2 8.2 7.5-1.2-2.6-.7-5.8 1.2-7.9 2-2.1 5.1-2.9 7-5.1 1.4-1.5 2-3.6 1.9-5.6-.1-1.5-.7-3.2-2.1-3.8-.7-.3-1.4-.2-2.1-.2-1.6.2-3.1.6-4.5 1.2 4.5-6.3-8.1-4.6-10.8-2z" fill="url(#x)"/><linearGradient id="y" gradientUnits="userSpaceOnUse" x1="282.464" y1="-171.336" x2="305.936" y2="-171.336" gradientTransform="matrix(1 0 0 -1 0 2)"><stop offset=".006" stop-color="#131636"/><stop offset=".096" stop-color="#171434"/><stop offset=".186" stop-color="#1a1429"/><stop offset=".994" stop-color="#14141c"/></linearGradient><path d="M288.9 181.9c4.8 3.8 12.1 4.5 17 .9-4 .8-8.3-2.3-8.9-6.4-.4-3.3 1.4-6.7.4-10-.9-3-4.2-4.9-7.3-4.8-12.3.8-7.6 15.3-1.2 20.3z" fill="url(#y)"/><linearGradient id="z" gradientUnits="userSpaceOnUse" x1="278.129" y1="-125.072" x2="306.269" y2="-125.072" gradientTransform="matrix(1 0 0 -1 0 2)"><stop offset=".006" stop-color="#131636"/><stop offset=".096" stop-color="#171434"/><stop offset=".186" stop-color="#1a1429"/><stop offset=".994" stop-color="#14141c"/></linearGradient><path d="M284.8 125.6c.8 2.9 1.1 6 2.3 8.9.5 1.3 1.2 2.5 2.2 3.4 2.1 1.7 5.3 1.6 7.4-.1 2.1-1.7 2.8-4.8 1.9-7.3 1.5.3 3.2.4 4.6-.2 1.5-.6 2.7-1.8 2.9-3.4.3-1.9-1.1-3.8-2.7-4.7-1.7-1-3.6-1.3-5.5-1.6-6.8-1.2-13.4-3.2-19.9-5.5 3.1 3.2 5.6 6.1 6.8 10.5z" fill="url(#z)"/><linearGradient id="A" gradientUnits="userSpaceOnUse" x1="340.811" y1="-97.135" x2="363.909" y2="-97.135" gradientTransform="matrix(1 0 0 -1 0 2)"><stop offset=".006" stop-color="#131636"/><stop offset=".096" stop-color="#171434"/><stop offset=".186" stop-color="#1a1429"/><stop offset=".994" stop-color="#14141c"/></linearGradient><path d="M344.5 94.2c3.4-3 8.2-4 12.8-4 2.4 0 5.2.4 6.6 2.4-1.8-.8-4-.5-5.6.5-1.6 1.1-2.7 3-2.6 5 0 2 1 4 .3 5.8-.8 2.2-3.3 3-5.5 3.6-3.5.8-7.7 1.6-9.2-2.4-1.4-3.7.3-8.3 3.2-10.9z" fill="url(#A)"/><linearGradient id="B" gradientUnits="userSpaceOnUse" x1="351.68" y1="-137.084" x2="375.273" y2="-137.084" gradientTransform="matrix(1 0 0 -1 0 2)"><stop offset=".006" stop-color="#131636"/><stop offset=".096" stop-color="#171434"/><stop offset=".186" stop-color="#1a1429"/><stop offset=".994" stop-color="#14141c"/></linearGradient><path d="M360.8 128.2c-2.3.7-4.4 2.2-5.3 4.4-.5 1.2-.6 2.5-.8 3.8-.5 4.8-1.6 9.5-3.1 14.1.8-2.3 3.2-3.8 5.5-4.4 2.4-.7 4.9-.7 7.2-1.5 2.7-.9 5.1-2.6 7.2-4.5 1.7-1.6 3.4-3.5 3.6-5.9.1-.9-.1-2-.9-2.6-.8-.5-1.7-.4-2.7-.3-2.9.4-2.7-.9-4.4-2.4-1.6-1.5-4.1-1.3-6.3-.7z" fill="url(#B)"/><linearGradient id="C" gradientUnits="userSpaceOnUse" x1="217.595" y1="-124.087" x2="230.988" y2="-124.087" gradientTransform="matrix(1 0 0 -1 0 2)"><stop offset=".006" stop-color="#28366f"/><stop offset=".227" stop-color="#243066"/><stop offset=".541" stop-color="#231f52"/><stop offset=".765" stop-color="#1e1041"/><stop offset=".994" stop-color="#22122e"/></linearGradient><path d="M217.8 126.5c.1.3.1.5.3.7s.4.3.7.3c2.1.6 4.4.1 6.5 0 2.2-.1 4.7.4 5.8 2.3-2-3.2-15.1-12.7-13.3-3.3z" fill="url(#C)"/><linearGradient id="D" gradientUnits="userSpaceOnUse" x1="77.858" y1="-66.254" x2="95.039" y2="-66.254" gradientTransform="matrix(1 0 0 -1 0 2)"><stop offset=".006" stop-color="#28366f"/><stop offset=".227" stop-color="#243066"/><stop offset=".541" stop-color="#231f52"/><stop offset=".765" stop-color="#1e1041"/><stop offset=".994" stop-color="#22122e"/></linearGradient><path d="M77.8 76.7c.5-1.9 2-3.5 3.8-4.4 1.7-1 3.7-1.5 5.6-2 1.4-.3 2.8-.7 4.2-1 .9-.2 1.7-.4 2.4-1 1.5-1.3 1.5-3.6.4-5.3-6.4-10.3-15.8 7.8-16.4 13.7z" fill="url(#D)"/><linearGradient id="E" gradientUnits="userSpaceOnUse" x1="355.851" y1="-136.684" x2="369.732" y2="-136.684" gradientTransform="matrix(1 0 0 -1 0 2)"><stop offset=".006" stop-color="#28366f"/><stop offset=".227" stop-color="#243066"/><stop offset=".541" stop-color="#231f52"/><stop offset=".765" stop-color="#1e1041"/><stop offset=".994" stop-color="#22122e"/></linearGradient><path d="M355.8 144.3c4.2-1.8 8.4-3.6 12-6.5.7-.5 1.4-1.2 1.7-2s.2-1.9-.6-2.4c-1.1-.7-2.5.2-3.5 1.1-1.7 1.6-3.5 3.1-5.2 4.7.8-.7-2.4-3.8-2.9-4-.7 2.9-.8 6-1.5 9.1z" fill="url(#E)"/><linearGradient id="F" gradientUnits="userSpaceOnUse" x1="219.552" y1="-169.737" x2="236.971" y2="-169.737" gradientTransform="matrix(1 0 0 -1 0 2)"><stop offset=".006" stop-color="#28366f"/><stop offset=".227" stop-color="#243066"/><stop offset=".541" stop-color="#231f52"/><stop offset=".765" stop-color="#1e1041"/><stop offset=".994" stop-color="#22122e"/></linearGradient><path d="M229.1 177.4c3.2-.8 6-3 7.6-5.9.2-.3.3-.7.3-1.1-.1-.5-.6-.8-1.1-.9-1.7-.6-3.6-.2-5.4.2 2.3-4.6-7.9-4.6-9.9-.7-.4.7-1.2 2.8-.9 3.6.7 1.9.8.6 2.6.8 2.8.4 5.5.9 6.8 4z" fill="url(#F)"/><linearGradient id="G" gradientUnits="userSpaceOnUse" x1="161.201" y1="-60.396" x2="175.204" y2="-60.396" gradientTransform="matrix(1 0 0 -1 0 2)"><stop offset=".006" stop-color="#28366f"/><stop offset=".227" stop-color="#243066"/><stop offset=".541" stop-color="#231f52"/><stop offset=".765" stop-color="#1e1041"/><stop offset=".994" stop-color="#22122e"/></linearGradient><path d="M165.7 64.9c.2.4.5.7.8.9.4.2.8.3 1.3.3 1.2.2 2.3.9 3.5 1.3 1.2.3 2.7.3 3.4-.7.8-.9.5-2.4-.2-3.3-.7-1-1.8-1.5-2.9-2.1-3.2-1.5-6.9-3.5-10.4-4 1.6 2.5 3 5.1 4.5 7.6z" fill="url(#G)"/></svg>