<svg xmlns="http://www.w3.org/2000/svg" xmlns:xlink="http://www.w3.org/1999/xlink" width="800" height="800" viewBox="-249 -50 800 800"><defs><path id="a" d="M-151.8-241h605.6v991h-605.6z"/></defs><clipPath id="b"><use xlink:href="#a" overflow="visible"/></clipPath><path clip-path="url(#b)" fill="#fff" d="M-236.2-464.5h774.5V802.7h-774.5z"/><defs><path id="c" d="M-151.8-241h605.6v991h-605.6z"/></defs><clipPath id="d"><use xlink:href="#c" overflow="visible"/></clipPath><g clip-path="url(#d)"><linearGradient id="e" gradientUnits="userSpaceOnUse" x1="-281.434" y1="357.473" x2="-48.154" y2="357.473"><stop offset=".006" stop-color="#121636"/><stop offset=".096" stop-color="#151332"/><stop offset=".186" stop-color="#171327"/><stop offset=".994" stop-color="#111219"/></linearGradient><path d="M-97.4 541c-17.5 21-43.6 33.3-70.3 39.1-24.8 5.3-50.7 5.6-75.5.8l-21.5 17.7c-4-4.9-7.9-9.9-12.1-14.8-.4-.5-.8-1.1-1-1.8-.1-1.1.5-2.1 1.2-2.9 1.9-2.3 3.8-4.7 6-6.7-3.8 1.8-7.4 4.8-9.5 8.5-3.3-10.3-1.1-22.6 6.4-30.4 1.6-8.9 3.4-18.1 1.8-27.1-.8-4.5-2.5-9-2.7-13.7-.3-5.6 1.4-11.1 3.3-16.4 1.5-4.2 4.2-7.9 4.5-12.6.1-5.3.4-10.6 1.6-15.8 1.1-5.2 3.2-10.3 6.4-14.4 3.8-4.8 9.2-7.9 14.5-10.8 11.2-6 22.9-10.8 34.9-14.8-18.2-2.6-37.6 3.3-50.8 16 6-8.1 11.9-16.2 15.8-25.5l1.2-3.3c4-10 7.3-20.4 12.6-29.7 2.5-4.4 4-9.2 4.1-14.3v-1.9c0-4-.8-7.9-1-11.9-.4-12.3 5.9-24.4 15.1-32.5 9.2-8.2 21.4-12.5 33.4-15.1-11.2-4-24.5-1-32.9 7.5 3.7-11.2 5.5-23.8 12.5-33.4 5.6-7.7 11.9-14.5 19.2-20.4-4.5 1.4-8.2 3-12.5 4.9.1-2.1.4-4.2 1-6.3 1.4-6.3 4.2-12.2 8.4-17.1.5-.7 1-1.2 1.5-1.8 5.1-5.8 11.6-10.3 19-12.6-3.6-.5-7.4.3-10.6 2.1s-5.8 4.7-7.1 8.1c-.3-3-.4-6-.4-9.2.1-14.5 4.4-29.1 11.9-41.5 3.6-5.9 7.8-11.5 12.7-16.3-4.1-.3-8.2.3-11.6 2.5 1.8-5.3 4.1-10.4 6.6-15.5 2.2-4.7 2.6-10 3.6-15.1s3.3-11 7.3-14.3c1.1-3.2 5.2-5.2 8.4-4.2 2.9-2.2 6-4 9.3-5.2 1.8-.7 4.2-1.4 5.3.1 3.4-.7 6.9-1.5 10.3-2.2.8-.1 1.8-.4 2.7-.3.8.1 2.1.7 2.3 1.4v.1c.5-.1 1-.1 1.5-.3h.9c4.4 0 8.6 2.3 11.5 5.6 3.6 3.8 5.6 8.9 7.5 13.7.7 1.8 1.4 3.4 1.9 5.3.8 2.9 1.2 5.8.5 8.5-1.2 5.1-5.8 8.6-10.1 11.5-13.2 9-26.6 17.4-41 24.4 19.7-2.1 38.8-9.6 55.1-20.8 4 7.1 7.5 14.4 10.1 22.2 2.5-1.5 4.9-2.6 7.4-4.1 1 5.6 1.8 11.9-1.4 16.7-2.3 3.4-6.2 5.3-9.9 7-8.1 3.8-15.8 7.1-23.8 10.8 12.6-1.9 24.9-5.5 36.6-10.8 1.5 7.1.4 14.4-3.2 20.7.5-.1 1.1-.1 1.6-.3 2.9-.4 6.2-.4 8.9.1 3.6 6.4 6.7 13.2 8.2 20.4.5 2.9.8 5.8.7 8.6-.1 4.5-1.2 8.9-3.4 12.7-3.3 5.8-8.8 10-14.8 12.7-6 2.7-11.8 4.4-18.2 5.9 11.5-1.6 22.8-3.2 34.4-4.9 1.1 14.1-1.5 28.4-5.5 41.9-40.7 9.6-81.5 24.8-117.5 45.9 41.3-4.5 82.4-10.1 123.8-14.7-2.5 7.7-7.1 15.8-9.5 23.4-2.3 1.1-4.2 2.5-6.3 3.6-.1.1-.3.1-.4.3-.1.1-.3.1-.4.3h.3c4-.4 8.4 1.5 11.8 3.6-.7 9.3-2.3 18.6-4.8 27.8-2.1 7.8-4.8 15.6-7.8 23-19.9-8.9-42.6-9-64-4.5-21.2 4.5-41 10.8-60.8 19.6 42.5 3.7 84.4 4.4 127 1.8-1.6 8.4-3.4 16.7-5.5 25.1-3.8 15.8-8.9 31.2-16.7 45.1-2.6 5.3-6 10.4-10 15.2z" fill="url(#e)"/><linearGradient id="f" gradientUnits="userSpaceOnUse" x1="-188.264" y1="387.223" x2="-54.779" y2="387.223"><stop offset=".006" stop-color="#27356e"/><stop offset=".227" stop-color="#252e66"/><stop offset=".541" stop-color="#222053"/><stop offset=".765" stop-color="#1e0f41"/><stop offset=".994" stop-color="#21102e"/></linearGradient><path d="M-84 383.4c-5.8-1.1-11.5-1.8-17.4-1.6-5.9.1-11.6 1.2-17.4 1.9-5.8.7-11.5 1.1-17.3 1.5l-17.4 1.1c-11.6.8-23.2 1.6-34.8 2.6 11.6-.4 23.2-1.1 34.8-1.6l17.4-1c5.8-.3 11.6-.7 17.4-1.4 5.8-.7 11.5-1.9 17.3-2.1 5.8-.1 11.5.5 17.3 1.5 5.8 1 11.4 2.3 16.9 4 4.2 1.2 8.4 2.7 12.5 4.4v-.1c-9.4-4.3-19.3-7.3-29.3-9.2z" fill="url(#f)"/><linearGradient id="g" gradientUnits="userSpaceOnUse" x1="-193.517" y1="271.323" x2="-164.874" y2="271.323"><stop offset=".006" stop-color="#27356e"/><stop offset=".227" stop-color="#252e66"/><stop offset=".541" stop-color="#222053"/><stop offset=".765" stop-color="#1e0f41"/><stop offset=".994" stop-color="#21102e"/></linearGradient><path d="M-175 269.8c3.3-.4 6.7-.7 10.1-.8-3.4-.3-6.9-.3-10.1 0-3.4.1-6.9.7-10.1 1.4-2.3.5-4.7 1.2-7 1.9-.4.5-1 1.1-1.4 1.6 2.7-1 5.6-1.8 8.5-2.3 3.3-1 6.6-1.4 10-1.8z" fill="url(#g)"/><linearGradient id="h" gradientUnits="userSpaceOnUse" x1="-189.772" y1="397.286" x2="-56.012" y2="397.286"><stop offset=".006" stop-color="#27356e"/><stop offset=".227" stop-color="#252e66"/><stop offset=".541" stop-color="#222053"/><stop offset=".765" stop-color="#1e0f41"/><stop offset=".994" stop-color="#21102e"/></linearGradient><path d="M-66.2 399.6c-5.8-1.4-11.6-2.6-17.5-3.7s-11.8-2.1-17.7-2.9-12.1-1.4-18-.1c-3 .5-5.9 1.4-8.8 2.1-2.9.7-5.8 1-8.8 1.1-5.9.3-11.9-.4-17.8-.3-3 0-6 .3-8.9.7-3 .4-5.9 1.1-8.8 1.8l-17.4 4.2 17.5-3.7c2.9-.5 5.9-1.2 8.8-1.6 2.9-.4 5.9-.5 8.9-.5 5.9.1 11.9.7 18 .5 3-.1 6-.4 8.9-1.1 2.9-.7 5.8-1.5 8.8-2.1 5.8-1.2 11.8-.7 17.7 0 5.9.8 11.8 1.8 17.7 2.7 5.9 1 11.8 2.2 17.5 3.4 3.4.7 6.7 1.5 10 2.2v-.3c-3.3-.8-6.8-1.6-10.1-2.4z" fill="url(#h)"/><linearGradient id="i" gradientUnits="userSpaceOnUse" x1="-198.543" y1="431.899" x2="-66.166" y2="431.899"><stop offset=".006" stop-color="#27356e"/><stop offset=".227" stop-color="#252e66"/><stop offset=".541" stop-color="#222053"/><stop offset=".765" stop-color="#1e0f41"/><stop offset=".994" stop-color="#21102e"/></linearGradient><path d="M-74.1 433.6c-5.8-1.9-11.5-3.4-17.4-4.7-5.9-1.2-11.9-1.8-18-1.6-3 0-6 .3-9 .7l-8.9 1.4c-3 .4-5.9.7-8.9.7s-5.9-.1-8.9-.3c-6-.1-12.1-.1-18 .3-11.9.8-23.8 2.9-35.4 6.2 5.8-1.4 11.6-2.6 17.5-3.4 5.9-1 11.8-1.5 17.8-1.8 5.9-.3 11.9-.4 18-.1 3 .1 6 .3 9 .3s6-.3 9-.7l8.9-1.4c2.9-.4 5.9-.7 8.9-.8 5.9-.1 11.9.4 17.8 1.5 8.6 1.5 17.1 4.1 25.5 6.9 0-.1.1-.3.1-.3-2.7-1.2-5.3-2.1-8-2.9z" fill="url(#i)"/><linearGradient id="j" gradientUnits="userSpaceOnUse" x1="-176.752" y1="331.933" x2="-53.949" y2="331.933"><stop offset=".006" stop-color="#27356e"/><stop offset=".227" stop-color="#252e66"/><stop offset=".541" stop-color="#222053"/><stop offset=".765" stop-color="#1e0f41"/><stop offset=".994" stop-color="#21102e"/></linearGradient><path d="M-66.6 318.3c-5.5.1-11 .5-16.4 1-5.5.4-11 .5-16.4.3-5.5-.1-11.1-.1-16.4 1.1-5.5 1.2-10.6 3.2-15.6 5.3-5.1 2.2-10.1 4.2-15.1 6.4-10.1 4.4-20.1 8.8-30.2 13.2 10.1-4 20.4-8.2 30.6-12.3l15.2-6.3c5.1-2.1 10.1-4 15.5-5.2 5.3-1.2 10.8-1.2 16.3-1.2 5.5.1 11 0 16.4-.5 5.5-.4 11-1 16.4-1.2 2.7-.1 5.5-.1 8.2 0 1.4.1 2.9.1 4.2.4v-.3c-4.3-.6-8.4-.7-12.7-.7z" fill="url(#j)"/><linearGradient id="k" gradientUnits="userSpaceOnUse" x1="-264.847" y1="459.936" x2="-212.279" y2="459.936"><stop offset=".006" stop-color="#27356e"/><stop offset=".227" stop-color="#252e66"/><stop offset=".541" stop-color="#222053"/><stop offset=".765" stop-color="#1e0f41"/><stop offset=".994" stop-color="#21102e"/></linearGradient><path d="M-229.7 457.7c2.9 0 5.9-.1 8.8-.3 2.9-.3 5.8-.7 8.6-1.5-2.9.5-5.8.8-8.6 1-2.9.1-5.8 0-8.8 0-5.8-.1-11.8-.1-17.5 1-2.9.5-5.8 1.4-8.5 2.2s-5.6 1.8-8.4 2.7c-.3.1-.4.1-.7.3-.1.3-.1.7-.3 1 .4-.1.8-.3 1.2-.4 5.5-1.8 11.1-3.6 16.7-4.7 5.9-1.3 11.8-1.2 17.5-1.3z" fill="url(#k)"/><linearGradient id="l" gradientUnits="userSpaceOnUse" x1="-192.239" y1="408.286" x2="-58.342" y2="408.286"><stop offset=".006" stop-color="#27356e"/><stop offset=".227" stop-color="#252e66"/><stop offset=".541" stop-color="#222053"/><stop offset=".765" stop-color="#1e0f41"/><stop offset=".994" stop-color="#21102e"/></linearGradient><path d="M-69.9 408.7c-5.8-1.2-11.5-2.2-17.4-3-5.9-.7-11.6-1.2-17.5-1.5-2.9-.1-5.9-.1-8.9 0s-5.9.5-8.8 1c-2.9.5-5.8 1.1-8.6 1.5-2.9.4-5.8.7-8.8.8-5.9.3-11.6.1-17.5.3-5.9 0-11.8.1-17.7.8-5.9.7-11.6 1.9-17.1 3.8 5.6-1.6 11.4-2.7 17.3-3.3s11.6-.5 17.5-.4c5.9.1 11.8.3 17.7 0 2.9-.1 5.9-.4 8.8-.8 2.9-.4 5.8-1 8.6-1.4 11.5-2.2 23.3-.8 34.9.3 5.9.5 11.6 1.4 17.4 2.6 2.9.5 5.8 1.2 8.5 2.1 1.1.3 2.1.5 3.2 1v-.3c-3.7-1.4-7.6-2.5-11.6-3.5z" fill="url(#l)"/><linearGradient id="m" gradientUnits="userSpaceOnUse" x1="-193.497" y1="423.542" x2="-62.752" y2="423.542"><stop offset=".006" stop-color="#27356e"/><stop offset=".227" stop-color="#252e66"/><stop offset=".541" stop-color="#222053"/><stop offset=".765" stop-color="#1e0f41"/><stop offset=".994" stop-color="#21102e"/></linearGradient><path d="M-68.2 426c-5.8-1.6-11.6-3-17.7-4.1-11.9-2.2-24-3-36-2.9-6 .1-12.1.5-18.1.7-6 .3-12.1.4-18.1.3-3 0-6-.1-9-.1-3 .1-6 .4-9 .8-6 .8-11.9 2.3-17.5 4.5 11.4-3.8 23.6-5.2 35.5-4.2 12.1.5 24.1-.5 36.2-.7 12.1-.3 24 .7 35.9 2.6 5.9 1 11.8 2.2 17.7 3.7 1.8.4 3.6 1 5.3 1.5 0-.1.1-.3.1-.4-1.7-.6-3.5-1.1-5.3-1.7z" fill="url(#m)"/><linearGradient id="n" gradientUnits="userSpaceOnUse" x1="-164.808" y1="272.016" x2="-49.824" y2="272.016"><stop offset=".006" stop-color="#27356e"/><stop offset=".227" stop-color="#252e66"/><stop offset=".541" stop-color="#222053"/><stop offset=".765" stop-color="#1e0f41"/><stop offset=".994" stop-color="#21102e"/></linearGradient><path d="M-99.9 262.7c-11.4.3-22.9 1.8-33.7 4.9-2.7.8-5.5 1.8-8.1 2.7-2.6 1.1-5.2 2.2-7.8 3.6-5.1 2.6-9.9 5.8-15.2 7.5 5.5-1.5 10.4-4.5 15.5-7 2.6-1.2 5.2-2.3 7.8-3.3 2.6-1 5.3-1.9 8.1-2.6 11-3 22.2-4.5 33.6-4.7 11.4-.3 22.6.5 34 1.5 5.2.4 10.6 1 15.8 1.6.1-.1.1-.4.3-.5-5.3-.7-10.6-1.4-15.9-1.9-11.6-1.3-23-2.1-34.4-1.8z" fill="url(#n)"/><linearGradient id="o" gradientUnits="userSpaceOnUse" x1="-162.942" y1="261.147" x2="-48.37" y2="261.147"><stop offset=".006" stop-color="#27356e"/><stop offset=".227" stop-color="#252e66"/><stop offset=".541" stop-color="#222053"/><stop offset=".765" stop-color="#1e0f41"/><stop offset=".994" stop-color="#21102e"/></linearGradient><path d="M-73.3 250.9c-5.2 0-10.4.1-15.5.3-5.2.3-10.3.3-15.5.7s-10.3 1.5-15.3 2.7c-5.1 1.4-10 2.7-14.9 4.2s-9.9 3.2-14.7 5.2-9.5 4.5-13.6 7.4c4.4-2.7 9-5.1 13.8-6.9 4.8-1.9 9.7-3.4 14.7-4.8 10-2.7 19.9-6 30.2-6.7 5.1-.4 10.3-.5 15.5-.8 5.2-.3 10.3-.4 15.5-.5s10.3-.1 15.5.1c3.2.1 6.3.3 9.5.5v-.3c-8.5-.9-16.8-1.1-25.2-1.1z" fill="url(#o)"/><linearGradient id="p" gradientUnits="userSpaceOnUse" x1="-176.378" y1="318.502" x2="-51.115" y2="318.502"><stop offset=".006" stop-color="#27356e"/><stop offset=".227" stop-color="#252e66"/><stop offset=".541" stop-color="#222053"/><stop offset=".765" stop-color="#1e0f41"/><stop offset=".994" stop-color="#21102e"/></linearGradient><path d="M-57.7 304l-2.2-.3-2.2-.3c-2.9-.3-5.8-.5-8.6-.7l-4.4-.1h-4.4c-11.5 0-23 1.4-34.3 3.8-11.2 2.6-22.2 6.3-32.8 11.1-1.4.5-2.6 1.2-3.8 1.9l-3.8 1.9c-2.5 1.4-5.1 2.7-7.5 4.2-4.9 3-9.7 6.2-14.9 8.6 5.3-2.2 10.1-5.3 15.2-8.1 2.5-1.4 5.1-2.7 7.5-4.1l3.8-1.9c1.2-.7 2.6-1.2 4-1.8 10.6-4.7 21.4-8.2 32.6-10.7 11.1-2.6 22.6-3.8 34.1-4.1l4.2-.1 4.2.1c2.9 0 5.8.3 8.6.5l2.2.1 2.2.3 4.2.5c.7 0 1.5.1 2.2.3v-.3c-.7-.1-1.5-.3-2.2-.4l-3.9-.4z" fill="url(#p)"/><linearGradient id="q" gradientUnits="userSpaceOnUse" x1="-72.539" y1="287.529" x2="-50.063" y2="287.529"><stop offset=".006" stop-color="#27356e"/><stop offset=".227" stop-color="#252e66"/><stop offset=".541" stop-color="#222053"/><stop offset=".765" stop-color="#1e0f41"/><stop offset=".994" stop-color="#21102e"/></linearGradient><path d="M-58.1 287.3c-3.6-.4-7-.8-10.6-1.1-1.2.1-2.6.4-3.8.5 4.8.3 9.6.7 14.4 1.1 2.7.3 5.3.5 8.1 1v-.3c-2.7-.4-5.5-.8-8.1-1.2z" fill="url(#q)"/><linearGradient id="r" gradientUnits="userSpaceOnUse" x1="-169.215" y1="294.394" x2="-74.277" y2="294.394"><stop offset=".006" stop-color="#27356e"/><stop offset=".227" stop-color="#252e66"/><stop offset=".541" stop-color="#222053"/><stop offset=".765" stop-color="#1e0f41"/><stop offset=".994" stop-color="#21102e"/></linearGradient><path d="M-139.2 292c10.4-3.4 21.1-5.8 31.9-6.4 2.7-.1 5.5-.3 8.1-.3 2.7 0 5.5.1 8.2.3l14.1.8c.8-.3 1.6-.5 2.5-.8h-.1c-5.5-.4-11-.8-16.3-1.1-5.5-.4-11-.5-16.4-.1-11 .7-21.8 3.2-32.2 6.7-10.4 3.6-20.3 8.2-29.7 13.7 4.9-2.5 9.7-4.9 14.8-7 4.8-2.1 9.9-4 15.1-5.8z" fill="url(#r)"/><linearGradient id="s" gradientUnits="userSpaceOnUse" x1="-166.2" y1="281.755" x2="-55.601" y2="281.755"><stop offset=".006" stop-color="#27356e"/><stop offset=".227" stop-color="#252e66"/><stop offset=".541" stop-color="#222053"/><stop offset=".765" stop-color="#1e0f41"/><stop offset=".994" stop-color="#21102e"/></linearGradient><path d="M-73.1 272c-5.3-.7-10.8-1-16.2-1-5.5-.1-10.8.1-16.3.5-5.3.4-10.8 1.1-16.2 1.9-5.3.8-10.7 1.8-15.9 3.6-10.4 3.6-19.6 9.5-28.5 15.5 4.7-2.7 9.2-5.6 14-8.1 4.8-2.6 9.6-4.8 14.8-6.4 5.1-1.6 10.4-2.6 15.8-3.3 5.3-.8 10.7-1.5 16-1.8 10.7-1 21.5-.8 32.3.1 5.8.5 11.6 1.5 17.3 2.7l.4-.4c-.5-.1-1.1-.3-1.6-.4-5.3-1.4-10.6-2.2-15.9-2.9z" fill="url(#s)"/><linearGradient id="t" gradientUnits="userSpaceOnUse" x1="-179.9" y1="341.731" x2="-54.775" y2="341.731"><stop offset=".006" stop-color="#27356e"/><stop offset=".227" stop-color="#252e66"/><stop offset=".541" stop-color="#222053"/><stop offset=".765" stop-color="#1e0f41"/><stop offset=".994" stop-color="#21102e"/></linearGradient><path d="M-70.5 324.5c-5.6.5-11.1.7-16.7 1.1-11.1.7-22.5 1.6-33 5.6-5.2 1.9-10.4 4.1-15.5 6.3-5.2 2.2-10.3 4.4-15.3 6.7-5.1 2.5-10 5.1-14.8 7.8-4.8 2.9-9.5 6-13.8 9.5 4.5-3.3 9.2-6.3 14.1-9 4.8-2.7 9.9-5.2 14.9-7.5s10.1-4.5 15.3-6.6c5.2-2.1 10.3-4.2 15.5-6.2 10.4-4 21.7-5.1 32.8-5.9 5.6-.4 11.1-.8 16.7-1.4 5.3-.7 10.6-1.5 15.8-2.9-5.5 1.2-10.8 1.9-16 2.5z" fill="url(#t)"/><linearGradient id="u" gradientUnits="userSpaceOnUse" x1="-151.309" y1="139.036" x2="-110.194" y2="139.036"><stop offset=".006" stop-color="#27356e"/><stop offset=".227" stop-color="#252e66"/><stop offset=".541" stop-color="#222053"/><stop offset=".765" stop-color="#1e0f41"/><stop offset=".994" stop-color="#21102e"/></linearGradient><path d="M-141 148.8l5.1-5.9c.8-1 1.6-1.9 2.6-2.9s1.8-1.9 2.7-2.7c3.7-3.7 7.5-7.1 11.2-10.8l5.6-5.5 3.4-3.4h-.4c-1.1 1-2.3 2.1-3.4 3l-5.9 5.2c-3.8 3.4-7.7 7-11.5 10.6-1 1-1.8 1.9-2.7 2.9-.8 1-1.6 2.1-2.6 3-1.6 2.1-3.4 4-4.9 6-3.3 4.1-6.4 8.2-9.6 12.3 3.6-3.9 7-7.9 10.4-11.8z" fill="url(#u)"/><linearGradient id="v" gradientUnits="userSpaceOnUse" x1="-151.261" y1="147.465" x2="-98.223" y2="147.465"><stop offset=".006" stop-color="#27356e"/><stop offset=".227" stop-color="#252e66"/><stop offset=".541" stop-color="#222053"/><stop offset=".765" stop-color="#1e0f41"/><stop offset=".994" stop-color="#21102e"/></linearGradient><path d="M-125.9 144c-2.5 2.1-4.9 4.1-7.3 6.3-2.3 2.2-4.7 4.5-6.6 7-4 5.1-7.7 10.1-11.5 15.3 2.1-2.5 4.1-4.9 6.2-7.4 2.1-2.5 4-4.9 6-7.4 2.1-2.5 4.2-4.8 6.6-6.9 2.3-2.1 4.8-4.1 7.3-6.2 4.9-4.1 9.9-7.9 14.8-12.1 4.1-3.3 8.2-6.7 12.2-10.3l-.1-.1c-1.6 1.2-3.3 2.6-5.1 3.8l-7.5 5.8c-5.1 4.2-10.1 8.1-15 12.2z" fill="url(#v)"/><linearGradient id="w" gradientUnits="userSpaceOnUse" x1="-151.946" y1="156.441" x2="-92.031" y2="156.441"><stop offset=".006" stop-color="#27356e"/><stop offset=".227" stop-color="#252e66"/><stop offset=".541" stop-color="#222053"/><stop offset=".765" stop-color="#1e0f41"/><stop offset=".994" stop-color="#21102e"/></linearGradient><path d="M-137.7 167c-4.8 4.5-9.6 9-14.3 13.7 5.1-4.2 10-8.6 14.9-13.2 4.9-4.4 9.7-8.9 14.7-13.3 2.5-2.2 4.8-4.5 7.4-6.6 2.5-2.1 5.3-3.8 8.1-5.6l8.4-5.3c2.2-1.5 4.4-2.9 6.6-4.4v-.1c-2.3 1.4-4.7 2.7-6.9 4l-8.5 5.1c-2.9 1.6-5.6 3.4-8.2 5.6-2.6 2.1-5.1 4.4-7.5 6.6-5.1 4.4-9.9 8.8-14.7 13.5z" fill="url(#w)"/><linearGradient id="x" gradientUnits="userSpaceOnUse" x1="-152.536" y1="164.253" x2="-89.017" y2="164.253"><stop offset=".006" stop-color="#27356e"/><stop offset=".227" stop-color="#252e66"/><stop offset=".541" stop-color="#222053"/><stop offset=".765" stop-color="#1e0f41"/><stop offset=".994" stop-color="#21102e"/></linearGradient><path d="M-102.2 147.4l-4.2 2.6c-5.6 3.6-11.1 7.4-16.4 11.4-5.3 4.1-10.4 8.2-15.3 12.7s-9.7 9.2-14.1 14.1c4.8-4.7 9.7-9 14.8-13.4 5.1-4.4 10.1-8.5 15.5-12.5 5.2-4.1 10.7-7.8 16.3-11.5l4.1-2.7 4.2-2.6 4.2-2.6 4.2-2.6-4.4 2.3-4.4 2.3-4.5 2.5z" fill="url(#x)"/><linearGradient id="y" gradientUnits="userSpaceOnUse" x1="-210.603" y1="480.767" x2="-71.636" y2="480.767"><stop offset=".006" stop-color="#27356e"/><stop offset=".227" stop-color="#252e66"/><stop offset=".541" stop-color="#222053"/><stop offset=".765" stop-color="#1e0f41"/><stop offset=".994" stop-color="#21102e"/></linearGradient><path d="M-105.3 478c-5.8-.8-11.6-1.4-17.5-1.6-2.9-.1-5.9-.3-8.8-.3h-4.4c-1.5 0-2.9 0-4.4.1-2.9.1-5.9.5-8.8.8s-5.8.7-8.8.8c-5.8.5-11.6.7-17.5.8-11.6.3-23.4-.3-35.1-1.5 11.6 1.6 23.3 2.5 35.1 2.5 5.9 0 11.8-.3 17.5-.7 5.9-.4 11.6-1.2 17.5-1.6 1.5-.1 2.9-.1 4.4-.1h4.4c2.9 0 5.9.1 8.8.3 5.9.3 11.6.8 17.4 1.5 5.8.7 11.5 1.6 17.3 2.7 5.6 1.1 11.1 2.5 16.6 3.8-10.9-3.4-22.2-5.9-33.7-7.5z" fill="url(#y)"/><linearGradient id="z" gradientUnits="userSpaceOnUse" x1="-281.009" y1="562.038" x2="-248.863" y2="562.038"><stop offset=".006" stop-color="#27356e"/><stop offset=".227" stop-color="#252e66"/><stop offset=".541" stop-color="#222053"/><stop offset=".765" stop-color="#1e0f41"/><stop offset=".994" stop-color="#21102e"/></linearGradient><path d="M-254 559.8c1.8-.4 3.6-1 5.2-1.9-1.8.7-3.6 1.1-5.3 1.4-1.8.3-3.6.4-5.5.4-3.7.1-7.4 0-11.1.7-1.8.3-3.7.8-5.3 1.6-1.6.8-3.3 1.8-4.7 2.9-.1.4-.1 1-.3 1.4.3-.1.4-.4.7-.5 2.9-2.1 6.3-3.6 9.9-4.1 3.6-.7 7.3-.7 11-1 1.7-.4 3.6-.5 5.4-.9z" fill="url(#z)"/><linearGradient id="A" gradientUnits="userSpaceOnUse" x1="-276.749" y1="575.674" x2="-251.372" y2="575.674"><stop offset=".006" stop-color="#27356e"/><stop offset=".227" stop-color="#252e66"/><stop offset=".541" stop-color="#222053"/><stop offset=".765" stop-color="#1e0f41"/><stop offset=".994" stop-color="#21102e"/></linearGradient><path d="M-264.5 570.7c-1.5.7-2.7 1.6-3.8 2.6-2.2 2.2-4 4.7-5.8 7l-2.6 3.4.4.4 2.9-3.3c1-1.1 1.9-2.3 3-3.4 1-1.1 1.9-2.3 3-3.3 2.1-2.2 4.8-3.2 7.7-4 1.5-.4 2.9-.7 4.4-1.1 1.5-.5 2.9-1.1 4.1-1.9-2.7 1.4-5.8 1.6-8.6 2.2-1.8.5-3.3.9-4.7 1.4z" fill="url(#A)"/><linearGradient id="B" gradientUnits="userSpaceOnUse" x1="-226.381" y1="540.856" x2="-108.244" y2="540.856"><stop offset=".006" stop-color="#27356e"/><stop offset=".227" stop-color="#252e66"/><stop offset=".541" stop-color="#222053"/><stop offset=".765" stop-color="#1e0f41"/><stop offset=".994" stop-color="#21102e"/></linearGradient><path d="M-117.8 548.7c-5.1-1.5-10.1-2.9-15.3-4.1-5.2-1.1-10.4-2.1-15.6-2.6-5.2-.7-10.6-1.1-15.8-1.5s-10.4-.8-15.6-1.6c-5.2-.8-10.3-2.2-15.3-3.6s-10.1-2.9-15.3-4c-5.2-1.1-10.4-1.9-15.6-1.8 5.2.3 10.4 1.1 15.5 2.5 5.1 1.2 10.1 2.9 15.2 4.2 5.1 1.5 10.1 2.9 15.3 3.7 5.2.8 10.6 1.4 15.8 1.8 5.2.4 10.6.7 15.8 1.4 5.2.5 10.4 1.5 15.5 2.5 8.4 1.6 16.7 4 24.8 6.7.1 0 .1-.1.3-.1-3.3-1.5-6.4-2.6-9.7-3.5z" fill="url(#B)"/><linearGradient id="C" gradientUnits="userSpaceOnUse" x1="-215.811" y1="494.747" x2="-75.747" y2="494.747"><stop offset=".006" stop-color="#27356e"/><stop offset=".227" stop-color="#252e66"/><stop offset=".541" stop-color="#222053"/><stop offset=".765" stop-color="#1e0f41"/><stop offset=".994" stop-color="#21102e"/></linearGradient><path d="M-91.1 496.2c-5.9-1.1-11.8-2.1-17.7-2.5-5.9-.5-11.9-.7-18-.4-6 .1-11.9.8-17.8 1-11.9.3-23.7-.7-35.6-1.8l-17.8-1.6-17.8-1.5c11.8 1.4 23.7 2.7 35.5 4 11.9 1.2 23.8 2.2 35.8 2.1 6-.1 11.9-.8 17.8-1.1s11.9-.1 17.8.3c11.2.8 22.2 2.7 33.2 5.6v-.1c-5.1-1.7-10.2-2.9-15.4-4z" fill="url(#C)"/><linearGradient id="D" gradientUnits="userSpaceOnUse" x1="-208.822" y1="468.201" x2="-68.621" y2="468.201"><stop offset=".006" stop-color="#27356e"/><stop offset=".227" stop-color="#252e66"/><stop offset=".541" stop-color="#222053"/><stop offset=".765" stop-color="#1e0f41"/><stop offset=".994" stop-color="#21102e"/></linearGradient><path d="M-98.9 468.9c-12.2-1.2-24.4-2.2-36.6-3.3l-18.2-1.5-9.2-.8c-3-.3-6.2-.5-9.2-.7-3-.1-6.2 0-9.2.3-3 .4-6 .8-9.2 1-6 .4-12.2.1-18.4.8 6.2-.4 12.2 0 18.4-.3 3-.1 6.2-.4 9.2-.7s6-.3 9-.1c12.2 1 24.4 2.2 36.6 3.2l36.6 3c6 .5 12.2 1.1 18.2 2.1 3 .4 6 1 9 1.5 1.1.1 2.1.4 3.2.5v-.3c-1.1-.1-2.1-.4-3.2-.7-3-.7-6-1.2-9-1.8-5.8-.8-12-1.5-18-2.2z" fill="url(#D)"/><linearGradient id="E" gradientUnits="userSpaceOnUse" x1="-216.634" y1="507.766" x2="-82.189" y2="507.766"><stop offset=".006" stop-color="#27356e"/><stop offset=".227" stop-color="#252e66"/><stop offset=".541" stop-color="#222053"/><stop offset=".765" stop-color="#1e0f41"/><stop offset=".994" stop-color="#21102e"/></linearGradient><path d="M-145.4 505.2c-11.9-.8-23.8-1-35.8-1.8-5.9-.4-11.8-1.1-17.8-1.9-5.9-.8-11.8-1.6-17.7-2.6 11.6 2.2 23.4 4.4 35.4 5.5 11.9 1 23.8 1.1 35.8 2.1 11.9.8 23.7 2.3 35.5 4.4 5.9 1 11.8 2.2 17.5 3.4 3.4.7 6.9 1.5 10.1 2.3 0-.1.1-.1.1-.3-3.4-1-6.7-1.8-10.1-2.7-5.8-1.4-11.6-2.6-17.5-3.7-11.6-2.2-23.5-3.6-35.5-4.7z" fill="url(#E)"/><linearGradient id="F" gradientUnits="userSpaceOnUse" x1="-161.951" y1="249.613" x2="-50.804" y2="249.613"><stop offset=".006" stop-color="#27356e"/><stop offset=".227" stop-color="#252e66"/><stop offset=".541" stop-color="#222053"/><stop offset=".765" stop-color="#1e0f41"/><stop offset=".994" stop-color="#21102e"/></linearGradient><path d="M-103 239.5c-2.6.1-5.2.4-7.8.8-2.6.4-5.2 1.1-7.7 1.8-2.6.7-5.1 1.4-7.5 2.2-2.5.8-5.1 1.5-7.5 2.3-9.9 3.4-19.5 7.9-28.4 13.4 9.2-5.1 18.8-9.3 28.6-12.5 2.5-.8 5.1-1.4 7.5-2.2 2.5-.7 5.1-1.5 7.5-2.1 2.5-.7 5.1-1.2 7.7-1.6 2.6-.4 5.1-.7 7.7-.8 10.4-.4 21-.7 31.4-.4 5.2.1 10.4.4 15.6.8 1.6.1 3.4.4 5.1.5 0-.1-.1-.3-.1-.4-1.6-.3-3.3-.5-4.9-.7-5.2-.7-10.4-1-15.6-1.2-10.7-.5-21.1-.2-31.6.1z" fill="url(#F)"/><linearGradient id="G" gradientUnits="userSpaceOnUse" x1="-85.007" y1="214.208" x2="-63.826" y2="214.208"><stop offset=".006" stop-color="#27356e"/><stop offset=".227" stop-color="#252e66"/><stop offset=".541" stop-color="#222053"/><stop offset=".765" stop-color="#1e0f41"/><stop offset=".994" stop-color="#21102e"/></linearGradient><path d="M-79.2 214.7c4.5 0 9 0 13.6.1h1.9v-.5c-5.1-.3-10.3-.5-15.3-.7h-1.9c-1.2.4-2.6.8-3.8 1.1 1.7.1 3.6 0 5.5 0z" fill="url(#G)"/><linearGradient id="H" gradientUnits="userSpaceOnUse" x1="-153.814" y1="192.759" x2="-75.095" y2="192.759"><stop offset=".006" stop-color="#27356e"/><stop offset=".227" stop-color="#252e66"/><stop offset=".541" stop-color="#222053"/><stop offset=".765" stop-color="#1e0f41"/><stop offset=".994" stop-color="#21102e"/></linearGradient><path d="M-112.6 184.7c-3.6 1.2-7 2.9-10.4 4.4-3.4 1.5-6.9 3-10.3 4.7-6.9 3.2-13.7 6.3-20.4 9.5 7-2.7 13.8-5.8 20.8-8.6 3.4-1.5 6.9-3 10.4-4.4 3.4-1.5 6.9-3 10.4-4.2 7-2.6 14.7-2.6 22.1-2.7 3.7 0 7.5 0 11.2.1 1.2 0 2.6.1 3.8.1 0-.1-.1-.3-.1-.4-1.2-.1-2.5-.3-3.7-.3-3.7-.3-7.5-.4-11.2-.4-3.7 0-7.5 0-11.4.3-3.8 0-7.7.6-11.2 1.9z" fill="url(#H)"/><linearGradient id="I" gradientUnits="userSpaceOnUse" x1="-172.165" y1="307.264" x2="-50.328" y2="307.264"><stop offset=".006" stop-color="#27356e"/><stop offset=".227" stop-color="#252e66"/><stop offset=".541" stop-color="#222053"/><stop offset=".765" stop-color="#1e0f41"/><stop offset=".994" stop-color="#21102e"/></linearGradient><path d="M-59.7 294.3c-2.7-.4-5.6-.7-8.5-.8l-8.5-.3c-2.9-.1-5.6-.1-8.5-.1h-8.5c-5.6.1-11.4.4-17 1.1-11.2 1.5-22.2 5.1-32.5 10-10.3 4.8-19.9 10.8-29.2 17.3 4.8-3 9.6-6 14.5-8.8 4.9-2.7 9.9-5.3 15.1-7.7 10.3-4.7 21.1-8.1 32.2-9.6 11.1-1.5 22.5-1.4 33.7-1.2l8.5.1c2.9.1 5.6.4 8.4.7 3.2.4 6.3.8 9.5 1.4v-.3c-2.9-.8-6.1-1.4-9.2-1.8z" fill="url(#I)"/><linearGradient id="J" gradientUnits="userSpaceOnUse" x1="-246.099" y1="417.04" x2="-198.891" y2="417.04"><stop offset=".006" stop-color="#27356e"/><stop offset=".227" stop-color="#252e66"/><stop offset=".541" stop-color="#222053"/><stop offset=".765" stop-color="#1e0f41"/><stop offset=".994" stop-color="#21102e"/></linearGradient><path d="M-241.7 418.3c4.7-1.2 9.3-2.1 14.1-2.5 4.8-.5 9.6-.7 14.4-.8s9.6.3 14.4.7c-2.3-.4-4.8-.8-7.1-1.1-2.3-.3-4.8-.4-7.3-.4-4.8 0-9.6.1-14.4.5-4.8.5-9.6 1.2-14.3 2.7-1.2.4-2.5.8-3.7 1.4-.1.3-.4.7-.5 1 1.5-.5 2.9-1 4.4-1.5z" fill="url(#J)"/><linearGradient id="K" gradientUnits="userSpaceOnUse" x1="-242.814" y1="408.063" x2="-197.948" y2="408.063"><stop offset=".006" stop-color="#27356e"/><stop offset=".227" stop-color="#252e66"/><stop offset=".541" stop-color="#222053"/><stop offset=".765" stop-color="#1e0f41"/><stop offset=".994" stop-color="#21102e"/></linearGradient><path d="M-238.4 410.5c2.2-.8 4.2-1.4 6.6-1.6 2.2-.3 4.5-.3 6.9-.4 2.3-.1 4.5-.5 6.9-.8 2.3-.3 4.5-.7 6.7-1.1 4.5-.7 9-1.5 13.6-2.5-4.5.4-9 1-13.6 1.5s-9 1.2-13.6 1.5c-2.3.1-4.5.3-6.9.5-2.3.3-4.7 1-6.7 1.8-1.2.5-2.5 1.1-3.7 1.6-.1.3-.3.5-.4 1 1.3-.2 2.7-.9 4.2-1.5z" fill="url(#K)"/><linearGradient id="L" gradientUnits="userSpaceOnUse" x1="-257.495" y1="446.82" x2="-206.891" y2="446.82"><stop offset=".006" stop-color="#27356e"/><stop offset=".227" stop-color="#252e66"/><stop offset=".541" stop-color="#222053"/><stop offset=".765" stop-color="#1e0f41"/><stop offset=".994" stop-color="#21102e"/></linearGradient><path d="M-238.4 445.8c5.2-.5 10.6-.4 15.8.4l7.8 1.2c2.6.3 5.3.5 7.9.3-2.6 0-5.3-.4-7.9-.8-2.6-.4-5.2-1.1-7.8-1.5-2.6-.5-5.3-.8-7.9-1-2.7-.1-5.3 0-8.1.1-2.6.3-5.3.7-7.9 1.2-2.6.5-5.2 1.1-7.8 1.8-.7.1-1.4.4-2.1.7l-1.1 1.1c1.1-.3 2.3-.5 3.4-.8 5.1-1.2 10.3-2.3 15.7-2.7z" fill="url(#L)"/><linearGradient id="M" gradientUnits="userSpaceOnUse" x1="-266.069" y1="467.995" x2="-215.359" y2="467.995"><stop offset=".006" stop-color="#27356e"/><stop offset=".227" stop-color="#252e66"/><stop offset=".541" stop-color="#222053"/><stop offset=".765" stop-color="#1e0f41"/><stop offset=".994" stop-color="#21102e"/></linearGradient><path d="M-249.9 468.5c2.9-.3 5.8-.3 8.6-.4 2.9-.1 5.8-.5 8.6-1.1 2.9-.5 5.8-1.1 8.5-1.5 2.9-.4 5.8-.7 8.6-.4-2.9-.4-5.8-.4-8.8-.1-2.9.3-5.8.7-8.6 1.1-2.9.4-5.8.8-8.6.8-2.9.1-5.8.1-8.6.3-5.5.4-10.8 1.5-16 3.2 0 .3-.1.7-.1 1 5.5-1.5 10.9-2.5 16.4-2.9z" fill="url(#M)"/><linearGradient id="N" gradientUnits="userSpaceOnUse" x1="-231.615" y1="378.529" x2="-187.5" y2="378.529"><stop offset=".006" stop-color="#27356e"/><stop offset=".227" stop-color="#252e66"/><stop offset=".541" stop-color="#222053"/><stop offset=".765" stop-color="#1e0f41"/><stop offset=".994" stop-color="#21102e"/></linearGradient><path d="M-228.8 383.8c1.9-.8 3.8-1.6 5.8-2.2l11.8-4c4-1.4 7.8-2.6 11.8-3.7 4-1.1 7.9-1.9 12.1-2.3-2.1 0-4.1.1-6.2.4-2.1.3-4.1.7-6.2 1.1-4.1 1-7.9 2.2-11.9 3.6-3.8 1.4-7.8 2.6-11.6 4.2-1.9.8-3.8 1.6-5.6 2.6-.7.4-1.5.8-2.2 1.4-.1.1-.3.4-.3.5.6-.8 1.5-1.2 2.5-1.6z" fill="url(#N)"/><linearGradient id="O" gradientUnits="userSpaceOnUse" x1="-239.727" y1="399.566" x2="-194.349" y2="399.566"><stop offset=".006" stop-color="#27356e"/><stop offset=".227" stop-color="#252e66"/><stop offset=".541" stop-color="#222053"/><stop offset=".765" stop-color="#1e0f41"/><stop offset=".994" stop-color="#21102e"/></linearGradient><path d="M-220.5 398.3c4.2-.8 8.6-1.2 13-1.4 2.2-.1 4.4-.3 6.6-.5 2.2-.3 4.4-.7 6.4-1.5-2.2.5-4.4.8-6.6 1-2.2.1-4.4.1-6.6.1-4.4 0-8.9.3-13.3 1.1s-8.6 2.1-12.9 3.7c-2.1.8-4 1.6-5.9 2.6-.1.3-.1.5-.3.8 2.2-1 4.2-1.8 6.4-2.5 4.6-1.4 8.8-2.5 13.2-3.4z" fill="url(#O)"/><linearGradient id="P" gradientUnits="userSpaceOnUse" x1="-237.191" y1="391.206" x2="-191.511" y2="391.206"><stop offset=".006" stop-color="#27356e"/><stop offset=".227" stop-color="#252e66"/><stop offset=".541" stop-color="#222053"/><stop offset=".765" stop-color="#1e0f41"/><stop offset=".994" stop-color="#21102e"/></linearGradient><path d="M-229 394.1c4-1.5 8.1-2.7 12.3-3.8 2.1-.5 4.1-1.1 6.3-1.6l6.3-1.5c2.1-.4 4.2-.7 6.3-.8 2.2-.3 4.4-.4 6.3-1.4-2.1.7-4.2.8-6.3.8-2.2 0-4.4.1-6.4.5-4.2.7-8.5 1.8-12.7 2.9-4.1 1.1-8.4 2.5-12.3 4.1-2.1.8-4 1.8-5.9 2.7-.5.3-1.1.7-1.8 1-.1.1-.1.4-.3.5 2.8-1.2 5.4-2.3 8.2-3.4z" fill="url(#P)"/><linearGradient id="Q" gradientUnits="userSpaceOnUse" x1="-227.913" y1="369.44" x2="-183.646" y2="369.44"><stop offset=".006" stop-color="#27356e"/><stop offset=".227" stop-color="#252e66"/><stop offset=".541" stop-color="#222053"/><stop offset=".765" stop-color="#1e0f41"/><stop offset=".994" stop-color="#21102e"/></linearGradient><path d="M-224.7 376l5.6-3c3.7-2.1 7.4-4.2 11.1-6 3.7-1.9 7.7-3.3 11.8-4.2 4.1-1 8.2-1.4 12.5-1.4-4.2-.4-8.5-.3-12.7.5-4.2.8-8.2 2.2-12.1 4.1-3.8 1.9-7.4 4.1-11.1 6.3l-5.5 3.3c-1 .5-1.9 1.2-2.7 1.8 0 .1-.1.3-.1.4 1.1-.7 2.1-1.3 3.2-1.8z" fill="url(#Q)"/><linearGradient id="R" gradientUnits="userSpaceOnUse" x1="-159.073" y1="236.272" x2="-66.017" y2="236.272"><stop offset=".006" stop-color="#27356e"/><stop offset=".227" stop-color="#252e66"/><stop offset=".541" stop-color="#222053"/><stop offset=".765" stop-color="#1e0f41"/><stop offset=".994" stop-color="#21102e"/></linearGradient><path d="M-72.3 225.1c-4.2.1-8.6.3-12.9.7-8.6.7-17.1 2.1-25.5 4-8.4 1.9-16.7 4.4-24.7 7.5-8.1 3-15.9 6.6-23.7 10.1 7.9-3.2 15.9-6.4 24-9.3 8.1-2.9 16.3-5.3 24.7-7.3 8.4-1.9 16.9-3.3 25.4-4.2 6.3-.7 12.6-1 18.9-1.1 0-.1.1-.3.1-.3-2.2 0-4.3-.1-6.3-.1z" fill="url(#R)"/><linearGradient id="S" gradientUnits="userSpaceOnUse" x1="-273.683" y1="545.729" x2="-242.103" y2="545.729"><stop offset=".006" stop-color="#27356e"/><stop offset=".227" stop-color="#252e66"/><stop offset=".541" stop-color="#222053"/><stop offset=".765" stop-color="#1e0f41"/><stop offset=".994" stop-color="#21102e"/></linearGradient><path d="M-273.6 550.7c2.9-1.4 5.8-2.3 8.9-3.2 3.8-1.1 7.7-2.2 11.4-3.3 3.8-1.1 7.5-2.3 11.4-3.6-3.8.8-7.7 1.8-11.5 2.7-3.8 1-7.7 1.9-11.5 3-2.7.8-5.5 1.6-8.1 2.9-.1.4-.1.7-.3 1.1-.2.3-.3.3-.3.4z" fill="url(#S)"/><linearGradient id="T" gradientUnits="userSpaceOnUse" x1="-220.334" y1="518.25" x2="-88.082" y2="518.25"><stop offset=".006" stop-color="#27356e"/><stop offset=".227" stop-color="#252e66"/><stop offset=".541" stop-color="#222053"/><stop offset=".765" stop-color="#1e0f41"/><stop offset=".994" stop-color="#21102e"/></linearGradient><path d="M-96.6 525c-5.8-1.6-11.5-3.2-17.4-4.4-11.6-2.5-23.6-3.8-35.5-4.2s-23.8-.1-35.6-1.6c-11.8-1.4-23.4-3.8-35.2-6.2 5.8 1.4 11.6 2.7 17.4 4.1 5.9 1.2 11.6 2.3 17.7 3 11.9 1.6 23.8 1.4 35.8 1.9 11.9.4 23.7 1.8 35.4 4 5.9 1.1 11.6 2.5 17.4 4 2.9.8 5.8 1.6 8.5 2.5 0-.1.1-.1.1-.3-3-1.1-5.7-2-8.6-2.8z" fill="url(#T)"/><linearGradient id="U" gradientUnits="userSpaceOnUse" x1="-271.792" y1="534.08" x2="-237.771" y2="534.08"><stop offset=".006" stop-color="#27356e"/><stop offset=".227" stop-color="#252e66"/><stop offset=".541" stop-color="#222053"/><stop offset=".765" stop-color="#1e0f41"/><stop offset=".994" stop-color="#21102e"/></linearGradient><path d="M-258.3 534.8c3.4-1.2 6.9-2.5 10.3-3.7 3.4-1.2 6.9-2.6 10.1-4-3.6 1-7 2.1-10.6 3.2-3.4 1.1-7 2.3-10.4 3.4-3.4 1.2-7 2.5-10.1 4.4-1 .5-1.9 1.2-2.9 1.9 0 .3-.1.7-.1 1 1.1-.8 2.2-1.5 3.4-2.2 3.5-1.6 6.9-2.7 10.3-4z" fill="url(#U)"/><linearGradient id="V" gradientUnits="userSpaceOnUse" x1="-271.044" y1="522.773" x2="-234.23" y2="522.773"><stop offset=".006" stop-color="#27356e"/><stop offset=".227" stop-color="#252e66"/><stop offset=".541" stop-color="#222053"/><stop offset=".765" stop-color="#1e0f41"/><stop offset=".994" stop-color="#21102e"/></linearGradient><path d="M-267.9 527.6c3.4-2.2 6.9-4.2 10.6-5.9 3.6-1.8 7.4-3.2 11.2-4.1s7.9-1.4 11.9-1.2c-2.1-.3-4.1-.4-6-.4-2.1.1-4.1.4-6 .7-4 .8-7.9 2.2-11.5 4-3.7 1.8-7.1 4-10.4 6.3-.8.7-1.8 1.2-2.6 1.9v.8c.8-.8 1.7-1.4 2.8-2.1z" fill="url(#V)"/><linearGradient id="W" gradientUnits="userSpaceOnUse" x1="-274.331" y1="501.092" x2="-225.657" y2="501.092"><stop offset=".006" stop-color="#27356e"/><stop offset=".227" stop-color="#252e66"/><stop offset=".541" stop-color="#222053"/><stop offset=".765" stop-color="#1e0f41"/><stop offset=".994" stop-color="#21102e"/></linearGradient><path d="M-274.3 507.3c1.6-.8 3.4-1.6 5.1-2.5 4.5-2.1 9.2-4.1 14-5.5 4.8-1.6 9.6-2.7 14.7-3.3 4.9-.7 10-.8 15.1-.3-2.5-.5-4.9-.7-7.5-.8-2.5-.1-5.1 0-7.5.3-5.1.4-10 1.6-14.9 3.2-4.8 1.6-9.5 3.6-14 5.9-1.5.8-3.2 1.6-4.7 2.5-.3-.1-.3.2-.3.5z" fill="url(#W)"/><linearGradient id="X" gradientUnits="userSpaceOnUse" x1="-269.683" y1="482.892" x2="-219.607" y2="482.892"><stop offset=".006" stop-color="#27356e"/><stop offset=".227" stop-color="#252e66"/><stop offset=".541" stop-color="#222053"/><stop offset=".765" stop-color="#1e0f41"/><stop offset=".994" stop-color="#21102e"/></linearGradient><path d="M-254.7 484.8c5.8-1.8 11.6-3.4 17.4-5.2 2.9-.8 5.8-1.8 8.8-2.2 3-.4 6-.3 8.9-1.4-3 .7-6 .5-9 .7-3 .3-6 1.1-8.9 1.9-5.9 1.5-11.6 3.3-17.5 4.9-4.7 1.4-9.5 2.7-14 4.8-.3.4-.4 1-.7 1.4 4.8-2 9.9-3.5 15-4.9z" fill="url(#X)"/><linearGradient id="Y" gradientUnits="userSpaceOnUse" x1="-177.66" y1="202.901" x2="-153.95" y2="202.901"><stop offset=".006" stop-color="#27356e"/><stop offset=".227" stop-color="#252e66"/><stop offset=".541" stop-color="#222053"/><stop offset=".765" stop-color="#1e0f41"/><stop offset=".994" stop-color="#21102e"/></linearGradient><path d="M-175 206.7c2.2-1.4 4.4-2.6 6.7-3.8 2.3-1.2 4.7-2.2 7-3.2s4.8-1.8 7.3-2.6c-2.6.3-5.1 1-7.7 1.8-2.5.8-4.9 1.8-7.3 3-2.3 1.2-4.5 2.5-6.7 4.1-.7.4-1.2 1-1.8 1.5-.1.4-.1.7-.3 1.1 1-.6 1.9-1.3 2.8-1.9z" fill="url(#Y)"/><linearGradient id="Z" gradientUnits="userSpaceOnUse" x1="-179.63" y1="213.212" x2="-155.51" y2="213.212"><stop offset=".006" stop-color="#27356e"/><stop offset=".227" stop-color="#252e66"/><stop offset=".541" stop-color="#222053"/><stop offset=".765" stop-color="#1e0f41"/><stop offset=".994" stop-color="#21102e"/></linearGradient><path d="M-176.5 216.5c2.2-1.2 4.4-2.5 6.7-3.6s4.7-2.1 7-2.9c1.2-.4 2.3-.8 3.6-1.2s2.5-.8 3.7-.7c-1.2-.4-2.6-.1-3.8.1-1.2.3-2.5.5-3.7 1-2.5.7-4.9 1.6-7.3 2.7-2.3 1.1-4.5 2.3-6.7 3.8-.8.5-1.6 1.2-2.5 1.9 0 .3-.1.5-.1.8.9-.7 2-1.4 3.1-1.9z" fill="url(#Z)"/><linearGradient id="aa" gradientUnits="userSpaceOnUse" x1="-173.326" y1="193.213" x2="-153.204" y2="193.213"><stop offset=".006" stop-color="#27356e"/><stop offset=".227" stop-color="#252e66"/><stop offset=".541" stop-color="#222053"/><stop offset=".765" stop-color="#1e0f41"/><stop offset=".994" stop-color="#21102e"/></linearGradient><path d="M-168.5 194.1c2.5-.8 4.9-1.5 7.5-2.2 2.6-.5 5.2-1 7.8-1.4-2.6-.1-5.3 0-7.9.4-2.6.4-5.2 1.1-7.8 1.9-1.2.4-2.5 1-3.7 1.5-.3.5-.4 1.1-.7 1.5 1.6-.4 3.1-1.1 4.8-1.7z" fill="url(#aa)"/><linearGradient id="ab" gradientUnits="userSpaceOnUse" x1="-180.42" y1="222.567" x2="-156.549" y2="222.567"><stop offset=".006" stop-color="#27356e"/><stop offset=".227" stop-color="#252e66"/><stop offset=".541" stop-color="#222053"/><stop offset=".765" stop-color="#1e0f41"/><stop offset=".994" stop-color="#21102e"/></linearGradient><path d="M-178.8 227c2.2-1.5 4.5-2.9 7-4.2 2.5-1.2 4.9-2.3 7.4-3.3 2.6-1 5.2-1.8 7.8-2.5-2.7.3-5.5.8-8.1 1.6-2.6.8-5.2 1.9-7.7 3.2s-4.8 2.7-7 4.5l-1 .8v1l1.6-1.1z" fill="url(#ab)"/><linearGradient id="ac" gradientUnits="userSpaceOnUse" x1="-157.017" y1="224.76" x2="-92.741" y2="224.76"><stop offset=".006" stop-color="#27356e"/><stop offset=".227" stop-color="#252e66"/><stop offset=".541" stop-color="#222053"/><stop offset=".765" stop-color="#1e0f41"/><stop offset=".994" stop-color="#21102e"/></linearGradient><path d="M-106.2 216.7c-8.8 2.1-17.4 4.7-26 7.5-4.2 1.4-8.6 2.7-12.7 4.5-4.2 1.6-8.4 3.7-12.1 6.2 3.8-2.3 7.9-4.1 12.2-5.6 4.2-1.5 8.5-2.9 12.9-4.1 8.6-2.6 17.3-5.3 26-7.3 3.3-.7 6.4-1.4 9.7-1.9 1.1-.5 2.3-1.1 3.4-1.5-4.5.5-8.8 1.3-13.4 2.2z" fill="url(#ac)"/><linearGradient id="ad" gradientUnits="userSpaceOnUse" x1="-156.332" y1="209.575" x2="-65.51" y2="209.575"><stop offset=".006" stop-color="#27356e"/><stop offset=".227" stop-color="#252e66"/><stop offset=".541" stop-color="#222053"/><stop offset=".765" stop-color="#1e0f41"/><stop offset=".994" stop-color="#21102e"/></linearGradient><path d="M-73.3 195.5c-4.2.3-8.4 1-12.5 1.8-8.2 1.8-16.2 4.4-24.3 7-7.9 2.6-15.9 5.2-23.7 8.4-3.8 1.5-7.8 3.3-11.5 5.1-3.7 1.9-7.5 3.8-11.1 6 7.4-4 15.1-7.3 22.9-10.1s15.8-5.6 23.7-8.1c7.9-2.6 15.9-5.2 24-7.1 4.1-1 8.2-1.6 12.3-2.1 2.6-.3 5.2-.3 7.7-.3v-.3c-2.3-.4-4.9-.4-7.5-.3z" fill="url(#ad)"/><linearGradient id="ae" gradientUnits="userSpaceOnUse" x1="-154.413" y1="199.903" x2="-68.621" y2="199.903"><stop offset=".006" stop-color="#27356e"/><stop offset=".227" stop-color="#252e66"/><stop offset=".541" stop-color="#222053"/><stop offset=".765" stop-color="#1e0f41"/><stop offset=".994" stop-color="#21102e"/></linearGradient><path d="M-91.1 189.3c-7.4.7-14.9 2.1-22.1 4.1-7.3 2.1-14.3 4.8-21.1 7.8-6.9 3-13.6 6.4-20.1 9.9l10.3-4.5c3.4-1.5 6.9-3 10.3-4.5 6.9-2.9 13.8-5.6 21-7.5 7.1-2.2 14.5-3.4 21.9-4.2 7.4-.8 14.9-1.2 22.3-1.5-3.7-.1-7.5-.1-11.2 0-3.8 0-7.5.2-11.3.4z" fill="url(#ae)"/><linearGradient id="af" gradientUnits="userSpaceOnUse" x1="-187.72" y1="245.249" x2="-159.452" y2="245.249"><stop offset=".006" stop-color="#27356e"/><stop offset=".227" stop-color="#252e66"/><stop offset=".541" stop-color="#222053"/><stop offset=".765" stop-color="#1e0f41"/><stop offset=".994" stop-color="#21102e"/></linearGradient><path d="M-186.5 248.7c2.9-1.2 5.8-2.3 8.8-3l4.5-1.1c1.5-.4 3-.7 4.5-1.1 3-.8 6-1.5 9-2.5-3.2.4-6.2 1-9.3 1.6-1.5.3-3 .5-4.7 1-1.5.3-3 .7-4.7 1.1-3 .7-6 1.8-8.9 3.3 0 0-.1 0-.1.1-.3.4-.5 1-.7 1.4.8-.4 1.2-.7 1.6-.8z" fill="url(#af)"/><linearGradient id="ag" gradientUnits="userSpaceOnUse" x1="-208.819" y1="298.287" x2="-168.115" y2="298.287"><stop offset=".006" stop-color="#27356e"/><stop offset=".227" stop-color="#252e66"/><stop offset=".541" stop-color="#222053"/><stop offset=".765" stop-color="#1e0f41"/><stop offset=".994" stop-color="#21102e"/></linearGradient><path d="M-204 302.8c3.7-1.9 7.5-3.7 11.5-5.2s7.9-2.7 11.9-3.8c4.1-1.1 8.2-1.9 12.3-2.6-2.1.1-4.2.3-6.3.5-2.1.3-4.2.7-6.3 1.1-4.1.8-8.2 2.2-12.2 3.7s-7.8 3.3-11.5 5.5c-1.4.8-2.7 1.6-4.1 2.5-.1.3-.1.5-.3 1 1.8-.9 3.3-1.9 5-2.7z" fill="url(#ag)"/><linearGradient id="ah" gradientUnits="userSpaceOnUse" x1="-225.953" y1="359" x2="-183.3" y2="359"><stop offset=".006" stop-color="#27356e"/><stop offset=".227" stop-color="#252e66"/><stop offset=".541" stop-color="#222053"/><stop offset=".765" stop-color="#1e0f41"/><stop offset=".994" stop-color="#21102e"/></linearGradient><path d="M-224 366.3l3-1.6c4-2.1 7.9-4.1 12.2-5.8 4.1-1.8 8.4-3.3 12.6-4.7 4.2-1.4 8.6-2.6 13-3.7-4.5.5-8.9 1.5-13.3 2.7s-8.6 2.7-12.9 4.5c-4.1 1.8-8.2 3.8-12.2 6.2l-2.9 1.8-1.5 1v.8l2-1.2z" fill="url(#ah)"/><linearGradient id="ai" gradientUnits="userSpaceOnUse" x1="-226.951" y1="345.125" x2="-179.466" y2="345.125"><stop offset=".006" stop-color="#27356e"/><stop offset=".227" stop-color="#252e66"/><stop offset=".541" stop-color="#222053"/><stop offset=".765" stop-color="#1e0f41"/><stop offset=".994" stop-color="#21102e"/></linearGradient><path d="M-223.5 350.5c4.8-1.8 9.7-3.4 14.4-5.3 4.7-2.1 9.5-4 14.4-5.1 2.5-.5 5.1-.8 7.5-1.1 2.6-.3 5.1-.4 7.7-.5-5.1-.1-10.3-.1-15.3.8-5.1 1-9.9 2.9-14.7 4.8-2.3 1-4.7 1.9-7.1 2.9-2.3 1-4.8 1.8-7.1 2.7-1.1.4-2.1 1-3 1.4v.8c.9-.4 2.1-.8 3.2-1.4z" fill="url(#ai)"/><linearGradient id="aj" gradientUnits="userSpaceOnUse" x1="-221.704" y1="328.382" x2="-175.306" y2="328.382"><stop offset=".006" stop-color="#27356e"/><stop offset=".227" stop-color="#252e66"/><stop offset=".541" stop-color="#222053"/><stop offset=".765" stop-color="#1e0f41"/><stop offset=".994" stop-color="#21102e"/></linearGradient><path d="M-219.2 332.7c4.4-2.5 8.9-4.9 13.7-6.3 4.8-1.4 9.9-1.6 14.9-2.1 2.6-.1 5.1-.4 7.7-.7 2.5-.3 5.1-.8 7.5-.4-2.5-.7-5.1-.3-7.7-.1-2.5.1-5.1.3-7.7.3-5.1.1-10.3.4-15.2 1.8-4.9 1.5-9.6 4-13.8 6.6-.4.3-.7.4-1.1.7-.3.5-.5 1-.8 1.5l2.5-1.3z" fill="url(#aj)"/><linearGradient id="ak" gradientUnits="userSpaceOnUse" x1="-191.417" y1="255.048" x2="-161.814" y2="255.048"><stop offset=".006" stop-color="#27356e"/><stop offset=".227" stop-color="#252e66"/><stop offset=".541" stop-color="#222053"/><stop offset=".765" stop-color="#1e0f41"/><stop offset=".994" stop-color="#21102e"/></linearGradient><path d="M-188.9 258.5c2.7-1.5 5.6-2.9 8.6-3.8 3-1 6.2-1.5 9.3-2.2 1.5-.4 3.2-.7 4.7-1.1 1.5-.4 3.2-1 4.5-1.6-3.2.8-6.3 1.4-9.5 1.9s-6.3 1.1-9.5 2.1-6 2.3-8.8 4.2c-.5.4-1.1.8-1.6 1.2-.1.4-.1.7-.3 1.1.9-.8 1.7-1.3 2.6-1.8z" fill="url(#ak)"/><linearGradient id="al" gradientUnits="userSpaceOnUse" x1="-203.757" y1="284.445" x2="-164.951" y2="284.445"><stop offset=".006" stop-color="#27356e"/><stop offset=".227" stop-color="#252e66"/><stop offset=".541" stop-color="#222053"/><stop offset=".765" stop-color="#1e0f41"/><stop offset=".994" stop-color="#21102e"/></linearGradient><path d="M-189.9 285.3c4.1-1.2 8.2-2.5 12.3-3.6 4.1-1.1 8.4-1.9 12.6-2.3-2.2 0-4.2.1-6.4.3-2.2.3-4.2.7-6.4 1.1-4.2.8-8.4 2.1-12.5 3.4-4.1 1.2-8.2 2.6-12.3 4-.3.1-.5.1-.8.3-.1.4-.3.7-.4 1.1.5-.1 1-.3 1.5-.4 4.2-1.5 8.3-2.7 12.4-3.9z" fill="url(#al)"/><g><linearGradient id="am" gradientUnits="userSpaceOnUse" x1="-156.089" y1="509.084" x2="-70.159" y2="509.084"><stop offset=".006" stop-color="#27356e"/><stop offset=".227" stop-color="#252e66"/><stop offset=".541" stop-color="#222053"/><stop offset=".765" stop-color="#1e0f41"/><stop offset=".994" stop-color="#21102e"/></linearGradient><path d="M-87 525.7c-.4.3-.8.4-1.4.7-3.8 2.2-7.1 5.2-11 7.4-4.8 2.7-10.3 4.2-15.8 4 6.6-2.5 12.1-6.3 17.1-11-3.4 1.4-6.9 2.7-10.4 3.3-3.4.5-7 .4-10.6.1-2.7-.1-5.1-.4-7.8-.5 9-2.2 17.7-4.8 26.2-8.2-12.7 1.2-25.5 2.2-38-.3 10.3-.5 20.1-2.5 29.7-6.2-16-.7-31.9-2.9-47.4-7 18.4 2.1 36.9.7 54.8-4-14.1-1-28-1.9-42.1-3.4 17.3.8 34.1-1 50.7-5.6-13.7.1-27.1-1.2-40.6-3.7 21.4.4 42.5-4.8 63-10.8-3.5 16-8.4 31.4-16.4 45.2z" fill="url(#am)"/><linearGradient id="an" gradientUnits="userSpaceOnUse" x1="-98.613" y1="399.772" x2="-54.382" y2="399.772"><stop offset=".006" stop-color="#27356e"/><stop offset=".227" stop-color="#252e66"/><stop offset=".541" stop-color="#222053"/><stop offset=".765" stop-color="#1e0f41"/><stop offset=".994" stop-color="#21102e"/></linearGradient><path d="M-69.3 414.4c2.3-1 4.8-1.9 7.3-2.6-2.9-.8-5.8-1.4-8.8-1.5 2.2-1 4.5-1.8 7-2.2-4.1-.8-8.2 0-12.5.8 2.5-1.8 5.2-3.2 8.2-3.7-1.5.3-2.9.4-4.4.4-1.2.1-2.5.1-3.7.1h-4.5c3.7-1.8 7.5-3.3 11.6-4.4-6.4-1.4-12.9.5-19.3 1.5 5.5-2.6 11.2-4.5 17.3-5.6-4.5-1.8-9.6-1.8-14.5-1.8-4.2 0-8.5-.1-12.7-.1 7-3.2 14.5-5.2 22.2-5.9-7.3-1.6-14.5-2.5-21.9-2.2 4-.8 7.9-1.6 11.9-2.3 2.6-.5 5.3-1.1 7.9-1.1 1.8 0 3.6 0 5.3.1 2.3.1 4.7.3 7 .5 0 0 0-.1.1-.1 4-.4 8.4 1.5 11.8 3.6-.7 9.3-2.3 18.6-4.8 27.8-3.5-1.1-7.1-1.2-10.5-1.3z" fill="url(#an)"/><linearGradient id="ao" gradientUnits="userSpaceOnUse" x1="-113.472" y1="244.143" x2="-48.133" y2="244.143"><stop offset=".006" stop-color="#27356e"/><stop offset=".227" stop-color="#252e66"/><stop offset=".541" stop-color="#222053"/><stop offset=".765" stop-color="#1e0f41"/><stop offset=".994" stop-color="#21102e"/></linearGradient><path d="M-48.2 257.2h-.5c-.8 0-1.6 0-2.5.3-.8.3-1.5.8-2.2 1.2-1.8 1.1-3.6 1.8-5.6 2.1 1.6-1.5 3.4-2.7 5.2-4-1.1-.1-2.3 0-3.4.1-4 .7-7.7 1.6-11.4 2.9 3.6-2.2 7.5-4.2 11.5-5.6-5.1.4-10.1 1.2-15.1 2.6 4-2.5 8.1-4.4 12.5-5.8-3.4-1.1-7.1-.3-10.7.7-4 1.1-7.7 2.1-11.5 3.3 4.2-2.5 8.5-4.5 13.3-5.9-5.5-.5-11-.3-16.2 1.1 1-.3 1.9-.8 2.9-1.4 3-1.5 6.2-2.6 9.6-2.9-7.9-1-15.9-.1-23.4 2.5 6.9-3.3 14-6.7 21.4-6.6-4.8-.3-9.3-.4-14.1-.3 4.7-2.1 9.5-3.2 14.5-3.3-9.2-.8-18 1.1-27 3.2 4.8-2.6 10-4.4 15.3-5.6-9.3-.3-18.5.8-27.5 3.3 7.5-2.9 15.2-5.2 22.9-7.7 2.7-.8 5.5-1.6 8.2-2.1 4.9-.7 10-.1 14.8-1.1.5-.1 1-.3 1.5-.4 2.9-.4 6.2-.4 8.9.1 3.6 6.4 6.7 13.2 8.2 20.4.3 3 .5 6 .4 8.9z" fill="url(#ao)"/><linearGradient id="ap" gradientUnits="userSpaceOnUse" x1="-132.315" y1="131.636" x2="-88.18" y2="131.636"><stop offset=".006" stop-color="#27356e"/><stop offset=".227" stop-color="#252e66"/><stop offset=".541" stop-color="#222053"/><stop offset=".765" stop-color="#1e0f41"/><stop offset=".994" stop-color="#21102e"/></linearGradient><path d="M-88.2 142.1c-2.2 1-4.4 1.9-6.6 2.7-.8.3-1.5.5-2.2 1.1 2.2-1.5 4.1-3 6.3-4.7-3.2.8-6 2.1-8.8 3.8 2.1-2.7 4.1-5.3 6.2-8.1-2.9 1.4-5.3 3.2-7.7 5.3 1.8-2.3 3.4-4.7 5.3-7-3 1.5-5.8 3.3-8.5 5.5 3.2-2.9 6-6 8.8-9.2-2.9 1.9-5.5 4.4-8.9 5.1 2.2-2.2 4.1-4.1 6.3-6.2-2.9 1.5-5.9 2.7-8.9 3.8 2.9-2.3 5.8-4.5 8.8-6.6-4.5 1.6-8.8 3.3-13.2 5.2 3.2-2.5 6.3-4.7 9.9-6.4-5.2 1.6-10 3.6-14.9 5.9 2.5-2.7 4.9-5.6 8.4-7.4-6 2.6-11.8 5.6-17.4 9 3.2-3.3 6.2-6.9 10.3-8.8-6.4 1.9-12.3 5.1-17.4 9.5 6-6.7 12.9-12.5 20.6-17.3.1 0 .1-.1.3-.1.4 0 .8.1 1.2.1h.9c4.4 0 8.6 2.3 11.5 5.6 3.6 3.8 5.6 8.9 7.5 13.7.9 1.9 1.6 3.7 2.2 5.5z" fill="url(#ap)"/><linearGradient id="aq" gradientUnits="userSpaceOnUse" x1="-180.422" y1="206.259" x2="-163.121" y2="206.259"><stop offset=".006" stop-color="#27356e"/><stop offset=".227" stop-color="#252e66"/><stop offset=".541" stop-color="#222053"/><stop offset=".765" stop-color="#1e0f41"/><stop offset=".994" stop-color="#21102e"/></linearGradient><path d="M-174.3 222.1c-1.9 1.4-3.4 2.9-4.9 4.7-.4.4-.8 1-1.1 1.5.1-14.5 4.4-29.1 11.9-41.5 1.8-1 3.6-1.8 5.3-2.5-2.7 2.7-5.1 5.6-7.1 8.8 2.3-1.6 4.7-3 7.1-4.2-2.3 1.9-4.2 4.2-6 6.7 1.4-1 3-1.2 4.4-2.1-2.7 2.2-5.1 4.8-7.1 7.7 2.5-1.4 4.7-2.7 7-4.2-2.7 2.7-5.2 5.3-7.9 8.1 2.6-.8 4.9-2.2 7-4.2-2.5 2.6-4.7 5.2-7 8.1 2.5-1.1 4.7-2.3 7-3.8-4.1 3.3-7.7 7.1-10.7 11.2 2.1-2.1 4.2-3.8 6.6-5.5-2.3 3.4-4.5 6.6-7.1 9.7 2.5-1.2 4.7-2.6 6.7-4.4-2.2 2.5-4.5 5.2-6.7 7.5.7-.5 1.7-.9 2.6-1.6z" fill="url(#aq)"/><linearGradient id="ar" gradientUnits="userSpaceOnUse" x1="-191.17" y1="248.258" x2="-168.899" y2="248.258"><stop offset=".006" stop-color="#27356e"/><stop offset=".227" stop-color="#252e66"/><stop offset=".541" stop-color="#222053"/><stop offset=".765" stop-color="#1e0f41"/><stop offset=".994" stop-color="#21102e"/></linearGradient><path d="M-172.5 249.6c-5.6 1.1-11 3.3-15.8 6.4-1 .7-2.1 1.8-3 2.7 1.4-6.3 4.2-12.2 8.4-17.1.5-.7 1-1.2 1.5-1.8 3.6-1.4 7-2.3 10.8-2.2-3.8 1.2-7.5 2.9-11 5.1 2.3-1 4.8-1.6 7.4-2.1 1.2-.3 2.3-.3 3.4 0-4.5 1.9-8.8 4.2-13.2 6.7 4.5-2.5 9.6-3.4 14.8-2.9-6.2 1.9-12.1 4.4-17.7 7.5 2.2-.7 4.2-1.4 6.4-1.9 2.8-.6 5.7-1.2 8-.4z" fill="url(#ar)"/><linearGradient id="as" gradientUnits="userSpaceOnUse" x1="-242.748" y1="390.178" x2="-210.816" y2="390.178"><stop offset=".006" stop-color="#27356e"/><stop offset=".227" stop-color="#252e66"/><stop offset=".541" stop-color="#222053"/><stop offset=".765" stop-color="#1e0f41"/><stop offset=".994" stop-color="#21102e"/></linearGradient><path d="M-228.7 408.2c-4.8 1.1-9.5 2.5-14.1 4 4-10 7.3-20.4 12.6-29.7 2.5-4.4 4-9.2 4.1-14.3.5 1.5 1.5 2.9 2.9 3.6 1.1.7 2.3.8 3.6 1.1 2.9.5 5.9 1.1 8.8.7-4.4 1-8.5 1.9-12.7 2.7 3.4.8 7-.7 10.4-.1-1.5.8-2.7 1.4-4.4 1.9-2.9.8-5.8 1.8-8.6 2.6 3.7.4 7.3-1.1 11-1.4-4.8 2.1-9.5 4.1-14.3 6.2 5.9-1.9 11.9-3.2 18.1-3.7-7.7 1.4-15.1 4.2-21.9 7.9 3.6-1.1 6.9-2.1 10.4-3-2.9 1.2-5.3 3-7.9 4.8 4.5-.5 8.6-2.9 13.2-3.8-5.2 2.6-9.9 5.6-14.7 8.9.8-.4 1.6-.4 2.6-.7 2.7-.5 5.5-.8 8.4-1.2 0 .4-.3.7-.5.8-4.4 1.5-8.8 3.4-12.9 5.6 3.8-1.1 7.8-1.5 11.8-1.4-3.3.8-6.6 1.9-9.7 3.3-.8.4-1.8.8-2.6 1.2 4.7-1.9 9.7-2.6 14.8-1.8-6.4 1-12.1 4.5-18.4 6.2 3.2-.5 6.6-.7 10-.4z" fill="url(#as)"/></g><g><linearGradient id="at" gradientUnits="userSpaceOnUse" x1="-109.206" y1="278.895" x2="-48.266" y2="278.895"><stop offset=".006" stop-color="#27356e"/><stop offset=".227" stop-color="#252e66"/><stop offset=".541" stop-color="#222053"/><stop offset=".765" stop-color="#1e0f41"/><stop offset=".994" stop-color="#21102e"/></linearGradient><path d="M-82.9 286.2c-3.6-.4-7-1.2-10.3-2.6 8.1-.5 15.9-1.8 23.7-4.1-3.8.1-7.5-.5-11.1-1.5 5.5-.1 10.8-1.2 16.2-2.9-1.8 0-3.3 0-5.1.1 5.1-2.1 10.1-4.5 14.5-7.9 2.7-2.3 5.2-5.1 6.9-8.4-.4 3.8-1.4 7.7-3.3 11-3.3 5.8-8.8 10-14.8 12.7-6 2.7-11.8 4.4-18.2 5.9 11.5-1.6 22.8-3.2 34.4-4.9.1 1.1.1 2.2.1 3.3-2.5 3.4-5.3 6.3-8.5 9.2 1.6-2.2 2.7-4.5 4-7-4 3.7-8.5 7-13.4 9.6 2.9-2.5 5.6-5.1 7.7-8.4-4.1 3.3-7.9 6-12.6 8.5 2.7-2.6 4.8-5.5 6.9-8.6-2.3 1.8-4.7 3.7-7.3 5.1s-5.3 2.6-8.4 2.5c4-1.2 6.9-3.2 9.9-5.9-5.9 2.5-12.3 3.6-18.8 3 3.4-.1 6.7-.8 10-1.9-9.6-.7-19-2.1-28.5-4.1 8.6-.2 17.3-1.2 26-2.7z" fill="url(#at)"/><linearGradient id="au" gradientUnits="userSpaceOnUse" x1="-274.374" y1="510.883" x2="-243.728" y2="510.883"><stop offset=".006" stop-color="#27356e"/><stop offset=".227" stop-color="#252e66"/><stop offset=".541" stop-color="#222053"/><stop offset=".765" stop-color="#1e0f41"/><stop offset=".994" stop-color="#21102e"/></linearGradient><path d="M-250.2 527.4c-4.9-1.5-9.6-3.6-14.1-6 5.3 1.1 10.4 1.4 15.8.8-5.5-.8-10.3-2.6-15.5-4.7 4.1-.7 7.9-.8 12.1-.8-5.1-1.5-9.5-2.7-14.7-3.4 5.5-2.7 11.1-4.2 17.3-4.2-3.2-1.5-6.6-2.3-10-2.1 5.1-1.5 10.6-1.8 15.8-.8-6.2-1.2-11.1-2.9-17.3-4.1 4.5-.8 8.8-1.5 13.4-2.3-5.8-1.2-10.8-1.6-16.7-1 3.2-1.2 6-3 9-4.2-5.6-.5-11.2 0-16.7 1.5-1.5 4.5-2.6 9-2.3 13.8.3 4 1.5 7.8 2.3 11.8 6.7 3 13.9 5 21.6 5.7z" fill="url(#au)"/><linearGradient id="av" gradientUnits="userSpaceOnUse" x1="-247.212" y1="559.473" x2="-119.894" y2="559.473"><stop offset=".006" stop-color="#27356e"/><stop offset=".227" stop-color="#252e66"/><stop offset=".541" stop-color="#222053"/><stop offset=".765" stop-color="#1e0f41"/><stop offset=".994" stop-color="#21102e"/></linearGradient><path d="M-127.1 547.9c-10.4 5.6-20.3 11-30.7 16.6 7-7 13.7-13.8 20.6-20.8-12.6 10-26.9 17.4-41.9 22.5 10.8-6.9 20.7-14.7 30-23.4-12.9 6.9-25.4 13.4-38.1 20.3 6.4-4.5 12.5-9.2 18.1-14.7-8.2 4.9-16.4 9.3-25.4 13 8.1-9.5 16.4-18.2 25.6-26.6-11.6 8.6-24 15.8-37.3 21.5 3.2-3.8 5.8-7.7 8.8-11.6-6.6 4.5-13.3 8.5-20.6 11.8 3.3-4.2 6.4-8.2 9.7-12.6-5.1 3.6-9.9 6.9-14.8 10.4 2.9-3.7 5.3-7.4 8.2-11.1-6.6 5.9-14.8 9.6-23.6 11.5-1.5 10.1-4.7 20-9 29.3l3.8-3.2c24.9 4.9 50.7 4.7 75.5-.8 7.4-1.6 14.9-3.7 22.1-6.4 9.3-5.3 18.1-11.8 25.9-19-10.6 5.8-21 11.1-32.3 15.2 9.5-6.3 17.8-13.7 25.4-21.9z" fill="url(#av)"/><linearGradient id="aw" gradientUnits="userSpaceOnUse" x1="-191.988" y1="464.88" x2="-65.492" y2="464.88"><stop offset=".006" stop-color="#27356e"/><stop offset=".227" stop-color="#252e66"/><stop offset=".541" stop-color="#222053"/><stop offset=".765" stop-color="#1e0f41"/><stop offset=".994" stop-color="#21102e"/></linearGradient><path d="M-142.9 466.2c-5.1 2.2-10.1 4.2-15.6 5.8 8.2 1.8 16.3 3.2 24.8 3.7s17-.3 24.9-3.4c-7.8 0-15.5.1-23.3.1 8.2-1.2 16.3-2.7 24.4-4.7-6.9-.3-13.4-1-20.1-1.8 8.1-.8 15.9-1.8 24-2.6-4.9-.4-10.1-1.1-15.1-2.1 12.7 1.4 25.2 1.9 38.1 1.9-6-.1-11.6-1.1-17.5-2.5 8.2 1 16.3 1.1 24.4.3-4.8-.5-9.3-1-14-1.5 7.8.1 15.5-1.1 22.9-3.8-37.7 2.2-74.8 1.9-112.2-.8-4.8-.1-9.6-.4-14.3-.8 9.7 3.7 20 5.9 30.3 6.7-6.7.1-13.3.3-20 .5 9.9 1.6 19.7 2.2 29.9 1.5-6.2 1.2-12.1 2.5-18.2 3.7 8.5.6 17.6.7 26.6-.2z" fill="url(#aw)"/><linearGradient id="ax" gradientUnits="userSpaceOnUse" x1="-266.178" y1="449.315" x2="-209.411" y2="449.315"><stop offset=".006" stop-color="#27356e"/><stop offset=".227" stop-color="#252e66"/><stop offset=".541" stop-color="#222053"/><stop offset=".765" stop-color="#1e0f41"/><stop offset=".994" stop-color="#21102e"/></linearGradient><path d="M-239.1 457c-3.4-.7-6.7-1.5-10.1-2.2 6.2-2.9 13-3.8 19.9-3-4.2-.5-8.5-1.4-12.7-1.9 6.7-1.8 13.2-3.6 19.9-5.5-4.5.4-9-.1-13.6-.5 5.9-1.8 11.4-4 17-6.7-2.6.5-5.1.7-7.5 1.2 6.2-3.6 11.9-7.8 17-12.6-1.4.3-2.9.5-4.2.8-10.4 3.7-20.6 7.9-30.3 13.3-5.3 2.9-10.7 6.2-14.5 10.8-3.3 4.1-5.3 9.2-6.4 14.4-.5 2.6-1 5.2-1.1 7.8 3.4-3.6 7.4-6.4 11.9-8.5-2.7-.4-5.3-.1-7.9.8 5.5-6.3 14.2-9.6 22.6-8.2z" fill="url(#ax)"/><linearGradient id="ay" gradientUnits="userSpaceOnUse" x1="-172.641" y1="369.563" x2="-49.571" y2="369.563"><stop offset=".006" stop-color="#27356e"/><stop offset=".227" stop-color="#252e66"/><stop offset=".541" stop-color="#222053"/><stop offset=".765" stop-color="#1e0f41"/><stop offset=".994" stop-color="#21102e"/></linearGradient><path d="M-49.6 356.9c-40.4 4.4-80.7 9.9-121.2 14.4-.7.3-1.2.4-1.9.7 7.4 1.6 14.9 2.3 22.5 2.1-4.2 1.4-8.6 2.1-13 1.9 9.3 1.5 18.8 2.3 28.2 1.8-4.4.5-8.4 1.2-12.6 2.5 12.5 2.5 25.2 2.6 37.7.3-4.8-.7-9.5-1.6-14.1-2.7 10.1-.4 20-1.1 30-2.6-6.3-.8-12.6-1.6-18.9-2.5 11.1 1.4 22.1 1.6 33.2 1.2-5.8-1-11.1-1.9-16.9-2.9 10.1.4 20.1.5 30.3 1-6.3-1.4-12.5-2.9-18.6-4.2 7.7.4 15.3.4 23 .8-4.5-.8-8.8-1.6-13.2-2.5 5.6.7 10.8 1 16.4 1-3-1-6-1.9-9-2.9 5.2-.3 10.4-.4 15.5-.7 1.1-2.3 1.9-4.5 2.6-6.7z" fill="url(#ay)"/><linearGradient id="az" gradientUnits="userSpaceOnUse" x1="-138.79" y1="177.341" x2="-79.722" y2="177.341"><stop offset=".006" stop-color="#27356e"/><stop offset=".227" stop-color="#252e66"/><stop offset=".541" stop-color="#222053"/><stop offset=".765" stop-color="#1e0f41"/><stop offset=".994" stop-color="#21102e"/></linearGradient><path d="M-96.2 183.2c-1.6 1.1-3.2 2.1-4.9 2.9 3.4-.8 6.7-2.1 9.7-3.7-.8 1.1-1.9 2.1-3 2.9 3-1.8 6-3.3 9.2-4.9-1.5.4-2.9.8-4.4 1.2 2.3-.7 4.4-2.1 6.2-3.7-1.8.3-3.6.7-5.3 1.2 3.6-.8 6.9-3 9-5.9-1.2-2.5-2.6-4.9-3.8-7.3-16.2 11.2-35.1 18.6-54.8 20.8l-.4.1c7.3 1 14.7.7 21.8-1.1-2.5 1.2-4.7 2.3-7.4 3 6.9-.8 13.4-2.5 19.9-4.9-2.5 1.4-4.8 2.7-7.1 4.1 5.2-.8 10.5-2.3 15.3-4.7z" fill="url(#az)"/><linearGradient id="aA" gradientUnits="userSpaceOnUse" x1="-99.352" y1="194.472" x2="-65.199" y2="194.472"><stop offset=".006" stop-color="#27356e"/><stop offset=".227" stop-color="#252e66"/><stop offset=".541" stop-color="#222053"/><stop offset=".765" stop-color="#1e0f41"/><stop offset=".994" stop-color="#21102e"/></linearGradient><path d="M-90.4 205.2c5.5-1.4 11-2.7 16-5.2-2.5 1.6-4.7 3.4-7.1 5.1 4-1.2 7.7-3.3 10.6-6.2-1.4 1.6-2.6 3.3-4 4.9 3.3-2.1 6.3-4.4 9-7.1 1.1-4.1.4-8.8-.3-13-2.3 1.5-4.8 2.6-7.1 4 0 .1-.1.3-.1.4-7.4 5.3-15.5 9.9-24 13.3 3.7-.5 7.4-1.2 11.1-2.2-4.4 1.9-8.6 3.8-13.2 5.6 6.6-.5 12.9-2.3 18.6-5.8-3.1 2.3-6.2 4.3-9.5 6.2z" fill="url(#aA)"/><linearGradient id="aB" gradientUnits="userSpaceOnUse" x1="-226.97" y1="330.905" x2="-178.615" y2="330.905"><stop offset=".006" stop-color="#27356e"/><stop offset=".227" stop-color="#252e66"/><stop offset=".541" stop-color="#222053"/><stop offset=".765" stop-color="#1e0f41"/><stop offset=".994" stop-color="#21102e"/></linearGradient><path d="M-210.1 332.4c5.6-3.2 11.1-6.2 16.9-9.3-2.5.1-4.8.4-7.3.5 3.7-4 8.4-7.1 13.6-8.6-2.3.1-4.5.5-6.7 1.5 4.5-4 9.6-7.3 15.1-9.6h-.4c-11.9 2.6-23.7 6.9-32.8 14.9-9.2 8.2-15.6 20.1-15.1 32.5v.5c1.2-1.2 2.6-2.3 4.1-3.2-1.1.3-2.2.4-3.4.7 2.6-2.9 5.8-5.3 9.3-6.9-1.5-.1-2.9-.3-4.4-.4 4.2-2.5 8.9-4.1 13.8-4.8-3.2-.4-6.2-.5-9.3-.4 5.8-3.4 11.9-5.9 18.5-7.7-4-.4-7.9-.4-11.9.3z" fill="url(#aB)"/><linearGradient id="aC" gradientUnits="userSpaceOnUse" x1="-234.556" y1="513.626" x2="-192.759" y2="513.626"><stop offset=".006" stop-color="#27356e"/><stop offset=".227" stop-color="#252e66"/><stop offset=".541" stop-color="#222053"/><stop offset=".765" stop-color="#1e0f41"/><stop offset=".994" stop-color="#21102e"/></linearGradient><path d="M-233.6 551.6c8.5-3.8 16.4-9 23.2-15.5-5.8 1.1-11.2 3-16.4 5.6 9.2-4.1 17.5-9.7 24.8-16.6-6.7 2.7-13 6-19.2 9.7 6-4.9 11.5-10.3 17-15.6-4.8 2.5-9.3 4.7-14.1 7.1 1.4-1.5 3-2.6 4.7-3.8 5.8-4.2 10.7-9.3 15.6-14.4-4.8 2.9-9.3 5.9-14.1 8.9-2.3 1.4-4.7 2.9-6.7 4.5 9.7-7.9 18.4-17.1 26.3-27-7 5.8-13.7 11.5-20.7 17.4 6.7-8.6 13.3-17.1 20-25.8-6 5.9-11.8 11.6-18 17.4 5.5-9.5 11.1-18.6 17.3-27.7-.5-.4-1.2-.1-1.6.3-4.2 4.2-8.5 8.5-12.7 12.6 2.2-3.4 3.8-7 5.8-10.7-3.6 2.6-5.9 6.3-8.9 9.6s-6.9 6-9.5 9.7c-9.2 13-9.7 31-13 46.7-.6 2.3-1.3 5.5.2 7.6z" fill="url(#aC)"/><linearGradient id="aD" gradientUnits="userSpaceOnUse" x1="-198.406" y1="406.282" x2="-146.461" y2="406.282"><stop offset=".006" stop-color="#27356e"/><stop offset=".227" stop-color="#252e66"/><stop offset=".541" stop-color="#222053"/><stop offset=".765" stop-color="#1e0f41"/><stop offset=".994" stop-color="#21102e"/></linearGradient><path d="M-194.2 391.6c-3 8.2-3.4 17.3-3.8 26-.3 4.8-.3 9.7-.4 14.5 7-2.9 14.9-.4 22.5-1.5-4.8-.4-9.2-1.4-13.8-2.6 2.7-1.4 5.9-1.2 8.9-1.1 4.2.1 8.4 0 12.6-.4-6-.3-11.8-1.1-17.7-2.2 5.6-2.2 11.2-3.7 17.3-4.5-5.5-.1-11-.3-16.4-.4-.5 0-1.1-.3-1.6-.4 12.7-4.7 26-6.7 39.5-8.4-11.2-.7-22.2-1-33.6-.5 10.7-1.6 21.1-3.8 31.7-5.9-9.9.3-19.5.5-29.3 1.1 10.7-2.6 21.1-5.1 31.8-7.3-9-1.5-18.4-1.6-27.4-.3 7.3-2.1 14.1-4.2 21.4-6.3-7.5-.7-14.8-.4-22.2.4 3.2-1.1 6.3-1.6 9.6-1.8 2.9-.1 5.6 0 8.4-1-7.5-1.2-15.1-2.2-22.8-2.5 5.9-2.1 11.5-4.2 17.4-6.3-7.8 0-15.6.5-23.3 1.4-4 .6-7.4 6.3-8.8 10z" fill="url(#aD)"/><linearGradient id="aE" gradientUnits="userSpaceOnUse" x1="-179.508" y1="292.531" x2="-134.282" y2="292.531"><stop offset=".006" stop-color="#27356e"/><stop offset=".227" stop-color="#252e66"/><stop offset=".541" stop-color="#222053"/><stop offset=".765" stop-color="#1e0f41"/><stop offset=".994" stop-color="#21102e"/></linearGradient><path d="M-167.6 343.8c-1.6.3-3.2.3-4.7.8 4.2-2.5 8.5-4.9 12.7-7.3 1.1-.7 1.8-1.2 2.9-2.1-4.2.8-8.5 1.6-12.7 2.6 6.3-4.7 12.9-8.6 19.9-12.1-6.9 1.9-13.4 4.2-20.1 6.6 6.3-6.3 13.2-11.8 21-16.2-5.9 2.5-11.5 4.7-17.7 6.2 3.8-3.4 7.4-6.7 11.2-10.1-2.7 1.9-6.7 1.5-9.6 3.2 4.8-3.3 11-4.7 14.9-8.9-3.7 1.9-7.7 3.3-11.8 4.4-.3.1-.7.1-1 .3 2.9-1.6 5.6-3.7 8.2-5.9-4.7.5-9 1.5-13.3 3.4 4.9-3 9.2-6.3 13.8-9.7-2.6.7-4.9 1.2-7.3 2.5 9-6.4 17.8-12.9 26.9-19.3-9 3.4-17.7 7-26.5 10.8 1.5-1.6 3.2-3.3 5.1-4.7 2.3-1.8 4.9-3.3 6.6-5.8-4.2 1.2-8.4 2.6-12.6 4 4.1-3.4 7.9-6.9 11.9-10.4-3 1.1-5.6 2.2-8.5 3.6 4.4-5.3 9-10.4 14.5-14.7-5.3 1.6-10.4 3.4-15.6 5.8 3.2-2.7 6.3-4.9 9.7-7.3-3 1-5.9 1.8-8.8 2.7 2.6-2.9 5.8-5.1 8.9-7.3 2.7-1.9 5.3-3.8 7.9-5.6-4.1 2.2-8.4 3.8-12.9 4.9 3.4-3.2 6.4-6.2 9.9-9.2-3.8 1.4-7.4 2.6-11.2 3.7 3.7-3.7 7.5-7 11.9-9.7-3.6 1.1-7.1 1.9-10.7 3.2 5.1-4.5 10.1-9 15.8-12.9-6.6 2.3-13 4.9-19.5 7.7l-21.2 110.7c1.8-1.4 3.8-2.3 5.9-3.2 3.7-1.5 7-3.3 10.7-4.8-1.4-.5-3.1-.2-4.6.1z" fill="url(#aE)"/></g><linearGradient id="aF" gradientUnits="userSpaceOnUse" x1="-280.361" y1="388.465" x2="-150.217" y2="388.465"><stop offset=".006" stop-color="#121636"/><stop offset=".096" stop-color="#151332"/><stop offset=".186" stop-color="#171327"/><stop offset=".994" stop-color="#111219"/></linearGradient><path d="M-150.3 127.8s7.9 159.8-130.1 510.8l13.7 10.6c0 .1 118.5-280.5 116.4-521.4z" fill="url(#aF)"/></g><g><defs><path id="aG" d="M-151.8-241h605.6v991h-605.6z"/></defs><clipPath id="aH"><use xlink:href="#aG" overflow="visible"/></clipPath><g clip-path="url(#aH)"><linearGradient id="aI" gradientUnits="userSpaceOnUse" x1="-46.674" y1="737.758" x2="378.707" y2="737.758"><stop offset=".006" stop-color="#121636"/><stop offset=".096" stop-color="#151332"/><stop offset=".186" stop-color="#171327"/><stop offset=".994" stop-color="#111219"/></linearGradient><path d="M129.6 879.4c-5.9.4-11.4-1.9-16.6-4.7-.3-.1-.4-.3-.7-.4-4.9-2.6-9.9-5.6-15.1-7.1-4.2-1.2-8.5-1.6-12.9-1.4-9.3.4-18.8 3.7-27.8 6.4-13.3 4-28.6 6.9-40.3-.5-3.6-2.2-6.3-5.3-8.5-8.8-4.7-7.5-6.2-17.1-4.9-25.9 1.9-13 8.8-24.7 16-35.6 7.9-12.1 16.7-20.8 25.9-31.2 1.4-1.6 2.7-3.3 4.2-4.9-5.1 2.1-10.6 3.3-16.2 3.8-15.5 1.4-32.1-3-45.4-10.7-8.2-4.8-15.3-11.2-21-18.9-6.7-9.2-11.2-20-12.7-31.2-.5-4.1-.7-8.4.7-12.2.4-1.1 1-2.2 1.5-3.2 4-6.6 11.8-10.7 16.2-17.3 2.2-3.3 3.7-7.3 5.3-11v-.1c1.5-3 3.2-5.8 5.8-7.8 5.5-4.4 13.2-4 19.9-5.6 8.8-2.2 15.8-7.9 22.8-14 7-6 13.8-12.2 22.3-15.3 10-3.7 21-2.7 31.4-5.2.7-.1 1.4-.3 2.1-.5 19-5.3 36.3-21.1 55.5-18.4.5.1 1.2.1 1.8.3 6.6 1.4 12.2 4.8 17.8 8.6h.1c9.2 6.6 18 14.4 28.9 15.9.1 0 .3 0 .4.1 22.8 2.7 39.9-22.6 62.6-25.1 7.7-.8 15.2 1 22.6 3.2 3.6 1.1 7.3 2.3 10.8 3.3 11.8 3.4 24.1 5.2 36.5 5.3h.4c20.6.1 41-4.2 59.6-13.2-1.1 17.5-6 34.7-14.7 50.2-1.9 3.3-4 6.6-4.8 10.4-.8 3.4-.4 7.1-1 10.6-1.8 11-12.1 18.4-17 28.4-.5 1.1-1 2.2-1.4 3.3-4.5 11.8-2.9 25.8-8.6 37.1-5.6 11-16.4 17-27.5 22.9-4.9 2.6-10 5.2-14.5 8.1-2.1 1.4-4 2.7-6 4.2-1.9 1.5-3.7 3-5.5 4.7-3.8 3.6-7.4 7.5-10.6 11.8-6.3 8.6-10.8 18.4-15.5 28-2.6 5.3-5.3 10.7-8.4 15.9-8.5 14.4-21.4 27.8-38 29.9-6.9.8-13.7-.3-20.6-.4h-.5c-11.2 0-22.3 2.9-32.2 8.4-4.5 2.5-8.9 5.6-13.6 7.8-2.6.9-5.5 1.7-8.6 2z" fill="url(#aI)"/><linearGradient id="aJ" gradientUnits="userSpaceOnUse" x1="-13.117" y1="725.88" x2="313.471" y2="725.88"><stop offset=".006" stop-color="#27356e"/><stop offset=".227" stop-color="#252e66"/><stop offset=".541" stop-color="#222053"/><stop offset=".765" stop-color="#1e0f41"/><stop offset=".994" stop-color="#21102e"/></linearGradient><path d="M42 765.1c-6.6 2.1-13.6 1.4-20.4.8-2.9-.3-5.9-.5-8.8-.8-5.6-.5-11.4-1.1-16.6-3.4 13.2 1 26 1.1 39.3.4-12.9-2.1-24-5.5-35.9-10.6 3.4.5 6.4.4 9.9 1 11.2 1.6 22.6 3.4 34.1 3.2-11.4-3.3-22.2-7.5-33-12.1 12.9 4.2 25.2 6.6 38.8 7.9-9.7-4.5-19-9.5-27.1-16.6-5.9-5.1-11.1-11-15.3-17.4-6.9-10.1-20.1-15.5-20-25.9 1.6 4.9 5.5 7.9 9.7 11C16.2 717 38 728.8 60.9 737.4c-6-8.4-14.3-14-21.4-21.4-5.2-5.3-9.3-12.1-12.6-18.6 1 1.8 2.5 3.4 3.6 4.7 10.5 11.9 22.9 21 37.8 26.8-6.3-6.3-11.1-13.6-15.6-21.4 3.7 4 6.7 7.7 10.7 11.2 2.3 2.1 4.7 4.1 7.5 5.6 4.8 2.6 10.4 3.3 15.9 4.1-8.6-8.1-16-17-22.6-26.9 5.2 4.7 10 9.2 15.1 14 4.7 4.2 9.3 8.5 15.2 11-3.7-9.6-5.9-17.8-5.6-30 1.4 10.3 3 20.1 8.1 29.2.1-20.1 3-39.5 6.4-59.5.1 18.2-1.8 36.7 1.9 54.5-1.2-16.6 3.2-34 7.8-50.2 2.2-7.7 4.5-15.3 6.7-23 .5 22.8-3.7 45.4 1.1 67.4 6.3-26.5 13.4-52.2 23.2-77.8-2.2 7.7-3.4 14.9-4.1 22.8-.5 6.4-.7 12.9-.8 19.3-.1 9.6-.4 19.2-.5 28.6 2.9-23.2 8.9-45.5 17.5-67.4-3.4 21.4-4.2 42.5-3.2 63.9 6.2-23.4 14.1-46.2 23.8-68.4-5.8 21.2-8.8 42.9-9.6 64.8 7.9-22.9 17.5-45 28.9-66.5-7.1 19.3-12.3 39.1-15.6 59.2 11.2-23.2 23.7-45.1 38.1-66.6-10.8 20.7-19.3 42.3-26.2 64.5 12.5-26.3 27.5-51.1 44.5-74.8-11.1 21.9-22.1 43.4-28.4 67 11-22.8 22.3-45.4 39.2-64.3-9.9 19.3-18 39.1-24.5 59.6 7.9-16.2 18.2-31 30.6-44.3-1.4 2.9-2.7 5.2-4.4 7.9-6.3 10.3-10.8 21.5-15.3 32.8 11.8-17.7 27.1-31.7 43.4-45.4-5.2 9.5-14.4 15.6-21.2 24-3.7 4.7-6.9 9.7-9.9 14.8 14.9-14.5 33.2-25.4 52.8-31.4-2.3.4-4.5 1.5-6.6 2.7-12.1 7.3-23.2 16-33.3 25.9 12.6-5.6 25.1-11.5 37.4-18-10.3 6.9-20.4 13.6-30.7 20.4 16-2.3 31.7-5.8 47.1-11.1-17.7 11.1-37.3 16.2-57.1 21.9 18.5.4 36.9-1.1 55.2-5.1-20.6 5.8-40.6 10.3-61.7 12.6 5.3 1.2 10.1 3.3 15.6 4.2 15.9 2.7 32.1 4.2 48.2 5.6-24.5 1.2-48.7 1.2-72.9-.3 10.1 4.5 20.4 5.3 31.5 6.2 5.2.4 10.3.8 15.5 1.2-18.5 2.6-36.7.5-55-1.8 13 6 27.3 9.2 41.8 8.8-16.9 4.7-34.8.8-51.5-3.6 14.5 6.9 30 11.2 46.2 12.6-17.7.1-35.2-1.9-52.1-6.6 18.5 9.7 38.2 16.9 58.9 20.8-21.9-2.2-43.3-5.6-64.7-10.7 15.1 7.4 30.3 14.5 46.7 18.2-21.4-3.2-42.1-8.8-61.9-16.6 18.1 12.2 37.4 22.5 58.1 30-22.1-5.3-43.3-12.7-64.1-21.8 15.9 14.4 34.3 25.9 54 34.3-21.1-5.1-40.7-14.4-58.7-26.3 3.4 4 8.1 6.2 12.5 9 9.7 6.6 17.8 16.6 29.5 18.8-18-4.5-34.8-12.1-49.7-22.8 10 9.2 20.7 17 32.2 24.4 10.8 7 22.3 13.2 34.9 16.6-11.8-3.6-23-7.3-34.5-11.8-7-2.7-14.1-5.5-20.7-9-3.4-1.9-6.9-4-10.1-6-3-1.9-6-3.7-8.9-5.6 2.5 4.4 7.1 6.7 11.1 9.7 9 6.9 15.2 17.5 25.5 22.3-14.8-8.2-29.6-16.6-41.8-28.4 9.7 12.1 20 24 30.6 35.5-4.2-2.7-8.5-5.9-12.2-9.2-9.3-8.4-18.6-16.9-28-25.2 10.1 15.3 21.8 29.3 34.7 42.5-5.6-5.3-12.5-9.2-19-13.4-9.7-6.3-18.8-13.7-27-21.8 13.3 14.9 24.4 31.7 39.7 44.4-18.4-12.3-37.8-22.6-53.3-38.5 12.3 15.2 24.8 30 38.6 43.7-17.7-12.7-33.7-27.3-48.2-43.6 9.2 17.4 20 33.4 32.5 48.5-17.7-15.1-33.7-31.2-49.1-48.9 10.3 20 21.4 39.3 33.9 57.8-2.5-3.2-5.1-5.9-7.9-8.6-16.3-15.2-31-32.3-43.7-50.8 4 10.3 9.6 19.6 15.6 28.8 4.4 6.7 8.8 13.3 13.2 20-12.5-14.1-23.6-29.3-33.6-45.2 1.6 15.8 4.9 31 9.7 45.9-8.8-13.6-11.9-29.9-14.7-45.9-1.2 18-.7 35.8 2.1 53.3-5.3-14.9-7.1-31-8.4-47-2.9 17.4-4 34.7-3.4 52.2-3-17-3.3-34.4-1.1-51.8-5.9 17.8-11.1 35.6-15.6 53.9-.8-18.9 2.2-38.1 8.8-56.2-7.3 16.4-13.8 32.3-20.3 48.4 2.5-15.5 6.3-30.6 12.3-45.1-6 9.6-11.2 20.4-15.6 30.8 2.5-11.4 5.6-21.9 10.3-32.6-2.3 3.3-4.2 6.4-6.6 9.7-1.8 2.6-3.6 5.2-5.1 7.9-1.2 2.3-2.3 4.8-3.8 7.1 1.6-4.2 3-8.1 4.7-12.3 2.2-5.8 4.5-11.6 8.2-16.7-2.6 3.8-6 6.7-9.2 9.9-3.3 3.3-6.4 6.9-9.3 10.7 5.2-10.5 10.6-21 17.1-31z" fill="url(#aJ)"/><linearGradient id="aK" gradientUnits="userSpaceOnUse" x1="277.154" y1="729.383" x2="339.902" y2="729.383"><stop offset=".006" stop-color="#27356e"/><stop offset=".227" stop-color="#252e66"/><stop offset=".541" stop-color="#222053"/><stop offset=".765" stop-color="#1e0f41"/><stop offset=".994" stop-color="#21102e"/></linearGradient><path d="M277.2 759.5c8.2-.5 16-1.6 24.1-3.6-3.7.7-7.1.8-11 1 4.8-1.1 8.9-2.3 13.6-3.8-8.1 1.1-16.3 2.3-24.4 1.4-.5-.1-.8-.4-1.1-1 11.1-.3 21.9-2.3 32.6-5.6-10.7.4-21.4 3.2-31.5.1 11.8-.7 23-2.5 34.5-4.9-8.1 1.1-16.3 2.3-24.5 2.1-2.1 0-3.8-.4-5.8-1.2 12.5-.5 24.7-3.3 36.6-7-10.8 2.3-21.8 2.5-32.8 1.5 10.6-.7 20.7-2.9 30.8-5.6-10.7 2.1-21.2 1.9-31.9.1 10.3-1 20.7-2.6 30.8-4.8-3.3-.3-6.6.3-9.7.7-6 .5-11.9-.3-17.7-2.1 11.1-1 21.8-3.2 32.5-6-8.5 1.6-17.1 1.9-25.8 1.1 8.5-1.5 16.4-3.3 24.8-5.5-9.6 1.2-18.9 1.2-28.5 0 10.8-1.5 21.2-3.8 31.7-7.1l-18.8 2.1c-.8.1-1.4-.1-2.2-.4 12.5-2.9 25.4-5.9 36.2-12.2-4.5 11.8-2.9 25.8-8.6 37.1-5.6 11-16.4 17-27.5 22.9-3.6.3-7 .8-10.4 1.2-5.4.4-10.7.1-16-.5z" fill="url(#aK)"/><linearGradient id="aL" gradientUnits="userSpaceOnUse" x1="220.277" y1="795.295" x2="277.563" y2="795.295"><stop offset=".006" stop-color="#27356e"/><stop offset=".227" stop-color="#252e66"/><stop offset=".541" stop-color="#222053"/><stop offset=".765" stop-color="#1e0f41"/><stop offset=".994" stop-color="#21102e"/></linearGradient><path d="M251.5 815.4c-6.7.8-13.3.7-20.1 1 4.5-.5 8.8-1.2 13.4-1.8-8.5-.7-16.6-2.5-24.4-5.5 8.6.5 17.1.7 25.9 1-8.2-2.2-16-5.8-23.2-10.3 9.2 2.6 18.2 4.4 27.7 5.8-7.4-2.7-14.4-6.2-21.2-10.3 6.3 2.2 12.7 3.8 19.3 4.7-1.2-.3-2.6-.8-3.7-1.4-4.2-1.8-8.1-4.1-11.9-6.6 7.4 1.8 14.8 2.3 22.5 2.3-6-1.6-11.4-4.2-16.6-7.7 7.3 2.1 14.5 3.6 22.1 4.7-6.3-2.1-12.1-4.9-18-7.9 6 1.4 12.2 2.5 18.4 2.6-5.6-1.4-11.1-2.9-16.2-5.8 3.6-.1 7 1 10.6 1.5 3.6.5 6.7.3 10.1-.5-8.2-2.3-16.3-4.7-24.7-6.9 11.8 3 24.3 3.4 36.2 1.4-3.8 3.6-7.4 7.5-10.6 11.8-6.4 8.5-10.9 18.3-15.6 27.9z" fill="url(#aL)"/><linearGradient id="aM" gradientUnits="userSpaceOnUse" x1="119.959" y1="630.904" x2="185.669" y2="630.904"><stop offset=".006" stop-color="#27356e"/><stop offset=".227" stop-color="#252e66"/><stop offset=".541" stop-color="#222053"/><stop offset=".765" stop-color="#1e0f41"/><stop offset=".994" stop-color="#21102e"/></linearGradient><path d="M130.1 640.4c-1.9 5.6-3.2 11.5-6 16.6 0-3.6 1-6.7 2.1-10.1 3-9.6 6-19.2 9.2-28.6-4.7 6.3-8.5 11.9-11 19.3-1 3.2-1.6 6.3-3.2 9.2-.1-2.5.4-4.9 1.1-7.3 3.4-11 8.1-21.4 13.7-31.4-6.7 6.6-11.9 14.4-16 22.9 2.7-12.5 8.6-24.1 17.1-33.6.5.1 1.2.1 1.8.3 6.6 1.4 12.2 4.8 17.8 8.6h.1c9.2 6.6 18 14.4 28.9 15.9-1.5 1.6-2.7 3.6-4 5.3-1.4 2.2-2.7 4.2-4.1 6.4-1.8 2.9-3.7 5.8-4.8 9 1-7.4 2.3-14.4 4.8-21.4-.7-.3-1.4.4-1.9 1-5.3 7-9.7 14.8-12.6 23 .3-8.4 5.6-15.3 7.8-23.4-5.6 7.3-10.1 15.1-13.3 23.7-1-4.1.5-8.1 1.8-12.1 1.4-4.4 2.9-8.8 5.1-12.7-7.5 9.7-13.2 20.4-17.3 31.9 3.3-10.4 7.4-20.6 12.2-30.3-4.9 4-7.8 9.3-10.6 15.1-2.6 5.8-4.7 11.8-7.8 17.3 2.6-14.1 5.9-27.3 11.4-40.6-9.2 15.9-16.7 32.6-22.2 50 .5-17.5 11.4-32.5 14.5-49.6-6.4 7.2-11.3 16.1-14.6 25.6z" fill="url(#aM)"/><linearGradient id="aN" gradientUnits="userSpaceOnUse" x1="25.829" y1="646.734" x2="81.608" y2="646.734"><stop offset=".006" stop-color="#27356e"/><stop offset=".227" stop-color="#252e66"/><stop offset=".541" stop-color="#222053"/><stop offset=".765" stop-color="#1e0f41"/><stop offset=".994" stop-color="#21102e"/></linearGradient><path d="M45.8 633.2c-1.1 12.2-.4 24.5 1.1 36.6-3.3-12.2-5.1-24.4-5.5-37-1.4 11.2-1.6 22.5 0 33.7-3.2-9.7-5.2-19.7-5.6-30-1.6 8.1-1.9 16.3-.4 24.4-2.2-7.5-3.6-14.9-4-22.8-.4 5.1-.4 9.9 0 14.9-1.6-4.7-2.9-9.3-3.6-14.4-.5 3.8-.8 7.7-.3 11.5-.7-4.7-1.4-9-1.9-13.7 7-6 13.8-12.2 22.3-15.3 10-3.7 21-2.7 31.4-5.2.7-.1 1.4-.3 2.1-.5-6.7 12.9-9.9 27.4-9.2 41.9-1.4-5.6-3.2-10.8-3.6-16.6-.4-5.8.1-11.6 2.5-16.9-3.6 7.4-4.7 15.6-4.5 24 .1 8.2 1.5 16.4 3.2 24.5-4.7-9.7-7.1-20.4-7.3-31.1-.1 12.3 1.1 24.8 7 35.5-4.8-5.3-7.9-11.6-9.9-18.5-1.9-6.9-2.7-14-3.2-21.1.8 14 1.6 28 7 40.8-7.1-11.6-11.1-25.1-11.2-38.8-1.4 11.1-1.1 22.3 1.1 33.3-5.2-12.3-8-25.6-7.5-39.2z" fill="url(#aN)"/><linearGradient id="aO" gradientUnits="userSpaceOnUse" x1="239.191" y1="615.007" x2="378.707" y2="615.007"><stop offset=".006" stop-color="#27356e"/><stop offset=".227" stop-color="#252e66"/><stop offset=".541" stop-color="#222053"/><stop offset=".765" stop-color="#1e0f41"/><stop offset=".994" stop-color="#21102e"/></linearGradient><path d="M318.8 616c-8.8 4.4-17.4 8.8-24.3 15.3l.1-.1c5.2-6.9 11.4-13 18.2-18.4-10.7 4.8-20.4 10.8-29.3 18.5 6.2-7.1 12.6-13.3 20.3-18.6-10.7 5.8-21.1 11.2-31.7 17.4 5.6-8.2 12.9-15.1 21.7-19.9-.8-.3-1.2.1-2.1.5-13.2 6-25.9 13.2-38.1 21.2 8.9-9.2 18.8-16.7 29.7-23.3-5.1 1.2-9.7 2.5-14.5 4.7-6.7 3-12.7 7.4-18.8 11.8 5.9-6.4 12.3-12.2 20.1-16.4-2.5 1.4-4.8 2.5-7.4 3.8-8.1 4.1-16.9 7.1-23.7 13 9.5-10 20.1-18.5 32.2-24.9 3.6 1.1 7.3 2.3 10.8 3.3 11.8 3.4 24.1 5.2 36.5 5.3h.4c20.6.1 41-4.2 59.6-13.2-1 1.4-2.5 2.3-4 3.3-18.4 10.4-37.6 19.5-57.3 26.9 4.9-3.2 9.6-6 13.6-10.4-10.8 4.8-21.1 10.7-30.4 18.1 5.5-6.8 11.6-12.7 18.4-17.9z" fill="url(#aO)"/><g><linearGradient id="aP" gradientUnits="userSpaceOnUse" x1="7.578" y1="852.954" x2="91.277" y2="852.954"><stop offset=".006" stop-color="#27356e"/><stop offset=".227" stop-color="#252e66"/><stop offset=".541" stop-color="#222053"/><stop offset=".765" stop-color="#1e0f41"/><stop offset=".994" stop-color="#21102e"/></linearGradient><path d="M16.1 871.6c-3.6-2.2-6.3-5.3-8.5-8.8.1-.5.4-1 .5-1.5.5-1.4 1.1-2.7 1.9-4 1-1.8 2.2-3.3 2.9-5.1-.8 4-1 8.2 0 12.1 1.5-5.1 3.3-10 5.6-14.8-.7 2.7-2.2 5.1-3 7.8-.8 2.7-.8 5.5 0 8.2.8-5.3 3.4-10.3 6.3-14.8.8-1.4 1.4-2.6 1.8-4.1.1 3.3-1.2 6.6-2.3 9.7-1.1 3.2-1.9 6.6-1.1 9.7 2.5-7 5.2-13.6 8.9-20-1.4 3-2.3 6.2-3.4 9.3-1.4 4.1-2.9 8.4-2.1 12.6 3-8.1 6-15.9 10.1-23.6-1.8 5.3-3.4 10.7-4.8 16.2-.5 2.1-1.1 4.1-.4 6.2.8-2.9 1.6-5.8 2.9-8.5.7-1.5 1.4-3 2.2-4.4 1-1.9 1.9-3.8 3-5.8 1.5-2.6 3-4.9 5.1-7-1.6 11.1-3 22.1-1.5 33.2 2.6-9 5.1-18 8.2-27-.8 4.2-1.6 8.5-2.3 12.7-.7 4-1.6 7.8-.7 11.8 3.2-9.7 6.9-19.2 10.7-28.8-.7 3.6-1.2 7.1-1.9 10.7-.7 3.8-1.4 7.5-.3 11.2.7-5.3 1.4-10.8 3.2-15.9 1.2-3.6 3-6.7 4.1-10.4-.7 2.1-.8 4.4-1 6.6-.3 5.5-.3 11-.3 16.4 1.4-4.2 2.7-8.6 4-12.9.4-1.4.8-2.7 1.5-4 .8-1.6 1.9-3.2 2.9-4.7 1.4-2.2 2.5-4.1 3.4-6.6-3.3 10.1-4.8 20.4-5.3 31 1.5-11.8 5.6-23 11.5-33.3-3.2 11.2-6.2 22.6-5.3 34.1 1.6-10.4 4.8-20.3 9-30-1.6 8.5-3.2 16.7-2.7 25.4-.1-1.2.1-2.6.5-3.8 1.2-4.9 2.6-9.9 4.7-14.5.4-1 .8-1.9 1.4-2.7 1.6-3.4 4-6.4 5.6-9.9-4.2 11.5-6.7 23.7-7.1 35.9-9.3.4-18.8 3.7-27.8 6.4-13.1 4.2-28.3 7.1-40.1-.3z" fill="url(#aP)"/><linearGradient id="aQ" gradientUnits="userSpaceOnUse" x1="-46.674" y1="724.646" x2="3.056" y2="724.646"><stop offset=".006" stop-color="#27356e"/><stop offset=".227" stop-color="#252e66"/><stop offset=".541" stop-color="#222053"/><stop offset=".765" stop-color="#1e0f41"/><stop offset=".994" stop-color="#21102e"/></linearGradient><path d="M-3.7 756.7c-11-4-21.1-9.9-29.9-17.5-6.7-9.2-11.2-20-12.7-31.2-.5-4.1-.7-8.4.7-12.2.4-1.1 1-2.2 1.5-3.2 1.4 2.5 3 4.8 4.5 7 2.9 4.1 5.8 8.2 8.9 12.1 8.1 9.6 18.8 17.1 30.6 21.5-5.6-1.6-11.2-3-16.3-5.9-7.8-4.4-14-11-20.1-17.4 9.9 13.8 23.6 24.8 39.6 30.6-14.1-3.6-27.1-10.4-38-20.1 10 11.5 20.4 23.3 34.4 29.5-12.1-3.8-23-10.3-32.3-18.8 6.8 11.1 17.2 20.1 29.1 25.6z" fill="url(#aQ)"/><linearGradient id="aR" gradientUnits="userSpaceOnUse" x1="122.069" y1="859.639" x2="184.15" y2="859.639"><stop offset=".006" stop-color="#27356e"/><stop offset=".227" stop-color="#252e66"/><stop offset=".541" stop-color="#222053"/><stop offset=".765" stop-color="#1e0f41"/><stop offset=".994" stop-color="#21102e"/></linearGradient><path d="M138.2 869.9c-3-3.8-5.8-7.8-8.4-11.9-1.8-2.6-3.7-5.3-3.2-8.5 2.3 3.4 4.8 6.9 7.7 9.9 2.9 3 6.3 5.2 10.3 6.6-.7-.3-1.1-.8-1.5-1.4-3.6-5.1-7.1-10.3-10.7-15.3-.8-1.2-1.6-2.5-1.5-4 6.2 6.4 14.5 12.7 22.8 16.4-5.9-5.6-10.7-11.5-15.5-18.1 6.7 5.8 13.8 10.3 22.2 13.3-4.4-4.2-8.9-8.4-13.2-12.7-.5-.5-1.1-.8-.8-1.6 9.2 5.6 18.5 11.1 28.5 15.1 3.2 1.2 6.3 2.2 9.5 3-11.2 0-22.3 2.9-32.2 8.4-4.5 2.5-8.9 5.6-13.6 7.8-6.6-6.7-12.5-13.6-16.4-22.2 4.2 6.3 9.4 11.5 16 15.2z" fill="url(#aR)"/></g><g><linearGradient id="aS" gradientUnits="userSpaceOnUse" x1="260.169" y1="664.687" x2="359.94" y2="664.687"><stop offset="0" stop-color="#076793"/><stop offset="1" stop-color="#076e65"/></linearGradient><path d="M310.9 668.6c-8.5 1.1-17 1.1-25.6 1-4.2 0-8.6.1-13 .8-4.2.7-8.5 2.1-12.2 4.4 1.9-.8 4-1.5 6-2.1 2.1-.4 4.2-.8 6.3-1 4.2-.4 8.5-.3 12.7 0 4.2.3 8.6.4 12.9.4 4.4 0 8.6-.3 13-.8 8.6-1.1 17.1-2.9 25.4-5.8 4.1-1.4 8.1-3 12.1-4.8 3.8-1.9 7.7-3.8 11.4-6.2-7.8 3.6-15.9 6.6-24 9-8.2 2.5-16.5 4.3-25 5.1z" fill="url(#aS)"/><linearGradient id="aT" gradientUnits="userSpaceOnUse" x1="186.564" y1="654.271" x2="264.134" y2="654.271"><stop offset="0" stop-color="#076793"/><stop offset="1" stop-color="#076e65"/></linearGradient><path d="M186.6 710c3.7-4.4 6.6-9.2 9-14.3 2.5-5.1 4.7-10.4 7-15.6 4.5-10.6 9.5-21 15.1-31 5.9-10 12.6-19.5 20.4-28s16.6-16.2 26-22.6c-8.9 7.3-17.1 15.2-24.5 24-7.4 8.6-14 18-19.6 27.8-5.8 9.9-10.6 20.3-15.6 30.6-2.5 5.2-4.9 10.4-7.7 15.5-2.9 4.9-6 9.7-10.1 13.6z" fill="url(#aT)"/><linearGradient id="aU" gradientUnits="userSpaceOnUse" x1="-22.572" y1="705.665" x2="91.863" y2="705.665"><stop offset="0" stop-color="#076793"/><stop offset="1" stop-color="#076e65"/></linearGradient><path d="M82 731.8c4 4.7 7.4 9.7 9.9 15.3-3-5.3-6.6-10.1-10.8-14.4-4.1-4.2-8.9-8.1-13.8-11.4-10-6.7-21-11.8-32.1-16.6-11-5.1-22.2-9.9-32.6-16.3-9.9-6.3-19-14.1-25.1-24.1v-.1c3.3 4.5 7.1 8.6 11.4 12.1 4.5 4 9.6 7.3 14.7 10.3 10.4 6 21.5 10.8 32.6 15.6 11 5.1 22.2 10.1 32.1 17.4 5.1 3.5 9.6 7.5 13.7 12.2z" fill="url(#aU)"/><linearGradient id="aV" gradientUnits="userSpaceOnUse" x1="-38.881" y1="741.092" x2="347.734" y2="741.092"><stop offset="0" stop-color="#076793"/><stop offset="1" stop-color="#076e65"/></linearGradient><path d="M103 762.3c-1.5-4.9-4.2-9.5-8.5-12.6l-7.3 2.9c.7 5.1.1 10.3-1.1 15.3-1.5 5.6-4.1 10.8-7.3 15.8-6.2 9.7-14.3 18-21 27.1-6.9 9-12.3 19-16.6 29.5-1.1 2.6-2.1 5.3-2.6 7.9-.5 2.7-.7 5.5-.5 8.4.3 5.6 1 11.4 1.2 17.1-1-5.6-1.9-11.2-2.6-17-.3-2.9-.3-5.9.1-8.8.4-2.9 1.4-5.8 2.3-8.4 3.8-10.8 9.5-21.1 16.3-30.4 7-9.2 15.1-17.4 21.4-26.7 3.2-4.7 5.9-9.6 7.7-14.9 1.6-4.7 2.5-9.7 2.2-14.8L51 767.3c-2.2.8-4.2 1.8-6.4 2.6C31.7 775 18.8 780 6 785l-2.2-6.4c9.7-3.2 19.3-6.3 28.9-9.7 17.5-6.2 34.9-12.6 52.5-19.2-10.4-5.3-21.4-9.6-32.8-12.5-11.8-3-24-4.5-36.2-7-12.1-2.6-24.3-6.3-34.7-13.4-5.1-3.6-9.7-7.9-13.3-13.2-3.4-5.2-6-11-7.1-17 3.4 11.9 11.4 21.9 21.7 28.4 10.3 6.6 22.1 10.1 34 12.5 11.9 2.6 24.3 4.1 36.2 7.5 11.4 3.3 22.3 8.1 32.3 14.4 2.2-.8 4.4-1.6 6.6-2.5 1-.4 1.9-.7 2.9-1.1.7-.3 1.4-.5 1.9-.7-3.6-10.1-8.8-19.5-15.1-28-6.6-8.6-14-16.6-22.1-24-7.9-7.5-16.9-13.8-24.7-21.9-3.8-4-7.3-8.4-10-13.3-2.6-4.9-4.5-10.3-4.9-15.8 1 5.3 3.2 10.6 6 15.1 2.9 4.7 6.4 8.8 10.4 12.5 7.8 7.5 16.7 14 24.9 21.4 8.1 7.5 15.8 15.6 21.9 24.8 3.2 4.5 5.9 9.3 8.2 14.4 2.2 4.8 4 9.7 5.2 14.8 4.7-1.8 9.3-3.6 13.8-5.3-.4-5.5-1.5-10.8-3.6-15.9-1.9-5.2-4.7-10.1-7.5-14.8-5.9-9.5-13-18.2-19-27.8-5.9-9.6-11.1-20.4-11.5-31.9-.3-5.8.4-11.5 1.8-17 1.5-5.5 3.6-10.8 6.3-15.8-4.4 10.3-7 21.5-6 32.5 1 11.1 5.8 21.4 11.8 30.7 5.8 9.5 13 18.2 18.6 28.2 2.7 4.9 5.3 10 7 15.5 1.6 5.3 2.6 10.8 2.3 16.3 4.5-1.8 9-3.4 13.6-5.2 1.6-5.5 2.6-11.1 2.9-16.7.4-5.8.1-11.5-.4-17.3-.5-5.8-1.5-11.4-2.3-17.3-.8-5.8-1-11.8-.3-17.7 1.6-11.8 6-22.9 12.1-32.9 3-4.9 6.4-9.7 10-14.4 3.4-4.2 6.9-8.4 10.6-12.3l.8-.8c-.3.3-.5.7-.7 1-6.7 8.9-13.4 18-18.9 27.7-5.6 10-9.9 20.8-11.2 32.2-.8 5.6-.7 11.4 0 17 .7 5.8 1.6 11.5 1.9 17.3.3 5.9.4 11.6-.3 17.5-.7 5.6-1.9 11.2-4.1 16.6 7.1-2.7 14.3-5.5 21.2-8.4 1.9-3.4 3.6-7 4.8-10.7 1.6-4.4 3-9 3.8-13.7 1.8-9.3 2.5-18.9 4.4-28.4 1.9-9.6 5.6-18.6 10.4-27.1 4.7-8.5 10.1-16.3 15.9-24.1-4.8 8.4-9.7 16.4-14 25.1-4.2 8.5-7.8 17.4-9.6 26.6-1.9 9.3-2.6 18.9-4.9 28.4-1.1 4.7-2.7 9.3-4.7 13.7-1.6 3.4-3.4 6.7-5.6 9.9 10.7-4.2 21.5-8.5 32.2-12.7h-.3.3c2.2-.8 4.2-1.6 6.3-2.5.5-.3 1.2-.5 1.8-.7 13-5.2 26.2-10.3 38.6-16.6 3.4-2.9 6.3-6.2 8.9-9.7 2.7-3.7 5.3-7.7 7.9-11.6 5.2-7.8 10.7-15.5 15.2-23.6 4.7-8.1 8.6-16.7 14.3-24.5 2.9-3.8 6-7.4 9.7-10.4 3.7-3 7.9-5.5 12.5-6.7-4.4 1.8-8.2 4.5-11.6 7.7-3.4 3.2-6.3 6.9-8.9 10.7-5.1 7.8-8.9 16.3-13.6 24.7-4.7 8.2-10.3 15.9-15.9 23.4-2.9 3.7-5.6 7.5-8.6 11.2-2.7 3.2-5.8 6.2-9.3 8.5 1.1-.5 2.1-1 3.2-1.5 14.3-7.5 27.8-16.2 41.8-24.3 1.9-1.2 4-2.3 6-3.6 1.6-1.9 3.3-3.8 4.9-5.8 1.9-2.3 3.8-4.7 5.6-7.1 3.6-4.8 6.9-9.7 9.7-14.9 3-5.1 5.3-10.7 8.5-15.9 1.6-2.6 3.6-5.1 5.9-7.1 2.2-1.8 4.7-3.3 7.4-3.8.3-.1.5-.1.8-.1-.1 0-.3.1-.4.1-2.7 1.1-5.1 2.7-6.9 4.8-2.1 2.1-3.6 4.7-4.9 7.3-1.4 2.6-2.6 5.3-3.8 8.1s-2.6 5.5-4.1 8.1c-3 5.2-6.6 10.3-10.6 14.9-3.3 3.8-6.9 7.4-10.7 10.7 11.4-6.7 22.8-13.6 34-20.4 12.7-7.9 25.2-16.7 35.6-27.8-10.3 11.1-22.8 19.9-35.5 28-13.7 8.6-27.4 16.9-41.1 25.2-13.8 8.4-27.3 17-41.5 24.8-1.6.8-3.4 1.8-5.1 2.6 4.1-.8 8.2-1 12.5-.8 5.5.1 10.8 1 16.2 1.6 5.3.7 10.7 1.5 16 1.9 5.3.4 10.7.5 16 .4 5.3-.1 10.7-.5 16-1.1 5.3-.7 10.6-1.8 15.9-2.7 10.6-2.3 20.7-5.8 30.7-10.1-4.8 2.6-9.7 4.9-14.7 7-5.1 1.9-10.3 3.7-15.5 5.1-10.6 2.7-21.4 4.2-32.3 4.7-11 .1-21.9-.8-32.5-2.9-5.3-1-10.7-1.9-16-2.3-4.5-.4-8.9-.4-13.4.1-12.5 6.2-25.4 11.1-38 16.6-.5.3-1 .4-1.5.5 4.8 0 9.6.5 14.3 1.5 6.6 1.4 13 3.6 19.3 5.9 12.6 4.8 24.7 10.6 37.7 13 13 2.7 26.5 2.6 39.6 1 6.6-.8 13.2-2.1 19.7-3.6 6.6-1.4 13-3.2 19.5-4.9-12.6 4.7-25.5 8.5-38.9 10.6-13.3 2.1-27 2.3-40.4-.3-13.4-2.7-25.6-8.6-38-13.7-6.2-2.6-12.5-4.9-18.9-6.6-4.8-1.2-9.9-2.1-14.8-2.3-15.1 6.3-30.2 12.5-45.2 18.6 5.2.8 10.6 1.5 15.8 2.3 3.2.5 6.4 1 9.7 1.6s6.6 1.1 9.6 2.5c6.3 2.3 11.9 5.9 17.5 9.2 5.6 3.3 11.2 6.4 17.3 9 11.8 5.5 24.1 9.6 36.9 12.1 6.3 1.2 12.9 2.2 19.3 2.5 6.4.4 12.9.3 19.3-.3-12.9 2.2-26 2.1-38.9-.1-13-2.1-25.6-6.3-37.7-11.6-6-2.7-11.8-6-17.4-9.3-5.6-3.4-11.1-6.9-17-9.3-2.9-1.4-6.2-1.9-9.3-2.7s-6.3-1.4-9.6-2.1c-5.3-1.1-10.7-2.3-16-3.4-7.5 3.2-15.2 6.2-22.8 9.3 5.5.7 11 2.3 16.2 4.5 6.2 2.6 12.1 6 17.8 9.6 5.8 3.4 11.5 7 16.7 11.6 2.5 2.3 4.8 4.7 7.3 6.9s5.2 4 7.9 5.8c11.4 7 23.4 12.9 35.6 18.1 6.2 2.6 12.3 5.1 18.8 6.9 6.3 1.8 13.2 2.5 19.7.5-6.3 2.5-13.4 2.2-20 .8-6.6-1.5-12.9-3.8-19.3-6.2-12.6-4.8-24.7-10.8-36.3-17.7-2.9-1.8-5.8-3.7-8.2-6-2.6-2.3-4.9-4.8-7.3-7-4.8-4.5-10.6-7.9-16-11.6-5.6-3.7-11.2-7.3-17.3-10.1-5.1-2.5-10.4-4.4-16-5.5-3.4 1.4-7 2.9-10.4 4.2 5.9 1.8 11.6 4.5 17 7.9 6 4 11.5 8.9 16 14.5 4.8 5.6 7.8 12.3 11.6 18.2 3.8 5.9 8.6 11.1 13.7 16 10.1 9.9 22.3 17.7 35.4 23.2 13 5.5 27.1 8.8 41.5 9.5-7.1.3-14.4-.4-21.5-1.6-7.1-1.4-14.1-3.3-20.8-5.9-13.4-5.2-25.9-13.2-36.5-23.2-5.2-5.1-10-10.4-14-16.6-1.9-3-3.6-6.3-5.3-9.5-1.8-3.2-3.7-6-5.8-8.8-8.1-10.6-19-18.8-31.7-23.7-2.5 1-4.9 2.1-7.4 3l-1.4.5c4.5 2.6 7.8 7.3 9.7 12.2 2.1 5.3 2.5 11.2 2.6 16.9.1 11.2-.4 22.5-1.1 33.7-.8 11.2-2.5 22.3-2.2 33.4.1 5.5 1 11.1 2.7 16.3 1.4 4.5 3.6 8.8 6.6 12.5.5.7 1.1 1.4 1.6 1.9-.8-.7-1.6-1.5-2.3-2.3-3.2-3.3-5.5-7.4-7.1-11.6-2.1-5.3-3.2-11-3.6-16.6-.8-11.4 1-22.6 1.5-33.7 1-11.1 1.4-22.3 1.6-33.6.5-6.4.4-11.9-1.2-17.3z" fill="url(#aV)"/></g></g></g><g><defs><path id="aW" d="M-151.8-241h605.6v991h-605.6z"/></defs><clipPath id="aX"><use xlink:href="#aW" overflow="visible"/></clipPath><g clip-path="url(#aX)"><linearGradient id="aY" gradientUnits="userSpaceOnUse" x1="-216.904" y1="587.05" x2="154.084" y2="587.05"><stop offset=".006" stop-color="#121636"/><stop offset=".096" stop-color="#151332"/><stop offset=".186" stop-color="#171327"/><stop offset=".994" stop-color="#111219"/></linearGradient><path d="M54.9 673.5c23.3-1 46.6-1.1 69.8-.7-2.2 2.2-4.5 4.1-6.9 6-15.3 11.8-35.2 17.1-54.8 19-22.5 2.1-46.3 3.2-68.9 3.6-24.8.4-48.5.7-72.4 7.4 12.1 4.5 27.3 2.2 40.2 1.8 32.1-1.1 63.3-1.1 95.2-4.4 11.4-1.1 23.3-2.3 33.6 2.3-20.6 11.2-43.6 18-66.9 19.9-18.5 1.5-37.1 0-55.8-.3-21-.4-42.1.7-62.4 6.2 24.1-.7 48.4-.3 72.6 1.4 21.8 1.5 43.4 3.8 64.8 7 2.3.3 4.7.7 7 1.1-20.2 12.4-45.2 12.5-68.9 13.2-28.8.7-57.6 1.5-86.3 2.2 21.2.4 42.2 1.2 63.2 2.3 19.3 1.1 38.6 2.3 58.1 3.8-3.6 2.6-7.3 4.9-11.1 7-8.6 4.7-18.1 8.1-27.5 10.3-13.7 3.2-27.8 4.4-41.9 5.1-29.2 1.5-59.9-.3-89.1-3-15.6-24.3-33.3-47.4-46.2-73.2 0-.1-.1-.3-.1-.4-4.9-9.9-9-20.1-12.1-30.7-4.8-17.1-6.6-35.1-3.2-52.5 6 4.7 9.6 11.6 13.2 18.5 16.6 31.9 33.2 63.7 49.7 95.7-7.4-17.4-15.1-34.7-22.6-52.1-6.6-15.1-13.2-30-19.6-45.2-2.5-5.8-4.9-11.6-6.9-17.7-3.7-11.2-5.9-22.8-3.3-34.1.5-2.3 1.5-4.8 3.6-5.6 3.4-1.5 6.9 2.1 8.8 5.1.7 1.1 1.5 2.2 2.2 3.4 4.8 7.7 9 15.5 12.7 23.7.5 1.2 1.1 2.5 1.6 3.8-5.9-25.6-18.5-51.9-13.3-77.2 4.8 2.3 8.8 6 11.5 10.6-2.1-20.1-1.1-40.4 3.2-60.2 5.9 5.3 10.7 11.8 14 18.9-3.4-18.8-2.7-38.1.8-56.9 10.3 10.3 17.4 23.6 20.3 37.8-2.7-17.7-4-34-2.9-51.8 0-1.1.1-2.3 1.1-3.2 1-.8 2.2-.5 3.3.3.8.5 1.6 1.5 2.3 2.5 15.3 23.8 25.8 50.3 34.8 77.3 11 32.6 20 66.2 33.7 97.7-5.3-19-10.8-38.1-15.9-57.3-5.5-20.6-10.6-41.3-14.7-62.2-2.2-11.5-4.2-23.2-5.8-34.8-2.3-17.5-3.7-35.9 2.5-52.5.1.1.3.1.3.3 21.2 18.9 30.2 48.1 33.7 76.2.3 2.5.5 4.9.8 7.3 2.7 25.9 2.7 52.4 8.8 77.7-1.5-15.3-2.6-30.8-3.4-46.3-.8-16.4-1.1-33-1.1-49.5 0-15.2.5-30.4 1.2-45.6.7-14.1 1.8-28.5 7.3-41.5 2.1 6.2 4 12.5 5.8 18.8 8.8 30.7 14.1 62.1 15.9 93.9.8 14.3 1 28.5.3 42.9C-23.9 492.1-12 438.5 4.6 386c.5 6.6 1 13.2 1.2 19.7.8 21.7 0 43.2-2.7 64.6-1.8 13.4-4.2 26.9-7.5 40.2 18.8-40.4 39.6-80.7 71.4-111.8-14.9 41-33.2 81.3-56 118.7 12.5-14.7 26.2-28.2 40.8-40.6 17-14.3 35.2-27 54.5-38 1-.5 1.8-1 2.7-1.5-13.6 27-36.3 48.9-58 70-17.2 17-34.5 33.8-51.9 50.7 16.9-12.1 33.7-24 51.1-35.1 24.3-15.6 49.3-29.6 76.2-40.2l-.3.4C109.7 509.8 86.6 532 60.3 549c-25.9 16.6-54.7 29.6-83.5 42.5 28.8-5.3 55.2-18.1 82.5-28.6 9.7-3.7 19.6-7.3 29.7-9.9 18.4-4.9 37.1-7.5 55.8-4.8l-.8.7c-11.1 9.5-23.3 17.7-36.2 24.4-21.7 11.5-45.1 18.9-68.4 26.3-24.4 7.7-48.7 15.5-73 23.2 15.1-3.6 29.9-6 45-9.7 12.2-2.9 24.4-5.9 36.7-8.5 11.2-2.5 22.6-4.8 33.9-6.7 21.1-3.6 42.3-5.9 63.7-5.9-24.1 18.4-51.5 32.6-81.3 38.6-18.6 3.8-37.7 5.1-56.6 7.7-18.9 2.6-37.8 6.9-54.4 16.2 34.1.4 67.8-5.5 101.4-10.8 11.4-1.8 22.6-3.6 34-5.1 21.7-2.7 43.3-4.4 65.2-3-18.9 16.2-43.9 23.7-68.5 26.7s-49.5 3.6-74 7.9c-23.7 4.2-45.2 8.4-71.8 15.8 37.9-7 76.5-10.8 115.2-12.5z" fill="url(#aY)"/><linearGradient id="aZ" gradientUnits="userSpaceOnUse" x1="-15.207" y1="610.621" x2="-3.087" y2="610.621"><stop offset=".006" stop-color="#121636"/><stop offset=".096" stop-color="#151332"/><stop offset=".186" stop-color="#171327"/><stop offset=".994" stop-color="#111219"/></linearGradient><path d="M-15.2 612c4.1-.8 8.1-1.6 12.1-2.7-4.1.8-8.1 1.7-12.1 2.7z" fill="url(#aZ)"/><linearGradient id="ba" gradientUnits="userSpaceOnUse" x1="-188.264" y1="646.63" x2="18.946" y2="646.63"><stop offset=".006" stop-color="#27356e"/><stop offset=".227" stop-color="#252e66"/><stop offset=".541" stop-color="#222053"/><stop offset=".765" stop-color="#1e0f41"/><stop offset=".994" stop-color="#21102e"/></linearGradient><path d="M-55.9 684.9c-3.7 0-7.5-.1-11.2 0 6.9-2.1 13.4-4 20.3-5.9-5.2 0-10.1-.4-15.2-.4 8.4-1 17.4-2.7 25.6-5.1-6.3.3-12.6.1-18.8-.3 11.6-.5 22.8-2.1 34.3-4.4-9.7-.7-19.2-1.4-28.9-2.1 15.9-.3 31.2-2.1 46.9-5.2-20-1.4-39.7-1.8-59.8-2.1 6.2-2.7 12.1-5.5 18.1-8.2-5.1-.1-10-.3-15.1-.3 13.2-4.2 27.5-8.5 40.7-12.9-8.9 1.5-17.5 2.7-26.5 4.1 9.9-2.2 19.2-5.3 28.2-9.6-9 .4-18 .4-27 .8 11.9-2.3 23.7-5.5 35.2-9.3-13.4 1-26.6 2.5-40 3.4 4.5-1.8 9.9-4 14.4-5.8-4.1 0-8.8.3-12.7.7 10.6-4.2 21.4-7.7 32.3-10.4-8.2 1.6-16.4 2.9-24.8 3.8 9.9-4.7 20-8.8 30.3-12.3-10.7 4-21.7 6.3-33 6.9 8.8-4.4 17-9.3 25.1-14.7-6.7 3.8-14.5 6.7-22.2 7.9 5.2-2.7 9.9-6.3 14.5-9.9-2.2.7-4.4.1-6.6.1 8.4-5.8 16.7-11.2 25.4-16.4-7.3 2.5-14 5.1-21 8.2 10-6.2 20-11.9 30.7-17-8.1 3.4-16.2 6.4-24.5 9.3C-8 569.6 5.4 562.2 19.2 555c-11.9 4.1-23.2 9.7-33.4 16.9 7-7.4 12.9-15.6 17.8-24.5-3 3-6 5.5-9 8.5 6.3-11.1 12.7-21.8 20.1-32.2-8.6 7-16.3 14.9-22.5 24.3 6.2-14.4 11.9-28.9 18.1-43.2-9.2 10.8-17.4 22.3-24 34.8 2.6-9.2 6-18.4 9.5-27.4-5.6 10.7-11.5 21-17.1 31.7 1.2-8.8 2.9-17.4 4.7-26-3.3 7.7-6.2 15.6-9.5 23.4 1.4-6.2 2.7-12.2 4.1-18.4.3-1.4 0-2.3-.5-3.7-2.5 8.2-5.1 16.4-7.7 24.7-.1.8-.3 1.8-.4 2.6v-1.6c-.8 2.6-1.5 5.1-2.3 7.7-.8-7-1.9-13.7-2.2-20.7-1.1 9.9-2.3 19.6-3.4 29.5.3-12.6.3-24.8.5-37.4-2.6 15.3-4.9 30.3-7.5 45.6-1.6-13.7-3-27.4-3.3-41.3-.4 14.5-1 28.8-1.4 43.3-2.7-14.1-4.2-28.4-4.1-42.8-.7 19.3.7 38.6 4.2 57.6-2.5-6.6-4.9-13.2-7.5-19.7.3 2.5.4 5.1.7 7.5-1-4.1-1.8-8.1-2.5-12.2-2.6-6.9-5.2-13.6-7.8-20.4 1.1 16.4 3.7 32.3 7.8 48.2-4-16-8.5-31.5-14-47 1.5 16.7 4.4 33 7.8 49.5-2.7-7.9-6-15.6-10-23 3.4 12.2 6.6 24.3 10 36.5-3-5.3-6.3-10.7-9.7-15.8 2.7 9.9 5.5 19.6 8.2 29.3-5.1-11.5-9.5-23.4-13.6-35.4 1.1 9.7 3.2 19 5.6 28.6-5.6-12.1-11.6-23.6-17.7-35.4 6.3 14.9 12.5 29.6 18.8 44.5-4.2-10-8.9-19.5-13.8-29.1 1.1 12.3 3.3 24.5 6.3 36.6-8.1-14.8-14.8-30.3-19.3-46.5 4.4 15.3 8.6 30.7 13 46-8.6-16-16.3-32.3-22.8-49.2 4.9 18 11.2 36.3 17.7 53.9-10.4-16.4-19.7-33.2-28-50.7 6.7 18 14 35.5 22.2 52.9-11.4-13.2-21.1-27.4-29.1-42.9 7.8 19.7 18.1 38.2 29.9 55.9-13-12.1-23.7-26-31.1-42.1 7.7 20 18.2 38.5 31.4 55.4-13.4-16.6-25.4-33.9-36.3-52.2 6.7 19.2 13.8 38.1 22.1 56.7-8.9-14.5-17.1-29.3-24.3-44.8 5.1 18.5 11.8 36.5 19.9 53.9-10.3-15.6-19.2-31.8-27-48.8 5.5 18.8 12.6 36.6 21 54.1-10.6-14.3-19.7-29.1-28.4-44.5 5.8 18.6 12.7 37.4 19.9 55.6-9.9-12.3-18.4-25.6-24.5-40.2 6.6 17.3 13.4 34.1 20 51.4-10.3-12.9-18.6-27.3-25.4-42.5 5.2 15.6 12.5 30.6 20.6 45-9.6-12.1-18.2-24.5-25.9-37.8 4.5 16.9 10.1 33.3 17.3 49.2-7.9-12.5-14.7-25.6-20.6-39.2 3.6 16.4 9.2 32.6 16.7 47.7-7.9-11.9-14.4-24.5-18.8-38.1 1.5 7.9 3.3 15.6 5.3 23.3 4.5 10.4 9.2 20.8 13.6 31.4-3.2-6.2-6.4-12.3-9.6-18.5.7 2.1 1.4 4.1 2.2 6.2-5.3-7.8-10.4-15.5-15.1-23.7 4 11.2 8.8 21.9 14.5 32.3-5.9-10.3-11.9-20.3-17.7-30.6 2.7 11.1 6.3 21.8 11.4 32.1-7.5-8.9-13.4-18.9-17.7-29.7 3.6 11.4 7.8 22.5 12.6 33.3-7-9.7-12.5-20.4-16.6-31.8 1.4 11.8 4.2 23.3 8.5 34.3 8.6 13.2 17.7 25.9 26 39.1 25.1 2.5 51.4 4 76.9 3.6 13-1 26-2.1 39.1-3.2-10.4-.4-20.7-.4-31.1-1 13.4-.8 26.6-2.6 39.7-5.6-11.4.5-22.6 1-34 1.4 8.9-.8 17.7-2.9 26-6.2-13.4-.5-26.5.1-39.9 1.2 12.2-1.2 24-4.1 35.5-8.5-16.2.5-32.3 1.1-48.5 1.6 11.6-.5 23.2-1.5 34.7-3.3-11.4-1.5-22.8-2.2-34.1-2.3 10.1-.3 20.4-1 30.6-2.1-15.3-.7-30.8-1.2-46.3-1.5 23.6-.5 47-1.2 70.6-1.8.4-.1 1-.1 1.4-.3-12.6 0-25.1.1-37.7.1 14.1-3.2 28-5.9 42.2-8.4-17.4-.7-34.5-.8-51.8-.3 14.5-.3 28.8-3 42.9-6.7-13.4.4-26.9.3-40.3-.4 6.4-.1 12.9-.8 19.5-2.2-9.7-1-19.7-2.6-29.5-4.9-2.2 0-4.4.1-6.4.1 1.2-.3 2.3-.5 3.6-.8-1.1-.3-2.1-.5-3.2-.8 2.1 0 4.1 0 6.2.1 4.5-1 9-1.8 13.6-2.5-5.5-1-10.8-1.9-16.3-3 24.8 1.5 49.6-.8 73.9-6.3-16 1-31.8 2.1-47.8 3 13.7-2.5 27-5.6 40.7-8.1-16.7 1-33.3 2.3-50 3.4 11.1-1.8 21.9-3.6 33-5.3-16.2 1-32.2 1-48.4 0 4.1-1.5 8.1-3.2 12.1-4.7-.4-.1-1-.3-1.4-.4 2.3-.7 4.7-1.2 7-1.8.7-.3 1.5-.5 2.2-.8-5.3.1-11.4-.4-16.7-1.1 21.5-1.9 42.8-4.9 64-8.9-13.4 1.4-26.7 2.9-40.2 4.1 9.6-2.7 18.9-5.2 28.5-7.9-10 1-19.7 2.2-29.7 3.2 8.8-3.2 17.1-6.6 25.6-10.7-5.3.1-10.6 0-15.9 0-2.2.4-4.4.7-6.4 1.1 1.4-.5 2.8-.9 4.1-1.2z" fill="url(#ba)"/><linearGradient id="bb" gradientUnits="userSpaceOnUse" x1="-211.89" y1="690.932" x2="-181.396" y2="690.932"><stop offset=".006" stop-color="#121636"/><stop offset=".096" stop-color="#151332"/><stop offset=".186" stop-color="#171327"/><stop offset=".994" stop-color="#111219"/></linearGradient><path d="M-191.6 718.6c-4.2-5.9-8.2-12.1-11.6-18.5 1 3.6 2.1 7.1 3.3 10.6-4.9-9.9-9-20.1-12.1-30.7.8 1.5 1.6 3 2.5 4.5-1.2-7.1-2.1-14.1-2.3-21.2.7 7.8 3 15.3 6.9 22.2-1.1-5.2-1.6-10.3-1.9-15.6 6.3 15.5 14.8 29.7 25.4 42.6-6.4-7.3-12.6-14.4-18.4-22.3 2.3 7.9 5.6 15.3 9.9 22.5-4-4.8-7.4-9.6-11.1-14.7 2.2 7.3 5.3 14.2 9.4 20.6z" fill="url(#bb)"/><linearGradient id="bc" gradientUnits="userSpaceOnUse" x1="-201.475" y1="655.71" x2="-169.082" y2="655.71"><stop offset=".006" stop-color="#121636"/><stop offset=".096" stop-color="#151332"/><stop offset=".186" stop-color="#171327"/><stop offset=".994" stop-color="#111219"/></linearGradient><path d="M-176.9 682.8c1 3 2.3 5.9 4.1 8.5-.7-.7-1.2-1.2-1.9-1.8-6.6-15.1-13.2-30-19.6-45.2-2.5-5.8-4.9-11.6-6.9-17.7-.3-2.2-.4-4.4-.3-6.6 3.2 7.9 6.6 15.6 9.9 23.7-2.3-6.6-3.6-13.6-4-20.6 2.9 9.9 6 19 10.1 28.5-.8-5.3-1-10.7-.8-16 3.4 13 7.3 25.6 12.5 38.1-1.1-4.4-1.5-8.6-1.1-13 1.2 8.6 3.3 16.9 5.9 25.1-4.9-3.4-8.9-7.9-11.8-13.2 2.7 5.5 5.9 10.6 9.6 15.5-2.7-1-4.5-2.9-5.7-5.3z" fill="url(#bc)"/><linearGradient id="bd" gradientUnits="userSpaceOnUse" x1="-160.218" y1="541.549" x2="-129.447" y2="541.549"><stop offset=".006" stop-color="#121636"/><stop offset=".096" stop-color="#151332"/><stop offset=".186" stop-color="#171327"/><stop offset=".994" stop-color="#111219"/></linearGradient><path d="M-160.2 515c5.2 26.7 18.1 45.6 29.5 67.3-5.5-12.1-9.7-24.7-13.3-37.6 4.7 9.6 9.3 19.2 14 28.8-5.2-11-10-22.3-14.3-33.7 4.8 8.5 10.1 16.7 14.9 25.2-5.9-18.6-18.4-35.1-20.6-54.5-.5 5.8-.1 11.2.7 17-2.1-7.5-3-15.3-2.9-23.2-1.1 6.4-1.5 13.4.1 19.9-2.7-7.5-4-15.3-3.8-23.3-.7 6.4-.7 12.7-.3 19-1.4-3.3-2.5-6.4-3.2-10-.1 1.5-1 3.3-.8 5.1z" fill="url(#bd)"/><linearGradient id="be" gradientUnits="userSpaceOnUse" x1="-139.277" y1="526.268" x2="-111.087" y2="526.268"><stop offset=".006" stop-color="#121636"/><stop offset=".096" stop-color="#151332"/><stop offset=".186" stop-color="#171327"/><stop offset=".994" stop-color="#111219"/></linearGradient><path d="M-139.3 495.4c7.5 22.1 16.9 43.4 27.7 64-2.6-6.4-5.2-12.7-7.8-19.2 2.7 4 5.5 7.7 8.4 11.5-3.4-5.8-6.7-11.2-9.9-17.1 3.2 3.8 6.4 7.4 9.5 11.4-11-15.6-18.2-33.6-21.5-52.4 0 4.9.5 10 1.1 14.9-2.1-4.9-3.2-10-3.3-15.3-.3 2.7-.5 5.2-.7 7.8-.8-1.9-2-4-3.5-5.6z" fill="url(#be)"/><linearGradient id="bf" gradientUnits="userSpaceOnUse" x1="-177.335" y1="582.732" x2="-144.855" y2="582.732"><stop offset=".006" stop-color="#121636"/><stop offset=".096" stop-color="#151332"/><stop offset=".186" stop-color="#171327"/><stop offset=".994" stop-color="#111219"/></linearGradient><path d="M-177.3 557.2c1.5 7.8 5.1 15.2 8.6 22.3 6.2 12.7 12.5 25.4 18.6 38.1-2.5-7.3-4.7-14.7-7.5-21.8 3.4 7.4 7.7 14.3 12.2 21.1-4.9-11.4-10.1-23.2-15.2-34.7 4.9 8.6 10.1 16.9 15.8 24.9-10.7-18.9-19.5-38.8-26.9-59.3.5 7.7 2.5 15.1 4.8 22.5-2.7-6.2-4.7-12.3-6.3-18.8.7 5.3 1.4 10.7 1.5 16.2-1.9-3.7-4-6.8-5.6-10.5z" fill="url(#bf)"/><linearGradient id="bg" gradientUnits="userSpaceOnUse" x1="-97.216" y1="526.473" x2="-75.562" y2="526.473"><stop offset=".006" stop-color="#121636"/><stop offset=".096" stop-color="#151332"/><stop offset=".186" stop-color="#171327"/><stop offset=".994" stop-color="#111219"/></linearGradient><path d="M-82.7 554.8c1.1 5.1 2.7 9.9 4.4 14.8-1.4-2.7-2.9-5.3-4.2-8.1-5.5-20.6-10.6-41.3-14.7-62.2.8-5.3 1.9-10.7 3.4-16-.7 7.4-.7 14.7.3 22.1 1.1-5.8 2.3-11.5 3.4-17.3-1 11-.8 22.3 0 33.3 1-7.7 1.8-14.9 2.7-22.5-1 13.2-.1 26.3 2.7 39.2.4-5.1.8-9.9 1.2-14.9.3 13 2.7 25.9 7.5 38-2.2-3.3-4.2-6.3-6.4-9.5 2.2 5.5 4.5 11.1 6.7 16.4-3.3-3.8-5.4-8.2-7-13.3z" fill="url(#bg)"/><linearGradient id="bh" gradientUnits="userSpaceOnUse" x1="-61.169" y1="498.104" x2="-52.912" y2="498.104"><stop offset=".006" stop-color="#121636"/><stop offset=".096" stop-color="#151332"/><stop offset=".186" stop-color="#171327"/><stop offset=".994" stop-color="#111219"/></linearGradient><path d="M-57.8 533.3c-.7-2.1-1.5-4-2.3-6-.8-16.4-1.1-33-1.1-49.5 1-5.1 2.2-10 3.7-14.9.4 9.3.4 18.5.1 27.8.4-4.5 1.5-8.9 2.9-13.3-.1 8.8-.1 17.5-.1 26.3 0-2.2.5-4.2 1.6-6-1.6 9.3-2.7 18.5-3.4 28-1.6-2.2-2.6-4.8-2.5-7.5-.1 4.8.6 10.1 1.1 15.1z" fill="url(#bh)"/><linearGradient id="bi" gradientUnits="userSpaceOnUse" x1="-137.497" y1="488.922" x2="-99.809" y2="488.922"><stop offset=".006" stop-color="#121636"/><stop offset=".096" stop-color="#151332"/><stop offset=".186" stop-color="#171327"/><stop offset=".994" stop-color="#111219"/></linearGradient><path d="M-102.2 535.2c-1-5.5-1.9-10.7-2.9-16.2-.1 3.4-.3 7-.3 10.6.1-6-.7-11.8-1.9-17.7-.1 4.1-.5 8.2-.7 12.3-.4-6.3-1.5-12.1-2.7-18.2-.5 4.5-1 9-1 13.6-.8-8.5-2.3-16.6-4.7-24.8-.3 3.4-.5 6.9-.4 10.3-.5-9.9-2.5-19.6-5.6-29.1.4 4 1.1 7.7 1.5 11.6-4.2-15.8-9.9-31.2-16.6-46.2.8.5 1.6 1.5 2.3 2.5 15.3 23.8 25.8 50.3 34.8 77.3.5 4.9.7 10 .4 15.1-.4-3.3-.7-6.6-1.1-9.9 0 3-.3 6-1.1 8.8z" fill="url(#bi)"/><linearGradient id="bj" gradientUnits="userSpaceOnUse" x1="-100.118" y1="465.829" x2="-65.541" y2="465.829"><stop offset=".006" stop-color="#121636"/><stop offset=".096" stop-color="#151332"/><stop offset=".186" stop-color="#171327"/><stop offset=".994" stop-color="#111219"/></linearGradient><path d="M-72.2 511.7c1.1-7.3 1.6-14.5 1.2-21.9-1 5.3-2.3 10.3-4 15.5 2.7-9.7 3.6-19.7 2.2-29.7-.5 5.1-1.4 9.9-2.6 14.8.5-9.7.4-19.5-.8-29.1-.7 6-1.5 11.8-2.2 17.7-.7-10.6-1.2-21.1-1.9-31.7-.5 6.7-1.2 13.3-1.8 20 .7-8.6 0-17.3-2.2-25.6-.3 2.9-.5 5.6-.8 8.5-2.1-13.6-7.1-26.6-14.9-37.8 21.2 18.9 30.2 48.1 33.7 76.2.3 2.5.5 4.9.8 7.3-.7 7.9-2.1 15.8-3.3 23.6.5-7.5.8-14.9.7-22.5-.9 5.1-2.2 10-4.1 14.7z" fill="url(#bj)"/><linearGradient id="bk" gradientUnits="userSpaceOnUse" x1="-46.905" y1="462.746" x2="-31.05" y2="462.746"><stop offset=".006" stop-color="#121636"/><stop offset=".096" stop-color="#151332"/><stop offset=".186" stop-color="#171327"/><stop offset=".994" stop-color="#111219"/></linearGradient><path d="M-37.1 515c.3-5.3.8-10.7 1.1-16-1.2 3.6-2.5 6.9-4.2 10.1 1.4-5.6 2.3-11.1 3.2-16.9-.8 3.2-1.8 6-2.9 9 .8-5.6 1.2-11.1 2.1-16.7-.7 3.6-1.9 6.9-3.3 10.1 1.9-7.1 2.6-14 2.5-21.4-.8 3.7-1.5 7.1-2.5 10.8 1.4-8.2 2.1-16.6 1.5-24.9-.5 3.7-.7 7.1-1.2 10.8-.3-20.3-2.3-40.7-6-60.7 8.8 30.7 14.1 62.1 15.9 93.9-.5 4.4-1.1 8.6-1.9 13-.3-3.3-1-6.6-1.2-9.9-1.3 3-2 5.9-3.1 8.8z" fill="url(#bk)"/><linearGradient id="bl" gradientUnits="userSpaceOnUse" x1="6.542" y1="391.823" x2="7.261" y2="391.823"><stop offset=".006" stop-color="#121636"/><stop offset=".096" stop-color="#151332"/><stop offset=".186" stop-color="#171327"/><stop offset=".994" stop-color="#111219"/></linearGradient><path d="M7.3 393.9c-.3-1.4-.4-2.9-.7-4.2.4 1.2.6 2.7.7 4.2z" fill="url(#bl)"/><linearGradient id="bm" gradientUnits="userSpaceOnUse" x1="-8.476" y1="453.563" x2="6.649" y2="453.563"><stop offset=".006" stop-color="#121636"/><stop offset=".096" stop-color="#151332"/><stop offset=".186" stop-color="#171327"/><stop offset=".994" stop-color="#111219"/></linearGradient><path d="M-8.5 501.9c1.5-5.2 3.4-10.1 5.6-15.1-1.6 2.6-3.6 4.9-5.6 7.3 2.2-4.4 4-8.6 5.9-13.3-1.1 1.9-2.2 3.6-3.4 5.5 2.3-5.1 4.2-10.3 5.9-15.6-1.9 3.3-4 6.2-6 9.2 1.9-6.4 3.4-13 4.5-19.7-1.1 3.6-2.2 6.9-3.7 10.1 2.2-7.8 4.1-15.6 6.3-23.3-.3.8-.7 1.8-1.1 2.6 2.6-14.7 4.8-29.6 6.4-44.4.8 21.7 0 43.2-2.7 64.6-2.9 11-7 21.9-12.1 32.1z" fill="url(#bm)"/><linearGradient id="bn" gradientUnits="userSpaceOnUse" x1="-189.861" y1="622.887" x2="-168.858" y2="622.887"><stop offset=".006" stop-color="#121636"/><stop offset=".096" stop-color="#151332"/><stop offset=".186" stop-color="#171327"/><stop offset=".994" stop-color="#111219"/></linearGradient><path d="M-176.3 632.7c.7 3.2.8 6.2.1 9.3-3.4-10.8-5.9-22.2-7.1-33.6.5 4.7.4 9-.5 13.7-.8-5.6-1.5-11-2.2-16.6-.1 3.3-.8 6-1.6 9.2-.4-6.4-1.2-12.9-2.2-19.3 4.8 7.7 9 15.5 12.7 23.7.4 1.2 1 2.6 1.4 3.8 3.3 8.8 5.6 18.1 6.9 27.4-2.7-5.7-5.2-11.6-7.5-17.6z" fill="url(#bn)"/><linearGradient id="bo" gradientUnits="userSpaceOnUse" x1="45.815" y1="463.499" x2="107.076" y2="463.499"><stop offset=".006" stop-color="#121636"/><stop offset=".096" stop-color="#151332"/><stop offset=".186" stop-color="#171327"/><stop offset=".994" stop-color="#111219"/></linearGradient><path d="M63.8 473.7c3.4-4.2 6.9-8.4 10.3-12.6-8.4 7.1-16 14.9-23 23.3.8-2.3 1.6-4.5 3-6.6-3 3.4-5.6 6.9-8.2 10.7 2.1-4.1 4.2-8.1 6.7-12.1 17-14.3 35.2-27 54.5-38-14.6 11.9-28.9 23.7-43.3 35.3z" fill="url(#bo)"/><linearGradient id="bp" gradientUnits="userSpaceOnUse" x1="49.652" y1="503.038" x2="127.085" y2="503.038"><stop offset=".006" stop-color="#121636"/><stop offset=".096" stop-color="#151332"/><stop offset=".186" stop-color="#171327"/><stop offset=".994" stop-color="#111219"/></linearGradient><path d="M127.1 482.3l-.3.4c-8.8 6-17.5 12.1-26.3 18.1-10.7 7.3-21.4 14.7-33.2 19.9 2.6-2.9 5.3-5.3 8.4-7.7-3.4 2.3-6.9 4.4-10.4 6.3 1.9-2.1 3.7-4.1 5.8-6.2-5.1 3.8-10.3 7.3-16 10.3 1.2-1.6 2.5-2.9 4.2-4-3 1.8-6.2 3-9.6 4.2.4-.4.8-.8 1.2-1.4 24.1-15.3 49.3-29.3 76.2-39.9z" fill="url(#bp)"/><linearGradient id="bq" gradientUnits="userSpaceOnUse" x1="45.16" y1="559.688" x2="144.985" y2="559.688"><stop offset=".006" stop-color="#121636"/><stop offset=".096" stop-color="#151332"/><stop offset=".186" stop-color="#171327"/><stop offset=".994" stop-color="#111219"/></linearGradient><path d="M145 548.3l-.8.7c-13.8 3-27.5 6.7-41 11.2 2.7-2.3 5.8-4.1 9.2-4.9-9.5 2.5-18.6 4.9-28 7.8 2.6-1.8 5.3-3.3 8.4-4.2-6.9 2.1-13.7 4.1-20.6 6.3 1.2-1.1 2.5-2.1 4-2.9-5.2 2.3-10.1 4.5-15.5 6.9 2.1-1.2 3.7-2.5 5.6-3.7-5.6 1.9-11.2 4.1-16.4 6.9 2.7-1.5 5.2-3.3 7.8-4.8-4.5.5-8.6 1.8-12.7 3.7 11.5-7.8 25.4-10.6 38.1-15.8 1.9-.8 4-1.6 5.9-2.3 18.5-5.2 37.3-7.7 56-4.9z" fill="url(#bq)"/><linearGradient id="br" gradientUnits="userSpaceOnUse" x1="33.892" y1="606.03" x2="96.45" y2="606.03"><stop offset=".006" stop-color="#121636"/><stop offset=".096" stop-color="#151332"/><stop offset=".186" stop-color="#171327"/><stop offset=".994" stop-color="#111219"/></linearGradient><path d="M76.1 605.8c4.8-1.1 9.6-2.1 14.5-2.5-12.1 3-24 6-36 9 3.3-1.8 6.4-3.8 9.6-5.9-7 2.6-14.3 4.8-21.2 7.4 5.1-2.6 9.9-5.5 14.9-8.1-8.1 2.1-15.9 4.2-24 6.4 4.8-2.6 9.5-5.1 14.4-7.4 11.2-2.5 22.6-4.8 33.9-6.7-1.8.8-3.7 1.6-5.6 2.5 6.6-.5 13.2-1 19.9-1.5-7.2.9-14.1 3.3-20.4 6.8z" fill="url(#br)"/><linearGradient id="bs" gradientUnits="userSpaceOnUse" x1="42.462" y1="644.061" x2="100.296" y2="644.061"><stop offset=".006" stop-color="#121636"/><stop offset=".096" stop-color="#151332"/><stop offset=".186" stop-color="#171327"/><stop offset=".994" stop-color="#111219"/></linearGradient><path d="M90.4 644.3c-6.9 1-13.4 1.8-20.3 2.7 2.9.1 5.5.8 8.1 1.8-9.2-.7-18.2-.7-27.4.5 3.2-1.4 6.3-2.2 9.7-2.7-6 .4-11.9.8-18 1.6 4.1-1.5 8.4-3 12.5-4.5 11.4-1.8 22.6-3.6 34-5.1 3.8.5 7.7 1.2 11.4 1.8-9.2.1-18.1 1.8-26.7 4.7 5.4-.8 11-1.2 16.7-.8z" fill="url(#bs)"/><linearGradient id="bt" gradientUnits="userSpaceOnUse" x1="39.374" y1="675.75" x2="124.618" y2="675.75"><stop offset=".006" stop-color="#121636"/><stop offset=".096" stop-color="#151332"/><stop offset=".186" stop-color="#171327"/><stop offset=".994" stop-color="#111219"/></linearGradient><path d="M124.6 672.8c-2.2 2.2-4.5 4.1-6.9 6-8.5-.5-17-.7-25.6-.5 2.6-1 5.1-1.8 7.5-2.6-11 .1-21.7.3-32.6.4 1.6-.3 3-.7 4.5-1.2-10.6.5-21.7 1.1-32.2 1.6 5.1-1.1 10.3-2.1 15.5-2.9 23.4-1 46.7-1.2 69.8-.8z" fill="url(#bt)"/><linearGradient id="bu" gradientUnits="userSpaceOnUse" x1="-29.288" y1="742.394" x2="45.267" y2="742.394"><stop offset=".006" stop-color="#121636"/><stop offset=".096" stop-color="#151332"/><stop offset=".186" stop-color="#171327"/><stop offset=".994" stop-color="#111219"/></linearGradient><path d="M34.9 744.9c-9-.5-17.8-1.1-27-1.6 5.9 1.6 11.8 3.3 17.8 4.9-9.3-1.4-18.4-2.6-27.7-3.8 3.8 1.4 7.5 3 11.2 4.8-10-3.7-20.4-6.3-31.1-7.4 3.2 0 6.3-.4 9.5-1.2-5.5-1.6-11.1-2.9-16.9-3.3 2.5-.7 5.1-1.2 7.5-1.6 21.8 1.5 43.4 3.8 64.8 7 .7.3 1.4.4 2.2.7-9.9-.3-19.5-.8-29.3-1.1 6.3.7 12.6 1.7 19 2.6z" fill="url(#bu)"/><linearGradient id="bv" gradientUnits="userSpaceOnUse" x1="-44.176" y1="766.651" x2="16.137" y2="766.651"><stop offset=".006" stop-color="#121636"/><stop offset=".096" stop-color="#151332"/><stop offset=".186" stop-color="#171327"/><stop offset=".994" stop-color="#111219"/></linearGradient><path d="M16.1 765.1c-3.6 2.6-7.3 4.9-11.1 7-9 0-18 0-26.9-.1 3.6-1.6 7.1-2.7 10.8-3.6-5.9-.3-11.8-.4-17.8-.4 4-.4 7.8-.8 11.8-1.2-6-1-12.1-1.4-18.2-1.5 3-.5 6-.8 9-1-4.5-.3-9-.7-13.6-1.1 2.3-.1 4.5-.1 6.9-.3-3.8-.3-7.5-.7-11.4-1.1.8-.3 1.5-.4 2.3-.5 19.5 1 38.9 2.3 58.2 3.8z" fill="url(#bv)"/><linearGradient id="bw" gradientUnits="userSpaceOnUse" x1="-205.258" y1="623.024" x2="117.217" y2="623.024"><stop offset="0" stop-color="#076793"/><stop offset="1" stop-color="#076e65"/></linearGradient><path d="M90.1 680.4c-61 5.3-122.2 8.5-183.4 9.7 4.7-8.6 9.3-17.1 14.1-25.8 66.1-.5 132-7.8 196.4-21.8-64 12.5-129.1 18.4-194.1 17.7 3.4-6.3 6.9-12.5 10.3-18.8.1-.4.4-.7.5-1.1 58-6 115.1-18.2 170.2-36.5C49.5 620.5-6.8 631.2-63.7 636c3.4-6.2 6.9-12.3 10.1-18.5 53.4-17 106.1-36 157.9-57.1-51 19.3-102.8 36.6-155.1 51.9 2.6-4.8 5.2-9.6 7.9-14.4l.1.3C1.7 570.9 45 541.8 86.9 510.8c-41 28.5-83.1 55.2-126.1 80.3 4.1-7.4 12.3-21.2 12.3-21.2l99.1-98.4-94.4 88.5c2.7-4.9 5.3-9.7 8.1-14.7 0 0 1-1.1 1-1.8 13.8-25.1 27.5-50.2 41.4-75.1C14.6 491.8.7 515.2-13 538.7c1-29.7 4.2-59.5 9.9-88.9-7.4 31.2-12.2 63.3-14.3 95.5 0 0-14.7 25.9-22.3 38.8-6.3-50.7-9-101.8-8.1-153.1-2.5 52.9-.8 106.1 4.7 159-2.1 3.6-4.2 7.1-6.3 10.8-20.1-48.4-34.8-99.2-43.4-151.2 7.4 53.2 21.2 105.5 40.8 155.7-6.3 10.7-12.5 21.4-18.8 32.1-24.7-56.2-45.4-114.3-61.4-173.6 15.1 60.7 34.8 120.2 58.8 178-3.6 6.2-7.1 12.3-10.7 18.4-24.9-58-47.8-116.8-68.9-176.2 20 61 42.2 121.2 66.3 180.6-4 6.7-7.9 13.6-11.8 20.3-28.4-51.8-52.1-106.2-70.4-162.5 17.4 57.4 40.2 113.3 68.1 166.7-4 6.7-7.8 13.6-11.8 20.3-30-43.2-53.7-90.9-70.2-141 15.2 51.3 38.2 100.2 67.8 145-2.1 3.6-4.1 7-6 10.6l-9 15.8-31.5-63.7-16.6-34c-5.5-11.4-11-22.8-15.3-34.7 4.1 11.9 9.2 23.6 14.4 35.1l15.8 34.5 30.7 67.4-12.6 21.9c-21.7-35.8-41.7-72.5-60-110.1 17.4 38.9 36.7 77 57.7 114.2-3.4 6-6.9 12.1-10.3 18.1l-6 10.8-5.9 11 10 5.1 5.5-10.8 5.6-10.8 11.1-21c8.6-.8 17.4 0 26.3 1 10 1.2 20.1 2.3 30.3 2.9 10.1.5 20.3.5 30.4 0 10.1-.4 20.1-1.5 30.2-2.9-10 1.1-20.1 1.8-30.3 1.9-10.1.1-20.1-.3-30.2-1.1s-20-2.3-30-3.8c-7.9-1.2-16.2-2.2-24.5-2.1l11-20.4c44.5 3.2 89.4 4 133.9 2.5-44 .1-88.1-2.1-131.8-6.4l8.5-15.8c1.1-2.1 2.3-4.1 3.4-6.3 53 3 106.3.3 158.7-8.5-51.8 7.3-104.4 8.8-156.5 4.5 4.2-7.8 8.5-15.8 12.7-23.6 61.8-2.9 123.7-7.6 185.4-14.3z" fill="url(#bw)"/></g></g></svg>