<svg xmlns="http://www.w3.org/2000/svg" xmlns:xlink="http://www.w3.org/1999/xlink" width="800" height="800" viewBox="-249 -50 800 800"><defs><path id="a" d="M-151.8-50h605.6v990.9h-605.6z"/></defs><clipPath id="b"><use xlink:href="#a" overflow="visible"/></clipPath><path clip-path="url(#b)" fill="#fff" d="M-236.3-188.2h774.4V1079h-774.4z"/><g><defs><path id="c" d="M-151.8-50h605.6v990.9h-605.6z"/></defs><clipPath id="d"><use xlink:href="#c" overflow="visible"/></clipPath><g clip-path="url(#d)"><linearGradient id="e" gradientUnits="userSpaceOnUse" x1="83.838" y1="720.928" x2="454.707" y2="720.928" gradientTransform="matrix(1 0 0 -1 0 700)"><stop offset=".006" stop-color="#27356e"/><stop offset=".227" stop-color="#252e66"/><stop offset=".541" stop-color="#222053"/><stop offset=".765" stop-color="#1e0f41"/><stop offset=".994" stop-color="#21102e"/></linearGradient><path d="M185.6-114.5c-23.3-.8-46.6-2.6-69.6-4.8 2.3-1.9 4.8-3.8 7.4-5.5 16.3-10.4 36.6-14.4 56.1-14.5 22.6-.3 46.4.5 69 1.9 24.8 1.5 48.3 3.1 72.7-1.6-11.8-5.5-27-4.4-40-4.9-32.2-1.5-63.1-4-95.3-3.1-11.4.3-23.4.5-33.3-5.1 21.4-9.6 44.9-14.4 68.2-14.5 18.6 0 37 2.9 55.5 4.8 20.8 2.1 42 2.6 62.7-1.1-24.1-1.2-48.3-3.6-72.3-7.1-21.5-3.1-43-7.3-64.1-12-2.3-.5-4.7-1.1-6.8-1.6 21.2-10.7 46-8.9 69.8-7.5 28.8 1.5 57.5 3 86.1 4.7-21.1-2.1-41.9-4.5-62.7-7.4-19.2-2.6-38.3-5.5-57.5-8.5 3.7-2.3 7.5-4.2 11.6-6 9-4 18.6-6.7 28.3-8.1 14-2.1 28.1-2.2 42.2-1.8 29.2.8 59.7 5.1 88.5 10.1 13.6 25.5 29.4 49.8 40.3 76.7 0 .1.1.3.1.4 4.1 10.1 7.4 20.8 9.6 31.6 3.4 17.5 3.7 35.5-1.1 52.6-5.6-5.2-8.6-12.5-11.6-19.4-14-33.1-27.9-66.3-42-99.3 6 17.9 12.2 35.7 18.5 53.7 5.3 15.5 10.8 30.9 16 46.6 1.9 5.9 4 12 5.5 18.2 2.9 11.5 4 23.1.5 34.2-.7 2.2-1.8 4.7-4 5.3-3.6 1.2-6.6-2.6-8.4-5.8-.7-1.2-1.2-2.3-1.9-3.6-4.1-7.9-7.8-16.2-10.8-24.6-.4-1.2-1-2.6-1.4-3.8 3.8 26 14.4 53.3 7.1 77.9-4.5-2.7-8.4-6.7-10.7-11.5.4 20.3-2.2 40.4-7.9 59.7-5.5-5.8-9.7-12.6-12.5-20 1.9 19-.3 38.2-5.3 56.7-9.4-11.1-15.5-24.9-17.1-39.3 1.4 17.8 1.2 34.2-1.2 51.9-.1 1.1-.4 2.3-1.4 3-1.1.7-2.2.4-3.1-.5-.8-.7-1.6-1.6-2.1-2.6-13.4-25.1-21.6-52.2-28.6-79.7C320.3 16.7 314-17.5 302.8-50c3.8 19.4 7.8 38.9 11.4 58.5 3.8 20.9 7.3 42 9.7 63.1 1.4 11.6 2.3 23.4 3 35.1 1 17.7 1 36.1-6.7 52-.1-.1-.1-.3-.3-.3-19.6-20.5-26.2-50.3-27.5-78.7-.1-2.5-.1-4.9-.3-7.4-.7-26.2 1.5-52.4-2.6-78.2.3 15.5.1 30.9-.3 46.4-.5 16.6-1.5 33-2.9 49.4-1.2 15.2-2.9 30.4-4.9 45.5-1.8 14-4.1 28.2-10.5 40.8-1.5-6.4-3-12.7-4.2-19.2-6.3-31.4-9-63-8.4-94.9.3-14.2 1.4-28.5 3.1-42.7-11.6 53.8-27.7 106.3-48.5 157.3 0-6.6 0-13.1.3-19.7.8-21.6 3.4-43 7.8-64.1 2.7-13.3 6.3-26.4 10.7-39.4-21.9 38.7-45.9 77.4-80.1 105.7 18.1-40 39.6-78.6 65.2-114.2-13.6 13.6-28.3 26-44 37.2-18.1 12.9-37.2 24.1-57.4 33.5-1 .4-1.9.8-2.7 1.2C128.3 91 152.8 71 176.1 51.7c18.6-15.5 37.2-30.8 55.9-46.3-17.7 10.7-35.6 21.2-53.8 30.9-25.5 13.7-51.6 25.6-79.1 34l.3-.3c18.5-25.3 43.3-45.6 70.8-60.5C198-5.4 227.7-16 257.4-26.6c-29.2 3.1-56.4 13.7-84.5 22-10 3-20.1 5.6-30.4 7.5-18.6 3.4-37.7 4.5-56 .3l.8-.5c11.8-8.5 24.6-15.7 37.9-21.5 22.5-9.7 46.4-15.3 70.2-20.8 24.9-5.8 49.8-11.5 74.6-17.4-15.3 2.5-30.3 3.7-45.6 6-12.3 1.9-24.8 3.8-37.2 5.6-11.4 1.6-22.9 3-34.4 4-21.4 1.9-42.7 2.6-64.1.8 25.6-16.4 53.9-28.3 84.1-32.2 18.9-2.3 38.1-2.1 57.1-3.1 19-1.1 38.2-3.8 55.6-11.8-34.1-3.1-68.1.1-102 2.7-11.5 1-22.9 1.8-34.4 2.3-21.8 1.1-43.5 1-65.3-2.1 20.1-14.7 45.6-20.1 70.5-21.2 24.9-1.1 49.6.4 74.4-2.1 24-2.3 45.7-4.7 72.8-10-38.3 4.2-77.2 5-115.9 3.6z" fill="url(#e)"/><linearGradient id="f" gradientUnits="userSpaceOnUse" x1="238.29" y1="746.645" x2="250.59" y2="746.645" gradientTransform="matrix(1 0 0 -1 0 700)"><stop offset=".006" stop-color="#121636"/><stop offset=".096" stop-color="#151332"/><stop offset=".186" stop-color="#171327"/><stop offset=".994" stop-color="#111219"/></linearGradient><path d="M250.6-47.5c-4.1.5-8.2 1.1-12.3 1.8l12.3-1.8z" fill="url(#f)"/><linearGradient id="g" gradientUnits="userSpaceOnUse" x1="212" y1="780.428" x2="430.987" y2="780.428" gradientTransform="matrix(1 0 0 -1 0 700)"><stop offset=".006" stop-color="#121636"/><stop offset=".096" stop-color="#151332"/><stop offset=".186" stop-color="#171327"/><stop offset=".994" stop-color="#111219"/></linearGradient><path d="M296.9-117c3.7.4 7.5.7 11.2.8-7 1.5-13.7 2.9-20.7 4.2 5.2.4 10 1.2 15.2 1.6-8.5.4-17.7 1.4-25.9 3 6.3.3 12.5 1 18.8 1.8-11.6-.3-22.9.3-34.5 1.6 9.7 1.5 19 2.9 28.8 4.4-15.9-1-31.4-.4-47.1 1.5 19.9 2.9 39.4 4.9 59.4 6.8-6.3 2.2-12.5 4.5-18.8 6.7 5.1.5 10 1.1 15.1 1.5-13.6 3.1-28.2 6.3-41.6 9.6 9-.7 17.7-1.2 26.7-2.1-10 1.4-19.6 3.8-29 7.4 9 .3 17.9 1.1 27 1.4-12.2 1.4-24.1 3.6-35.9 6.6 13.4.1 26.7-.4 40.3-.3-4.7 1.4-10.1 3.1-14.8 4.5 4.1.3 8.8.4 12.9.3-11 3.4-21.9 6-33.1 7.8 8.4-1 16.7-1.6 25.1-1.8-10.3 3.8-20.5 7.1-31.2 9.9 11-3.1 22-4.5 33.4-4.2-9 3.7-17.7 7.9-26.2 12.6 7-3.3 15.1-5.6 22.7-6.2-5.3 2.3-10.4 5.5-15.2 8.8 2.2-.4 4.4.3 6.6.4-8.8 5.1-17.5 9.9-26.6 14.4 7.4-1.8 14.4-4 21.5-6.4-10.5 5.3-20.9 10.3-32 14.4 8.4-2.7 16.6-5.2 25.2-7.4C240.4-6 226.5.3 212.2 6.5 224.4 3.2 236-1.3 247-7.6c-7.7 6.8-14.1 14.5-19.7 23 3.3-2.7 6.4-4.9 9.7-7.7-7.1 10.5-14.5 20.7-22.7 30.4 9.2-6.3 17.5-13.7 24.4-22.5-7.4 13.8-14.1 27.8-21.5 41.6 10-10 19-20.8 26.6-32.9-3.3 9-7.5 17.9-11.6 26.6 6.4-10.1 13.1-20 19.6-30.3-1.9 8.8-4.2 17.1-6.7 25.6 3.8-7.4 7.4-15.1 11.4-22.6-1.9 6-3.7 12-5.6 17.9-.4 1.4-.1 2.3.3 3.7 3.1-8.1 6.4-16 9.6-24 .1-.8.4-1.8.5-2.6 0 .5-.1 1.1-.1 1.6 1-2.5 1.9-4.9 2.9-7.4.3 7 .8 13.8.5 20.8 1.9-9.7 3.8-19.4 5.8-29.2-1.2 12.6-2.2 24.8-3.6 37.2 3.8-15.1 7.3-29.8 11.1-44.9.5 13.8.8 27.5 0 41.4 1.6-14.4 3.1-28.6 4.8-43 1.6 14.4 1.9 28.6.7 43 2.2-19.2 2.5-38.5.3-57.6 1.9 6.8 4 13.6 5.9 20.3v-7.5c.7 4.1 1.1 8.2 1.5 12.5 2.1 7 4.1 14 6.2 20.9.3-16.4-1.1-32.6-4-48.7 2.6 16.3 5.9 32 10.1 47.9-.1-16.8-1.6-33.3-4-50 2.1 8.2 4.7 16 8.2 23.7-2.5-12.5-4.7-24.6-7.1-37.1 2.6 5.6 5.5 11.1 8.4 16.6-1.9-10-4-20-5.9-30 4.1 11.9 7.5 24.1 10.7 36.4-.3-9.9-1.6-19.3-3.3-29 4.7 12.5 9.7 24.5 14.8 36.7-5.2-15.3-10.1-30.5-15.2-45.9 3.4 10.3 7.4 20.1 11.5 30.1-.1-12.5-1.4-24.8-3.3-37 6.8 15.5 12.3 31.4 15.6 47.9-3.1-15.6-6.2-31.2-9.3-47 7.3 16.6 13.7 33.5 18.8 50.9-3.6-18.3-8.4-37.1-13.3-55 9 17.3 17.1 34.6 23.8 52.9-5.2-18.5-11.1-36.6-17.9-54.5 10.3 14 18.9 29 25.6 45-6.3-20.3-14.9-39.6-25.3-58.1 12 13 21.5 27.8 27.7 44.5-6-20.5-15.1-39.8-27-57.6 12 17.5 22.6 35.9 32.2 54.9-5.1-19.6-10.8-39-17.4-58.3 7.8 15.2 14.7 30.7 20.7 46.7-3.6-18.9-8.8-37.2-15.5-55.3 9 16.3 16.6 33.3 23 50.8-4-19-9.7-37.5-16.6-55.7 9.3 15.1 17.4 30.5 24.8 46.7-4.2-19-9.7-38.3-15.3-57.1 8.8 13 16.2 27 21.2 41.9-5.2-17.8-10.7-35.1-15.9-52.9 9.3 13.7 16.4 28.8 21.9 44.4-4-16-10-31.4-17-46.4 8.6 12.7 16.3 25.9 22.9 39.8-3.1-17.1-7.5-34-13.3-50.5 6.8 13.1 12.6 26.7 17.4 40.7-2.2-16.7-6.6-33.1-12.9-48.9 7 12.5 12.5 25.6 15.7 39.6-.8-7.9-1.9-15.9-3.4-23.7-3.7-10.8-7.4-21.5-11.1-32.3 2.7 6.4 5.5 12.9 8.1 19.2-.5-2.1-1.1-4.2-1.6-6.3 4.8 8.2 9.2 16.3 13.1 24.9-3-11.5-7-22.6-11.9-33.4 5.1 10.7 10.3 21.2 15.2 31.9-1.9-11.2-4.5-22.2-8.8-32.9 6.7 9.6 11.9 19.9 15.2 31.1-2.7-11.6-5.9-23-9.9-34.2 6.2 10.3 10.8 21.4 14 33-.4-11.8-2.3-23.6-5.8-34.8-7.5-13.7-15.6-27.2-22.9-41.1-24.8-4.4-50.9-8.1-76.4-9.6-13-.1-26.2 0-39.2 0 10.3 1.4 20.5 2.1 30.9 3.4-13.4-.3-26.7.5-40 2.5 11.4.4 22.7.8 34 1.4-8.9.1-17.8 1.5-26.4 4.1 13.3 1.5 26.4 1.9 39.8 1.9-12.2.3-24.2 2.2-36 5.6 16.3.7 32.3 1.5 48.6 2.2-11.6-.4-23.1-.4-34.8.4 11.2 2.3 22.5 4 33.8 4.9-10.1-.4-20.4-.5-30.5-.3 15.3 1.9 30.7 3.7 46 5.2-23.6-1.2-47-2.5-70.5-3.8-.4 0-1 .1-1.4.1 12.5 1 25.1 1.9 37.5 2.9-14.2 2.1-28.3 3.6-42.7 5.1 17.3 2.1 34.4 3.6 51.6 4.4-14.5-1-28.9.7-43.3 3.3 13.4.7 26.8 1.9 40.1 3.6-6.4-.4-12.9-.1-19.6.7 9.6 1.6 19.4 4.2 28.9 7.3 2.2.1 4.4.3 6.4.4-1.2.3-2.5.4-3.7.5 1.1.4 2.1.7 3 1.1-2.1-.1-4.1-.4-6.2-.5-4.5.7-9.2 1.1-13.7 1.4 5.3 1.4 10.7 2.9 16 4.2-24.6-3.4-49.6-3.1-74.1.4 16 .3 31.9.4 47.9.8-13.8 1.4-27.4 3.4-41.2 4.8 16.8.3 33.4.3 50.1.5-11.2 1-22.2 1.9-33.4 2.7 16.2.3 32.2 1.5 48.2 3.8-4.2 1.2-8.2 2.5-12.3 3.7.4.1.8.4 1.4.5-2.3.4-4.8.8-7.1 1.2-.7.3-1.5.4-2.2.7 5.3.3 11.2 1.4 16.6 2.3-21.6.3-43 1.5-64.5 3.7 13.6-.3 26.8-.7 40.4-1-9.9 2.1-19.3 3.7-29.2 5.6 10-.1 19.9-.5 29.8-.7-9 2.5-17.7 5.2-26.4 8.5 5.3.3 10.5.8 15.9 1.4 2.2-.3 4.4-.4 6.6-.7-1.9.7-3.4 1-4.8 1.2z" fill="url(#g)"/><linearGradient id="h" gradientUnits="userSpaceOnUse" x1="424.244" y1="811.616" x2="452.04" y2="811.616" gradientTransform="matrix(1 0 0 -1 0 700)"><stop offset=".006" stop-color="#27356e"/><stop offset=".227" stop-color="#252e66"/><stop offset=".541" stop-color="#222053"/><stop offset=".765" stop-color="#1e0f41"/><stop offset=".994" stop-color="#21102e"/></linearGradient><path d="M434.8-140c3.7 6.3 7.3 12.6 10.1 19.3-.7-3.6-1.5-7.3-2.3-10.8 4.1 10.1 7.4 20.8 9.6 31.6-.7-1.6-1.4-3.1-2.2-4.8.7 7.1 1 14.2.7 21.4 0-7.8-1.8-15.5-5.1-22.6.7 5.3.8 10.4.7 15.7-5.1-15.9-12.3-30.9-21.9-44.5 5.9 7.8 11.4 15.3 16.6 23.7-1.6-8.1-4.4-15.7-8.1-23.1 3.6 5.1 6.7 10.1 9.9 15.5-1.7-7.5-4.3-14.7-8-21.4z" fill="url(#h)"/><linearGradient id="i" gradientUnits="userSpaceOnUse" x1="409.851" y1="777.59" x2="437.211" y2="777.59" gradientTransform="matrix(1 0 0 -1 0 700)"><stop offset=".006" stop-color="#27356e"/><stop offset=".227" stop-color="#252e66"/><stop offset=".541" stop-color="#222053"/><stop offset=".765" stop-color="#1e0f41"/><stop offset=".994" stop-color="#21102e"/></linearGradient><path d="M417.4-105.3c-.7-3.1-1.8-6-3.4-8.9.5.7 1.2 1.4 1.8 1.9 5.3 15.5 10.8 30.9 16 46.6 1.9 5.9 4 12 5.5 18.2.1 2.2 0 4.4-.3 6.6-2.5-8.2-5.3-16.2-7.9-24.4 1.8 6.8 2.5 13.8 2.5 20.8-2.1-10-4.5-19.4-7.8-29.2.3 5.5.1 10.7-.5 16.2-2.3-13.3-5.2-26.2-9.3-39 .8 4.4.8 8.8.1 13.1-.5-8.6-1.9-17-3.8-25.5 4.7 3.8 8.2 8.6 10.7 14.1-2.2-5.6-5.1-11-8.4-16.2 2 1.2 3.7 3.2 4.8 5.7z" fill="url(#i)"/><linearGradient id="j" gradientUnits="userSpaceOnUse" x1="360.742" y1="666.886" x2="387.403" y2="666.886" gradientTransform="matrix(1 0 0 -1 0 700)"><stop offset=".006" stop-color="#27356e"/><stop offset=".227" stop-color="#252e66"/><stop offset=".541" stop-color="#222053"/><stop offset=".765" stop-color="#1e0f41"/><stop offset=".994" stop-color="#21102e"/></linearGradient><path d="M387.4 60.8C384.3 33.7 373 14 363.3-8.6c4.5 12.5 7.8 25.5 10.3 38.5-3.8-10-7.7-19.9-11.6-29.7 4.4 11.4 8.2 23 11.6 34.8-4.1-8.9-8.8-17.4-12.9-26.3 4.4 19 15.6 36.6 16.2 56 1-5.6 1-11.2.7-17 1.5 7.7 1.8 15.5 1 23.4 1.6-6.3 2.5-13.3 1.5-19.7 2.2 7.7 2.7 15.6 1.9 23.6 1.1-6.3 1.8-12.6 1.8-19 1.1 3.3 1.9 6.7 2.3 10.1.3-1.9 1.4-3.7 1.3-5.3z" fill="url(#j)"/><linearGradient id="k" gradientUnits="userSpaceOnUse" x1="341.322" y1="653.468" x2="365.01" y2="653.468" gradientTransform="matrix(1 0 0 -1 0 700)"><stop offset=".006" stop-color="#27356e"/><stop offset=".227" stop-color="#252e66"/><stop offset=".541" stop-color="#222053"/><stop offset=".765" stop-color="#1e0f41"/><stop offset=".994" stop-color="#21102e"/></linearGradient><path d="M364.9 78.6c-5.8-22.6-13.3-44.6-22.6-66 2.2 6.6 4.1 13.1 6.3 19.7-2.5-4.1-4.9-8.1-7.4-12.2 3 6 5.9 11.8 8.5 17.9-2.9-4-5.9-7.9-8.5-12 9.7 16.4 15.5 34.9 17.4 53.9.4-4.9.3-10 0-14.9 1.6 5.1 2.3 10.3 2.1 15.5.4-2.6 1-5.1 1.4-7.8.5 2 1.6 4.1 2.8 5.9z" fill="url(#k)"/><linearGradient id="l" gradientUnits="userSpaceOnUse" x1="379.459" y1="706.8" x2="407.849" y2="706.8" gradientTransform="matrix(1 0 0 -1 0 700)"><stop offset=".006" stop-color="#27356e"/><stop offset=".227" stop-color="#252e66"/><stop offset=".541" stop-color="#222053"/><stop offset=".765" stop-color="#1e0f41"/><stop offset=".994" stop-color="#21102e"/></linearGradient><path d="M407.8 20c-1-7.9-3.8-15.6-6.8-23-5.2-13.1-10.4-26.3-15.6-39.4 1.9 7.4 3.6 14.9 5.9 22.3-2.9-7.7-6.6-14.8-10.4-21.9 4.1 11.8 8.4 24 12.5 35.7-4.2-9-8.8-17.7-13.8-26.2 9.2 19.7 16.3 40.3 22 61.3 0-7.8-1.2-15.2-2.9-22.9 2.2 6.3 3.7 12.7 4.8 19.3-.3-5.5-.4-10.8-.3-16.2 1.5 3.8 3.2 7.1 4.6 11z" fill="url(#l)"/><linearGradient id="m" gradientUnits="userSpaceOnUse" x1="306.972" y1="656.754" x2="323.403" y2="656.754" gradientTransform="matrix(1 0 0 -1 0 700)"><stop offset=".006" stop-color="#27356e"/><stop offset=".227" stop-color="#252e66"/><stop offset=".541" stop-color="#222053"/><stop offset=".765" stop-color="#1e0f41"/><stop offset=".994" stop-color="#21102e"/></linearGradient><path d="M313.3 14.8c-.7-5.2-1.9-10-3.3-15.1 1.2 2.7 2.5 5.6 3.7 8.4 3.8 20.9 7.3 42 9.7 63.1-1.2 5.3-2.9 10.5-4.7 15.6 1.4-7.3 1.8-14.7 1.5-22-1.5 5.6-3.1 11.2-4.8 17 1.9-11 2.6-22.2 2.6-33.3-1.6 7.5-3 14.7-4.5 22.2 2.1-13 2.2-26.3.4-39.3-.8 4.9-1.6 9.7-2.5 14.8.7-13-.7-26-4.5-38.5 1.9 3.4 3.7 6.6 5.8 10-1.6-5.6-3.7-11.4-5.3-17 2.9 4.3 4.8 8.9 5.9 14.1z" fill="url(#m)"/><linearGradient id="n" gradientUnits="userSpaceOnUse" x1="278.989" y1="630.67" x2="288.633" y2="630.67" gradientTransform="matrix(1 0 0 -1 0 700)"><stop offset=".006" stop-color="#27356e"/><stop offset=".227" stop-color="#252e66"/><stop offset=".541" stop-color="#222053"/><stop offset=".765" stop-color="#1e0f41"/><stop offset=".994" stop-color="#21102e"/></linearGradient><path d="M286.8 34.2c.5 2.1 1.2 4.1 1.8 6.2-.5 16.6-1.5 33-2.9 49.4-1.4 4.9-3 9.9-4.9 14.7.3-9.4 1.1-18.5 2.1-27.8-.8 4.5-2.2 8.8-4 13 .8-8.8 1.5-17.4 2.3-26.2-.1 2.2-.8 4.1-2.2 5.9 2.3-9.2 4.2-18.3 5.6-27.7 1.5 2.3 2.2 5.1 1.9 7.8.7-5 .4-10.2.3-15.3z" fill="url(#n)"/><linearGradient id="o" gradientUnits="userSpaceOnUse" x1="328.234" y1="616.704" x2="358.94" y2="616.704" gradientTransform="matrix(1 0 0 -1 0 700)"><stop offset=".006" stop-color="#27356e"/><stop offset=".227" stop-color="#252e66"/><stop offset=".541" stop-color="#222053"/><stop offset=".765" stop-color="#1e0f41"/><stop offset=".994" stop-color="#21102e"/></linearGradient><path d="M331.1 35.7c.4 5.5 1.1 10.8 1.6 16.3.4-3.4.8-7 1.2-10.4-.5 6-.3 11.8.5 17.8.5-4.1 1.2-8.2 1.8-12.3 0 6.3.5 12 1.4 18.3 1-4.4 1.6-8.9 2.1-13.6.1 8.5 1 16.7 2.6 25.1.5-3.4 1.1-6.7 1.2-10.1-.3 9.9 1 19.7 3.3 29.4-.1-4-.4-7.7-.5-11.6 3 16.2 7.4 31.9 12.7 47.4-.8-.7-1.6-1.6-2.1-2.6-13.4-25.1-21.6-52.2-28.6-79.7-.1-5.1.1-10 .7-15.1.1 3.3.1 6.6.3 9.9.3-2.9.9-5.8 1.8-8.8z" fill="url(#o)"/><linearGradient id="p" gradientUnits="userSpaceOnUse" x1="291.553" y1="596.576" x2="319.386" y2="596.576" gradientTransform="matrix(1 0 0 -1 0 700)"><stop offset=".006" stop-color="#27356e"/><stop offset=".227" stop-color="#252e66"/><stop offset=".541" stop-color="#222053"/><stop offset=".765" stop-color="#1e0f41"/><stop offset=".994" stop-color="#21102e"/></linearGradient><path d="M299.4 56.9c-1.8 7.1-2.7 14.4-2.9 21.8 1.4-5.2 3.1-10.1 5.2-15.2-3.6 9.4-5.1 19.3-4.5 29.4 1-5.1 2.2-9.7 3.8-14.5-1.4 9.6-1.9 19.3-1.5 29 1.1-5.9 2.3-11.6 3.6-17.5-.1 10.7-.5 21.1-.7 31.8 1.1-6.7 2.3-13.1 3.4-19.9-1.4 8.5-1.4 17.1.1 25.7.5-2.9 1-5.5 1.5-8.4 1 13.7 5.1 27.1 11.9 38.9-19.6-20.5-26.2-50.3-27.5-78.7-.1-2.5-.1-4.9-.3-7.4 1.4-7.8 3.3-15.6 5.2-23.3-1.2 7.4-2.1 14.9-2.5 22.5 1.3-4.9 3-9.6 5.2-14.2z" fill="url(#p)"/><linearGradient id="q" gradientUnits="userSpaceOnUse" x1="257.636" y1="597.055" x2="267.306" y2="597.055" gradientTransform="matrix(1 0 0 -1 0 700)"><stop offset=".006" stop-color="#27356e"/><stop offset=".227" stop-color="#252e66"/><stop offset=".541" stop-color="#222053"/><stop offset=".765" stop-color="#1e0f41"/><stop offset=".994" stop-color="#21102e"/></linearGradient><path d="M264.7 50.9c-.7 5.3-1.6 10.5-2.5 15.9 1.5-3.4 3-6.6 5.1-9.9-1.8 5.5-3.1 11-4.5 16.4 1.1-3 2.2-5.9 3.7-8.8-1.2 5.6-2.1 11-3.3 16.6 1-3.4 2.5-6.6 4.1-9.9-2.5 6.8-3.7 13.8-4.2 21.1 1.1-3.6 2.1-7 3.3-10.5-2.1 8.1-3.3 16.3-3.4 24.6.8-3.7 1.2-7 2.1-10.7-1.4 20.3-1 40.7 1.2 60.9-6.3-31.4-9-63-8.4-94.9.8-4.2 1.8-8.5 2.9-12.7 0 3.3.4 6.7.5 10 1.1-2.6 2-5.2 3.4-8.1z" fill="url(#q)"/><linearGradient id="r" gradientUnits="userSpaceOnUse" x1="210.845" y1="529.825" x2="211.247" y2="529.825" gradientTransform="matrix(1 0 0 -1 0 700)"><stop offset=".006" stop-color="#27356e"/><stop offset=".227" stop-color="#252e66"/><stop offset=".541" stop-color="#222053"/><stop offset=".765" stop-color="#1e0f41"/><stop offset=".994" stop-color="#21102e"/></linearGradient><path d="M210.9 168c.1 1.5.3 2.9.4 4.4-.4-1.4-.5-2.9-.4-4.4z" fill="url(#r)"/><linearGradient id="s" gradientUnits="userSpaceOnUse" x1="212.71" y1="590.756" x2="235.166" y2="590.756" gradientTransform="matrix(1 0 0 -1 0 700)"><stop offset=".006" stop-color="#27356e"/><stop offset=".227" stop-color="#252e66"/><stop offset=".541" stop-color="#222053"/><stop offset=".765" stop-color="#1e0f41"/><stop offset=".994" stop-color="#21102e"/></linearGradient><path d="M235.1 61.6c-1.9 5.1-4.1 9.9-6.8 14.5 1.9-2.5 4-4.7 6.2-6.7-2.6 4.2-4.7 8.4-7 12.7 1.2-1.8 2.5-3.4 3.8-5.2-2.7 4.9-5.1 9.9-7.1 15.2 2.1-3 4.4-5.8 6.7-8.8-2.5 6.3-4.4 12.7-6 19.3 1.4-3.4 2.7-6.7 4.5-9.9-2.9 7.7-5.3 15.2-8.1 22.7.4-.8.8-1.6 1.4-2.5-3.8 14.5-7.1 29-10 43.8.8-21.6 3.4-43 7.8-64.1 3.8-10.7 8.8-21.1 14.6-31z" fill="url(#s)"/><linearGradient id="t" gradientUnits="userSpaceOnUse" x1="406.817" y1="745.345" x2="423.385" y2="745.345" gradientTransform="matrix(1 0 0 -1 0 700)"><stop offset=".006" stop-color="#27356e"/><stop offset=".227" stop-color="#252e66"/><stop offset=".541" stop-color="#222053"/><stop offset=".765" stop-color="#1e0f41"/><stop offset=".994" stop-color="#21102e"/></linearGradient><path d="M412.9-55.5c-.4-3.1-.3-6.3.7-9.3 2.6 11.1 4.2 22.6 4.4 34.1-.1-4.7.3-9 1.6-13.6.3 5.6.5 11.1 1 16.7.4-3.3 1.2-6 2.5-9-.1 6.6.1 13 .7 19.4-4.1-7.9-7.8-16.2-10.8-24.6-.4-1.4-.7-2.6-1.1-4-2.6-9-4.1-18.5-4.7-27.8 1.8 5.9 3.8 12 5.7 18.1z" fill="url(#t)"/><linearGradient id="u" gradientUnits="userSpaceOnUse" x1="114.971" y1="606.913" x2="180.011" y2="606.913" gradientTransform="matrix(1 0 0 -1 0 700)"><stop offset=".006" stop-color="#27356e"/><stop offset=".227" stop-color="#252e66"/><stop offset=".541" stop-color="#222053"/><stop offset=".765" stop-color="#1e0f41"/><stop offset=".994" stop-color="#21102e"/></linearGradient><path d="M160.9 84c-3.8 4-7.5 7.8-11.2 11.8 8.9-6.4 17.1-13.6 24.9-21.5-1 2.3-2.1 4.4-3.6 6.3 3.3-3.1 6.2-6.4 9-10-2.3 4-4.9 7.8-7.7 11.4-18.1 12.9-37.2 24.1-57.4 33.5 15.4-10.5 30.7-21 46-31.5z" fill="url(#u)"/><linearGradient id="v" gradientUnits="userSpaceOnUse" x1="98.489" y1="647.306" x2="179.001" y2="647.306" gradientTransform="matrix(1 0 0 -1 0 700)"><stop offset=".006" stop-color="#27356e"/><stop offset=".227" stop-color="#252e66"/><stop offset=".541" stop-color="#222053"/><stop offset=".765" stop-color="#1e0f41"/><stop offset=".994" stop-color="#21102e"/></linearGradient><path d="M98.5 70.4l.3-.3c9.2-5.3 18.5-10.7 27.7-16 11.2-6.4 22.5-12.9 34.6-17.3-2.7 2.6-5.8 4.9-8.9 7 3.6-2.1 7.1-3.8 11-5.5-2.1 1.9-4.1 3.7-6.2 5.6 5.3-3.4 10.8-6.4 16.7-8.9-1.4 1.5-2.7 2.7-4.5 3.6 3.1-1.5 6.4-2.6 9.9-3.4-.4.4-.8.8-1.4 1.2-25.4 13.6-51.6 25.6-79.2 34z" fill="url(#v)"/><linearGradient id="w" gradientUnits="userSpaceOnUse" x1="85.892" y1="703.571" x2="187.217" y2="703.571" gradientTransform="matrix(1 0 0 -1 0 700)"><stop offset=".006" stop-color="#27356e"/><stop offset=".227" stop-color="#252e66"/><stop offset=".541" stop-color="#222053"/><stop offset=".765" stop-color="#1e0f41"/><stop offset=".994" stop-color="#21102e"/></linearGradient><path d="M85.9 3.3l.8-.5c14-1.8 27.9-4.5 41.6-7.9-2.9 2.2-6 3.7-9.6 4.2 9.6-1.6 19-3.4 28.5-5.6-2.7 1.6-5.6 2.9-8.6 3.6 7-1.5 14-3 20.9-4.7-1.2 1-2.6 1.9-4.1 2.5 5.3-1.9 10.5-3.7 15.9-5.6-2.1 1-4 2.1-5.9 3.3 5.8-1.5 11.5-3.1 17-5.6-2.9 1.2-5.3 2.9-8.2 4.1 4.5-.1 8.8-1.1 13-2.6-12.2 7-26 8.5-39.3 12.7-2.1.7-4 1.4-6 1.9-18.8 3.3-37.7 4.4-56 .2z" fill="url(#w)"/><linearGradient id="x" gradientUnits="userSpaceOnUse" x1="138.231" y1="747.741" x2="201.627" y2="747.741" gradientTransform="matrix(1 0 0 -1 0 700)"><stop offset=".006" stop-color="#27356e"/><stop offset=".227" stop-color="#252e66"/><stop offset=".541" stop-color="#222053"/><stop offset=".765" stop-color="#1e0f41"/><stop offset=".994" stop-color="#21102e"/></linearGradient><path d="M159-48.6c-4.9.7-9.7 1.4-14.7 1.4 12.2-2.1 24.4-4 36.7-6.2-3.4 1.6-6.7 3.3-10 5.2 7.1-2.1 14.5-3.7 21.8-5.8-5.2 2.2-10.3 4.7-15.5 6.8 8.2-1.5 16.2-3 24.4-4.5-4.9 2.2-9.9 4.2-14.9 6.2-11.4 1.6-22.9 3-34.4 4 1.9-.7 3.8-1.2 5.8-1.9-6.7 0-13.3-.1-19.9-.1 7.2-.3 14.1-2.1 20.7-5.1z" fill="url(#x)"/><linearGradient id="y" gradientUnits="userSpaceOnUse" x1="137.697" y1="787.038" x2="195.979" y2="787.038" gradientTransform="matrix(1 0 0 -1 0 700)"><stop offset=".006" stop-color="#27356e"/><stop offset=".227" stop-color="#252e66"/><stop offset=".541" stop-color="#222053"/><stop offset=".765" stop-color="#1e0f41"/><stop offset=".994" stop-color="#21102e"/></linearGradient><path d="M147.9-88.2c6.8-.4 13.6-.7 20.4-1.1-2.7-.4-5.3-1.2-7.9-2.3 9.2 1.5 18.2 2.1 27.4 1.6-3.3 1.1-6.4 1.8-9.9 1.9 6 .1 11.9.1 18.1-.1-4.2 1.2-8.5 2.3-12.9 3.4-11.5 1-22.9 1.8-34.4 2.3-3.7-.8-7.5-1.8-11.2-2.6 9.2.5 18.2-.3 27.1-2.6-5.5.3-11.1.3-16.7-.5z" fill="url(#y)"/><linearGradient id="z" gradientUnits="userSpaceOnUse" x1="116.016" y1="819.763" x2="201.32" y2="819.763" gradientTransform="matrix(1 0 0 -1 0 700)"><stop offset=".006" stop-color="#27356e"/><stop offset=".227" stop-color="#252e66"/><stop offset=".541" stop-color="#222053"/><stop offset=".765" stop-color="#1e0f41"/><stop offset=".994" stop-color="#21102e"/></linearGradient><path d="M116-119.4c2.3-1.9 4.8-3.8 7.4-5.5 8.5 1.2 17 2.1 25.5 2.6l-7.8 2.1c11 .7 21.6 1.5 32.6 2.2-1.6.1-3.1.4-4.7.8 10.5.4 21.6.7 32.3 1-5.2.7-10.4 1.2-15.6 1.6-23.4-.9-46.7-2.5-69.7-4.8z" fill="url(#z)"/><linearGradient id="A" gradientUnits="userSpaceOnUse" x1="200.635" y1="878.504" x2="274.523" y2="878.504" gradientTransform="matrix(1 0 0 -1 0 700)"><stop offset=".006" stop-color="#27356e"/><stop offset=".227" stop-color="#252e66"/><stop offset=".541" stop-color="#222053"/><stop offset=".765" stop-color="#1e0f41"/><stop offset=".994" stop-color="#21102e"/></linearGradient><path d="M211.3-184c9 1.2 17.8 2.5 26.7 3.7-5.8-2.1-11.5-4.2-17.4-6.3 9.2 2.1 18.1 4 27.2 6-3.8-1.6-7.3-3.6-10.8-5.6 9.7 4.5 19.9 7.8 30.4 9.9-3.1-.3-6.4-.1-9.6.4 5.3 2.1 10.8 3.7 16.6 4.7-2.6.5-5.1.8-7.7 1-21.5-3.1-43-7.3-64.1-12-.7-.3-1.4-.5-2.1-.8 9.7 1.1 19.4 2.3 29.2 3.4-6.1-1.6-12.2-3.1-18.4-4.4z" fill="url(#A)"/><linearGradient id="B" gradientUnits="userSpaceOnUse" x1="231.508" y1="901.507" x2="291.344" y2="901.507" gradientTransform="matrix(1 0 0 -1 0 700)"><stop offset=".006" stop-color="#27356e"/><stop offset=".227" stop-color="#252e66"/><stop offset=".541" stop-color="#222053"/><stop offset=".765" stop-color="#1e0f41"/><stop offset=".994" stop-color="#21102e"/></linearGradient><path d="M231.4-202.7c3.7-2.3 7.5-4.2 11.6-6 8.9.7 17.9 1.5 26.8 2.2-3.7 1.4-7.3 2.1-11.1 2.6 5.9.8 11.8 1.4 17.7 1.9-4 0-7.8.3-11.8.3 6 1.4 11.9 2.3 17.9 2.9-3 .3-6 .4-9.2.3 4.5.7 8.9 1.4 13.4 2.2-2.3-.1-4.5-.1-6.8-.3 3.8.7 7.4 1.4 11.2 1.9-.8.1-1.5.3-2.3.4-18.9-2.6-38.1-5.4-57.4-8.4z" fill="url(#B)"/><linearGradient id="C" gradientUnits="userSpaceOnUse" x1="121.219" y1="751.438" x2="443.677" y2="751.438" gradientTransform="matrix(1 0 0 -1 0 700)"><stop offset="0" stop-color="#076793"/><stop offset="1" stop-color="#076e65"/></linearGradient><path d="M151.1-124.1c61.2-.4 122.5 1.2 183.6 4.9-5.3 8.2-10.7 16.4-16 24.6-65.9-4.8-132.1-2.7-197.4 6.2 64.8-7.4 130.1-8.1 194.8-2.2-3.8 6-7.8 11.9-11.6 17.9-.3.3-.4.7-.7 1-58.2 1.4-116.1 9-172.5 22.7C187.1-61.1 244-67.3 301-67.5c-3.8 5.9-7.8 11.8-11.6 17.7-54.6 12.7-108.6 27.5-162 44.4 52.4-15.2 105.3-28.3 158.7-39.4-3 4.5-6 9.2-9 13.7l-.1-.3c-46.5 23.6-92 49.2-136.2 76.6 43-25.1 87.1-48.5 132-70-4.7 7.1-14 20.3-14 20.3L152.3 85.7 253.4 4.9c-3 4.7-6.2 9.3-9.2 14 0 0-1 1.1-1.1 1.6-15.7 23.8-31.5 47.8-47.2 71.6 15.6-22.2 31.1-44.4 46.7-66.5-3.3 29.6-8.9 59-16.8 87.8 9.9-30.7 17.1-62.2 21.8-94.1 0 0 16.7-24.6 25.3-37 2.3 51.1 1 102.3-4.1 153.2 6.6-52.6 9.3-105.7 7.9-158.8 2.3-3.4 4.8-6.8 7.1-10.3 16.3 49.8 26.8 101.7 31.4 154.2-3.2-53.5-12.8-106.9-28.4-158.4 7.1-10.1 14.2-20.3 21.2-30.5 20.1 57.9 36 117.5 47.5 178C345.2 48 330.4-13 311-72.5c4.1-5.9 8.1-11.6 12.2-17.5 20.3 59.7 38.5 120.2 54.6 181.2C362.6 28.9 345.4-33 326.1-94.2c4.5-6.4 8.9-12.9 13.4-19.3C363.7-59.8 383-3.5 396.9 54c-12.7-58.6-31.1-116.2-54.6-171.6 4.5-6.4 8.9-12.9 13.3-19.3C382-91.4 402-42.1 414.3 9.2c-11.1-52.3-30.1-103-56.1-149.9 2.3-3.3 4.7-6.7 6.8-10l10.3-14.9 26.3 66.3L415.4-64c4.7 11.8 9 23.6 12.5 35.7-3.1-12.3-7.3-24.2-11.5-36.1L403.5-100l-25.2-69.7 14.4-20.9c18.8 37.4 35.7 75.6 51.1 114.5-14.2-40.1-30.4-79.7-48.3-118.4 3.8-5.8 7.8-11.5 11.6-17.3l6.8-10.3 6.7-10.4-9.6-5.8-6.3 10.4-6.6 10.4c-4.2 6.7-8.5 13.4-12.7 20.1-8.6.1-17.4-1.4-26.2-3.1-9.9-2.1-19.9-4-30-5.2-10-1.4-20.1-2.1-30.3-2.5-10.1-.3-20.3-.1-30.3.5 10.1-.3 20.3-.1 30.3.5 10.1.7 20.1 1.8 30 3.4 10 1.6 19.7 3.8 29.6 6.3 7.9 1.8 16 3.6 24.2 4l-12.5 19.4c-44.2-6.7-88.7-11.1-133.4-13.1 44 3.4 87.6 9 130.9 16.8l-9.7 15.1c-1.2 2.1-2.6 4-3.8 6-52.7-7.3-106-8.6-158.8-4.1 52.3-3.1 104.9-.4 156.4 7.9-4.9 7.5-9.7 14.9-14.7 22.5-61.8-2.6-124-2.9-186-1.1z" fill="url(#C)"/></g></g><g><defs><path id="D" d="M-151.8-50h605.6v990.9h-605.6z"/></defs><clipPath id="E"><use xlink:href="#D" overflow="visible"/></clipPath><g clip-path="url(#E)"><linearGradient id="F" gradientUnits="userSpaceOnUse" x1="353.17" y1="615.197" x2="436.831" y2="615.197" gradientTransform="matrix(1 0 0 -1 0 700)"><stop offset=".006" stop-color="#27356e"/><stop offset=".227" stop-color="#252e66"/><stop offset=".541" stop-color="#222053"/><stop offset=".765" stop-color="#1e0f41"/><stop offset=".994" stop-color="#21102e"/></linearGradient><path d="M436.8 38c-3.1 10.4-8.1 20-13.6 29.2-5.6 9.2-12 17.8-19.2 25.7-7.1 7.9-14.9 15.3-23.4 21.9-8.5 6.6-17.5 12.5-27.5 16.7 6.6-8.6 13.6-16.4 20.4-24.2l20.7-23.1L414.9 61c7-7.6 14-15.4 21.9-23z" fill="url(#F)"/><linearGradient id="G" gradientUnits="userSpaceOnUse" x1="350.705" y1="489.706" x2="425.74" y2="489.706" gradientTransform="matrix(1 0 0 -1 0 700)"><stop offset=".006" stop-color="#27356e"/><stop offset=".227" stop-color="#252e66"/><stop offset=".541" stop-color="#222053"/><stop offset=".765" stop-color="#1e0f41"/><stop offset=".994" stop-color="#21102e"/></linearGradient><path d="M425.7 168.3c-2.9 9.3-7.3 17.9-12.2 26.2-5.1 8.2-10.8 15.9-17.3 23.1-6.4 7.1-13.4 13.8-20.9 19.7-7.7 5.9-15.7 11.1-24.6 15.1 5.9-7.8 12.2-14.8 18.3-21.8l18.5-20.8 18.6-20.8c6.4-7 12.7-14 19.6-20.7z" fill="url(#G)"/><linearGradient id="H" gradientUnits="userSpaceOnUse" x1="351.513" y1="412.138" x2="405.624" y2="412.138" gradientTransform="matrix(1 0 0 -1 0 700)"><stop offset=".006" stop-color="#27356e"/><stop offset=".227" stop-color="#252e66"/><stop offset=".541" stop-color="#222053"/><stop offset=".765" stop-color="#1e0f41"/><stop offset=".994" stop-color="#21102e"/></linearGradient><path d="M405.6 257.5c-2.1 6.7-5.2 13-8.8 18.9-3.6 5.9-7.8 11.5-12.5 16.7-4.7 5.2-9.7 10-15.2 14.2-5.5 4.2-11.4 8.1-17.8 10.8 4.2-5.6 8.8-10.7 13.1-15.7l13.4-14.9 13.4-14.9c4.8-5.2 9.3-10.3 14.4-15.1z" fill="url(#H)"/><linearGradient id="I" gradientUnits="userSpaceOnUse" x1="350.307" y1="355.656" x2="386.843" y2="355.656" gradientTransform="matrix(1 0 0 -1 0 700)"><stop offset=".006" stop-color="#27356e"/><stop offset=".227" stop-color="#252e66"/><stop offset=".541" stop-color="#222053"/><stop offset=".765" stop-color="#1e0f41"/><stop offset=".994" stop-color="#21102e"/></linearGradient><path d="M385.8 310c2.1 6.8 1 14.2-1.1 20.7-2.1 6.6-5.1 12.6-8.2 18.2-3.1 5.6-6.7 11.1-10.8 16.3-4 5.1-8.9 10.7-15.5 13.6 2.5-6.6 4.1-12.5 6.4-18.6 2.3-6.2 5.2-12 8.4-17.7 3.1-5.8 6.8-11 10.3-16.2 3.6-5.2 7-10.2 10.5-16.3z" fill="url(#I)"/><linearGradient id="J" gradientUnits="userSpaceOnUse" x1="307.437" y1="751.095" x2="428.068" y2="751.095" gradientTransform="matrix(1 0 0 -1 0 700)"><stop offset=".006" stop-color="#27356e"/><stop offset=".227" stop-color="#252e66"/><stop offset=".541" stop-color="#222053"/><stop offset=".765" stop-color="#1e0f41"/><stop offset=".994" stop-color="#21102e"/></linearGradient><path d="M307.4-16.7c9.4-7.4 19.3-13.6 29.3-19.4 6.7-4 13.4-7.8 20.3-11.5 3.3-1.8 6.6-3.6 9.9-5.3l30.3-16.3c10.1-5.3 20.3-11 30.9-16.2-7.3 9.4-16 17.5-25.3 24.8-2.7 2.2-5.6 4.2-8.5 6.2-6.8 4.8-13.8 9-21.1 13-10.3 5.6-20.9 10.5-31.9 14.7-11 3.9-22.2 7.6-33.9 10z" fill="url(#J)"/><linearGradient id="K" gradientUnits="userSpaceOnUse" x1="307.437" y1="739.799" x2="400.409" y2="739.799" gradientTransform="matrix(1 0 0 -1 0 700)"><stop offset=".006" stop-color="#27356e"/><stop offset=".227" stop-color="#252e66"/><stop offset=".541" stop-color="#222053"/><stop offset=".765" stop-color="#1e0f41"/><stop offset=".994" stop-color="#21102e"/></linearGradient><path d="M307.4-16.7c9.4-7.4 19.3-13.6 29.3-19.4 6.7-4 13.4-7.8 20.3-11.5 6.4-2.1 12.7-5.1 19.3-6.7-11.5 7.9-23.1 15.9-34.5 23.8 6.8-4 13.7-7.9 20.5-12 9.4-5.5 19-10.8 27.4-17.9-3.1 2.5-5.9 5.2-8.6 8.2 6.8-2.6 13.4-6 19.3-10.5-1.9 2.9-4 5.8-6.2 8.5-6.8 4.8-13.8 9-21.1 13-10.3 5.6-20.9 10.5-31.9 14.7-10.9 3.7-22.1 7.4-33.8 9.8z" fill="url(#K)"/><linearGradient id="L" gradientUnits="userSpaceOnUse" x1="372.339" y1="649.292" x2="437.32" y2="649.292" gradientTransform="matrix(1 0 0 -1 0 700)"><stop offset=".006" stop-color="#27356e"/><stop offset=".227" stop-color="#252e66"/><stop offset=".541" stop-color="#222053"/><stop offset=".765" stop-color="#1e0f41"/><stop offset=".994" stop-color="#21102e"/></linearGradient><path d="M372.3 95.1c4.2-8.8 9.3-16.6 14.7-24.1 3.6-5.1 7.3-10 11-14.9 1.8-2.3 3.6-4.8 5.3-7.1L420 27.6c5.6-7.1 11.2-14.4 17.3-21.4-1.8 10.1-5.3 19.4-9.6 27.9-1.2 2.6-2.6 5.1-4.1 7.5-3.3 5.8-7 11.2-11 16.4-5.6 7.4-11.9 14.1-18.6 20.3-6.6 6.3-13.6 12-21.7 16.8z" fill="url(#L)"/><linearGradient id="M" gradientUnits="userSpaceOnUse" x1="372.393" y1="636.078" x2="425.109" y2="636.078" gradientTransform="matrix(1 0 0 -1 0 700)"><stop offset=".006" stop-color="#27356e"/><stop offset=".227" stop-color="#252e66"/><stop offset=".541" stop-color="#222053"/><stop offset=".765" stop-color="#1e0f41"/><stop offset=".994" stop-color="#21102e"/></linearGradient><path d="M372.3 95.1c4.2-8.8 9.3-16.6 14.7-24.1 3.6-5.1 7.3-10 11-14.9 4.1-3.3 7.7-7.4 12-10.4-5.6 9.7-11.4 19.4-17 29.2 3.7-5.2 7.4-10.3 11-15.3 5.1-7.1 10.3-14 13.8-22.3-1.4 3-2.5 6-3.3 9.3 4.2-3.8 7.8-8.5 10.5-13.8-.4 3-.8 6-1.4 9-3.3 5.8-7 11.2-11 16.4-5.6 7.4-11.9 14.1-18.6 20.3-6.6 6.1-13.6 11.8-21.7 16.6z" fill="url(#M)"/><linearGradient id="N" gradientUnits="userSpaceOnUse" x1="349.747" y1="441.645" x2="417.661" y2="441.645" gradientTransform="matrix(1 0 0 -1 0 700)"><stop offset=".006" stop-color="#27356e"/><stop offset=".227" stop-color="#252e66"/><stop offset=".541" stop-color="#222053"/><stop offset=".765" stop-color="#1e0f41"/><stop offset=".994" stop-color="#21102e"/></linearGradient><path d="M349.7 304.8c4.4-9.2 9.9-17.3 15.3-25.2 3.7-5.3 7.5-10.4 11.4-15.6 1.9-2.5 3.7-4.9 5.6-7.4l17.5-22.3c5.9-7.4 11.6-14.9 18.1-22.3-1.9 10.7-5.6 20.3-10 29.3-1.4 2.7-2.7 5.3-4.2 7.8-3.4 6-7.4 11.8-11.5 17.1-5.9 7.7-12.5 14.8-19.4 21.2-7 6.4-14.4 12.4-22.8 17.4z" fill="url(#N)"/><linearGradient id="O" gradientUnits="userSpaceOnUse" x1="349.808" y1="427.747" x2="404.852" y2="427.747" gradientTransform="matrix(1 0 0 -1 0 700)"><stop offset=".006" stop-color="#27356e"/><stop offset=".227" stop-color="#252e66"/><stop offset=".541" stop-color="#222053"/><stop offset=".765" stop-color="#1e0f41"/><stop offset=".994" stop-color="#21102e"/></linearGradient><path d="M349.7 304.8c4.4-9.2 9.9-17.3 15.3-25.2 3.7-5.3 7.5-10.4 11.4-15.6 4.2-3.4 8.1-7.7 12.6-10.8-5.9 10.1-11.9 20.4-17.8 30.5 3.8-5.3 7.7-10.7 11.5-16 5.3-7.4 10.7-14.7 14.4-23.3-1.5 3.1-2.6 6.3-3.4 9.7 4.5-4 8.2-8.9 11.1-14.4-.4 3.1-.8 6.3-1.4 9.4-3.4 6-7.4 11.8-11.5 17.1-5.9 7.7-12.5 14.8-19.4 21.2-7 6.4-14.4 12.4-22.8 17.4z" fill="url(#O)"/><linearGradient id="P" gradientUnits="userSpaceOnUse" x1="321.54" y1="705.089" x2="432.312" y2="705.089" gradientTransform="matrix(1 0 0 -1 0 700)"><stop offset=".006" stop-color="#27356e"/><stop offset=".227" stop-color="#252e66"/><stop offset=".541" stop-color="#222053"/><stop offset=".765" stop-color="#1e0f41"/><stop offset=".994" stop-color="#21102e"/></linearGradient><path d="M321.5 46.7c8.1-10.3 17.1-19.3 26.2-28.1C353.9 12.7 360 7 366.3 1.2c3-2.7 6-5.5 9.2-8.2l28.1-24.9c9.4-8.2 18.8-16.7 28.8-24.9-5.3 11.9-12.6 22.6-20.7 32.6-2.5 3-4.9 5.9-7.5 8.8-6 6.7-12.5 13-19.2 19-9.4 8.6-19.6 16.4-30.1 23.7-10.8 7.3-21.6 13.9-33.4 19.4z" fill="url(#P)"/><linearGradient id="Q" gradientUnits="userSpaceOnUse" x1="321.54" y1="689.616" x2="408.481" y2="689.616" gradientTransform="matrix(1 0 0 -1 0 700)"><stop offset=".006" stop-color="#27356e"/><stop offset=".227" stop-color="#252e66"/><stop offset=".541" stop-color="#222053"/><stop offset=".765" stop-color="#1e0f41"/><stop offset=".994" stop-color="#21102e"/></linearGradient><path d="M321.5 46.7c8.1-10.3 17.1-19.3 26.2-28.1C353.9 12.7 360 7 366.3 1.2c6.3-3.8 12.2-8.6 18.8-12-10.1 11.4-20.5 22.7-30.7 34 6.3-6 12.6-11.9 18.9-17.9 8.8-8.2 17.4-16.3 24.5-25.9-2.6 3.4-4.9 7-7 10.8 6.7-4.5 12.7-9.9 17.8-16-1.4 3.6-2.9 7.1-4.4 10.5-6 6.7-12.5 13-19.2 19-9.4 8.6-19.6 16.4-30.1 23.7-10.8 7.2-21.6 13.8-33.4 19.3z" fill="url(#Q)"/><linearGradient id="R" gradientUnits="userSpaceOnUse" x1="308.395" y1="733.311" x2="432.175" y2="733.311" gradientTransform="matrix(1 0 0 -1 0 700)"><stop offset=".006" stop-color="#27356e"/><stop offset=".227" stop-color="#252e66"/><stop offset=".541" stop-color="#222053"/><stop offset=".765" stop-color="#1e0f41"/><stop offset=".994" stop-color="#21102e"/></linearGradient><path d="M308.4-51c11 1.6 21.5 4.4 31.8 7.1 10.3 2.9 20.4 5.8 30.5 8.8 3.8 1.1 7.7 2.2 11.5 3.3 6.3 1.8 12.5 3.4 18.8 5.1 10.1 2.7 20.5 4.9 31.2 7.7-10.7 3.1-21.9 3.8-32.9 3.1-5.3-.3-10.5-1-15.7-1.8-5.6-1-11.2-2.2-16.7-3.8-10.5-3-20.8-7-30.5-11.9-9.9-5-19.2-10.6-28-17.6z" fill="url(#R)"/><linearGradient id="S" gradientUnits="userSpaceOnUse" x1="324.689" y1="729.135" x2="432.312" y2="729.135" gradientTransform="matrix(1 0 0 -1 0 700)"><stop offset=".006" stop-color="#27356e"/><stop offset=".227" stop-color="#252e66"/><stop offset=".541" stop-color="#222053"/><stop offset=".765" stop-color="#1e0f41"/><stop offset=".994" stop-color="#21102e"/></linearGradient><path d="M359.3-32.5c12.7 3.8 25.7 7.7 39 9.2-5.5-2.7-10.8-5.5-16-8.6 6.3 1.8 12.5 3.4 18.8 5.1 10.1 2.7 20.5 4.9 31.2 7.7-10.7 3.1-21.9 3.8-32.9 3.1-5.3-.3-10.5-1-15.7-1.8 5.2-.1 10.3-1 15.5-1.6-2.5-.5-4.7-1-7.1-1.6-22.9-5.8-46-11.5-67.4-21.4 11.4 3.4 23.1 6.6 34.6 9.9z" fill="url(#S)"/><linearGradient id="T" gradientUnits="userSpaceOnUse" x1="307.163" y1="775.428" x2="425.329" y2="775.428" gradientTransform="matrix(1 0 0 -1 0 700)"><stop offset=".006" stop-color="#27356e"/><stop offset=".227" stop-color="#252e66"/><stop offset=".541" stop-color="#222053"/><stop offset=".765" stop-color="#1e0f41"/><stop offset=".994" stop-color="#21102e"/></linearGradient><path d="M307.2-51c9.7-5.3 19.7-9.4 29.7-13.4 9.9-4 19.7-7.7 29.6-11.4 3.7-1.5 7.4-2.9 11.2-4.4 6-2.3 12-4.8 18.1-7.3 9.7-4 19.3-8.4 29.6-12.6-6.7 8.9-15.2 16.2-24.4 22.3-4.4 3-9 5.6-13.7 8.1-5.1 2.6-10.4 4.9-15.7 7-10.3 4-20.8 6.8-31.6 8.9-10.8 2-21.7 3.3-32.8 2.8z" fill="url(#T)"/><linearGradient id="U" gradientUnits="userSpaceOnUse" x1="325.237" y1="776.906" x2="425.329" y2="776.906" gradientTransform="matrix(1 0 0 -1 0 700)"><stop offset=".006" stop-color="#27356e"/><stop offset=".227" stop-color="#252e66"/><stop offset=".541" stop-color="#222053"/><stop offset=".765" stop-color="#1e0f41"/><stop offset=".994" stop-color="#21102e"/></linearGradient><path d="M358.9-66.8c12.5-4.7 25.1-9.4 36.7-16.2-6 1.2-11.9 2.2-17.9 2.9 6-2.3 12-4.8 18.1-7.3 9.7-4 19.3-8.4 29.6-12.6-6.7 8.9-15.2 16.2-24.4 22.3-4.4 3-9 5.6-13.7 8.1 4-3.3 7.7-7 11.4-10.7-2.3 1-4.4 2.1-6.7 3-21.6 9.2-43.5 18.5-66.7 23.4 11.2-4.2 22.4-8.7 33.6-12.9z" fill="url(#U)"/><linearGradient id="V" gradientUnits="userSpaceOnUse" x1="321.677" y1="655.179" x2="436.146" y2="655.179" gradientTransform="matrix(1 0 0 -1 0 700)"><stop offset=".006" stop-color="#27356e"/><stop offset=".227" stop-color="#252e66"/><stop offset=".541" stop-color="#222053"/><stop offset=".765" stop-color="#1e0f41"/><stop offset=".994" stop-color="#21102e"/></linearGradient><path d="M321.7 92.8c9-9.3 18.8-17.4 28.3-25.3 9.7-7.8 19.3-15.5 29-23 3.7-2.9 7.3-5.8 11-8.8 5.9-4.8 11.8-9.6 17.5-14.4 9.4-7.8 18.6-16 28.6-24.5-4.4 12.3-11.2 23.4-19.3 33.4-3.8 4.8-8.1 9.4-12.5 13.7-4.8 4.7-9.9 9.2-15.1 13.3-10 8.1-20.8 14.9-32 20.9-11.3 6.1-22.9 11.2-35.5 14.7z" fill="url(#V)"/><linearGradient id="W" gradientUnits="userSpaceOnUse" x1="340.82" y1="660.04" x2="436.133" y2="660.04" gradientTransform="matrix(1 0 0 -1 0 700)"><stop offset=".006" stop-color="#27356e"/><stop offset=".227" stop-color="#252e66"/><stop offset=".541" stop-color="#222053"/><stop offset=".765" stop-color="#1e0f41"/><stop offset=".994" stop-color="#21102e"/></linearGradient><path d="M373.8 57.1c12.3-9.6 24.6-19.2 35.2-30.8-6.3 3.4-12.6 6.6-19 9.4 5.9-4.8 11.8-9.6 17.5-14.4 9.4-7.8 18.6-16 28.6-24.5-4.4 12.3-11.2 23.4-19.3 33.4-3.8 4.8-8.1 9.4-12.5 13.7 3.3-5.1 6.2-10.4 8.9-15.9-2.2 1.9-4.1 3.7-6.4 5.6-20.9 17.8-42.2 35.9-66.1 49.4 11.1-8.4 22.2-17.4 33.1-25.9z" fill="url(#W)"/><linearGradient id="X" gradientUnits="userSpaceOnUse" x1="331.946" y1="658.534" x2="435.734" y2="658.534" gradientTransform="matrix(1 0 0 -1 0 700)"><stop offset=".006" stop-color="#27356e"/><stop offset=".227" stop-color="#252e66"/><stop offset=".541" stop-color="#222053"/><stop offset=".765" stop-color="#1e0f41"/><stop offset=".994" stop-color="#21102e"/></linearGradient><path d="M331.9 42.8c8.9-2.5 17.7-3.6 26.3-4.4 8.6-.8 17.3-1.5 25.7-1.9l4.1-.3 21.5-1.4c8.5-.5 17.1-1.4 26.3-1.9-5.8 4.5-12.2 7.7-18.9 10.1-1.8.7-3.6 1.4-5.5 1.9-8.6 2.6-17.7 4-26.6 4.7-8.9.5-17.9.3-26.7-.8-8.8-1.2-17.5-3-26.2-6z" fill="url(#X)"/><linearGradient id="Y" gradientUnits="userSpaceOnUse" x1="345.502" y1="660.383" x2="435.736" y2="660.383" gradientTransform="matrix(1 0 0 -1 0 700)"><stop offset=".006" stop-color="#27356e"/><stop offset=".227" stop-color="#252e66"/><stop offset=".541" stop-color="#222053"/><stop offset=".765" stop-color="#1e0f41"/><stop offset=".994" stop-color="#21102e"/></linearGradient><path d="M345.5 45.2c4.9-.4 9.7-.5 14.7-.5 3.8 0 7.5.1 11.2.1 15.7 0 31.5-1.9 46.7-5.6-3.3 0-6.4-1.2-9.7-1.2 1.4-.3 2.9-.5 4.2-.8-8.2.5-16.4-.7-24.6-.8l21.5-1.4c8.5-.5 17.1-1.4 26.3-1.9-5.8 4.5-12.2 7.7-18.9 10.1 1.4-1.1 2.7-2.2 4-3.4-9 2.6-17.4 5.3-26.8 6.2-3.4.3-6.8.4-10.3.4-12.8-.1-25.6-.6-38.3-1.2z" fill="url(#Y)"/><linearGradient id="Z" gradientUnits="userSpaceOnUse" x1="350.568" y1="586.238" x2="435.872" y2="586.238" gradientTransform="matrix(1 0 0 -1 0 700)"><stop offset=".006" stop-color="#27356e"/><stop offset=".227" stop-color="#252e66"/><stop offset=".541" stop-color="#222053"/><stop offset=".765" stop-color="#1e0f41"/><stop offset=".994" stop-color="#21102e"/></linearGradient><path d="M350.6 143.7c6.4-6.4 13.6-11.8 20.7-16.8 7.1-5.1 14.2-9.9 21.4-14.5l3.4-2.2L414 98.4c7.1-4.7 14.1-9.6 21.9-14.7-2.7 6.7-6.7 12.7-11.4 18.2-1.2 1.5-2.5 2.9-3.8 4.2-6.3 6.6-13.3 12.3-20.8 17.1-7.5 4.9-15.5 9-23.6 12.5-8.3 3.5-16.7 6.4-25.7 8z" fill="url(#Z)"/><linearGradient id="aa" gradientUnits="userSpaceOnUse" x1="363.576" y1="588.634" x2="435.863" y2="588.634" gradientTransform="matrix(1 0 0 -1 0 700)"><stop offset=".006" stop-color="#27356e"/><stop offset=".227" stop-color="#252e66"/><stop offset=".541" stop-color="#222053"/><stop offset=".765" stop-color="#1e0f41"/><stop offset=".994" stop-color="#21102e"/></linearGradient><path d="M363.6 139.1c4.1-2.7 8.2-5.3 12.5-7.8 3.3-1.9 6.6-3.6 9.9-5.5 13.7-7.8 26.4-17.3 37.8-28.1-2.9 1.6-6.2 2.1-9 3.7 1.1-1 2.2-1.9 3.3-2.9-6.8 4.5-14.5 7.5-21.8 11.5l17.9-11.8c7.1-4.7 14.1-9.6 21.9-14.7-2.7 6.7-6.7 12.7-11.4 18.2.7-1.6 1.2-3.3 1.8-4.9-6.4 6.7-12.5 13.3-20.3 18.6-2.9 1.9-5.8 3.7-8.8 5.5-11.2 6.4-22.5 12.4-33.8 18.2z" fill="url(#aa)"/><linearGradient id="ab" gradientUnits="userSpaceOnUse" x1="344.817" y1="684.618" x2="435.625" y2="684.618" gradientTransform="matrix(1 0 0 -1 0 700)"><stop offset=".006" stop-color="#27356e"/><stop offset=".227" stop-color="#252e66"/><stop offset=".541" stop-color="#222053"/><stop offset=".765" stop-color="#1e0f41"/><stop offset=".994" stop-color="#21102e"/></linearGradient><path d="M344.8 50c6.6-7.7 13.7-14.2 20.8-20.4 6.3-5.5 12.7-10.7 19.2-15.7.8-.7 1.8-1.4 2.6-2.1 7.4-5.6 15.1-11.1 22.9-16.3 7.9-5.2 16-10.3 25.2-14.7-4.4 9.2-10.1 17.1-16.6 24.4-1 1-1.8 2.1-2.7 3-5.8 6.2-12 11.6-18.6 16.8-7.7 5.9-16 11.1-24.8 15.3-8.8 4.5-18 8-28 9.7z" fill="url(#ab)"/><linearGradient id="ac" gradientUnits="userSpaceOnUse" x1="384.799" y1="701.392" x2="435.6" y2="701.392" gradientTransform="matrix(1 0 0 -1 0 700)"><stop offset=".006" stop-color="#27356e"/><stop offset=".227" stop-color="#252e66"/><stop offset=".541" stop-color="#222053"/><stop offset=".765" stop-color="#1e0f41"/><stop offset=".994" stop-color="#21102e"/></linearGradient><path d="M384.8 13.8c.8-.7 1.8-1.4 2.6-2.1 7.4-5.6 15.1-11.1 22.9-16.3 7.9-5.2 16-10.3 25.2-14.7-4.4 9.2-10.1 17.1-16.6 24.4-1 1-1.8 2.1-2.7 3 1.1-2.9 2.1-5.6 3-8.5-3.6 4.2-7.4 7.8-11.9 11.1 2.9-2.7 5.2-5.3 7.4-8.6-6.7 5.8-14 10-21.8 14.2 5.9-5.5 12-10.7 18.2-15.9-2.9 1-5.5 2.1-8.2 3.6-5.9 3.4-12.1 6.7-18.1 9.8z" fill="url(#ac)"/><linearGradient id="ad" gradientUnits="userSpaceOnUse" x1="347.693" y1="518.734" x2="428.62" y2="518.734" gradientTransform="matrix(1 0 0 -1 0 700)"><stop offset=".006" stop-color="#27356e"/><stop offset=".227" stop-color="#252e66"/><stop offset=".541" stop-color="#222053"/><stop offset=".765" stop-color="#1e0f41"/><stop offset=".994" stop-color="#21102e"/></linearGradient><path d="M347.7 209.7c5.9-6.3 12.2-11.6 18.6-16.7 5.6-4.5 11.4-8.8 17.1-12.9.8-.5 1.6-1.1 2.3-1.6 6.6-4.7 13.4-9.2 20.4-13.6 7-4.4 14.2-8.6 22.3-12.2-4 7.4-9.3 13.8-15.1 19.9l-2.5 2.5c-5.2 5.1-10.8 9.6-16.7 13.8-6.8 4.8-14.2 9.2-22 12.9-7.6 3.4-15.6 6.4-24.4 7.9z" fill="url(#ad)"/><linearGradient id="ae" gradientUnits="userSpaceOnUse" x1="383.43" y1="532.563" x2="428.573" y2="532.563" gradientTransform="matrix(1 0 0 -1 0 700)"><stop offset=".006" stop-color="#27356e"/><stop offset=".227" stop-color="#252e66"/><stop offset=".541" stop-color="#222053"/><stop offset=".765" stop-color="#1e0f41"/><stop offset=".994" stop-color="#21102e"/></linearGradient><path d="M383.4 180.2c.8-.5 1.6-1.1 2.3-1.6 6.6-4.7 13.4-9.2 20.4-13.6 7-4.4 14.2-8.6 22.3-12.2-4 7.4-9.3 13.8-15.1 19.9l-2.5 2.5c1-2.3 1.9-4.5 2.7-6.8-3.1 3.4-6.7 6.4-10.7 9 2.5-2.2 4.7-4.4 6.7-7.1-6 4.8-12.5 8.2-19.3 11.9 5.3-4.5 10.7-8.8 16.3-13-2.6.8-4.8 1.8-7.3 3-5.1 2.5-10.4 5.2-15.8 8z" fill="url(#ae)"/><linearGradient id="af" gradientUnits="userSpaceOnUse" x1="323.594" y1="730.831" x2="428.341" y2="730.831" gradientTransform="matrix(1 0 0 -1 0 700)"><stop offset=".006" stop-color="#27356e"/><stop offset=".227" stop-color="#252e66"/><stop offset=".541" stop-color="#222053"/><stop offset=".765" stop-color="#1e0f41"/><stop offset=".994" stop-color="#21102e"/></linearGradient><path d="M323.6 9c7.5-8.9 15.7-16.4 24-23.6 7.3-6.3 14.7-12.3 22.2-18.1 1-.8 2.1-1.5 3-2.3 8.6-6.6 17.4-12.9 26.4-18.9 9.2-6 18.5-11.9 29.2-16.8-4.9 10.5-11.8 19.7-19.2 28.2-1.1 1.1-2.1 2.3-3.1 3.4-6.6 7.1-13.8 13.6-21.5 19.4C375.7-12.9 366.1-7 356-1.9 345.8 3 335.1 7.1 323.6 9z" fill="url(#af)"/><linearGradient id="ag" gradientUnits="userSpaceOnUse" x1="369.738" y1="750.137" x2="428.341" y2="750.137" gradientTransform="matrix(1 0 0 -1 0 700)"><stop offset=".006" stop-color="#27356e"/><stop offset=".227" stop-color="#252e66"/><stop offset=".541" stop-color="#222053"/><stop offset=".765" stop-color="#1e0f41"/><stop offset=".994" stop-color="#21102e"/></linearGradient><path d="M369.7-32.6c1-.8 2.1-1.5 3-2.3 8.6-6.6 17.4-12.9 26.4-18.9 9.2-6 18.5-11.9 29.2-16.8-4.9 10.5-11.8 19.7-19.2 28.2-1.1 1.1-2.1 2.3-3.1 3.4 1.2-3.3 2.5-6.6 3.4-9.9-4.1 4.9-8.6 9-13.8 12.7 3.3-3.1 6-6.3 8.5-10-7.8 6.7-16.2 11.5-25.1 16.6 6.8-6.4 13.8-12.3 21.1-18.2-3.3 1.1-6.3 2.5-9.4 4.1-7 3.6-14 7.3-21 11.1z" fill="url(#ag)"/><g><linearGradient id="ah" gradientUnits="userSpaceOnUse" x1="353.717" y1="468.003" x2="420.674" y2="468.003" gradientTransform="matrix(1 0 0 -1 0 700)"><stop offset=".006" stop-color="#27356e"/><stop offset=".227" stop-color="#252e66"/><stop offset=".541" stop-color="#222053"/><stop offset=".765" stop-color="#1e0f41"/><stop offset=".994" stop-color="#21102e"/></linearGradient><path d="M353.7 266.3c4.2-7.4 9.4-13.8 14.8-19.9 5.5-6 11.2-11.6 17.3-17 1.4-1.2 2.7-2.3 4.1-3.4 4.8-4 9.7-7.7 14.1-11.5 5.8-4.8 11-10.7 16.7-16.8-.8 8.4-4 16.7-9 23.8-2.6 3.6-5.3 6.7-8.4 9.7-2.9 2.9-5.9 5.6-8.9 8.4-6 5.3-12.5 10.3-19.2 14.9-6.6 4.3-13.7 8.5-21.5 11.8z" fill="url(#ah)"/><linearGradient id="ai" gradientUnits="userSpaceOnUse" x1="373.485" y1="475.602" x2="420.724" y2="475.602" gradientTransform="matrix(1 0 0 -1 0 700)"><stop offset=".006" stop-color="#27356e"/><stop offset=".227" stop-color="#252e66"/><stop offset=".541" stop-color="#222053"/><stop offset=".765" stop-color="#1e0f41"/><stop offset=".994" stop-color="#21102e"/></linearGradient><path d="M398.2 222.5c-5.3 5.6-11 10.8-16.8 15.9 2.9-4.1 5.8-8.2 8.5-12.5 4.8-4 9.7-7.7 14.1-11.5 5.8-4.8 11-10.7 16.7-16.8-.8 8.4-4 16.7-9 23.8-2.6 3.6-5.3 6.7-8.4 9.7 1.4-3.1 3-6.4 3.8-9.7-2.9 4.2-6.3 8.1-10.1 11.6 2.1-3.3 4-6.6 6-9.9.4-.7.8-1.4 1-2.1-8.5 11.6-18.9 21.8-30.5 30.1 8.2-9.6 16.5-18.9 24.7-28.6z" fill="url(#ai)"/></g><g><linearGradient id="aj" gradientUnits="userSpaceOnUse" x1="350.021" y1="564.261" x2="434.777" y2="564.261" gradientTransform="matrix(1 0 0 -1 0 700)"><stop offset=".006" stop-color="#27356e"/><stop offset=".227" stop-color="#252e66"/><stop offset=".541" stop-color="#222053"/><stop offset=".765" stop-color="#1e0f41"/><stop offset=".994" stop-color="#21102e"/></linearGradient><path d="M350 179.2c5.3-9.3 11.9-17.4 18.8-25.2 6.8-7.7 14.1-14.8 21.8-21.5 1.6-1.5 3.4-3 5.2-4.4 6-5.1 12.2-9.7 17.8-14.5 7.3-6 13.8-13.6 21.2-21.4-1.1 10.7-5.1 21.1-11.5 30.1-3.3 4.5-6.8 8.5-10.5 12.2-3.7 3.7-7.5 7.1-11.2 10.5-7.7 6.7-15.7 13-24.2 18.9-8.5 5.7-17.4 11.2-27.4 15.3z" fill="url(#aj)"/><linearGradient id="ak" gradientUnits="userSpaceOnUse" x1="375.057" y1="573.846" x2="434.77" y2="573.846" gradientTransform="matrix(1 0 0 -1 0 700)"><stop offset=".006" stop-color="#27356e"/><stop offset=".227" stop-color="#252e66"/><stop offset=".541" stop-color="#222053"/><stop offset=".765" stop-color="#1e0f41"/><stop offset=".994" stop-color="#21102e"/></linearGradient><path d="M406.3 123.8c-6.7 7.1-14 13.7-21.4 20.1 3.7-5.2 7.3-10.4 10.7-15.7 6-5.1 12.2-9.7 17.8-14.5 7.3-6 13.8-13.6 21.2-21.4-1.1 10.7-5.1 21.1-11.5 30.1-3.3 4.5-6.8 8.5-10.5 12.2 1.8-4.1 3.8-8.1 4.9-12.3-3.7 5.3-7.9 10.3-12.7 14.7 2.6-4.1 5.1-8.2 7.7-12.5.5-.8 1.1-1.6 1.1-2.6-10.8 14.7-23.8 27.7-38.7 38.2 10.6-12.2 21-24.2 31.4-36.3z" fill="url(#ak)"/></g><g><linearGradient id="al" gradientUnits="userSpaceOnUse" x1="361.385" y1="442.398" x2="412.595" y2="442.398" gradientTransform="matrix(1 0 0 -1 0 700)"><stop offset=".006" stop-color="#27356e"/><stop offset=".227" stop-color="#252e66"/><stop offset=".541" stop-color="#222053"/><stop offset=".765" stop-color="#1e0f41"/><stop offset=".994" stop-color="#21102e"/></linearGradient><path d="M361.4 283.8c3.3-5.6 7.1-10.5 11.4-15.2 4.1-4.7 8.5-8.9 13.1-13 1-1 2.1-1.8 3.1-2.6 3.7-3 7.4-5.9 10.8-8.8 4.4-3.7 8.4-8.2 12.7-12.9-.7 6.4-3 12.7-7 18.2-1.9 2.7-4.1 5.1-6.3 7.4-2.2 2.2-4.5 4.4-6.7 6.3-4.7 4.1-9.4 7.8-14.7 11.4-5 3.5-10.4 6.8-16.4 9.2z" fill="url(#al)"/><linearGradient id="am" gradientUnits="userSpaceOnUse" x1="376.447" y1="448.08" x2="412.521" y2="448.08" gradientTransform="matrix(1 0 0 -1 0 700)"><stop offset=".006" stop-color="#27356e"/><stop offset=".227" stop-color="#252e66"/><stop offset=".541" stop-color="#222053"/><stop offset=".765" stop-color="#1e0f41"/><stop offset=".994" stop-color="#21102e"/></linearGradient><path d="M395.3 250.3c-4.1 4.4-8.4 8.4-12.9 12.2 2.2-3.1 4.4-6.3 6.4-9.4 3.7-3 7.4-5.9 10.8-8.8 4.4-3.7 8.4-8.2 12.7-12.9-.7 6.4-3 12.7-7 18.2-1.9 2.7-4.1 5.1-6.3 7.4 1.1-2.5 2.3-4.9 3-7.4-2.2 3.3-4.8 6.2-7.7 8.9 1.5-2.5 3-4.9 4.7-7.5.3-.5.7-1 .7-1.5-6.6 8.9-14.4 16.7-23.4 23 6.4-7.7 12.7-14.8 19-22.2z" fill="url(#am)"/></g><g><linearGradient id="an" gradientUnits="userSpaceOnUse" x1="341.531" y1="545.018" x2="428.159" y2="545.018" gradientTransform="matrix(1 0 0 -1 0 700)"><stop offset=".006" stop-color="#27356e"/><stop offset=".227" stop-color="#252e66"/><stop offset=".541" stop-color="#222053"/><stop offset=".765" stop-color="#1e0f41"/><stop offset=".994" stop-color="#21102e"/></linearGradient><path d="M341.5 152.2c7.7-.7 14.4-2.1 21.8-2.9 7.3-.8 14.5-1.1 21.9-1 4 0 7.9.3 11.8.7 3.3.3 6.4.5 9.7.8 7 .7 13.8 1.1 21.6 1-5.8 5.2-13.6 7.9-21.1 9.3-.5.1-1 .1-1.5.3-7.1 1.1-14 1.2-20.8 1.1-7.3-.1-14.5-.7-21.8-1.9-7.2-1.1-15.3-2.7-21.6-7.4z" fill="url(#an)"/><linearGradient id="ao" gradientUnits="userSpaceOnUse" x1="354.539" y1="545.229" x2="428.205" y2="545.229" gradientTransform="matrix(1 0 0 -1 0 700)"><stop offset=".006" stop-color="#27356e"/><stop offset=".227" stop-color="#252e66"/><stop offset=".541" stop-color="#222053"/><stop offset=".765" stop-color="#1e0f41"/><stop offset=".994" stop-color="#21102e"/></linearGradient><path d="M354.5 156.2c3.8.3 7.7-.3 11.5-.4 4.8-.3 9.6-.5 14.4-1 8.1-.5 16.3-1.1 24.4-1.5-4.5.1-8.9-1-13.3-2.2.7-.3 1.2-.1 1.9-.1 2.9-.1 5.8 0 8.6 0-.8 0-1.6-.3-2.5-.7-1-.4-1.8-.7-2.7-1.2 3.3.3 6.4.5 9.7.8 7 .7 13.8 1.1 21.6 1-5.8 5.2-13.6 7.9-21.1 9.3-.5.1-1 .1-1.5.3 1.8-.7 3.4-1.4 5.1-2.3-3.8.5-7.5.8-11.5 1.2 1.6-.4 3.1-1.1 4.8-1.5 1.4-.4 2.9-.8 4.1-1.5-17.6 1.6-35.7 1.6-53.5-.2z" fill="url(#ao)"/></g><g><linearGradient id="ap" gradientUnits="userSpaceOnUse" x1="346.05" y1="611.27" x2="435.741" y2="611.27" gradientTransform="matrix(1 0 0 -1 0 700)"><stop offset=".006" stop-color="#27356e"/><stop offset=".227" stop-color="#252e66"/><stop offset=".541" stop-color="#222053"/><stop offset=".765" stop-color="#1e0f41"/><stop offset=".994" stop-color="#21102e"/></linearGradient><path d="M346 113.1c7.8-4.9 14.2-9.9 21.5-14.7 7.3-4.8 14.8-9 22.3-12.9 4.1-2.2 8.4-4.1 12.5-5.9 3.6-1.5 7-3 10.4-4.5 7.5-3.3 14.8-6.6 22.9-11-4 8.1-11.1 14.9-18.3 20.3-.5.4-1 .7-1.4 1-7 4.9-14.1 8.9-21.2 12.5-7.7 3.8-15.5 7.3-23.4 10.3-7.7 3-16.8 5.8-25.3 4.9z" fill="url(#ap)"/><linearGradient id="aq" gradientUnits="userSpaceOnUse" x1="361.111" y1="612.87" x2="435.748" y2="612.87" gradientTransform="matrix(1 0 0 -1 0 700)"><stop offset=".006" stop-color="#27356e"/><stop offset=".227" stop-color="#252e66"/><stop offset=".541" stop-color="#222053"/><stop offset=".765" stop-color="#1e0f41"/><stop offset=".994" stop-color="#21102e"/></linearGradient><path d="M361.1 109.8c4.1-1.8 7.9-4.4 11.9-6.7 4.9-2.9 9.7-5.9 14.7-8.8 8.2-4.9 16.4-9.9 24.8-14.8-4.7 2.6-9.7 4-14.7 5.2.5-.5 1.2-.8 1.9-1.2 3-1.6 6-3.1 8.9-4.7-1 .4-1.8.5-2.7.7-1.1.1-2.2.3-3.3.4 3.6-1.5 7-3 10.4-4.5 7.5-3.3 14.8-6.6 22.9-11-4 8.1-11.1 14.9-18.3 20.3-.5.4-1 .7-1.4 1 1.5-1.6 3-3.3 4.4-4.9-3.8 2.6-7.5 4.9-11.5 7.4 1.5-1.4 2.9-2.7 4.4-4.1 1.4-1.1 2.6-2.3 3.7-3.7-18 11.3-36.6 21.2-56.1 29.4z" fill="url(#aq)"/></g><g><linearGradient id="ar" gradientUnits="userSpaceOnUse" x1="341.805" y1="544.744" x2="431.496" y2="544.744" gradientTransform="matrix(1 0 0 -1 0 700)"><stop offset=".006" stop-color="#27356e"/><stop offset=".227" stop-color="#252e66"/><stop offset=".541" stop-color="#222053"/><stop offset=".765" stop-color="#1e0f41"/><stop offset=".994" stop-color="#21102e"/></linearGradient><path d="M341.8 179.6c7.8-4.9 14.2-9.9 21.5-14.7 7.3-4.8 14.8-9 22.3-12.9 4.1-2.2 8.4-4.1 12.5-5.9 3.6-1.5 7-3 10.4-4.5 7.5-3.3 14.8-6.6 22.9-11-4 8.1-11.1 14.9-18.3 20.3-.5.4-1 .7-1.4 1-7 4.9-14.1 8.9-21.2 12.5-7.7 3.8-15.5 7.3-23.4 10.3-7.8 3-16.8 5.7-25.3 4.9z" fill="url(#ar)"/><linearGradient id="as" gradientUnits="userSpaceOnUse" x1="356.867" y1="546.461" x2="431.503" y2="546.461" gradientTransform="matrix(1 0 0 -1 0 700)"><stop offset=".006" stop-color="#27356e"/><stop offset=".227" stop-color="#252e66"/><stop offset=".541" stop-color="#222053"/><stop offset=".765" stop-color="#1e0f41"/><stop offset=".994" stop-color="#21102e"/></linearGradient><path d="M356.9 176.2c4.1-1.8 7.9-4.4 11.9-6.7 4.9-2.9 9.7-5.9 14.7-8.8 8.2-4.9 16.4-9.9 24.8-14.8-4.7 2.6-9.7 4-14.7 5.2.5-.5 1.2-.8 1.9-1.2 3-1.6 6-3.1 8.9-4.7-1 .4-1.8.5-2.7.7-1.1.1-2.2.3-3.3.4 3.6-1.5 7-3 10.4-4.5 7.5-3.3 14.8-6.6 22.9-11-4 8.1-11.1 14.9-18.3 20.3-.5.4-1 .7-1.4 1 1.5-1.6 3-3.3 4.4-4.9-3.8 2.6-7.5 4.9-11.5 7.4 1.5-1.4 2.9-2.7 4.4-4.1 1.4-1.1 2.6-2.3 3.7-3.7-18.1 11.5-36.7 21.2-56.1 29.4z" fill="url(#as)"/></g><g><linearGradient id="at" gradientUnits="userSpaceOnUse" x1="357.414" y1="493.199" x2="421.358" y2="493.199" gradientTransform="matrix(1 0 0 -1 0 700)"><stop offset=".006" stop-color="#27356e"/><stop offset=".227" stop-color="#252e66"/><stop offset=".541" stop-color="#222053"/><stop offset=".765" stop-color="#1e0f41"/><stop offset=".994" stop-color="#21102e"/></linearGradient><path d="M357.4 224.1c5.5-3.4 10.1-7 15.3-10.4s10.5-6.4 16-9.2c3-1.5 6-2.9 8.9-4.2 2.5-1.1 4.9-2.2 7.4-3.1 5.3-2.3 10.5-4.7 16.3-7.8-2.9 5.8-7.8 10.7-13 14.5-.4.3-.7.5-1 .7-4.9 3.6-10 6.3-15.1 8.9-5.5 2.7-11 5.2-16.7 7.3-5.6 2-12.1 4-18.1 3.3z" fill="url(#at)"/><linearGradient id="au" gradientUnits="userSpaceOnUse" x1="368.164" y1="494.43" x2="421.357" y2="494.43" gradientTransform="matrix(1 0 0 -1 0 700)"><stop offset=".006" stop-color="#27356e"/><stop offset=".227" stop-color="#252e66"/><stop offset=".541" stop-color="#222053"/><stop offset=".765" stop-color="#1e0f41"/><stop offset=".994" stop-color="#21102e"/></linearGradient><path d="M368.2 221.7c3-1.2 5.6-3.1 8.5-4.8 3.4-2.1 7-4.1 10.4-6.3 5.9-3.6 11.8-7.1 17.7-10.5-3.4 1.9-6.8 2.9-10.5 3.7.4-.4.8-.5 1.4-.8 2.1-1.2 4.2-2.3 6.4-3.3-.7.3-1.2.4-1.9.5-.8.1-1.6.3-2.3.3 2.5-1.1 4.9-2.2 7.4-3.1 5.3-2.3 10.5-4.7 16.3-7.8-2.9 5.8-7.8 10.7-13 14.5-.4.3-.7.5-1 .7 1.1-1.1 2.2-2.3 3.1-3.6-2.7 1.9-5.3 3.6-8.2 5.3 1.1-1 2.1-1.9 3.1-2.9 1-.8 1.9-1.6 2.6-2.6-12.9 7.9-26.3 14.9-40 20.7z" fill="url(#au)"/></g><g><linearGradient id="av" gradientUnits="userSpaceOnUse" x1="350.237" y1="387.97" x2="397.42" y2="387.97" gradientTransform="matrix(1 0 0 -1 0 700)"><stop offset=".006" stop-color="#27356e"/><stop offset=".227" stop-color="#252e66"/><stop offset=".541" stop-color="#222053"/><stop offset=".765" stop-color="#1e0f41"/><stop offset=".994" stop-color="#21102e"/></linearGradient><path d="M350.3 341.5c3.8-5.5 6.8-10.8 10.5-16.2 3.6-5.3 7.5-10.4 11.6-15.2 2.2-2.6 4.5-5.2 6.8-7.5 1.9-2.1 4-4.1 5.8-6 4.2-4.4 8.2-8.8 12.5-14-.4 6.7-3.3 13.3-6.7 19-.3.4-.4.7-.7 1.1-3.3 5.3-7.1 10.1-10.8 14.5-4.1 4.8-8.5 9.4-13 13.7-4.8 4.3-10.1 8.7-16 10.6z" fill="url(#av)"/><linearGradient id="aw" gradientUnits="userSpaceOnUse" x1="359.533" y1="391.394" x2="397.42" y2="391.394" gradientTransform="matrix(1 0 0 -1 0 700)"><stop offset=".006" stop-color="#27356e"/><stop offset=".227" stop-color="#252e66"/><stop offset=".541" stop-color="#222053"/><stop offset=".765" stop-color="#1e0f41"/><stop offset=".994" stop-color="#21102e"/></linearGradient><path d="M359.5 334.8c2.3-2.5 4.1-5.3 6.2-8.1 2.5-3.4 4.9-6.7 7.5-10.1 4.2-5.8 8.4-11.5 12.6-17.3-2.5 3.1-5.5 5.5-8.5 7.8.3-.5.5-1 1-1.4 1.5-1.9 3.1-3.8 4.8-5.8-.5.5-1.1 1-1.6 1.2-.7.4-1.4.8-2.2 1.2 1.9-2.1 4-4.1 5.8-6 4.2-4.4 8.2-8.8 12.5-14-.4 6.7-3.3 13.3-6.7 19-.3.4-.4.7-.7 1.1.5-1.5 1.1-3 1.6-4.7-1.8 2.9-3.7 5.6-5.8 8.4.7-1.4 1.2-2.7 1.8-4.1.5-1.2 1.1-2.3 1.5-3.6-9 13.2-18.9 25.3-29.8 36.4z" fill="url(#aw)"/></g><linearGradient id="ax" gradientUnits="userSpaceOnUse" x1="436.283" y1="647.922" x2="519.397" y2="647.922" gradientTransform="matrix(1 0 0 -1 0 700)"><stop offset=".006" stop-color="#27356e"/><stop offset=".227" stop-color="#252e66"/><stop offset=".541" stop-color="#222053"/><stop offset=".765" stop-color="#1e0f41"/><stop offset=".994" stop-color="#21102e"/></linearGradient><path d="M436.3 5c3.1 10.4 7.9 20.1 13.4 29.3 5.6 9.2 11.9 17.8 19 25.9s14.9 15.5 23.3 22c8.5 6.6 17.4 12.5 27.4 16.8-6.6-8.6-13.4-16.6-20.3-24.4l-20.5-23.3L457.9 28c-6.8-7.6-13.8-15.4-21.6-23z" fill="url(#ax)"/><linearGradient id="ay" gradientUnits="userSpaceOnUse" x1="427.031" y1="491.417" x2="458.495" y2="491.417" gradientTransform="matrix(1 0 0 -1 0 700)"><stop offset=".006" stop-color="#27356e"/><stop offset=".227" stop-color="#252e66"/><stop offset=".541" stop-color="#222053"/><stop offset=".765" stop-color="#1e0f41"/><stop offset=".994" stop-color="#21102e"/></linearGradient><path d="M428.2 154.3c-1.5 9.6-1.5 19.3-.7 28.9 1 9.6 2.7 19 5.2 28.3 2.6 9.3 5.9 18.3 10.1 27 4.2 8.6 9.2 17 15.5 24.4-1.9-9.6-4.4-18.6-6.8-27.7l-7.4-26.8-7.5-26.8c-2.5-9.1-5-18.1-8.4-27.3z" fill="url(#ay)"/><linearGradient id="az" gradientUnits="userSpaceOnUse" x1="406.567" y1="411.316" x2="429.251" y2="411.316" gradientTransform="matrix(1 0 0 -1 0 700)"><stop offset=".006" stop-color="#27356e"/><stop offset=".227" stop-color="#252e66"/><stop offset=".541" stop-color="#222053"/><stop offset=".765" stop-color="#1e0f41"/><stop offset=".994" stop-color="#21102e"/></linearGradient><path d="M407.4 249.6c-1.1 7-1.1 14-.4 20.8s1.9 13.7 3.8 20.4c1.9 6.7 4.2 13.1 7.3 19.4 3 6.2 6.6 12.2 11.2 17.5-1.4-6.8-3.1-13.4-4.9-20l-5.3-19.3-5.5-19.3c-2-6.4-3.7-12.9-6.2-19.5z" fill="url(#az)"/><linearGradient id="aA" gradientUnits="userSpaceOnUse" x1="388.113" y1="379.55" x2="401.671" y2="379.55" gradientTransform="matrix(1 0 0 -1 0 700)"><stop offset=".006" stop-color="#27356e"/><stop offset=".227" stop-color="#252e66"/><stop offset=".541" stop-color="#222053"/><stop offset=".765" stop-color="#1e0f41"/><stop offset=".994" stop-color="#21102e"/></linearGradient><path d="M397.3 281.8c.4 7 1.2 13 2.1 19.2.8 6.2 1.8 12.5 2.2 19 .4 6.4.3 13-.3 19.6-.7 6.6-1.8 12.6-2.5 19.6-4.7-5.5-6.6-12.6-7.9-18.9-1.4-6.4-2.2-12.9-2.5-19.4-.3-6.4-.4-13 .7-19.9 1-6.9 3.4-13.9 8.2-19.2z" fill="url(#aA)"/><g><linearGradient id="aB" gradientUnits="userSpaceOnUse" x1="424.508" y1="746.645" x2="544.865" y2="746.645" gradientTransform="matrix(1 0 0 -1 0 700)"><stop offset=".006" stop-color="#27356e"/><stop offset=".227" stop-color="#252e66"/><stop offset=".541" stop-color="#222053"/><stop offset=".765" stop-color="#1e0f41"/><stop offset=".994" stop-color="#21102e"/></linearGradient><path d="M544.9-11.9c-9.3-7.4-19.2-13.7-29.2-19.6-6.7-4-13.4-7.8-20.1-11.6-3.3-1.8-6.6-3.7-9.9-5.5L455.4-65c-10.1-5.5-20.3-11-30.9-16.3 7.3 9.4 16 17.5 25.2 24.9 2.7 2.2 5.6 4.2 8.5 6.3 6.8 4.8 13.8 9 21.1 13 10.3 5.6 20.9 10.5 31.9 14.8 10.9 4.2 22 7.9 33.7 10.4z" fill="url(#aB)"/><linearGradient id="aC" gradientUnits="userSpaceOnUse" x1="452.166" y1="735.281" x2="544.865" y2="735.281" gradientTransform="matrix(1 0 0 -1 0 700)"><stop offset=".006" stop-color="#27356e"/><stop offset=".227" stop-color="#252e66"/><stop offset=".541" stop-color="#222053"/><stop offset=".765" stop-color="#1e0f41"/><stop offset=".994" stop-color="#21102e"/></linearGradient><path d="M544.9-11.9c-9.3-7.4-19.2-13.7-29.2-19.6-6.7-4-13.4-7.8-20.1-11.6-6.4-2.2-12.7-5.1-19.2-6.8 11.4 7.9 23 16 34.4 24-6.8-4-13.7-8.1-20.5-12-9.4-5.6-18.9-11-27.2-18.1 3.1 2.5 5.9 5.2 8.5 8.2-6.8-2.6-13.4-6.2-19.3-10.7 1.9 2.9 4 5.8 6.2 8.5 6.8 4.8 13.8 9 21.1 13 10.3 5.6 20.9 10.5 31.9 14.8 10.6 4.1 21.7 7.8 33.4 10.3z" fill="url(#aC)"/></g><g><linearGradient id="aD" gradientUnits="userSpaceOnUse" x1="418.326" y1="460.815" x2="442.152" y2="460.815" gradientTransform="matrix(1 0 0 -1 0 700)"><stop offset=".006" stop-color="#27356e"/><stop offset=".227" stop-color="#252e66"/><stop offset=".541" stop-color="#222053"/><stop offset=".765" stop-color="#1e0f41"/><stop offset=".994" stop-color="#21102e"/></linearGradient><path d="M442.2 295.9c0-10.1-1.1-19.9-2.6-29.3-1-6.4-2.1-12.7-3.3-19-.5-3-1.2-6-1.8-9.2l-5.8-27.8c-2.1-9.3-3.8-18.6-6.3-28.1-3 10.4-4 20.7-4 30.7 0 3 .1 6 .4 8.9.4 7 1.4 13.7 2.7 20.4 1.9 9.4 4.7 18.8 8.1 27.7 3.3 8.8 7.2 17.5 12.6 25.7z" fill="url(#aD)"/><linearGradient id="aE" gradientUnits="userSpaceOnUse" x1="418.68" y1="445.479" x2="442.152" y2="445.479" gradientTransform="matrix(1 0 0 -1 0 700)"><stop offset=".006" stop-color="#27356e"/><stop offset=".227" stop-color="#252e66"/><stop offset=".541" stop-color="#222053"/><stop offset=".765" stop-color="#1e0f41"/><stop offset=".994" stop-color="#21102e"/></linearGradient><path d="M442.2 295.9c0-10.1-1.1-19.9-2.6-29.3-1-6.4-2.1-12.7-3.3-19-2.3-5.1-3.8-10.4-6.4-15.3.8 11.6 1.6 23.6 2.5 35.2-1.1-6.6-2.2-13-3.1-19.4-1.5-9-3.1-17.8-2.6-27.2-.1 3.4-.4 6.7-1.2 10.3-2.2-5.6-3.4-11.6-3.6-17.8-1.1 3-2.1 6-2.9 9 .4 7 1.4 13.7 2.7 20.4 1.9 9.4 4.7 18.8 8.1 27.7 3.1 8.5 7 17.2 12.4 25.4z" fill="url(#aE)"/></g><g><linearGradient id="aF" gradientUnits="userSpaceOnUse" x1="429.437" y1="716.796" x2="539.662" y2="716.796" gradientTransform="matrix(1 0 0 -1 0 700)"><stop offset=".006" stop-color="#27356e"/><stop offset=".227" stop-color="#252e66"/><stop offset=".541" stop-color="#222053"/><stop offset=".765" stop-color="#1e0f41"/><stop offset=".994" stop-color="#21102e"/></linearGradient><path d="M539.7 35.2c-8.1-10.3-17-19.3-26-28.2-6-5.9-12.2-11.8-18.5-17.4-3-2.7-6-5.5-9-8.2l-27.9-25.1c-9.4-8.4-18.6-16.7-28.8-25.1 5.3 12 12.4 22.8 20.5 32.8 2.5 3 4.9 5.9 7.4 8.8 6 6.7 12.5 13.1 19 19.2 9.4 8.6 19.6 16.6 30 23.8 10.5 7.2 21.5 13.9 33.3 19.4z" fill="url(#aF)"/><linearGradient id="aG" gradientUnits="userSpaceOnUse" x1="453.125" y1="701.323" x2="539.662" y2="701.323" gradientTransform="matrix(1 0 0 -1 0 700)"><stop offset=".006" stop-color="#27356e"/><stop offset=".227" stop-color="#252e66"/><stop offset=".541" stop-color="#222053"/><stop offset=".765" stop-color="#1e0f41"/><stop offset=".994" stop-color="#21102e"/></linearGradient><path d="M539.7 35.2c-8.1-10.3-17-19.3-26-28.2-6-5.9-12.2-11.8-18.5-17.4-6.3-3.8-12.2-8.6-18.6-12.2C486.7-11.2 497 .1 507.1 11.5c-6.3-6-12.5-12-18.8-17.9-8.6-8.4-17.4-16.3-24.4-26 2.6 3.4 4.9 7 7 10.8-6.7-4.5-12.7-9.9-17.8-16.2 1.4 3.6 2.7 7.1 4.4 10.5 6 6.7 12.5 13.1 19 19.2 9.4 8.6 19.6 16.6 30 23.8 10.4 7.3 21.4 14 33.2 19.5z" fill="url(#aG)"/></g><g><linearGradient id="aH" gradientUnits="userSpaceOnUse" x1="433.818" y1="733.741" x2="561.159" y2="733.741" gradientTransform="matrix(1 0 0 -1 0 700)"><stop offset=".006" stop-color="#27356e"/><stop offset=".227" stop-color="#252e66"/><stop offset=".541" stop-color="#222053"/><stop offset=".765" stop-color="#1e0f41"/><stop offset=".994" stop-color="#21102e"/></linearGradient><path d="M561.2-31.2c-10.8-2.3-21.6-3.3-32.3-4.2-10.7-1-21.1-1.6-31.6-2.3-4-.3-7.9-.5-11.9-1-6.4-.5-12.9-1.1-19.4-1.8-10.4-1-20.9-2.5-32-3.6 8.9 6.6 19.2 11.1 29.8 14.4 5.1 1.5 10.3 2.7 15.5 3.7 5.6 1.1 11.4 1.8 17.1 2.2 11 .8 21.9.5 32.7-.5 10.7-1.3 21.5-3.4 32.1-6.9z" fill="url(#aH)"/><linearGradient id="aI" gradientUnits="userSpaceOnUse" x1="433.955" y1="735.212" x2="543.046" y2="735.212" gradientTransform="matrix(1 0 0 -1 0 700)"><stop offset=".006" stop-color="#27356e"/><stop offset=".227" stop-color="#252e66"/><stop offset=".541" stop-color="#222053"/><stop offset=".765" stop-color="#1e0f41"/><stop offset=".994" stop-color="#21102e"/></linearGradient><path d="M507.1-31.5c-13.3-.8-26.7-1.8-39.7-4.9 6.2-.5 12-1.4 18.1-2.5-6.4-.5-12.9-1.1-19.4-1.8-10.4-1-20.9-2.5-32-3.6 8.9 6.6 19.2 11.1 29.8 14.4 5.1 1.5 10.3 2.7 15.5 3.7-4.8-1.9-9.3-4.4-14-7 2.5.3 4.7.7 7.3 1 23.4 2.6 47.1 5.2 70.7 3.3-12.4-.7-24.4-1.8-36.3-2.6z" fill="url(#aI)"/></g><g><linearGradient id="aJ" gradientUnits="userSpaceOnUse" x1="425.055" y1="787.41" x2="542.948" y2="787.41" gradientTransform="matrix(1 0 0 -1 0 700)"><stop offset=".006" stop-color="#27356e"/><stop offset=".227" stop-color="#252e66"/><stop offset=".541" stop-color="#222053"/><stop offset=".765" stop-color="#1e0f41"/><stop offset=".994" stop-color="#21102e"/></linearGradient><path d="M542.9-62.6c-9.7-5.3-19.7-9.4-29.6-13.6-9.9-4-19.7-7.7-29.6-11.5-3.7-1.5-7.4-2.9-11.1-4.4-6-2.5-12-4.8-18.1-7.4-9.7-4-19.3-8.5-29.6-12.9 6.6 8.9 15.1 16.3 24.2 22.5 4.4 3 9 5.6 13.7 8.1 5.1 2.6 10.3 5.1 15.6 7.1 10.3 4 20.8 7 31.5 9 11 2.3 21.8 3.5 33 3.1z" fill="url(#aJ)"/><linearGradient id="aK" gradientUnits="userSpaceOnUse" x1="425.057" y1="789.024" x2="524.876" y2="789.024" gradientTransform="matrix(1 0 0 -1 0 700)"><stop offset=".006" stop-color="#27356e"/><stop offset=".227" stop-color="#252e66"/><stop offset=".541" stop-color="#222053"/><stop offset=".765" stop-color="#1e0f41"/><stop offset=".994" stop-color="#21102e"/></linearGradient><path d="M491.2-78.6c-12.5-4.8-25.1-9.4-36.6-16.3 6 1.2 11.9 2.2 17.9 2.9-6-2.5-12-4.8-18.1-7.4-9.7-4-19.3-8.5-29.6-12.9 6.6 8.9 15.1 16.3 24.2 22.5 4.4 3 9 5.6 13.7 8.1-4-3.3-7.7-7-11.4-10.7 2.3 1 4.2 2.1 6.7 3 21.6 9.3 43.5 18.8 66.5 23.7-10.9-4.2-22.1-8.7-33.3-12.9z" fill="url(#aK)"/></g><g><linearGradient id="aL" gradientUnits="userSpaceOnUse" x1="435.491" y1="661.752" x2="549.424" y2="661.752" gradientTransform="matrix(1 0 0 -1 0 700)"><stop offset=".006" stop-color="#27356e"/><stop offset=".227" stop-color="#252e66"/><stop offset=".541" stop-color="#222053"/><stop offset=".765" stop-color="#1e0f41"/><stop offset=".994" stop-color="#21102e"/></linearGradient><path d="M549.4 86.5c-9-9.4-18.6-17.5-28.2-25.5-9.6-7.9-19.3-15.5-28.9-23.1-3.7-2.9-7.3-5.9-11-8.8-5.9-4.8-11.6-9.6-17.5-14.5-9.4-7.9-18.6-16.2-28.5-24.6 4.2 12.3 11.1 23.4 19.2 33.5 3.8 4.8 8.1 9.4 12.5 13.8 4.8 4.8 9.7 9.2 14.9 13.4 10 8.1 20.7 15.1 31.9 21.1 11.5 6.1 23.1 11.3 35.6 14.7z" fill="url(#aL)"/><linearGradient id="aM" gradientUnits="userSpaceOnUse" x1="435.462" y1="666.544" x2="530.351" y2="666.544" gradientTransform="matrix(1 0 0 -1 0 700)"><stop offset=".006" stop-color="#27356e"/><stop offset=".227" stop-color="#252e66"/><stop offset=".541" stop-color="#222053"/><stop offset=".765" stop-color="#1e0f41"/><stop offset=".994" stop-color="#21102e"/></linearGradient><path d="M497.5 50.6c-12.2-9.6-24.6-19.3-35.1-30.9 6.3 3.4 12.6 6.6 19 9.4-5.9-4.8-11.6-9.6-17.5-14.5-9.4-7.9-18.6-16.2-28.5-24.6 4.2 12.3 11.1 23.4 19.2 33.5 3.8 4.8 8.1 9.4 12.5 13.8-3.3-5.1-6-10.4-8.9-15.9 2.2 1.9 4.1 3.7 6.3 5.8 20.8 17.9 41.9 36 65.9 49.7-11-8.6-22-17.6-32.9-26.3z" fill="url(#aM)"/></g><g><linearGradient id="aN" gradientUnits="userSpaceOnUse" x1="435.86" y1="676.606" x2="539.512" y2="676.606" gradientTransform="matrix(1 0 0 -1 0 700)"><stop offset=".006" stop-color="#27356e"/><stop offset=".227" stop-color="#252e66"/><stop offset=".541" stop-color="#222053"/><stop offset=".765" stop-color="#1e0f41"/><stop offset=".994" stop-color="#21102e"/></linearGradient><path d="M539.7 25.2c-8.8-2.5-17.7-3.6-26.3-4.5-8.6-1-17.3-1.5-25.7-2.1l-4.1-.3-21.4-1.5c-8.5-.5-17.1-1.5-26.2-2.1 5.8 4.5 12.2 7.8 18.9 10.3 1.8.7 3.6 1.4 5.3 1.9 8.6 2.6 17.7 4.1 26.6 4.8 8.9.5 17.9.3 26.7-.7 8.8-1.2 17.5-2.8 26.2-5.8z" fill="url(#aN)"/><linearGradient id="aO" gradientUnits="userSpaceOnUse" x1="435.86" y1="678.44" x2="525.999" y2="678.44" gradientTransform="matrix(1 0 0 -1 0 700)"><stop offset=".006" stop-color="#27356e"/><stop offset=".227" stop-color="#252e66"/><stop offset=".541" stop-color="#222053"/><stop offset=".765" stop-color="#1e0f41"/><stop offset=".994" stop-color="#21102e"/></linearGradient><path d="M526 27.5c-4.9-.4-9.7-.7-14.7-.7-3.8 0-7.5.1-11.2.1-15.7 0-31.5-2.1-46.7-5.9 3.3 0 6.4-1.2 9.7-1.2-1.4-.3-2.9-.7-4.2-.8 8.2.5 16.4-.7 24.6-.7l-21.4-1.5c-8.5-.5-17.1-1.5-26.2-2.1 5.8 4.5 12.2 7.8 18.9 10.3-1.4-1.1-2.7-2.2-4-3.4 9 2.7 17.4 5.5 26.8 6.3 3.4.3 6.8.4 10.3.4 12.6.2 25.3-.1 38.1-.8z" fill="url(#aO)"/></g><g><linearGradient id="aP" gradientUnits="userSpaceOnUse" x1="435.321" y1="604.175" x2="490.34" y2="604.175" gradientTransform="matrix(1 0 0 -1 0 700)"><stop offset=".006" stop-color="#27356e"/><stop offset=".227" stop-color="#252e66"/><stop offset=".541" stop-color="#222053"/><stop offset=".765" stop-color="#1e0f41"/><stop offset=".994" stop-color="#21102e"/></linearGradient><path d="M490.2 145.9c-3.3-9.4-7.7-18.2-12.2-26.6-4.5-8.5-9.3-16.6-14.1-24.6l-2.2-3.8-11.9-20.3c-4.8-8.1-9.3-16.4-14.4-24.9-.5 7.9.5 15.9 2.5 23.4.4 2.1 1 4.1 1.6 6 3 9.4 7.3 18.5 12.2 27 4.9 8.5 10.8 16.4 17.1 23.7 6.5 7.4 13.4 14.3 21.4 20.1z" fill="url(#aP)"/><linearGradient id="aQ" gradientUnits="userSpaceOnUse" x1="435.272" y1="609.515" x2="479.755" y2="609.515" gradientTransform="matrix(1 0 0 -1 0 700)"><stop offset=".006" stop-color="#27356e"/><stop offset=".227" stop-color="#252e66"/><stop offset=".541" stop-color="#222053"/><stop offset=".765" stop-color="#1e0f41"/><stop offset=".994" stop-color="#21102e"/></linearGradient><path d="M479.7 135.1c-2.7-4.7-5.5-9.2-8.5-13.7-2.3-3.4-4.8-6.7-7.1-10.1-9.7-14.2-17.7-29.7-23.6-45.9 2.1 3 5.1 5.1 7.1 8.1-.7-1.5-1.2-3-1.8-4.4 4.5 7.8 10.7 14.4 15.9 21.9l-11.9-20.3c-4.8-8.1-9.3-16.4-14.4-24.9-.5 7.9.5 15.9 2.5 23.4.1-1.9.4-3.8.7-5.8 3.1 9.9 5.9 19.2 11 28.1 1.8 3.3 4 6.4 6 9.6 7.5 11.6 15.7 22.9 24.1 34z" fill="url(#aQ)"/></g><g><linearGradient id="aR" gradientUnits="userSpaceOnUse" x1="432.86" y1="701.529" x2="523.367" y2="701.529" gradientTransform="matrix(1 0 0 -1 0 700)"><stop offset=".006" stop-color="#27356e"/><stop offset=".227" stop-color="#252e66"/><stop offset=".541" stop-color="#222053"/><stop offset=".765" stop-color="#1e0f41"/><stop offset=".994" stop-color="#21102e"/></linearGradient><path d="M523.4 33.3c-6.6-7.8-13.6-14.2-20.7-20.5C496.4 7.2 490 2 483.5-3c-.8-.7-1.8-1.4-2.6-2.1-7.4-5.8-15.1-11.2-22.9-16.4-7.9-5.3-16-10.4-25.2-14.8 4.2 9.2 10.1 17.1 16.6 24.5 1 1 1.8 2.1 2.7 3C457.9-2.6 464 3 470.7 8c7.7 5.9 15.9 11.1 24.6 15.5 8.9 4.5 18.1 8.1 28.1 9.8z" fill="url(#aR)"/><linearGradient id="aS" gradientUnits="userSpaceOnUse" x1="432.935" y1="718.439" x2="483.597" y2="718.439" gradientTransform="matrix(1 0 0 -1 0 700)"><stop offset=".006" stop-color="#27356e"/><stop offset=".227" stop-color="#252e66"/><stop offset=".541" stop-color="#222053"/><stop offset=".765" stop-color="#1e0f41"/><stop offset=".994" stop-color="#21102e"/></linearGradient><path d="M483.5-3c-.8-.7-1.8-1.4-2.6-2.1-7.4-5.8-15.1-11.2-22.9-16.4-7.9-5.3-16-10.4-25.2-14.8 4.2 9.2 10.1 17.1 16.6 24.5 1 1 1.8 2.1 2.7 3-1.1-2.9-2.1-5.6-2.9-8.5 3.6 4.2 7.4 7.9 11.9 11.1-2.7-2.7-5.2-5.5-7.4-8.8 6.7 5.9 14 10 21.6 14.4-5.9-5.6-11.9-10.7-18.2-15.9 2.9 1 5.5 2.2 8.2 3.6 6.2 3.3 12.2 6.6 18.2 9.9z" fill="url(#aS)"/></g><g><linearGradient id="aT" gradientUnits="userSpaceOnUse" x1="428.823" y1="514.078" x2="476.199" y2="514.078" gradientTransform="matrix(1 0 0 -1 0 700)"><stop offset=".006" stop-color="#27356e"/><stop offset=".227" stop-color="#252e66"/><stop offset=".541" stop-color="#222053"/><stop offset=".765" stop-color="#1e0f41"/><stop offset=".994" stop-color="#21102e"/></linearGradient><path d="M476.3 229.5c-2.5-8.2-5.9-15.9-9.3-23.3-3-6.4-6.3-12.9-9.7-19.2-.4-.8-1-1.6-1.4-2.6-3.8-7.1-7.9-14.2-12.3-21.2s-9-14-14.7-20.8c.3 8.4 2.2 16.6 4.8 24.5.4 1.1.7 2.2 1.1 3.3 2.5 6.8 5.5 13.4 8.9 19.7 4 7.4 8.8 14.5 14.1 21.2 5.3 6.7 11.2 13 18.5 18.4z" fill="url(#aT)"/><linearGradient id="aU" gradientUnits="userSpaceOnUse" x1="428.823" y1="535.302" x2="457.201" y2="535.302" gradientTransform="matrix(1 0 0 -1 0 700)"><stop offset=".006" stop-color="#27356e"/><stop offset=".227" stop-color="#252e66"/><stop offset=".541" stop-color="#222053"/><stop offset=".765" stop-color="#1e0f41"/><stop offset=".994" stop-color="#21102e"/></linearGradient><path d="M457.2 187c-.4-.8-1-1.6-1.4-2.6-3.8-7.1-7.9-14.2-12.3-21.2s-9-14-14.7-20.8c.3 8.4 2.2 16.6 4.8 24.5.4 1.1.7 2.2 1.1 3.3.1-2.5.3-4.9.5-7.4 1.4 4.5 3.1 8.8 5.6 12.9-1.2-3.1-2.3-6-2.9-9.3 3.3 7 7.5 12.9 12 19.2-2.7-6.4-5.8-12.6-8.9-18.9 1.9 1.9 3.6 3.7 5.2 5.9 3.8 4.7 7.5 9.6 11 14.4z" fill="url(#aU)"/></g><g><linearGradient id="aV" gradientUnits="userSpaceOnUse" x1="424.25" y1="762.46" x2="528.587" y2="762.46" gradientTransform="matrix(1 0 0 -1 0 700)"><stop offset=".006" stop-color="#27356e"/><stop offset=".227" stop-color="#252e66"/><stop offset=".541" stop-color="#222053"/><stop offset=".765" stop-color="#1e0f41"/><stop offset=".994" stop-color="#21102e"/></linearGradient><path d="M528.7-22.3c-7.5-8.9-15.6-16.4-23.8-23.7-7.3-6.3-14.7-12.3-22-18.2-1-.8-2.1-1.5-3-2.3-8.5-6.6-17.3-12.9-26.4-19-9.2-6-18.5-12-29-17 4.9 10.7 11.6 19.9 19 28.3 1.1 1.2 2.1 2.3 3.1 3.4 6.6 7.1 13.8 13.6 21.5 19.4 8.9 6.8 18.3 12.9 28.5 17.9 9.9 5 20.5 9.1 32.1 11.2z" fill="url(#aV)"/><linearGradient id="aW" gradientUnits="userSpaceOnUse" x1="424.234" y1="781.972" x2="482.701" y2="781.972" gradientTransform="matrix(1 0 0 -1 0 700)"><stop offset=".006" stop-color="#27356e"/><stop offset=".227" stop-color="#252e66"/><stop offset=".541" stop-color="#222053"/><stop offset=".765" stop-color="#1e0f41"/><stop offset=".994" stop-color="#21102e"/></linearGradient><path d="M482.7-64.2c-1-.8-2.1-1.5-3-2.3-8.5-6.6-17.3-12.9-26.4-19-9.2-6-18.5-12-29-17 4.9 10.7 11.6 19.9 19 28.3 1.1 1.2 2.1 2.3 3.1 3.4-1.2-3.3-2.3-6.6-3.4-9.9 4.1 4.9 8.5 9.2 13.7 12.9-3.3-3.1-6-6.3-8.5-10.1 7.8 6.7 16 11.6 25.1 16.6-6.8-6.4-13.8-12.3-20.9-18.3 3.3 1.1 6.3 2.5 9.4 4.1 6.9 3.6 13.9 7.4 20.9 11.3z" fill="url(#aW)"/></g><g><linearGradient id="aX" gradientUnits="userSpaceOnUse" x1="417.61" y1="461.704" x2="450.387" y2="461.704" gradientTransform="matrix(1 0 0 -1 0 700)"><stop offset=".006" stop-color="#27356e"/><stop offset=".227" stop-color="#252e66"/><stop offset=".541" stop-color="#222053"/><stop offset=".765" stop-color="#1e0f41"/><stop offset=".994" stop-color="#21102e"/></linearGradient><path d="M450.4 284c-.5-8.5-2.3-16.6-4.5-24.4-2.2-7.8-4.9-15.5-7.9-22.9-.7-1.6-1.4-3.3-2.2-4.9-2.5-5.8-5.2-11.2-7.5-16.6-3-6.8-5.1-14.4-7.5-22.6-3 7.9-3.8 16.7-2.3 25.3.7 4.2 1.9 8.4 3.1 12.3 1.4 4 2.7 7.7 4.2 11.4 3.1 7.4 6.6 14.7 10.5 21.8 4.1 7.1 8.5 14.1 14.1 20.6z" fill="url(#aX)"/><linearGradient id="aY" gradientUnits="userSpaceOnUse" x1="417.637" y1="472.932" x2="439.354" y2="472.932" gradientTransform="matrix(1 0 0 -1 0 700)"><stop offset=".006" stop-color="#27356e"/><stop offset=".227" stop-color="#252e66"/><stop offset=".541" stop-color="#222053"/><stop offset=".765" stop-color="#1e0f41"/><stop offset=".994" stop-color="#21102e"/></linearGradient><path d="M429.8 224.9c2.3 7.4 5.1 14.7 8.1 21.8-.8-4.9-1.5-10-2.2-14.9-2.5-5.8-5.2-11.2-7.5-16.6-3-6.8-5.1-14.4-7.5-22.6-3 7.9-3.8 16.7-2.3 25.3.7 4.2 1.9 8.4 3.1 12.3.1-3.6.1-7.1.8-10.4.8 5.1 2.1 10 4 14.8-.4-3.8-.7-7.7-1.1-11.5-.1-.7-.1-1.5.1-2.2 2.5 14.2 7.3 27.9 14.1 40.5-3.1-12.1-6.4-24.3-9.6-36.5z" fill="url(#aY)"/></g><g><linearGradient id="aZ" gradientUnits="userSpaceOnUse" x1="434.326" y1="560.017" x2="502.418" y2="560.017" gradientTransform="matrix(1 0 0 -1 0 700)"><stop offset=".006" stop-color="#27356e"/><stop offset=".227" stop-color="#252e66"/><stop offset=".541" stop-color="#222053"/><stop offset=".765" stop-color="#1e0f41"/><stop offset=".994" stop-color="#21102e"/></linearGradient><path d="M502.4 190.3c-3.7-10.1-8.6-19.3-14-28.1-5.3-8.8-11.2-17.1-17.7-25.1-1.4-1.8-2.9-3.6-4.2-5.2-5.1-6-10.3-11.8-14.9-17.5-6.2-7.3-11.2-15.7-17.1-24.8-.8 10.7 1.2 21.6 5.9 31.6 2.3 4.9 5.2 9.6 8.2 13.8 3 4.2 6 8.4 9.2 12.3 6.3 7.9 13.1 15.6 20.4 22.9 7.4 7.4 15.2 14.2 24.2 20.1z" fill="url(#aZ)"/><linearGradient id="ba" gradientUnits="userSpaceOnUse" x1="434.273" y1="571.655" x2="481.168" y2="571.655" gradientTransform="matrix(1 0 0 -1 0 700)"><stop offset=".006" stop-color="#27356e"/><stop offset=".227" stop-color="#252e66"/><stop offset=".541" stop-color="#222053"/><stop offset=".765" stop-color="#1e0f41"/><stop offset=".994" stop-color="#21102e"/></linearGradient><path d="M456.8 125.7c5.3 8.2 11.2 16 17.5 23.7-2.7-5.8-5.3-11.6-7.8-17.4-5.1-6-10.3-11.8-14.9-17.5-6.2-7.3-11.2-15.7-17.1-24.8-.8 10.7 1.2 21.6 5.9 31.6 2.3 4.9 5.2 9.6 8.2 13.8-1.1-4.2-2.3-8.6-2.6-13 2.7 5.9 6 11.5 10 16.7-1.8-4.5-3.6-9-5.3-13.6-.4-.8-.7-1.8-.7-2.7 7.9 16.4 18.6 31.4 31.4 44.5-8.3-13.8-16.5-27.4-24.6-41.3z" fill="url(#ba)"/></g><g><linearGradient id="bb" gradientUnits="userSpaceOnUse" x1="408.803" y1="424.256" x2="433.859" y2="424.256" gradientTransform="matrix(1 0 0 -1 0 700)"><stop offset=".006" stop-color="#27356e"/><stop offset=".227" stop-color="#252e66"/><stop offset=".541" stop-color="#222053"/><stop offset=".765" stop-color="#1e0f41"/><stop offset=".994" stop-color="#21102e"/></linearGradient><path d="M433.8 310.7c-.4-6.4-1.8-12.6-3.4-18.6-1.6-6-3.7-11.8-6-17.5-.5-1.2-1.1-2.5-1.6-3.7-1.9-4.4-4-8.5-5.8-12.7-2.3-5.2-3.8-11-5.8-17.3-2.2 6-2.9 12.7-1.8 19.4.5 3.3 1.4 6.4 2.5 9.4 1 3 2.2 5.9 3.3 8.6 2.3 5.8 5.1 11.2 8.1 16.7 2.9 5.5 6.3 10.7 10.5 15.7z" fill="url(#bb)"/><linearGradient id="bc" gradientUnits="userSpaceOnUse" x1="408.795" y1="432.745" x2="425.394" y2="432.745" gradientTransform="matrix(1 0 0 -1 0 700)"><stop offset=".006" stop-color="#27356e"/><stop offset=".227" stop-color="#252e66"/><stop offset=".541" stop-color="#222053"/><stop offset=".765" stop-color="#1e0f41"/><stop offset=".994" stop-color="#21102e"/></linearGradient><path d="M418.1 265.6c1.8 5.6 3.8 11.2 6.2 16.6-.7-3.8-1.2-7.7-1.6-11.4-1.9-4.4-4-8.5-5.8-12.7-2.3-5.2-3.8-11-5.8-17.3-2.2 6-2.9 12.7-1.8 19.4.5 3.3 1.4 6.4 2.5 9.4.1-2.7.1-5.3.7-7.9.5 3.8 1.5 7.7 3 11.4-.3-3-.5-5.9-.8-8.8 0-.5-.1-1.2 0-1.8 1.9 10.8 5.6 21.4 10.8 31.1-2.5-9.4-5-18.7-7.4-28z" fill="url(#bc)"/></g><g><linearGradient id="bd" gradientUnits="userSpaceOnUse" x1="429.848" y1="539.18" x2="506.937" y2="539.18" gradientTransform="matrix(1 0 0 -1 0 700)"><stop offset=".006" stop-color="#27356e"/><stop offset=".227" stop-color="#252e66"/><stop offset=".541" stop-color="#222053"/><stop offset=".765" stop-color="#1e0f41"/><stop offset=".994" stop-color="#21102e"/></linearGradient><path d="M506.9 180.3c-6.6-4-12-8.2-18.2-12.2s-12.6-7.4-19.2-10.5c-3.6-1.6-7.3-3.1-10.8-4.7-3-1.2-6-2.3-9-3.4-6.6-2.5-12.9-5.1-19.9-8.6 2.9 7.3 8.6 13.1 14.8 17.7.4.3.8.5 1.2.8 5.9 4.1 12 7.3 18.2 10.1 6.6 3.1 13.4 5.8 20.4 7.9 6.9 2.4 14.9 4.3 22.5 2.9z" fill="url(#bd)"/><linearGradient id="be" gradientUnits="userSpaceOnUse" x1="429.848" y1="540.368" x2="493.655" y2="540.368" gradientTransform="matrix(1 0 0 -1 0 700)"><stop offset=".006" stop-color="#27356e"/><stop offset=".227" stop-color="#252e66"/><stop offset=".541" stop-color="#222053"/><stop offset=".765" stop-color="#1e0f41"/><stop offset=".994" stop-color="#21102e"/></linearGradient><path d="M493.7 178.3c-3.6-1.4-6.8-3.6-10.1-5.5-4.1-2.3-8.4-4.8-12.6-7.3-7.1-4.1-14.1-8.1-21.2-12.2 4.1 2.2 8.5 3 12.9 3.8-.4-.5-1.1-.7-1.6-1-2.6-1.4-5.2-2.6-7.7-3.8.8.4 1.5.4 2.5.5 1 .1 1.9.1 3 .1-3-1.2-6-2.3-9-3.4-6.6-2.5-12.9-5.1-19.9-8.6 2.9 7.3 8.6 13.1 14.8 17.7.4.3.8.5 1.2.8-1.2-1.4-2.5-2.9-3.6-4.2 3.1 2.2 6.4 4.1 9.7 6.2-1.2-1.1-2.3-2.3-3.6-3.6-1.1-1-2.2-2.1-3-3.3 15.2 9.5 31.3 17.3 48.2 23.8z" fill="url(#be)"/></g><g><linearGradient id="bf" gradientUnits="userSpaceOnUse" x1="435.872" y1="630.875" x2="499.269" y2="630.875" gradientTransform="matrix(1 0 0 -1 0 700)"><stop offset=".006" stop-color="#27356e"/><stop offset=".227" stop-color="#252e66"/><stop offset=".541" stop-color="#222053"/><stop offset=".765" stop-color="#1e0f41"/><stop offset=".994" stop-color="#21102e"/></linearGradient><path d="M499.3 109.1c-5.2-7.5-9.3-14.7-14.1-21.9-4.8-7.3-10-14.1-15.6-20.5-3-3.6-6.2-7-9.2-10.3-2.6-2.7-5.2-5.5-7.8-8.2-5.8-6-11.1-11.9-16.7-19 .4 9 4.2 18.1 8.9 25.9.3.5.5 1 1 1.5 4.4 7.3 9.4 13.7 14.7 19.7C466 82.9 471.9 89 478 94.9c5.9 5.6 13.2 11.7 21.3 14.2z" fill="url(#bf)"/><linearGradient id="bg" gradientUnits="userSpaceOnUse" x1="435.889" y1="635.462" x2="486.743" y2="635.462" gradientTransform="matrix(1 0 0 -1 0 700)"><stop offset=".006" stop-color="#27356e"/><stop offset=".227" stop-color="#252e66"/><stop offset=".541" stop-color="#222053"/><stop offset=".765" stop-color="#1e0f41"/><stop offset=".994" stop-color="#21102e"/></linearGradient><path d="M486.8 100.1c-3.1-3.3-5.6-7.1-8.2-10.8-3.3-4.7-6.7-9.2-10-13.8-5.6-7.8-11.2-15.6-17-23.4 3.3 4.2 7.4 7.4 11.5 10.5-.3-.8-.8-1.2-1.2-1.9-2.1-2.7-4.2-5.3-6.4-7.8.7.8 1.4 1.2 2.2 1.8 1 .5 1.9 1.1 2.9 1.6-2.6-2.7-5.2-5.5-7.8-8.2-5.8-6-11.1-11.9-16.7-19 .4 9 4.2 18.1 8.9 25.9.3.5.5 1 1 1.5-.8-2.1-1.5-4.1-2.1-6.3 2.5 3.8 5.1 7.5 7.7 11.4-.8-1.8-1.6-3.7-2.5-5.5-.7-1.6-1.5-3.1-1.9-4.9 11.5 17.4 25 33.8 39.6 48.9z" fill="url(#bg)"/></g><g><linearGradient id="bh" gradientUnits="userSpaceOnUse" x1="431.588" y1="546.05" x2="490.526" y2="546.05" gradientTransform="matrix(1 0 0 -1 0 700)"><stop offset=".006" stop-color="#27356e"/><stop offset=".227" stop-color="#252e66"/><stop offset=".541" stop-color="#222053"/><stop offset=".765" stop-color="#1e0f41"/><stop offset=".994" stop-color="#21102e"/></linearGradient><path d="M490.5 195.6c-4.8-7.8-8.5-15.1-12.9-22.6-4.4-7.5-9.3-14.7-14.4-21.4-2.7-3.7-5.8-7.4-8.6-10.8-2.5-2.9-4.9-5.8-7.4-8.6-5.3-6.3-10.4-12.5-15.7-20 0 9 3.3 18.2 7.4 26.3.3.5.5 1 .8 1.5 4.1 7.5 8.8 14.1 13.6 20.5 5.2 6.8 10.7 13.3 16.6 19.4 5.8 6.3 12.7 12.9 20.6 15.7z" fill="url(#bh)"/><linearGradient id="bi" gradientUnits="userSpaceOnUse" x1="431.588" y1="550.98" x2="478.554" y2="550.98" gradientTransform="matrix(1 0 0 -1 0 700)"><stop offset=".006" stop-color="#27356e"/><stop offset=".227" stop-color="#252e66"/><stop offset=".541" stop-color="#222053"/><stop offset=".765" stop-color="#1e0f41"/><stop offset=".994" stop-color="#21102e"/></linearGradient><path d="M478.5 185.9c-2.9-3.4-5.2-7.5-7.7-11.4l-9.3-14.4c-5.2-8.1-10.4-16.2-15.6-24.2 3 4.4 6.8 7.8 11 11.2-.3-.8-.7-1.2-1.2-1.9-1.9-2.7-4-5.5-6-8.2.7.8 1.4 1.2 2.2 1.9 1 .7 1.9 1.2 2.9 1.8-2.5-2.9-4.9-5.8-7.4-8.6-5.3-6.3-10.4-12.5-15.7-20 0 9 3.3 18.2 7.4 26.3.3.5.5 1 .8 1.5-.7-2.1-1.2-4.2-1.8-6.4 2.2 4 4.5 7.8 7 11.8-.8-1.9-1.4-3.7-2.2-5.6-.7-1.6-1.4-3.3-1.6-4.9 11 18.3 23.5 35.2 37.2 51.1z" fill="url(#bi)"/></g><g><linearGradient id="bj" gradientUnits="userSpaceOnUse" x1="423.499" y1="488.61" x2="465.535" y2="488.61" gradientTransform="matrix(1 0 0 -1 0 700)"><stop offset=".006" stop-color="#27356e"/><stop offset=".227" stop-color="#252e66"/><stop offset=".541" stop-color="#222053"/><stop offset=".765" stop-color="#1e0f41"/><stop offset=".994" stop-color="#21102e"/></linearGradient><path d="M465.4 241.1c-3.4-5.6-6-10.7-9.2-16.2-3.1-5.3-6.6-10.4-10.3-15.2-2.1-2.6-4.1-5.2-6.2-7.7-1.8-2.1-3.6-4.1-5.2-6.2-3.8-4.5-7.4-8.9-11.2-14.2 0 6.4 2.3 13 5.3 18.8.1.4.4.7.5 1.1 2.9 5.3 6.3 10.1 9.6 14.7 3.7 4.9 7.5 9.4 11.8 14 4.4 4.2 9.3 8.8 14.9 10.9z" fill="url(#bj)"/><linearGradient id="bk" gradientUnits="userSpaceOnUse" x1="423.499" y1="492.033" x2="456.943" y2="492.033" gradientTransform="matrix(1 0 0 -1 0 700)"><stop offset=".006" stop-color="#27356e"/><stop offset=".227" stop-color="#252e66"/><stop offset=".541" stop-color="#222053"/><stop offset=".765" stop-color="#1e0f41"/><stop offset=".994" stop-color="#21102e"/></linearGradient><path d="M457 234.3c-2.1-2.5-3.7-5.3-5.5-8.1-2.2-3.4-4.4-6.8-6.6-10.3-3.7-5.8-7.4-11.5-11.2-17.3 2.2 3.1 4.9 5.6 7.8 7.9-.1-.5-.5-1-.8-1.4-1.4-1.9-2.9-4-4.2-5.9.4.5 1 1 1.5 1.4.7.4 1.4 1 2.1 1.4-1.8-2.1-3.6-4.1-5.2-6.2-3.8-4.5-7.4-8.9-11.2-14.2 0 6.4 2.3 13 5.3 18.8.1.4.4.7.5 1.1-.5-1.5-1-3-1.2-4.5 1.6 2.9 3.3 5.6 4.9 8.4-.5-1.4-1-2.6-1.5-4-.4-1.1-1-2.3-1.2-3.6 7.7 12.9 16.6 25.1 26.5 36.5z" fill="url(#bk)"/></g><g><linearGradient id="bl" gradientUnits="userSpaceOnUse" x1="400.586" y1="397.076" x2="419.537" y2="397.076" gradientTransform="matrix(1 0 0 -1 0 700)"><stop offset=".006" stop-color="#27356e"/><stop offset=".227" stop-color="#252e66"/><stop offset=".541" stop-color="#222053"/><stop offset=".765" stop-color="#1e0f41"/><stop offset=".994" stop-color="#21102e"/></linearGradient><path d="M419.6 339.8c-1.1-6.7-1.4-12.7-2.3-19.2-.8-6.3-2.1-12.6-3.7-18.8-.8-3.3-1.8-6.6-2.7-9.9-.8-2.7-1.8-5.3-2.6-7.9-1.9-5.8-3.6-11.5-4.9-18.1-2.6 6.2-3 13.4-2.5 20 0 .4.1.8.1 1.2.5 6.3 1.9 12.2 3.3 17.9 1.5 6.2 3.4 12.2 5.6 18.1 2.3 6 5 12.5 9.7 16.7z" fill="url(#bl)"/><linearGradient id="bm" gradientUnits="userSpaceOnUse" x1="400.586" y1="402.005" x2="414.121" y2="402.005" gradientTransform="matrix(1 0 0 -1 0 700)"><stop offset=".006" stop-color="#27356e"/><stop offset=".227" stop-color="#252e66"/><stop offset=".541" stop-color="#222053"/><stop offset=".765" stop-color="#1e0f41"/><stop offset=".994" stop-color="#21102e"/></linearGradient><path d="M414.1 329.8c-1-3.1-1.4-6.6-1.9-9.9-.7-4.1-1.5-8.2-2.2-12.5-1.2-7-2.5-14-3.7-21.1.8 4 2.5 7.4 4.2 10.7 0-.5-.1-1.1-.3-1.6-.5-2.5-1.1-4.9-1.8-7.3.1.7.5 1.2 1 1.9.4.7 1 1.4 1.4 2.1-.8-2.7-1.8-5.3-2.6-7.9-1.9-5.8-3.6-11.5-4.9-18.1-2.6 6.2-3 13.4-2.5 20 0 .4.1.8.1 1.2.1-1.6.3-3.3.7-4.9.4 3.4.8 6.6 1.4 10 0-1.5.1-2.9.1-4.4 0-1.2 0-2.6.3-3.8 2.3 15.6 5.9 30.8 10.7 45.6z" fill="url(#bm)"/></g><linearGradient id="bn" gradientUnits="userSpaceOnUse" x1="382.224" y1="631.355" x2="440.362" y2="631.355" gradientTransform="matrix(1 0 0 -1 0 700)"><stop offset="0" stop-color="#076793"/><stop offset="1" stop-color="#076e65"/></linearGradient><path d="M385.8 310c1 3 1.1 6.2 1.1 9.3 6.3-15.2 11.6-30.7 16.7-46.4 6.7-21.4 12.5-42.9 17.3-64.8 9.6-43.7 15.9-88 18.2-132.7.8-11.1 1-22.3 1.2-33.5 0-11.2.3-22.3-.1-33.5-.4-22.3-2.1-44.6-4.1-67-4.4-41.5-11.8-82.8-22-123.4l-11.1 3c10.5 39.8 18.3 80.4 23.1 121.3 2.3 22 4.2 44.1 4.9 66.1.5 11.1.4 22.2.5 33.1-.3 11.1-.3 22.2-1 33.1-1.9 44.2-7.5 88.3-16.6 131.7-4.5 21.6-10 43.1-16.4 64.4-4.7 15.1-9.7 30.1-15.5 44.8 1.4-1.4 2.5-3.5 3.8-5.5z" fill="url(#bn)"/></g></g></svg>