<svg xmlns="http://www.w3.org/2000/svg" width="800" height="600" viewBox="255 -70 800 600"><linearGradient id="a" gradientUnits="userSpaceOnUse" x1="389.849" y1="652.273" x2="1143.112" y2="1199.285" gradientTransform="matrix(.9992 -.0395 -.038 -.9617 -96.68 1202.077)"><stop offset="0" stop-color="#dbe2f3"/><stop offset="1" stop-color="#eaeff8"/></linearGradient><path d="M1000 187c-20-28-60.9-41.8-63.6-84.7-1-16.2 9.8-29.9 4.1-45.6-38.5-105.9-197.6-26-266.6-.6-28.9 10.6-63.3 22.5-94.7 22.3-36.1-.2-70.3-17.4-106.1-19.5-11-.7-21.3.7-30.7 3.7-35.6 11.5-65.9 50.3-76.3 92.5-8.4 34.1 5.3 67.2-8.6 100.8-14.8 35.9-45.8 61.8-52.3 102.9-7.7 49.3 30.9 90.5 70.6 90.2 25.3-.1 71.9-6.4 92.7-24.1 25.3-21.6 51-24 81.4-24.4 58.1-.8 116.6 11 174.1 19 49.3 6.7 98.3 17.5 148 17.2 36.6-.2 67.5-1 85.6-44.7 21.9-52.5 84.5-146.3 42.4-205z" fill="url(#a)"/><linearGradient id="b" gradientUnits="userSpaceOnUse" x1="899.34" y1="690.049" x2="1044.188" y2="690.049" gradientTransform="matrix(1 0 0 -1 0 1072)"><stop offset=".006" stop-color="#131536"/><stop offset=".096" stop-color="#161432"/><stop offset=".186" stop-color="#1a1528"/><stop offset=".994" stop-color="#14151c"/></linearGradient><path d="M906.1 446.1c27.3 5.3 108.2 8.6 138-125.5.9-3.8-3.9-6.2-6.5-3.3-12.3 13.5-34.1 36.6-52.5 43.7-57.3 22-78.1 57.3-85 73.7-2.1 4.9.8 10.4 6 11.4z" fill="url(#b)"/><linearGradient id="c" gradientUnits="userSpaceOnUse" x1="901.795" y1="673.356" x2="1021.316" y2="673.356" gradientTransform="matrix(1 0 0 -1 0 1072)"><stop offset=".006" stop-color="#28366f"/><stop offset=".227" stop-color="#242f66"/><stop offset=".541" stop-color="#221f53"/><stop offset=".765" stop-color="#1d1042"/><stop offset=".994" stop-color="#21122f"/></linearGradient><path d="M903.4 442.7c-.7 0-1.3-.4-1.6-1.1-.2-.9.2-1.7 1-1.8 39.9-11.6 69.3-34 86.8-50.6 19.1-18.1 28.7-33.6 28.8-33.8.4-.8 1.4-1 2.1-.6.8.4 1 1.4.6 2.1-.1.2-9.9 16.1-29.3 34.3-17.8 16.8-47.5 39.6-88 51.4 0 0-.3.1-.4.1z" fill="url(#c)"/><linearGradient id="d" gradientUnits="userSpaceOnUse" x1="898.773" y1="740.167" x2="971.695" y2="740.167" gradientTransform="matrix(1 0 0 -1 0 1072)"><stop offset=".006" stop-color="#131536"/><stop offset=".096" stop-color="#161432"/><stop offset=".186" stop-color="#1a1528"/><stop offset=".994" stop-color="#14151c"/></linearGradient><path d="M968.5 217.5c3.1 25 18.7 179.5-63.4 228.7-2.5 1.6-5.6-.2-5.8-3-1.3-18.4-2.1-76.9 31.6-145.9 24.3-49.8 33.4-72.3 36.1-80 .1-.7 1.4-.6 1.5.2z" fill="url(#d)"/><linearGradient id="e" gradientUnits="userSpaceOnUse" x1="897.63" y1="714.534" x2="959.67" y2="714.534" gradientTransform="matrix(1 0 0 -1 0 1072)"><stop offset=".006" stop-color="#28366f"/><stop offset=".227" stop-color="#242f66"/><stop offset=".541" stop-color="#221f53"/><stop offset=".765" stop-color="#1d1042"/><stop offset=".994" stop-color="#21122f"/></linearGradient><path d="M899.2 444.8c-.2 0-.6-.1-.8-.2-.8-.4-1-1.3-.7-2 41.4-76.1 58.8-166.3 58.9-170.7-.1-.8.3-1.4 1.1-1.7.9-.2 1.7.2 1.9 1 1 3.2-17.8 97-59.1 172.9-.2.3-.8.7-1.3.7z" fill="url(#e)"/><linearGradient id="f" gradientUnits="userSpaceOnUse" x1="399.522" y1="887.14" x2="511.303" y2="887.14" gradientTransform="matrix(1 0 0 -1 0 1072)"><stop offset=".006" stop-color="#131536"/><stop offset=".096" stop-color="#161432"/><stop offset=".186" stop-color="#1a1528"/><stop offset=".994" stop-color="#14151c"/></linearGradient><path d="M413.3 304.2s25.7-41.5 12.8-64.3-45.6-51.4-11.6-112.8c19.9-35.9 28.1-52 31.5-59 1.3-2.8 4.9-3.6 7.3-1.6 16.3 14.2 67.7 63.5 56.3 111.7-13.4 57.2-96.3 126-96.3 126z" fill="url(#f)"/><linearGradient id="g" gradientUnits="userSpaceOnUse" x1="422.037" y1="879.695" x2="468.693" y2="879.695" gradientTransform="matrix(1 0 0 -1 0 1072)"><stop offset=".006" stop-color="#28366f"/><stop offset=".227" stop-color="#242f66"/><stop offset=".541" stop-color="#221f53"/><stop offset=".765" stop-color="#1d1042"/><stop offset=".994" stop-color="#21122f"/></linearGradient><path d="M457.7 91.9s.3.8.8 2.2c.4 1.6 1.1 3.7 1.8 6.5.8 2.8 1.6 6.1 2.3 10.2.4 1.9.9 4.1 1.3 6.2.2 1.1.4 2.2.7 3.5.2 1.2.3 2.3.6 3.6s.3 2.5.6 3.7c.2 1.3.3 2.6.6 3.9.2 1.3.3 2.7.6 4 .1 1.4.3 2.8.4 4.2.1 1.4.3 2.8.4 4.3.1 1.4.2 2.9.3 4.5.1 1.6.2 2.9.3 4.6.1 1.6.1 3 .2 4.7.1 1.6.1 3.1.2 4.7 0 1.7 0 3.1.1 4.8v4.9c0 1.7-.1 3.2-.1 4.9 0 1.7-.1 3.2-.1 4.9-.1 1.7-.2 3.2-.3 5-.1 1.7-.2 3.2-.3 5v1.3l-.1 1.2-.2 2.5c-.8 6.7-1.9 13.2-3.5 19.6-1.6 6.4-3.5 12.6-5.6 18.4-2.1 5.8-4.6 11.4-6.9 16.5-2.3 5.2-5 9.9-7.5 14.2-2.5 4.3-5 8.1-7.1 11.6-2.2 3.3-4.3 6.2-6 8.6-1.8 2.2-3.1 4.1-4.2 5.3-.6.6-.9 1.1-1.2 1.4l-.4.4c-.7.7-1.7.8-2.2.1-.7-.6-.8-1.7-.2-2.2 0 0 .1-.1.3-.4.2-.3.6-.8 1-1.4 1-1.2 2.1-3 3.8-5.4 1.7-2.2 3.6-5.2 5.6-8.6 2-3.3 4.3-7.3 6.6-11.6s4.7-9 6.9-14.1 4.6-10.5 6.5-16.2c2-5.7 3.8-11.7 5.3-17.8 1.5-6.1 2.7-12.6 3.3-19l.2-2.5.1-1.2.1-.6v-.7c.1-1.7.2-3.2.3-4.9.1-1.7.2-3.2.3-4.9.1-1.7.1-3.2.2-4.9.1-1.7.1-3.1.2-4.8v-4.8-4.7c0-1.6-.1-3-.1-4.7 0-1.6-.1-3-.1-4.6 0-1.6-.1-2.9-.2-4.5s-.1-2.9-.2-4.3l-.3-4.2c-.1-1.4-.2-2.8-.3-4.1-.1-1.4-.3-2.7-.3-4l-.3-3.9c-.1-1.3-.3-2.5-.4-3.7-.1-1.2-.3-2.3-.4-3.6-.2-1.2-.3-2.2-.4-3.3-.3-2.2-.6-4.3-.9-6.2-.7-3.9-1.2-7.4-1.8-10.2s-1-5-1.4-6.5c-.3-1.6-.6-2.2-.6-2.2-.1-.6.2-1 .7-1.1.3-.3.9.1 1 .4z" fill="url(#g)"/><linearGradient id="h" gradientUnits="userSpaceOnUse" x1="306.026" y1="819.059" x2="425.181" y2="819.059" gradientTransform="matrix(1 0 0 -1 0 1072)"><stop offset=".006" stop-color="#131536"/><stop offset=".096" stop-color="#161432"/><stop offset=".186" stop-color="#1a1528"/><stop offset=".994" stop-color="#14151c"/></linearGradient><path d="M424.9 375.5c3.1 2.3-24.2-51.4-21-126.4 1.6-35.4 10.2-78.3-5.9-98.7-13.4-17.1-70.4-19.7-89.1-20.1-2.3 0-3.7 2.7-2.2 4.5 7.1 9 22.3 30 23.5 48.4 1.8 24.1 20.4 43.1 39.2 51 18.6 7.9 28.7 13.8 31.8 46.9 2.9 32.8 14.8 87.5 23.7 94.4z" fill="url(#h)"/><linearGradient id="i" gradientUnits="userSpaceOnUse" x1="331.618" y1="870.124" x2="401.508" y2="870.124" gradientTransform="matrix(1 0 0 -1 0 1072)"><stop offset=".006" stop-color="#28366f"/><stop offset=".227" stop-color="#242f66"/><stop offset=".541" stop-color="#221f53"/><stop offset=".765" stop-color="#1d1042"/><stop offset=".994" stop-color="#21122f"/></linearGradient><path d="M332.2 145.1s.6.1 1.7.3c1 .3 2.5.7 4.3 1.3 1.8.7 4.1 1.4 6.6 2.5s5.3 2.2 8.3 3.9c2.9 1.7 6 3.5 9.2 5.7 3.1 2.2 6.4 4.8 9.4 7.8 3 2.9 5.8 6.2 8.4 10 2.5 3.7 4.7 7.7 6.2 12l.7 1.7c.2.6.4 1.1.6 1.7.3 1.1.7 2.1 1 3.2.6 2.1 1.1 4.2 1.7 6.4.6 2.1 1.1 4.2 1.7 6.2.6 2 1 4.1 1.6 6.1 1 4 1.8 8 2.6 11.7s1.6 7.3 2.1 10.5c.3 1.7.6 3.2.9 4.7.2 1.6.4 2.9.8 4.2.4 2.7.8 5 1.1 6.9s.4 3.5.6 4.5c.1 1 .2 1.7.2 1.7 0 .3-.2.7-.6.8-.3 0-.7-.2-.8-.6 0 0-.1-.6-.3-1.6-.2-1-.6-2.5-.9-4.5-.8-3.8-1.9-9.2-3.3-15.7-.8-3.2-1.7-6.7-2.3-10.4-1-3.7-1.8-7.6-2.8-11.6-1-4-2.1-8.1-3.2-12.4-.6-2.1-1.1-4.2-1.8-6.4-.3-1-.7-2-1-3-.1-.6-.3-1-.6-1.6l-.6-1.6c-3-8.1-8.1-15.4-13.7-21.1-2.8-2.9-5.8-5.5-8.9-7.8-2.9-2.2-5.9-4.2-8.9-5.8-2.8-1.7-5.5-3-7.9-4.2-2.3-1.2-4.6-2-6.4-2.7-1.8-.7-3.2-1.2-4.2-1.6-1-.3-1.6-.4-1.6-.4-.3-.1-.4-.3-.3-.7-.1 0 .2-.1.4-.1z" fill="url(#i)"/><linearGradient id="j" gradientUnits="userSpaceOnUse" x1="265.812" y1="769.774" x2="423.396" y2="769.774" gradientTransform="matrix(1 0 0 -1 0 1072)"><stop offset=".006" stop-color="#131536"/><stop offset=".096" stop-color="#161432"/><stop offset=".186" stop-color="#1a1528"/><stop offset=".994" stop-color="#14151c"/></linearGradient><path d="M423.2 374.1c2.2 1.1-13.7-23.3-16.1-45.5-2.3-22.2-9.3-59.8-29.8-81.5-20.4-21.7-41.4-22.6-66.8-.6-21.1 18.4-34.4 27.8-42.4 29.9-1.9.6-2.9 2.8-1.8 4.6 5.6 9.3 21.4 30.4 46 27.4 31.2-3.6 68.2-26.1 80.6-9.6 12.5 16.3 11.5 26 12.3 34 .7 7.9 2.9 34.4 18 41.3z" fill="url(#j)"/><linearGradient id="k" gradientUnits="userSpaceOnUse" x1="320.809" y1="791.696" x2="402.886" y2="791.696" gradientTransform="matrix(1 0 0 -1 0 1072)"><stop offset=".006" stop-color="#28366f"/><stop offset=".227" stop-color="#242f66"/><stop offset=".541" stop-color="#221f53"/><stop offset=".765" stop-color="#1d1042"/><stop offset=".994" stop-color="#21122f"/></linearGradient><path d="M320.9 273.2s.3-.3.9-1 1.6-1.6 2.6-2.5c2.2-2 5.7-5 10.3-7.8 2.2-1.4 4.9-2.8 7.7-4.1 2.9-1.2 6-2.2 9.5-2.9.9-.2 1.8-.2 2.6-.3.4 0 .9 0 1.3-.1h2.7l1.4.1c.4 0 1 .1 1.4.2s.9.1 1.4.3c3.3.8 6.9 1.9 10.3 3.5 3.3 1.7 6.4 3.6 9.2 5.8.7.7 1.3 1.2 1.9 1.8.3.3.7.6 1 1l.9 1c.6.7 1.2 1.3 1.8 1.9.6.7 1.1 1.4 1.7 2 .3.3.6.7.8 1 .2.3.4.8.7 1.1.4.7.9 1.4 1.4 2 .9 1.4 1.7 2.8 2.2 4.1.7 1.4 1.3 2.8 1.9 4.1.6 1.3 1.1 2.6 1.7 3.9.3.7.4 1.2.7 1.8.2.7.4 1.2.6 1.8.3 1.2.8 2.2 1.1 3.2.3 1.1.6 2 .9 2.9.2.9.4 1.8.7 2.5.7 3 1.1 4.8 1.1 4.8.1.3-.1.7-.4.7-.3.1-.6-.1-.7-.3 0 0-.6-1.7-1.4-4.7-.4-1.6-1.1-3.2-1.8-5.3-.3-1-.8-2-1.2-3.1-.4-1.1-.9-2.2-1.4-3.5-.5-1.3-1.1-2.3-1.7-3.7-.7-1.2-1.3-2.5-2-3.9-.8-1.3-1.6-2.6-2.3-3.9-.4-.7-.9-1.3-1.3-1.9-.2-.3-.4-.7-.7-1-.2-.3-.6-.7-.8-1-.6-.7-1-1.3-1.6-1.8-.6-.7-1.1-1.2-1.7-1.8l-.9-.9c-.3-.3-.7-.6-1-.9-.7-.6-1.2-1.1-1.8-1.7-2.6-2-5.5-3.9-8.6-5.3-3.1-1.4-6.2-2.3-9.7-3.1-1.6-.3-3.1-.6-4.8-.6h-2.4c-.8.1-1.7.1-2.3.3-3.1.4-6 1.3-8.9 2.3-2.7 1.1-5.3 2.2-7.6 3.6-2.2 1.3-4.3 2.5-6 3.7-1.8 1.2-3.2 2.2-4.5 3.1-1.2 1-2.1 1.7-2.8 2.1-.7.6-1 .8-1 .8-.2.2-.7.2-.9-.1-.4.5-.4.1-.2-.2z" fill="url(#k)"/><linearGradient id="l" gradientUnits="userSpaceOnUse" x1="5604.644" y1="643.872" x2="5500.777" y2="530.894" gradientTransform="matrix(1 .0095 .0095 -1 -4991.953 1007.632)"><stop offset="0" stop-color="#252159"/><stop offset="1" stop-color="#303084"/></linearGradient><path d="M585.9 425.1s-1.1 6-1.8 12.2c-.2 2.3 1.7 4.5 3.9 4.6 8 .4 25.2 1.2 31.3 1 1 0 1.6-1 1.2-1.8-.3-.8-.9-1.3-1.6-1.7l-28.2-13.3-4.8-1z" fill="url(#l)"/><linearGradient id="m" gradientUnits="userSpaceOnUse" x1="5570.917" y1="635.505" x2="5580.147" y2="635.505" gradientTransform="matrix(1 .0095 .0095 -1 -4991.953 1007.632)"><stop offset="0" stop-color="#f59390"/><stop offset="1" stop-color="#f8b2b2"/></linearGradient><path d="M585.1 421.5l.8 7.3s5 2.3 8.4-.2l-1.9-8.1-7.3 1z" fill="url(#m)"/><linearGradient id="n" gradientUnits="userSpaceOnUse" x1="5612.97" y1="771.545" x2="5524.583" y2="651.748" gradientTransform="matrix(1 .0095 .0095 -1 -4991.953 1007.632)"><stop offset=".006" stop-color="#28366f"/><stop offset=".227" stop-color="#242f66"/><stop offset=".541" stop-color="#221f53"/><stop offset=".765" stop-color="#1d1042"/><stop offset=".994" stop-color="#21122f"/></linearGradient><path d="M587 284.6c-.3 1.9-2.9 94.9 6.6 136.8.2.7-.2 1.4-.9 1.7-1.6.7-4.6 1.6-8.1 1.7-1.1 0-2-.8-2.3-1.8-2.7-9.7-15.9-58.3-17.2-104.6-1.6-51.8 0-1.8 0-1.8l1.6-31.9 20.3-.1z" fill="url(#n)"/><linearGradient id="o" gradientUnits="userSpaceOnUse" x1="5581.335" y1="665.305" x2="5477.465" y2="552.321" gradientTransform="matrix(1 .0095 .0095 -1 -4991.953 1007.632)"><stop offset="0" stop-color="#252159"/><stop offset="1" stop-color="#303084"/></linearGradient><path d="M553.3 428s-1.8 3-3.5 11.3c-.3 1.6.8 2.9 2.1 3 2.6.3 6.7.7 9.9.7 1.6 0 2.7-1.3 2.5-2.8-.3-2.9-1.4-7.9-4.9-11.7l-6.1-.5z" fill="url(#o)"/><linearGradient id="p" gradientUnits="userSpaceOnUse" x1="5537.655" y1="636.093" x2="5545.628" y2="636.093" gradientTransform="matrix(1 .0095 .0095 -1 -4991.953 1007.632)"><stop offset="0" stop-color="#f59390"/><stop offset="1" stop-color="#f8b2b2"/></linearGradient><path d="M551.8 418.5l1.9 11s1.9 1.6 5.9.4l-.9-11.9-6.9.5z" fill="url(#p)"/><linearGradient id="q" gradientUnits="userSpaceOnUse" x1="5597.036" y1="783.303" x2="5508.649" y2="663.506" gradientTransform="matrix(1 .0095 .0095 -1 -4991.953 1007.632)"><stop offset=".006" stop-color="#28366f"/><stop offset=".227" stop-color="#242f66"/><stop offset=".541" stop-color="#221f53"/><stop offset=".765" stop-color="#1d1042"/><stop offset=".994" stop-color="#21122f"/></linearGradient><path d="M547.6 287c-8.7 49 .7 121.3 3.8 135.4.2.9.9 1.6 1.8 1.7 1.6.3 3.9.4 6.4-.2.9-.2 1.4-1 1.6-1.8.6-11.5.4-81.5 8.3-109.3.4-1.4 1.3-2.6 2.5-3.5l14.8-10.3 1.3-16.8-40.5 4.8z" fill="url(#q)"/><linearGradient id="r" gradientUnits="userSpaceOnUse" x1="7182.358" y1="880.713" x2="7127.742" y2="670.442" gradientTransform="rotate(180 3878.83 536)"><stop offset=".006" stop-color="#131536"/><stop offset=".096" stop-color="#161432"/><stop offset=".186" stop-color="#1a1528"/><stop offset=".994" stop-color="#14151c"/></linearGradient><path d="M600.2 194.5c-24.3-.7-51.3 5.9-51.3 5.9-7.7 42.3-2.1 91.2-2.1 91.2 18.8 5.1 40.2-2.6 40.2-2.6 3.3-17.6 18.4-67.4 18.4-67.4 11.9-1.4 21.8-4.8 29.9-9.2-6-7.3-8.9-16.3-10.2-21.8-8.6 2.7-17.3 4.2-24.9 3.9z" fill="url(#r)"/><linearGradient id="s" gradientUnits="userSpaceOnUse" x1="5608.938" y1="876.215" x2="5656.016" y2="876.215" gradientTransform="matrix(1 .0095 .0095 -1 -4991.953 1007.632)"><stop offset=".006" stop-color="#131536"/><stop offset=".096" stop-color="#161432"/><stop offset=".186" stop-color="#1a1528"/><stop offset=".994" stop-color="#14151c"/></linearGradient><path d="M672.6 159.4c-2.3-2.9-5.4-1.7-5.4-1.7-3.7 15.2-22.8 27.2-41.9 33 1.2 5.4 4 14.5 10.2 21.8 32.1-17.7 37.1-53.1 37.1-53.1z" fill="url(#s)"/><linearGradient id="t" gradientUnits="userSpaceOnUse" x1="4989.228" y1="885.041" x2="5020.857" y2="813.077" gradientTransform="matrix(-1 -.0095 .0095 -1 5642.773 1109.595)"><stop offset="0" stop-color="#f59390"/><stop offset="1" stop-color="#f8b2b2"/></linearGradient><path d="M672 160c.2.8-2.7 1.9-4.3-1.3 0-1.7-1-8.3 0-9.5 5-6.7 14.7-15.2 14.7-15.2 1.7 1.7.2 3.1.2 3.1l-4.8 4.9c1 1.8 2.1 3.2 2.7 5.4.4 1.7.1 3.3-.7 4.9-.8 1.6-1.9 3.3-3 4.9-1.8 2.9-4.8 2.8-4.8 2.8z" fill="url(#t)"/><linearGradient id="u" gradientUnits="userSpaceOnUse" x1="5655.825" y1="908.051" x2="5669.023" y2="928.342" gradientTransform="matrix(1 .0095 .0095 -1 -4991.953 1007.632)"><stop offset="0" stop-color="#f59390"/><stop offset="1" stop-color="#f8b2b2"/></linearGradient><path d="M675.9 145.3l-4.3 3.6-1.4 3.6 3.8 4.2s1.3-7.1 2.2-8.7c1.1-1.5.6-2.3-.3-2.7z" fill="url(#u)"/><linearGradient id="v" gradientUnits="userSpaceOnUse" x1="7224.615" y1="869.737" x2="7170" y2="659.467" gradientTransform="rotate(180 3878.83 536)"><stop offset=".006" stop-color="#131536"/><stop offset=".096" stop-color="#161432"/><stop offset=".186" stop-color="#1a1528"/><stop offset=".994" stop-color="#14151c"/></linearGradient><path d="M558.1 224.2l-9-23.7s-23 15.3-26.9 34.8c4.3.3 12.2 1.6 19.7 5.5 1.7-9.3 16.2-16.6 16.2-16.6z" fill="url(#v)"/><linearGradient id="w" gradientUnits="userSpaceOnUse" x1="5505.824" y1="809.554" x2="5565.49" y2="809.554" gradientTransform="matrix(1 .0095 .0095 -1 -4991.953 1007.632)"><stop offset="0" stop-color="#f59390"/><stop offset="1" stop-color="#f8b2b2"/></linearGradient><path d="M577.8 246.5s-25.8 14.2-34.1 1.8c-1.8-2.6-2.1-5.1-1.8-7.6-7.6-3.9-15.5-5.1-19.7-5.5-1.2 5.9-.7 12.3 2.8 18.6 14.8 27.8 56.2-1 56.2-1l-3.4-6.3z" fill="url(#w)"/><linearGradient id="x" gradientUnits="userSpaceOnUse" x1="584.493" y1="899.325" x2="572.868" y2="855.902" gradientTransform="matrix(1 0 0 -1 0 1072)"><stop offset="0" stop-color="#f59390"/><stop offset="1" stop-color="#f8b2b2"/></linearGradient><path d="M575.8 174.5l-8 22.4c-.1.3 0 .8.3 1 2 1.2 9.6 4.7 19-1.1 1-.6 1.7-1.7 1.8-2.7l2.7-19.4-15.8-.2z" fill="url(#x)"/><linearGradient id="y" gradientUnits="userSpaceOnUse" x1="300.057" y1="-953.633" x2="274.413" y2="-925.254" gradientTransform="scale(1 -1) rotate(41.209 511.284 1980.151)"><stop offset="0" stop-color="#f59390"/><stop offset="1" stop-color="#f8b2b2"/></linearGradient><path d="M592.9 153.9s8.4 16.2 7.3 22.6c-1.1 6.5-11.7 5.9-20.9.6l-6.2-17.4 19.8-5.8z" fill="url(#y)"/><linearGradient id="z" gradientUnits="userSpaceOnUse" x1="-850.144" y1="354.754" x2="-842.771" y2="312.706" gradientTransform="scale(1 -1) rotate(41.209 511.284 1980.151)"><stop offset="0" stop-color="#252159"/><stop offset="1" stop-color="#303084"/></linearGradient><path d="M579.7 168.6c.3-.2.6-.7.3-1-.7-1.1-1.9-3.1-2.2-5.1 0 0-1.6-1 3.9-2.2 5.4-1.2 13.5-3.1 15.3-7.8 1.8-4.5-2.6-15.9-9.5-6.9-.3.3-.8.3-1.1 0-1.1-1.6-4.1-4.7-8.3-2.8-3.9 1.8-4.3 4.6-4.3 5.9 0 .4-.3.8-.8.7-1.9-.4-6.7-.8-8.9 4.1-1.8 4-.7 6.2.3 7.4.3.3.2 1-.3 1.1-1.3.3-2.9 1.6-2.8 4.6.2 4.2 4.9 3.9 6.2 3.7.2 0 .4 0 .6.2 1.1 1.3 6.2 6.7 11.8 7.4.4.1.9-.4.8-.9l-2.3-7c-.1-.3 0-.7.3-.9l1-.5z" fill="url(#z)"/><linearGradient id="A" gradientUnits="userSpaceOnUse" x1="296.819" y1="-956.558" x2="271.175" y2="-928.179" gradientTransform="scale(1 -1) rotate(41.209 511.284 1980.151)"><stop offset="0" stop-color="#f59390"/><stop offset="1" stop-color="#f8b2b2"/></linearGradient><path d="M580.7 169.6s-6-4.2-6.5-.8c-.4 3.5 5.4 5.1 8.4 3.9l-1.9-3.1z" fill="url(#A)"/><linearGradient id="B" gradientUnits="userSpaceOnUse" x1="5302.708" y1="859.383" x2="5335.623" y2="722.236" gradientTransform="matrix(1 0 0 -1 -4705.662 1072)"><stop offset=".006" stop-color="#28366f"/><stop offset=".227" stop-color="#242f66"/><stop offset=".541" stop-color="#221f53"/><stop offset=".765" stop-color="#1d1042"/><stop offset=".994" stop-color="#21122f"/></linearGradient><path d="M572.5 269l13.9-48.9c.2-.6.7-1 1.2-1 2.5-.3 9.8-1.1 18.4-1.8 10.2-.9 22.1-1.7 29.2-1 1 .1 1.7 1.2 1.2 2-4 8.3-20.6 41.3-28.9 52.2-.3.3-.8.6-1.2.6l-32.5-.3c-.9 0-1.6-.8-1.3-1.8z" fill="url(#B)"/><linearGradient id="C" gradientUnits="userSpaceOnUse" x1="5280.237" y1="823.103" x2="5298.887" y2="823.103" gradientTransform="matrix(1 0 0 -1 -4705.662 1072)"><stop offset="0" stop-color="#f59390"/><stop offset="1" stop-color="#f8b2b2"/></linearGradient><path d="M575.9 257.1s-1.9-8-1.2-10.8c.8-2.8 2.2-6.5 7.4-5.6 5.1.9 11 2.9 11 2.9s-.3 3.7-4.2 2.5l2.3 1.8s-.3 2.9-3.6 1.4l2.2 2.5s-1.4 2.3-3.8.9c-2.2-1.6-3.3 5.4-10.1 4.4z" fill="url(#C)"/><linearGradient id="D" gradientUnits="userSpaceOnUse" x1="605.186" y1="840.159" x2="613.408" y2="840.159" gradientTransform="matrix(1 0 0 -1 0 1072)"><stop offset=".006" stop-color="#28366f"/><stop offset=".227" stop-color="#242f66"/><stop offset=".541" stop-color="#221f53"/><stop offset=".765" stop-color="#1d1042"/><stop offset=".994" stop-color="#21122f"/></linearGradient><circle cx="609.3" cy="231.8" r="4.1" fill="url(#D)"/><linearGradient id="E" gradientUnits="userSpaceOnUse" x1="587.212" y1="845.023" x2="627.003" y2="845.023" gradientTransform="matrix(1 0 0 -1 0 1072)"><stop offset=".006" stop-color="#28366f"/><stop offset=".227" stop-color="#242f66"/><stop offset=".541" stop-color="#221f53"/><stop offset=".765" stop-color="#1d1042"/><stop offset=".994" stop-color="#21122f"/></linearGradient><path d="M588 234.5l-.8-.2 2.8-9.6c.4-1.6 1.7-2.7 3.1-2.9 9-1.8 33.6-2.2 33.9-2.2v.8c-.2 0-24.7.4-33.7 2.2-1.2.3-2.2 1.2-2.6 2.3l-2.7 9.6z" fill="url(#E)"/><linearGradient id="F" gradientUnits="userSpaceOnUse" x1="414.091" y1="664.308" x2="429.275" y2="664.308" gradientTransform="matrix(1 0 0 -1 0 1072)"><stop offset=".006" stop-color="#131536"/><stop offset=".096" stop-color="#161432"/><stop offset=".186" stop-color="#1a1528"/><stop offset=".994" stop-color="#14151c"/></linearGradient><path d="M422.4 371.3c-1.6 2.2-7.5 52.2-8.4 70.6-.1 1.3 1 2.2 2.1 2.2s1.9-.8 2.1-1.8l10.8-69.5-6.6-1.5z" fill="url(#F)"/><linearGradient id="G" gradientUnits="userSpaceOnUse" x1="463.293" y1="664.308" x2="478.477" y2="664.308" gradientTransform="matrix(1 0 0 -1 0 1072)"><stop offset=".006" stop-color="#131536"/><stop offset=".096" stop-color="#161432"/><stop offset=".186" stop-color="#1a1528"/><stop offset=".994" stop-color="#14151c"/></linearGradient><path d="M470.2 371.3c1.6 2.2 7.5 52.2 8.4 70.6.1 1.3-1 2.2-2.1 2.2s-1.9-.8-2.1-1.8l-10.9-69.4 6.7-1.6z" fill="url(#G)"/><linearGradient id="H" gradientUnits="userSpaceOnUse" x1="413.453" y1="703.759" x2="479.034" y2="703.759" gradientTransform="matrix(1 0 0 -1 0 1072)"><stop offset=".006" stop-color="#131536"/><stop offset=".096" stop-color="#161432"/><stop offset=".186" stop-color="#1a1528"/><stop offset=".994" stop-color="#14151c"/></linearGradient><path d="M413.5 367.4v.6c0 3.9 3.3 7.1 7.6 7.3l50.1.9c4.2.1 7.7-2.9 7.9-6.8v-.6c.2-4-3.2-7.5-7.6-7.5l-50.2-.9c-4.2-.1-7.7 3-7.8 7z" fill="url(#H)"/><linearGradient id="I" gradientUnits="userSpaceOnUse" x1="504.418" y1="632.008" x2="540.756" y2="632.008" gradientTransform="matrix(1 0 0 -1 0 1072)"><stop offset="0" stop-color="#4d58a7"/><stop offset="1" stop-color="#5561ac"/></linearGradient><path d="M519 440.2c-8.9 0-12.8-.8-14.6-1.6.3 1.6 1.7 2.6 3.2 2.6h31.6c1.1 0 1.8-1 1.6-1.9-3.6.4-11.3.9-21.8.9z" fill="url(#I)"/><linearGradient id="J" gradientUnits="userSpaceOnUse" x1="532.529" y1="701.879" x2="522.596" y2="633.248" gradientTransform="matrix(1 0 0 -1 0 1072)"><stop offset="0" stop-color="#252159"/><stop offset="1" stop-color="#303084"/></linearGradient><path d="M540.8 439.4c0-.2-.1-.3-.3-.6-2.3-3-7.3-7.9-13.7-7.8-9.6.1-12.9 1.2-20.4.1l-1.8 5.8c-.2.6-.2 1.2-.1 1.8 1.8.7 5.7 1.6 14.6 1.6 10.4-.1 18.1-.6 21.7-.9z" fill="url(#J)"/><linearGradient id="K" gradientUnits="userSpaceOnUse" x1="506.305" y1="642.901" x2="516.151" y2="642.901" gradientTransform="matrix(1 0 0 -1 0 1072)"><stop offset="0" stop-color="#f59390"/><stop offset="1" stop-color="#f8b2b2"/></linearGradient><path d="M508.4 424.9l-2.1 7.4s4.8 2.1 9 .4l.9-6.4-7.8-1.4z" fill="url(#K)"/><linearGradient id="L" gradientUnits="userSpaceOnUse" x1="561.524" y1="639.135" x2="590.9" y2="639.135" gradientTransform="matrix(1 0 0 -1 0 1072)"><stop offset="0" stop-color="#4d58a7"/><stop offset="1" stop-color="#5561ac"/></linearGradient><path d="M573.8 435.6c-6.9 5.6-10.5 7.5-12.4 8 1.2 1 2.9 1 4.2 0l24.5-19.7c.9-.7.8-1.8-.1-2.3-2.4 2.3-8 7.3-16.2 14z" fill="url(#L)"/><linearGradient id="M" gradientUnits="userSpaceOnUse" x1="581.715" y1="694.76" x2="571.781" y2="626.129" gradientTransform="matrix(1 0 0 -1 0 1072)"><stop offset="0" stop-color="#252159"/><stop offset="1" stop-color="#303084"/></linearGradient><path d="M590.2 421.4c-.2-.1-.3-.2-.6-.2-3.8-.9-10.5-1.7-15.6 2.6-7.5 6.1-9.4 9-15.9 12.8l2.2 5.6c.2.6.7 1 1.1 1.4 1.8-.6 5.4-2.3 12.4-8 8.2-6.7 13.8-11.7 16.4-14.2z" fill="url(#M)"/><linearGradient id="N" gradientUnits="userSpaceOnUse" x1="513.87" y1="740.007" x2="476.944" y2="665.812" gradientTransform="matrix(1 0 0 -1 0 1072)"><stop offset=".006" stop-color="#28366f"/><stop offset=".227" stop-color="#242f66"/><stop offset=".541" stop-color="#221f53"/><stop offset=".765" stop-color="#1d1042"/><stop offset=".994" stop-color="#21122f"/></linearGradient><path d="M462.2 341s53.3 4.3 64.3 9.5c10.9 5.2-8.9 77.3-8.9 77.3s-2.9 1.4-9.6-.7c0 0 6.8-53.3 1.8-64.9l-57.8-9.4 10.2-11.8z" fill="url(#N)"/><linearGradient id="O" gradientUnits="userSpaceOnUse" x1="552.904" y1="642.029" x2="564.647" y2="642.029" gradientTransform="matrix(1 0 0 -1 0 1072)"><stop offset="0" stop-color="#f59390"/><stop offset="1" stop-color="#f8b2b2"/></linearGradient><path d="M552.9 426.4c.4.4 5.3 10.2 5.3 10.2s5.3-1.2 6.4-4.6l-4.9-8.8-6.8 3.2z" fill="url(#O)"/><linearGradient id="P" gradientUnits="userSpaceOnUse" x1="546.698" y1="769.042" x2="528.577" y2="740.663" gradientTransform="matrix(1 0 0 -1 0 1072)"><stop offset=".006" stop-color="#28366f"/><stop offset=".227" stop-color="#242f66"/><stop offset=".541" stop-color="#221f53"/><stop offset=".765" stop-color="#1d1042"/><stop offset=".994" stop-color="#21122f"/></linearGradient><path d="M430.1 340.6s-1.8 4.2-1.7 9.7c.1 7.7 6.2 13.9 13.9 14.3l63 2.9c1.3.1 2.5 1 2.8 2.2 1.6 5.7 8.8 23.3 44.2 58.4 1 1 2.3 1.1 3.6.3l5-3.1c.6-.3.7-1 .3-1.7L524.7 361c-1.9-3.1-5-5.5-8.7-6.4l-53.6-13.7-32.3-.3z" fill="url(#P)"/><linearGradient id="Q" gradientUnits="userSpaceOnUse" x1="502.421" y1="829.008" x2="477.119" y2="797.211" gradientTransform="matrix(1 0 0 -1 0 1072)"><stop offset="0" stop-color="#f59390"/><stop offset="1" stop-color="#f8b2b2"/></linearGradient><path d="M492.3 242.5s-6.8 11.9-13.6 17.7l14.3 7.9s3.2-12.6 10.5-16.3l-11.2-9.3z" fill="url(#Q)"/><linearGradient id="R" gradientUnits="userSpaceOnUse" x1="463.779" y1="774.45" x2="527.547" y2="669.763" gradientTransform="matrix(1 0 0 -1 0 1072)"><stop offset="0" stop-color="#0a6895"/><stop offset="1" stop-color="#0c6d65"/></linearGradient><path d="M428.9 341s17 4.1 33.4 0c0 0 22.8-30.6 31.6-38.9 0 0 14.1 22.2 45.2 25.3l1.8-3.9S516 312 508.3 294.4c-7.7-17.6-10.7-25.1-17.7-29.8-4.3-2.9-6.9-4.9-8.3-5.8-.8-.6-1.8-.7-2.6-.2-7.4 4.5-42.2 28.3-50.8 82.4z" fill="url(#R)"/><linearGradient id="S" gradientUnits="userSpaceOnUse" x1="540.376" y1="1102.616" x2="518.494" y2="965.851" gradientTransform="matrix(1 0 0 -1 0 1072)"><stop offset="0" stop-color="#0a6895"/><stop offset="1" stop-color="#0c6d65"/></linearGradient><path d="M492.7 302.3c-.6 0-1-.2-1.4-.7-5.5-7.1-8.6-15.1-8.7-15.4-.3-.9.1-1.8 1-2.2.9-.3 1.8.1 2.2 1 0 .1 3 7.8 8.3 14.5.6.8.4 1.8-.3 2.3-.3.4-.6.5-1.1.5z" fill="url(#S)"/><linearGradient id="T" gradientUnits="userSpaceOnUse" x1="537.108" y1="750.912" x2="564.221" y2="750.912" gradientTransform="matrix(1 0 0 -1 0 1072)"><stop offset="0" stop-color="#f59390"/><stop offset="1" stop-color="#f8b2b2"/></linearGradient><path d="M537.1 321.4l3.6-1 10.7-2.5c1.3-.3 2.6-.1 3.8.7l9.2 5.7h-25.3l-2-2.9z" fill="url(#T)"/><linearGradient id="U" gradientUnits="userSpaceOnUse" x1="2412.881" y1="689.607" x2="2436.815" y2="637.978" gradientTransform="scale(1 -1) rotate(7.505 6699.087 -15375.818)"><stop offset="0" stop-color="#f59390"/><stop offset="1" stop-color="#f8b2b2"/></linearGradient><path d="M503 224.7s6.6 10.9 7.7 17c1.1 6 2.9 9.8-3.9 12-6.9 2.1-13.3-.6-17.3-6.1 0 0-6.2-8.7-5.6-12.6.7-4.2 19.1-10.3 19.1-10.3z" fill="url(#U)"/><linearGradient id="V" gradientUnits="userSpaceOnUse" x1="2515.607" y1="462.172" x2="2541.931" y2="428.28" gradientTransform="scale(1 -1) rotate(7.505 6699.087 -15375.818)"><stop offset="0" stop-color="#252159"/><stop offset="1" stop-color="#303084"/></linearGradient><path d="M491.4 242.6l.9-.1s-4.7-7-1.7-8.8c3-1.8 15.5-6 17.6-10.9 2-4.8-1-10-4.8-11.2-.2-.1-.4.1-.6.3l-.2.6c-.1.4-.8.4-.9 0-.2-.3-.8-.3-.9 0-.7 1.6-2.7 4-8.7 5.8-8.5 2.7-13.7 7-13.1 12.9 0 .3-.3.7-.7.4-.7-.3-1.8-.3-2.9 1-2.1 2.2-.4 7.4 5.3 10.9.3.2.3.6.1.8-.9.8-2 2.3 1.8 3.9 4 1.6 6.1 1 7 .7.2-.1.3-.3.3-.6l-1-5.3c-.1-.3.1-.6.4-.6l2.1.2z" fill="url(#V)"/><linearGradient id="W" gradientUnits="userSpaceOnUse" x1="2403.737" y1="685.367" x2="2427.671" y2="633.739" gradientTransform="scale(1 -1) rotate(7.505 6699.087 -15375.818)"><stop offset="0" stop-color="#f59390"/><stop offset="1" stop-color="#f8b2b2"/></linearGradient><path d="M491.7 243.7s-2.9-7.1-5.9-4.7c-3 2.5 2.8 8.1 5.5 8l.4-3.3z" fill="url(#W)"/><linearGradient id="X" gradientUnits="userSpaceOnUse" x1="742.234" y1="5104.197" x2="669.686" y2="5034.057" gradientTransform="matrix(-1.388 -.0686 .0685 -1.3855 -4595.51 1238.354)"><stop offset="0" stop-color="#252159"/><stop offset="1" stop-color="#303084"/></linearGradient><path d="M527.4 329.4l54.3-.1c1.3 0 2.3-1.1 2.3-2.3 0-1.3-1.1-2.3-2.3-2.3l-54.2.1c-1.3 0-2.3 1.1-2.3 2.3-.3 1.3.9 2.2 2.2 2.3z" fill="url(#X)"/><linearGradient id="Y" gradientUnits="userSpaceOnUse" x1="-2471.149" y1="3094.986" x2="-2543.695" y2="3024.848" gradientTransform="matrix(.6475 -1.2297 1.2274 .6463 6483.183 -7404.348)"><stop offset="0" stop-color="#252159"/><stop offset="1" stop-color="#303084"/></linearGradient><path d="M602.6 276.4l-22.9 49.2c-.6 1.2 0 2.7 1.2 3.2 1.2.6 2.7 0 3.2-1.2l22.9-49.1c.6-1.2 0-2.7-1.2-3.2s-2.6-.1-3.2 1.1z" fill="url(#Y)"/><linearGradient id="Z" gradientUnits="userSpaceOnUse" x1="738.702" y1="662.363" x2="744.418" y2="662.363" gradientTransform="matrix(1 0 0 -1 0 1072)"><stop offset=".006" stop-color="#131536"/><stop offset=".096" stop-color="#161432"/><stop offset=".186" stop-color="#1a1528"/><stop offset=".994" stop-color="#14151c"/></linearGradient><path fill="url(#Z)" d="M738.7 378.7h5.7v61.8h-5.7z"/><linearGradient id="aa" gradientUnits="userSpaceOnUse" x1="716.509" y1="631.962" x2="766.613" y2="631.962" gradientTransform="matrix(1 0 0 -1 0 1072)"><stop offset=".006" stop-color="#131536"/><stop offset=".096" stop-color="#161432"/><stop offset=".186" stop-color="#1a1528"/><stop offset=".994" stop-color="#14151c"/></linearGradient><path d="M766.6 441.9h-50.1c0-2 1.7-3.7 3.7-3.7h42.6c2.2-.1 3.8 1.5 3.8 3.7z" fill="url(#aa)"/><linearGradient id="ab" gradientUnits="userSpaceOnUse" x1="711.074" y1="698.116" x2="774.039" y2="698.116" gradientTransform="matrix(1 0 0 -1 0 1072)"><stop offset=".006" stop-color="#131536"/><stop offset=".096" stop-color="#161432"/><stop offset=".186" stop-color="#1a1528"/><stop offset=".994" stop-color="#14151c"/></linearGradient><path d="M774 376.7c0 3.3-2.8 6.1-6.1 6.1h-50.6c-3.3 0-6.1-2.8-6.1-6.1v-5.6c0-3.3 2.8-6.1 6.1-6.1h50.6c3.3 0 6.1 2.8 6.1 6.1v5.6z" fill="url(#ab)"/><linearGradient id="ac" gradientUnits="userSpaceOnUse" x1="725.696" y1="694.659" x2="627.226" y2="650.211" gradientTransform="matrix(1 0 0 -1 0 1072)"><stop offset="0" stop-color="#f59390"/><stop offset="1" stop-color="#f8b2b2"/></linearGradient><path d="M699.4 337.6s-8.5 1.3-18.1 7.7c-1.6 1-2.2 2.8-2 4.6 1.1 9 5.8 38.4 21.3 66.9.9 1.6 1.1 3.2.7 5l-2.7 12.6-5 4.7h12.8l8.6-23.2-3.7-1.2c-2.8-.9-4.8-3.6-4.9-6.5l-.4-24.9c.3-11-6.8-18.7-6.8-18.7l20.5-1-20.3-26z" fill="url(#ac)"/><linearGradient id="ad" gradientUnits="userSpaceOnUse" x1="704.072" y1="657.207" x2="698.094" y2="565.54" gradientTransform="matrix(1 0 0 -1 0 1072)"><stop offset="0" stop-color="#252159"/><stop offset="1" stop-color="#303084"/></linearGradient><path d="M688.6 441.3c-1.2 1.6 12.6 3.6 19.6.2 0 0 9.6-16.7 9.6-25.4 0 0-.8-1.8-6.4-1.4 0 0-3.2 19.9-6.7 22.1-3.5 2.2-9.5.2-9.5.2s-4.9 2.1-6.6 4.3z" fill="url(#ad)"/><linearGradient id="ae" gradientUnits="userSpaceOnUse" x1="606.969" y1="783.087" x2="631.587" y2="742.741" gradientTransform="matrix(1 0 0 -1 0 1072)"><stop offset="0" stop-color="#f59390"/><stop offset="1" stop-color="#f8b2b2"/></linearGradient><path d="M717.3 364.9c-.1-.2-22.1-2.6-22.1-2.6s.8 6.7-1.6 15.9c-2.3 9.1-34.6 49.1-34.6 49.1l3.3 10.7c-10.5 3.7-20.8 4.2-30.9 1.8l21-12.6s19.7-66.9 31.7-79l22.1-7.6 11.1 24.3z" fill="url(#ae)"/><linearGradient id="af" gradientUnits="userSpaceOnUse" x1="684.501" y1="725.649" x2="780.581" y2="725.649" gradientTransform="matrix(1 0 0 -1 0 1072)"><stop offset=".006" stop-color="#28366f"/><stop offset=".227" stop-color="#242f66"/><stop offset=".541" stop-color="#221f53"/><stop offset=".765" stop-color="#1d1042"/><stop offset=".994" stop-color="#21122f"/></linearGradient><path d="M766.6 326s12.6 18.8 13.7 27.4c1 8.7-3.5 12.2-16.7 12.6-13.3.6-48.8.6-48.8.6l-30.3-26s22.1-7.9 27.8-10.2c5.7-2 54.3-4.4 54.3-4.4z" fill="url(#af)"/><linearGradient id="ag" gradientUnits="userSpaceOnUse" x1="646.3" y1="660.975" x2="640.321" y2="569.308" gradientTransform="matrix(1 0 0 -1 0 1072)"><stop offset="0" stop-color="#252159"/><stop offset="1" stop-color="#303084"/></linearGradient><path d="M661.1 434.5s3.7 3.6 1.2 7.5c0 0-28.9 5.1-36.8 2.8 0 0 1.7-3.7 10.5-8l-.7.6c-.9.7-.3 1.9.7 1.8 5.8-.4 18-1.5 25.1-4.7z" fill="url(#ag)"/><linearGradient id="ah" gradientUnits="userSpaceOnUse" x1="752.109" y1="886.14" x2="737.96" y2="811.809" gradientTransform="matrix(1 0 0 -1 0 1072)"><stop offset="0" stop-color="#252159"/><stop offset="1" stop-color="#303084"/></linearGradient><path d="M711.6 206.4c26-4.5 38 16.7 37.3 21.2-.1.6.4 1.1 1 1 2.9-.8 9.5-1.8 13.6 3.2 3.6 4.6 1 8.8-1.3 11.2-.6.6-.1 1.6.7 1.4 5.5-.7 17.4-.9 19.4 10.3 1.8 10.4-5.4 13.3-9.7 14.2-.8.1-.9 1.1-.3 1.6 2.1 1.4 4.7 4.2 3.6 9.7-1.7 8.7-18.6 8-20.5 7.9-.1 0-.2 0-.3-.1l-27.2-15.5c-.2-.1-.3-.3-.4-.6l-5.5-31.8c0-.3 0-.6.2-.8l-17.7-25.1c-6.7-1.1 6.9-7.8 7.1-7.8z" fill="url(#ah)"/><linearGradient id="ai" gradientUnits="userSpaceOnUse" x1="726.619" y1="805.189" x2="772.194" y2="705.996" gradientTransform="matrix(1 0 0 -1 0 1072)"><stop offset="0" stop-color="#0a6895"/><stop offset="1" stop-color="#0c6d65"/></linearGradient><path d="M732.3 323.5s-14.8-14.1-22.1-23.3c-3.9-5-5.2-11.7-3.3-17.7 3.3-11.2 9.2-22.8 9.7-24.5.9-2.8 17.4-2.6 17.4-2.6s32.6 21.2 45.4 57l-14.4 4.5s-8.6-14.3-16.8-23.3c0 0 14.5 19.3 15.1 27l-31 2.9z" fill="url(#ai)"/><linearGradient id="aj" gradientUnits="userSpaceOnUse" x1="715.557" y1="838.699" x2="731.627" y2="804.166" gradientTransform="matrix(1 0 0 -1 0 1072)"><stop offset="0" stop-color="#f59390"/><stop offset="1" stop-color="#f8b2b2"/></linearGradient><path d="M714.7 242.3c.2.6 4.5 14.9 4.9 15.3.3.3 9.5.8 13.7-2.1l-10.7-20.9-7.9 7.7z" fill="url(#aj)"/><g><linearGradient id="ak" gradientUnits="userSpaceOnUse" x1="-254.165" y1="-2570.028" x2="-259.635" y2="-2529.683" gradientTransform="scale(1 -1) rotate(52.828 -1851.132 -248.037)"><stop offset="0" stop-color="#f59390"/><stop offset="1" stop-color="#f8b2b2"/></linearGradient><path d="M697.3 223.9s-2 8.3 3.7 19.3 12.4 11 15.9 7.5c3.6-3.6 8-9.5 6.9-20.2-1.1-10.7-23.4-17-26.5-6.6z" fill="url(#ak)"/><linearGradient id="al" gradientUnits="userSpaceOnUse" x1="-279.232" y1="-2242.637" x2="-293.381" y2="-2316.969" gradientTransform="scale(1 -1) rotate(52.828 -1851.132 -248.037)"><stop offset="0" stop-color="#252159"/><stop offset="1" stop-color="#303084"/></linearGradient><path d="M715.8 231s-9.5-14.7-18.6-3.1l-.2 4.2s-10.5-1.3-8.7-10.9c1.8-9.6 10.9-15.7 22.8-11.6 11.8 4.1 18.4 8.5 19.2 16.8.8 8.5-5.9 6.6-5.9 6.6s-2.1-5.9-5.3-6.5c-3.1-.7-2.2 4-2.2 4l-1.1.5z" fill="url(#al)"/><linearGradient id="am" gradientUnits="userSpaceOnUse" x1="-243.868" y1="-2568.633" x2="-249.339" y2="-2528.288" gradientTransform="scale(1 -1) rotate(52.828 -1851.132 -248.037)"><stop offset="0" stop-color="#f59390"/><stop offset="1" stop-color="#f8b2b2"/></linearGradient><path d="M719.3 233.3s-5-7.6.1-8.7c5.1-1.1 4.3 7.4 3.8 10.4l-3.9-1.7z" fill="url(#am)"/></g><linearGradient id="an" gradientUnits="userSpaceOnUse" x1="721.348" y1="852.195" x2="727.502" y2="822.107" gradientTransform="matrix(1 0 0 -1 0 1072)"><stop offset="0" stop-color="#f59390"/><stop offset="1" stop-color="#f8b2b2"/></linearGradient><path d="M702.2 324.6l10.8-10.5 15.1 6.2s14.9 2.2 23.4 0 8.6-2.2 8.6-2.2l19.4-6 3 8.6c.8 2.1 0 4.6-1.8 5.9-1.7 1.2-3.6 2.5-4.9 3-2.5 1.1-62.8-.8-62.8-.8l-10.8-4.2z" fill="url(#an)"/><g><linearGradient id="ao" gradientUnits="userSpaceOnUse" x1="735.723" y1="671.076" x2="685.003" y2="657.175" gradientTransform="scale(1 -1) rotate(2.832 20647.88 547.526)"><stop offset=".006" stop-color="#28366f"/><stop offset=".227" stop-color="#242f66"/><stop offset=".541" stop-color="#221f53"/><stop offset=".765" stop-color="#1d1042"/><stop offset=".994" stop-color="#21122f"/></linearGradient><path d="M743.4 329.4l-63-.1c-1.7 0-2.8-1.3-2.8-2.8 0-1.7 1.3-2.8 2.8-2.8l62.9.1c1.7 0 2.8 1.3 2.8 2.8-.2 1.6-1.4 2.8-2.7 2.8z" fill="url(#ao)"/><linearGradient id="ap" gradientUnits="userSpaceOnUse" x1="685.245" y1="792.088" x2="649.257" y2="754.051" gradientTransform="matrix(1 0 0 -1 0 1072)"><stop offset=".006" stop-color="#28366f"/><stop offset=".227" stop-color="#242f66"/><stop offset=".541" stop-color="#221f53"/><stop offset=".765" stop-color="#1d1042"/><stop offset=".994" stop-color="#21122f"/></linearGradient><path d="M623.6 272.3h52.3c3.9 0 7.4 2.2 9 5.7l24.2 51.4H644c-2.5 0-4.8-1.6-5.6-3.8L619.6 278c-1.1-2.8 1-5.7 4-5.7z" fill="url(#ap)"/><linearGradient id="aq" gradientUnits="userSpaceOnUse" x1="652.148" y1="772.024" x2="661.022" y2="772.024" gradientTransform="matrix(1 0 0 -1 0 1072)"><stop offset=".006" stop-color="#28366f"/><stop offset=".227" stop-color="#242f66"/><stop offset=".541" stop-color="#221f53"/><stop offset=".765" stop-color="#1d1042"/><stop offset=".994" stop-color="#21122f"/></linearGradient><path d="M660.6 298.7c1.1 3.6.3 6.9-1.8 7.7-2.1.7-4.9-1.7-5.9-5.1-1.1-3.6-.3-6.9 1.8-7.7 2.1-.8 4.7 1.6 5.9 5.1z" fill="url(#aq)"/></g><linearGradient id="ar" gradientUnits="userSpaceOnUse" x1="-7329.265" y1="571.537" x2="-7328.733" y2="515.208" gradientTransform="rotate(180 -3265.64 536)"><stop offset="0" stop-color="#252159"/><stop offset="1" stop-color="#303084"/></linearGradient><path d="M815.1 434s.7 3.7 1 8c.1 1.8-1.3 3.5-3.1 3.7-6.4.7-21.1 1.8-30.5.4-1.3-.2-1.8-1.8-.9-2.7 3.9-3.6 13.2-10.6 28.6-12.2l4.9 2.8z" fill="url(#ar)"/><linearGradient id="as" gradientUnits="userSpaceOnUse" x1="-7342.756" y1="634.45" x2="-7345.68" y2="657.3" gradientTransform="rotate(180 -3265.64 536)"><stop offset="0" stop-color="#f59390"/><stop offset="1" stop-color="#f8b2b2"/></linearGradient><path d="M818.2 425.7l-3.2 8c-.4 1.1-1.7 1.8-2.7 1.7-.8-.1-1.8-.2-2.7-.6-1.8-.6-2.9-2.5-2.2-4.3l2.5-8.3 8.3 3.5z" fill="url(#as)"/><linearGradient id="at" gradientUnits="userSpaceOnUse" x1="-7405.381" y1="570.82" x2="-7404.85" y2="514.491" gradientTransform="rotate(180 -3265.64 536)"><stop offset="0" stop-color="#252159"/><stop offset="1" stop-color="#303084"/></linearGradient><path d="M873.9 440.3s-6.5 5.5-9 12.5c-.7 1.9.8 4 2.8 4h13.5c1.9 0 3.5-1.8 3.1-3.7-.8-4.9-3.4-12.7-10.4-12.8z" fill="url(#at)"/><linearGradient id="au" gradientUnits="userSpaceOnUse" x1="-7406.711" y1="626.609" x2="-7409.558" y2="648.876" gradientTransform="rotate(180 -3265.64 536)"><stop offset="0" stop-color="#f59390"/><stop offset="1" stop-color="#f8b2b2"/></linearGradient><path d="M882 433.3s-1.3 5.8-2.2 9.6c-.2.7-1 1.1-1.7.9-2-.8-3.7-1.1-4.9-.9-.6.1-1-.3-1.1-1l-.1-9.6 10 1z" fill="url(#au)"/><linearGradient id="av" gradientUnits="userSpaceOnUse" x1="-7426.565" y1="711.25" x2="-7338.852" y2="711.25" gradientTransform="rotate(180 -3265.64 536)"><stop offset=".006" stop-color="#28366f"/><stop offset=".227" stop-color="#242f66"/><stop offset=".541" stop-color="#221f53"/><stop offset=".765" stop-color="#1d1042"/><stop offset=".994" stop-color="#21122f"/></linearGradient><path d="M847.3 302.1l-39.7 121s7.6 5 11.3 4.8l47.2-97.3s8.3 59.9 4.2 103l13.5 1s22-110 5.3-147.7l-41.8 15.2z" fill="url(#av)"/><linearGradient id="aw" gradientUnits="userSpaceOnUse" x1="863.161" y1="747.573" x2="814.268" y2="709.621" gradientTransform="matrix(1 0 0 -1 0 1072)"><stop offset=".006" stop-color="#28366f"/><stop offset=".227" stop-color="#242f66"/><stop offset=".541" stop-color="#221f53"/><stop offset=".765" stop-color="#1d1042"/><stop offset=".994" stop-color="#21122f"/></linearGradient><path d="M865.8 329.5c.2 0 .4-.2.3-.4l-1.6-12.3c0-.2-.2-.3-.4-.3s-.3.2-.3.4l1.6 12.3c.1.2.2.3.4.3z" fill="url(#aw)"/><linearGradient id="ax" gradientUnits="userSpaceOnUse" x1="-7356.15" y1="858.692" x2="-7410.884" y2="696.082" gradientTransform="rotate(180 -3265.64 536)"><stop offset=".006" stop-color="#131536"/><stop offset=".096" stop-color="#161432"/><stop offset=".186" stop-color="#1a1528"/><stop offset=".994" stop-color="#14151c"/></linearGradient><path d="M840 195.5s32.1 2.8 27.6 25.8c0 0 17.7 33.5 26.1 72.8.3 1.3-.6 2.5-1.8 2.8l-53.5 9.2c-1.6.2-2.9-.7-3.2-2.1l-12.7-49.4-5 23-15.8-4.1L815 206c-.4-.2 1.4-10.1 25-10.5z" fill="url(#ax)"/><linearGradient id="ay" gradientUnits="userSpaceOnUse" x1="816.947" y1="830.284" x2="822.207" y2="830.284" gradientTransform="matrix(1 0 0 -1 0 1072)"><stop offset=".006" stop-color="#28366f"/><stop offset=".227" stop-color="#242f66"/><stop offset=".541" stop-color="#221f53"/><stop offset=".765" stop-color="#1d1042"/><stop offset=".994" stop-color="#21122f"/></linearGradient><path d="M821.9 252.3c.3 0 .4-.3.3-.4l-4.5-20.4c0-.2-.3-.3-.4-.3-.2 0-.3.3-.3.4l4.5 20.4c-.1.2.2.3.4.3z" fill="url(#ay)"/><linearGradient id="az" gradientUnits="userSpaceOnUse" x1="-7385.161" y1="772.981" x2="-7345.273" y2="772.981" gradientTransform="rotate(180 -3265.64 536)"><stop offset="0" stop-color="#f59390"/><stop offset="1" stop-color="#f8b2b2"/></linearGradient><path d="M825 313.2c1.7-1 3.7-1.2 5.5-.8l3.7 1c.8.2 1.7-.3 1.7-1.2l3.9-34.3c4.9 2.2 11.8 2 14.1 1.8l-8.9 40.5h-31l11-7z" fill="url(#az)"/><linearGradient id="aA" gradientUnits="userSpaceOnUse" x1="-7348.382" y1="822.901" x2="-7273.846" y2="822.901" gradientTransform="rotate(180 -3265.64 536)"><stop offset="0" stop-color="#f59390"/><stop offset="1" stop-color="#f8b2b2"/></linearGradient><path d="M742.6 238.7l1-3.1c.6-1.8 1.8-3.2 3.6-3.9l17-6.8s.2-2.1-3.6-3.7c-3.8-1.6-2.9-5.7-2.9-5.7s5.3 2.3 12.8 6.1c4.5 2.1 6.9 6 8.3 8.9l38.5 46.9-4.7 3.2c-5.9 4.1-14.1 2-17.4-4.3l-20.8-39.9c-10.6 3-21.1 3.7-31.8 2.3z" fill="url(#aA)"/><g><linearGradient id="aB" gradientUnits="userSpaceOnUse" x1="-7375.155" y1="864.654" x2="-7349.213" y2="891.271" gradientTransform="rotate(180 -3265.64 536)"><stop offset="0" stop-color="#f59390"/><stop offset="1" stop-color="#f8b2b2"/></linearGradient><path d="M829.5 173.7l9.8 27.7s-8.8 6.8-15.2 4.6l-5-15.9c.1-.1 3.9-19.5 10.4-16.4z" fill="url(#aB)"/><linearGradient id="aC" gradientUnits="userSpaceOnUse" x1="938.755" y1="925.827" x2="715.829" y2="880.695" gradientTransform="matrix(1 0 0 -1 0 1072)"><stop offset="0" stop-color="#f59390"/><stop offset="1" stop-color="#f8b2b2"/></linearGradient><path d="M813.7 154.3c-.3.3-8.4 29.6-8.4 29.6l16.7 4.2 11.8-26.7c.1.2-15.6-13.4-20.1-7.1z" fill="url(#aC)"/><linearGradient id="aD" gradientUnits="userSpaceOnUse" x1="-5506.16" y1="1.104" x2="-5464.627" y2="1.104" gradientTransform="scale(-1) rotate(35.171 -2880.364 7278.826)"><stop offset="0" stop-color="#252159"/><stop offset="1" stop-color="#303084"/></linearGradient><path d="M827.7 165.7l-5.1 14.5c-.1.2-.1.3-.3.6-.7 1-3.3 4.2-6.4 1.3-2.8-2.6-5.5-5-7.9-5.4-1.1-.2-2.1.4-2.3 1.6-.8 2.7-2.2 8.7-2.8 14.1-.1 1.1.7 2 1.8 2.2 3.2.7 10.2 1.8 16.1 1.3.8-.1 1.6-.6 1.8-1.2 1.7-3.5 6.5-14.1 8.4-16.7 1.8-2.6 5.8-2.5 7.7-2.3.6 0 1.1-.1 1.7-.6 1.6-1.3 4.5-4.8.3-8.9-.9-.9-.9-2.2 0-3 1.8-1.7 3.7-4.7.8-8.3-3-3.7-6.9-3.1-9.4-2.2-1 .3-2-.1-2.6-1-.3-.6-.9-.9-1.8-.9-1.2.1-2.2-1-2.2-2.1 0-2.3-.9-5.4-5-6.7-7.4-2.2-11.9 4.9-12.4 10-.4 5.3 7.6 7.3 12.4 6.9 3.6-.3 6.2 3.3 7.4 5-.1.4 0 1.1-.2 1.8z" fill="url(#aD)"/><linearGradient id="aE" gradientUnits="userSpaceOnUse" x1="-5530.483" y1="-24.293" x2="-5502.599" y2="4.315" gradientTransform="scale(-1) rotate(35.171 -2880.364 7278.826)"><stop offset="0" stop-color="#f59390"/><stop offset="1" stop-color="#f8b2b2"/></linearGradient><path d="M828.7 182.9s1.2-9.2 5-9.6c3.8-.4 7.6 2.7 3.7 7.8-4.7 6.4-8.7 1.8-8.7 1.8z" fill="url(#aE)"/></g><linearGradient id="aF" gradientUnits="userSpaceOnUse" x1="837.475" y1="819.261" x2="866.713" y2="819.261" gradientTransform="matrix(1 0 0 -1 0 1072)"><stop offset=".006" stop-color="#28366f"/><stop offset=".227" stop-color="#242f66"/><stop offset=".541" stop-color="#221f53"/><stop offset=".765" stop-color="#1d1042"/><stop offset=".994" stop-color="#21122f"/></linearGradient><path d="M850.8 280.3c2.1 0 3.8-.2 3.9-.2h.3l11.7-54.5c0-.2-.1-.4-.3-.4-.2 0-.4.1-.4.3l-11.6 54c-1.8.1-11 .8-16.1-2.7l10.2-47.4-2.1-4c-.1-.2-.3-.3-.6-.2-.2.1-.3.3-.2.6l1.9 3.7-10.2 47.6.2.1c3.7 2.7 9.5 3.1 13.3 3.1z" fill="url(#aF)"/><g><linearGradient id="aG" gradientUnits="userSpaceOnUse" x1="497.762" y1="681.615" x2="544.616" y2="681.615" gradientTransform="matrix(1 0 0 -1 0 1072)"><stop offset=".006" stop-color="#131536"/><stop offset=".096" stop-color="#161432"/><stop offset=".186" stop-color="#1a1528"/><stop offset=".994" stop-color="#14151c"/></linearGradient><path d="M499.7 446.9c-.3 0-.6-.1-.9-.2-1-.4-1.6-1.8-1.1-2.9l42.7-108.5c.4-1.1 1.7-1.7 2.7-1.2 1 .4 1.6 1.8 1.1 2.9l-42.7 108.5c-.1.8-.9 1.4-1.8 1.4z" fill="url(#aG)"/><linearGradient id="aH" gradientUnits="userSpaceOnUse" x1="503.199" y1="681.602" x2="550.051" y2="681.602" gradientTransform="matrix(1 0 0 -1 0 1072)"><stop offset=".006" stop-color="#131536"/><stop offset=".096" stop-color="#161432"/><stop offset=".186" stop-color="#1a1528"/><stop offset=".994" stop-color="#14151c"/></linearGradient><path d="M548 446.9c-.8 0-1.6-.6-1.8-1.3L503.4 337c-.4-1.1 0-2.3 1.1-2.9 1-.4 2.2 0 2.7 1.2l42.7 108.6c.4 1.1 0 2.3-1.1 2.9-.2 0-.5.1-.8.1z" fill="url(#aH)"/><linearGradient id="aI" gradientUnits="userSpaceOnUse" x1="788.036" y1="681.615" x2="834.89" y2="681.615" gradientTransform="matrix(1 0 0 -1 0 1072)"><stop offset=".006" stop-color="#131536"/><stop offset=".096" stop-color="#161432"/><stop offset=".186" stop-color="#1a1528"/><stop offset=".994" stop-color="#14151c"/></linearGradient><path d="M790.2 446.9c-.3 0-.6-.1-.9-.2-1-.4-1.6-1.8-1.1-2.9l42.7-108.5c.4-1.1 1.7-1.7 2.7-1.2 1 .4 1.6 1.8 1.1 2.9L792 445.5c-.3.8-1.1 1.4-1.8 1.4z" fill="url(#aI)"/><linearGradient id="aJ" gradientUnits="userSpaceOnUse" x1="793.515" y1="681.602" x2="840.367" y2="681.602" gradientTransform="matrix(1 0 0 -1 0 1072)"><stop offset=".006" stop-color="#131536"/><stop offset=".096" stop-color="#161432"/><stop offset=".186" stop-color="#1a1528"/><stop offset=".994" stop-color="#14151c"/></linearGradient><path d="M838.3 446.9c-.8 0-1.6-.6-1.8-1.3L793.8 337c-.4-1.1 0-2.3 1.1-2.9 1-.4 2.2 0 2.7 1.2l42.7 108.5c.4 1.1 0 2.3-1.1 2.9-.4.1-.6.2-.9.2z" fill="url(#aJ)"/></g><g><path d="M783.9 327.5h62v-6.4h-62c1.3.1 1.3 6.4 0 6.4z" fill="#c1d0eb"/><linearGradient id="aK" gradientUnits="userSpaceOnUse" x1="-3521.784" y1="712.471" x2="-3522.049" y2="728.404" gradientTransform="rotate(180 -1352.64 536)"><stop offset="0" stop-color="#4d58a7"/><stop offset="1" stop-color="#5561ac"/></linearGradient><path d="M845.5 327.5c.2 0 .3-.1.3-.3v-5.7c0-.2-.2-.3-.3-.3h-63.1c-.2 0-.3-.1-.3-.3v-.8c0-.2.2-.3.3-.3h67c1.6 0 2.7 1.2 2.7 2.7v4.1c0 1.4-1.1 2.5-2.5 2.5h-67.1c-.2 0-.3-.1-.3-.3v-.8c0-.2.2-.3.3-.3l63-.2z" fill="url(#aK)"/></g><linearGradient id="aL" gradientUnits="userSpaceOnUse" x1="475.829" y1="737.324" x2="854.913" y2="737.324" gradientTransform="matrix(1 0 0 -1 0 1072)"><stop offset=".006" stop-color="#131536"/><stop offset=".096" stop-color="#161432"/><stop offset=".186" stop-color="#1a1528"/><stop offset=".994" stop-color="#14151c"/></linearGradient><path d="M854.9 331.7c.2-.8-.1-1.4-.8-2-.7-.6-1.8-.9-2.8-.9H480.1c-1.4 0-2.8.4-3.6 1.3s-.9 1.8-.3 2.7l4 5.7c1 1.3 2.9 2.1 5.1 2.1h363.4c2 0 3.8-1 4.2-2.2l2-6.7z" fill="url(#aL)"/></svg>