<svg version="1.1" id="Layer_1" xmlns="http://www.w3.org/2000/svg" x="0" y="0" width="800" height="600" viewBox="255 -70 800 600" xml:space="preserve"><style>.st0{fill:#fff}.st69{fill:#f8a492}.st70{fill:#36558b}.st71{fill:#f58861}.st72{fill:#14395c}.st79{fill:#f8a692}.st83{fill:#f37559}.st87{fill:#dd5439}.st91{fill:#020202}.st92{fill:#0e2e36}.st103{fill:#f7cc7f}</style><g id="XMLID_173_"><path id="XMLID_172_" class="st0" d="M263.5-54.4h782.9v568.8H263.5z"/><path id="XMLID_171_" d="M343.4 477.7h647.7c53.7-44.8 26-179.6-18.8-206.9-48.2-29.4 28.4-131.1-46-164.1-48.5-21.5-125.8 2-115.4-55.7C825.3-29 657-49.4 533-27.9 398.9-4.6 521.3 110 373.8 133c-75.8 11.8-61.2 113.4-54.1 134.4 6.2 18.3 46.9 47.3-9.7 87.2-83 58.6 31.4 122 33.4 123.1z" opacity=".1" fill="#a1bfe4"/><linearGradient id="XMLID_175_" gradientUnits="userSpaceOnUse" x1="823.508" y1="812.053" x2="924.675" y2="812.053" gradientTransform="matrix(1 0 0 -1 0 1072)"><stop offset=".006" stop-color="#131536"/><stop offset=".096" stop-color="#161432"/><stop offset=".186" stop-color="#1a1528"/><stop offset=".994" stop-color="#14151c"/></linearGradient><path id="XMLID_170_" d="M918.7 135.7s-10.6 23.1-17.7 32.9c-7.1 9.8-13.9 19.1-19.7 46.1-5.7 27.1-4.7 29.8-6.3 36.8-1.6 6.9-11.6 35.3-11.7 40.5-.1 5.2-20.6 34.7-25.7 48.6-5.2 13.9-14.5 33.6-14 43.6l2.3-.6s1.9-23.5 18.1-47.2c16.1-23.7 13.9-28.2 32.2-40.4 18.3-12.1 30.2-45.8 30.2-45.8s18.7-36.5 17.8-55.6c-.9-19 4-36.1-5.5-58.9z" fill="url(#XMLID_175_)"/><linearGradient id="XMLID_176_" gradientUnits="userSpaceOnUse" x1="810.919" y1="834.905" x2="893.794" y2="834.905" gradientTransform="matrix(1 0 0 -1 0 1072)"><stop offset=".006" stop-color="#131536"/><stop offset=".096" stop-color="#161432"/><stop offset=".186" stop-color="#1a1528"/><stop offset=".994" stop-color="#14151c"/></linearGradient><path id="XMLID_169_" d="M893.9 100.1s-.6 15.2-5.5 24.2-9.1 14.5-10 24.3c-.9 9.8-3.9 34.8-17.6 47.2-13.6 12.2-15.4 49-25.7 60.2-10.4 11.2-11.7 19.1-9.8 38.2 1.9 19.1 8.4 45.5-6.7 80l-3.4-8.6s10.8-28.4 8.1-45-11.6-41.7-8.3-53.7c3.3-12-9-14.4-1.6-32.6 7.4-18.2 4.4-24.6 14.5-40.3 0 0 1.1-.8 3.7-14.1 2.6-13.3 24.1-37.8 34.1-46.1 9.8-8.5 24.1-21.8 28.2-33.7z" fill="url(#XMLID_176_)"/><linearGradient id="XMLID_177_" gradientUnits="userSpaceOnUse" x1="819.295" y1="790.62" x2="867.78" y2="790.62" gradientTransform="matrix(1 0 0 -1 0 1072)"><stop offset=".006" stop-color="#28366f"/><stop offset=".227" stop-color="#242f66"/><stop offset=".541" stop-color="#221f53"/><stop offset=".765" stop-color="#1d1042"/><stop offset=".994" stop-color="#21122f"/></linearGradient><path id="XMLID_168_" d="M853.6 175.2s-11.8 20.3-12 33.4c-.2 13 1.3 23.7-4.8 41.6-6 17.8 5.9 29.2 2.4 39-3.4 9.9-3.7 21.5-3.6 30.4s-13.6 38.2-15.7 53c-2.1 14.9.6 14.9.6 14.9s2.3-19.6 5.4-26c3.1-6.5 12.7-28.9 15-37.5 2.3-8.6 8.3-14.2 13.5-28.9 5.2-14.7 12.6-26.9 12.1-47.8-.5-20.7 7.9-42.6-12.9-72.1z" fill="url(#XMLID_177_)"/><linearGradient id="XMLID_178_" gradientUnits="userSpaceOnUse" x1="826.688" y1="747.854" x2="942.072" y2="747.854" gradientTransform="matrix(1 0 0 -1 0 1072)"><stop offset=".006" stop-color="#28366f"/><stop offset=".227" stop-color="#242f66"/><stop offset=".541" stop-color="#221f53"/><stop offset=".765" stop-color="#1d1042"/><stop offset=".994" stop-color="#21122f"/></linearGradient><path id="XMLID_167_" d="M828.5 373.9s5.5-25.7 28.8-28.3c23.3-2.5 37 2.1 53.4-16.7s26-48.6 31.2-53.8c0 0-8.3-4.3-22 8.6-13.7 12.8-23.4 22.6-31.4 30-8 7.4-14.4 2.6-22.8 7.5-7 4.1-16.1 16.1-20.2 22.3-1.3 2.1-2.8 3.9-4.6 5.6-1.7 1.5-3.5 3.3-4.8 4.7-2.4 2.6-9.6 20.2-9.6 20.2l2-.1z" fill="url(#XMLID_178_)"/><linearGradient id="XMLID_179_" gradientUnits="userSpaceOnUse" x1="773.983" y1="771.977" x2="824.896" y2="771.977" gradientTransform="matrix(1 0 0 -1 0 1072)"><stop offset=".006" stop-color="#28366f"/><stop offset=".227" stop-color="#242f66"/><stop offset=".541" stop-color="#221f53"/><stop offset=".765" stop-color="#1d1042"/><stop offset=".994" stop-color="#21122f"/></linearGradient><path id="XMLID_166_" d="M820.3 369.4s8.2-31.5 2.7-46.9c-5.5-15.5-22.7-26.8-22-36.5s11.7-35.8 2.7-55.3c0 0-3.4 17.4-6.8 21.2-3.4 3.9-26.5 19.5-22.4 40 4.1 20.6 26.6 25.3 32.2 31.4 5.6 6.1 13 6.1 13.1 10.1.1 4 1.5 18.7-1 33.2l1.5 2.8z" fill="url(#XMLID_179_)"/><linearGradient id="XMLID_180_" gradientUnits="userSpaceOnUse" x1="819.268" y1="791.207" x2="853.998" y2="791.207" gradientTransform="matrix(1 0 0 -1 0 1072)"><stop offset=".006" stop-color="#131536"/><stop offset=".096" stop-color="#161432"/><stop offset=".186" stop-color="#1a1528"/><stop offset=".994" stop-color="#14151c"/></linearGradient><path id="XMLID_165_" d="M829.3 348.3l11.5-33.2s6.8-26.7 10.7-49c3.9-22.3 2.1-90.8 2.1-90.8s-11.8 20.3-12 33.4c-.2 13 1.3 23.7-4.8 41.6-6 17.8 5.9 29.2 2.4 39-3.4 9.9-3.7 21.5-3.6 30.4.1 8.8-13.6 38.2-15.7 53-1.2 8.1-.9 11.8-.4 13.5-1.7-13.1 9.8-37.9 9.8-37.9z" fill="url(#XMLID_180_)"/><linearGradient id="XMLID_181_" gradientUnits="userSpaceOnUse" x1="826.756" y1="747.51" x2="941.944" y2="747.51" gradientTransform="matrix(1 0 0 -1 0 1072)"><stop offset=".006" stop-color="#131536"/><stop offset=".096" stop-color="#161432"/><stop offset=".186" stop-color="#1a1528"/><stop offset=".994" stop-color="#14151c"/></linearGradient><path id="XMLID_164_" d="M886.1 328.5c-10.3 2.1-19.5 1.4-31.7 10.5S835 357.8 835 357.8s-5.5 9.8-7.7 15c-.3.8-.5 1.3-.5 1.3l1.8-.1s5.5-25.7 28.8-28.3c23.3-2.5 37 2.1 53.4-16.7s26-48.6 31.2-53.8c0 0-17.5 13.6-28.3 25.6-10.8 11.9-17.4 25.6-27.6 27.7z" fill="url(#XMLID_181_)"/><linearGradient id="XMLID_182_" gradientUnits="userSpaceOnUse" x1="774.007" y1="772.808" x2="823.172" y2="772.808" gradientTransform="matrix(1 0 0 -1 0 1072)"><stop offset=".006" stop-color="#131536"/><stop offset=".096" stop-color="#161432"/><stop offset=".186" stop-color="#1a1528"/><stop offset=".994" stop-color="#14151c"/></linearGradient><path id="XMLID_163_" d="M796.9 251.9c-3.4 3.9-26.5 19.5-22.4 40 4.1 20.6 26.6 25.3 32.2 31.4 5.6 6.1 13 6.1 13.1 10.1.1 4 1.5 18.7-1 33.2l.7 1.2c1.2-5.7 2.9-14.2 3.4-20.7.9-10.6-.8-15-4.2-23.6-3.4-8.6-24.6-26-29.8-35.2-5.3-9.2 10.2-24.6 13.6-32 3.4-7.4 1.3-25.6 1.3-25.6s-3.5 17.4-6.9 21.2z" fill="url(#XMLID_182_)"/><g id="XMLID_352_"><linearGradient id="XMLID_183_" gradientUnits="userSpaceOnUse" x1="812.326" y1="668.634" x2="889.248" y2="668.634" gradientTransform="matrix(1 0 0 -1 0 1072)"><stop offset=".006" stop-color="#131536"/><stop offset=".096" stop-color="#161432"/><stop offset=".186" stop-color="#1a1528"/><stop offset=".994" stop-color="#14151c"/></linearGradient><path id="XMLID_162_" d="M851.9 354.1l3.6-8.8c2.8-6.5 10-9.5 16.1-6.9 15.3 6.7 21.9 25.2 14.8 41.4l-5.2 11.8c-2.3 5.2-1.5 11 1.6 15 2.7 3.6 3.2 8.8 1.3 13.2l-2.7 6.3c-2.9 6.8-8.7 11.7-15.6 13.9-4 1.2-7.5 4.2-9.4 8.5l-3.9 8.8c-4.3 9.8-15.2 14.5-24.4 10.5l-5.3-2.3c-9.2-4-13.2-15.2-9-25 6.9-11.6 6.4-20.5 3.9-26.3-3.6-8.7-3.5-18.8.3-27.6l.6-1.3c4.1-9.4 12-16.4 21.5-19.5 4.4-1.3 8.8-4.6 11.8-11.7z" fill="url(#XMLID_183_)"/><linearGradient id="XMLID_184_" gradientUnits="userSpaceOnUse" x1="786.728" y1="641.046" x2="984.459" y2="641.046" gradientTransform="matrix(1 0 0 -1 0 1072)"><stop offset=".006" stop-color="#131536"/><stop offset=".096" stop-color="#161432"/><stop offset=".186" stop-color="#1a1528"/><stop offset=".994" stop-color="#14151c"/></linearGradient><path id="XMLID_161_" d="M786.7 477.7c7.4-9.6 48.1-61.1 74.5-69.7 29.3-9.5 1.7 28.1 1.7 28.1s51.9-56.7 70.9-51.6c17.4 4.7 0 39.8 0 39.8s19.7-19.5 43.5-19.5c23.2 0-16.2 69.1-18.3 72.7l-172.3.2z" fill="url(#XMLID_184_)"/><g id="XMLID_363_"><g id="XMLID_379_"><linearGradient id="XMLID_185_" gradientUnits="userSpaceOnUse" x1="896.045" y1="660.859" x2="960.939" y2="660.859" gradientTransform="matrix(1 0 0 -1 0 1072)"><stop offset=".006" stop-color="#131536"/><stop offset=".096" stop-color="#161432"/><stop offset=".186" stop-color="#1a1528"/><stop offset=".994" stop-color="#14151c"/></linearGradient><path id="XMLID_160_" d="M943 366.3c-21.1 33.1-36.7 69.9-45.5 108.9l-1.5-.4c8.8-38.3 24.2-75 45.3-108 4.9-7.6 10.3-16.8 19.4-19.8.2-.1.3.2.1.3-8.3 3.3-13.2 11.9-17.8 19z" fill="url(#XMLID_185_)"/></g><g id="XMLID_377_"><linearGradient id="XMLID_186_" gradientUnits="userSpaceOnUse" x1="902.602" y1="639.065" x2="989.892" y2="639.065" gradientTransform="matrix(1 0 0 -1 0 1072)"><stop offset=".006" stop-color="#131536"/><stop offset=".096" stop-color="#161432"/><stop offset=".186" stop-color="#1a1528"/><stop offset=".994" stop-color="#14151c"/></linearGradient><path id="XMLID_159_" d="M902.6 476.7c23.7-32.2 52.5-61.9 86.7-87.9.3-.3.8.3.5.6-32.5 25-61.2 54.4-85.3 87.7l-1.9-.4z" fill="url(#XMLID_186_)"/></g><linearGradient id="XMLID_187_" gradientUnits="userSpaceOnUse" x1="943.373" y1="723.714" x2="952.047" y2="723.714" gradientTransform="matrix(1 0 0 -1 0 1072)"><stop offset=".006" stop-color="#131536"/><stop offset=".096" stop-color="#161432"/><stop offset=".186" stop-color="#1a1528"/><stop offset=".994" stop-color="#14151c"/></linearGradient><path id="XMLID_158_" d="M945 345.9c.6.8 2.6 2.9 3.2 5.7.8 2.6.2 5.9.1 5.8-.2.1 2.4-2.2 3.2-5.6 1.1-3.3.3-7.9-1-9.4-2.3-3.4-6.2-3.8-6.9-2.2-.8 1.6.3 3.8 1.4 5.7z" fill="url(#XMLID_187_)"/><linearGradient id="XMLID_188_" gradientUnits="userSpaceOnUse" x1="938.712" y1="699.265" x2="956.786" y2="699.265" gradientTransform="matrix(1 0 0 -1 0 1072)"><stop offset=".006" stop-color="#131536"/><stop offset=".096" stop-color="#161432"/><stop offset=".186" stop-color="#1a1528"/><stop offset=".994" stop-color="#14151c"/></linearGradient><path id="XMLID_157_" d="M950.1 375.4c-.8-.6-2.8-2.7-5.6-3.3-2.5-.9-5.9-.3-5.8-.2-.1.1 2.2-2.3 5.7-3.1 3.3-1 7.9-.1 9.4 1.2 3.4 2.3 3.6 6.3 2 6.9-1.7.7-4-.4-5.7-1.5z" fill="url(#XMLID_188_)"/><linearGradient id="XMLID_189_" gradientUnits="userSpaceOnUse" x1="931.057" y1="686.347" x2="949.131" y2="686.347" gradientTransform="matrix(1 0 0 -1 0 1072)"><stop offset=".006" stop-color="#131536"/><stop offset=".096" stop-color="#161432"/><stop offset=".186" stop-color="#1a1528"/><stop offset=".994" stop-color="#14151c"/></linearGradient><path id="XMLID_156_" d="M942.4 388.3c-.8-.6-2.8-2.7-5.6-3.3-2.5-.9-5.9-.3-5.8-.2-.1.1 2.2-2.3 5.7-3.1 3.3-1 7.9-.1 9.4 1.2 3.4 2.3 3.6 6.3 2 6.9-1.7.7-3.9-.4-5.7-1.5z" fill="url(#XMLID_189_)"/><linearGradient id="XMLID_190_" gradientUnits="userSpaceOnUse" x1="958.358" y1="656.296" x2="976.433" y2="656.296" gradientTransform="matrix(1 0 0 -1 0 1072)"><stop offset=".006" stop-color="#131536"/><stop offset=".096" stop-color="#161432"/><stop offset=".186" stop-color="#1a1528"/><stop offset=".994" stop-color="#14151c"/></linearGradient><path id="XMLID_155_" d="M969.6 418.4c-.8-.6-2.8-2.7-5.6-3.3-2.5-.9-5.9-.3-5.8-.2-.1.1 2.2-2.3 5.7-3.1 3.3-1 7.9-.1 9.4 1.2 3.4 2.3 3.6 6.3 2 6.9-1.5.6-3.8-.3-5.7-1.5z" fill="url(#XMLID_190_)"/><linearGradient id="XMLID_191_" gradientUnits="userSpaceOnUse" x1="972.28" y1="668.607" x2="990.355" y2="668.607" gradientTransform="matrix(1 0 0 -1 0 1072)"><stop offset=".006" stop-color="#131536"/><stop offset=".096" stop-color="#161432"/><stop offset=".186" stop-color="#1a1528"/><stop offset=".994" stop-color="#14151c"/></linearGradient><path id="XMLID_154_" d="M983.6 406.1c-.8-.6-2.8-2.7-5.6-3.3-2.5-.9-5.9-.3-5.8-.2-.1.1 2.2-2.3 5.7-3.1 3.3-1 7.9-.1 9.4 1.2 3.4 2.3 3.6 6.3 2 6.9-1.7.7-3.9-.4-5.7-1.5z" fill="url(#XMLID_191_)"/><linearGradient id="XMLID_192_" gradientUnits="userSpaceOnUse" x1="931.948" y1="709.413" x2="941.787" y2="709.413" gradientTransform="matrix(1 0 0 -1 0 1072)"><stop offset=".006" stop-color="#131536"/><stop offset=".096" stop-color="#161432"/><stop offset=".186" stop-color="#1a1528"/><stop offset=".994" stop-color="#14151c"/></linearGradient><path id="XMLID_153_" d="M934.3 360.6c.7.7 3 2.4 4.1 5.1 1.2 2.4 1.1 5.8 1 5.7-.1.1 2.1-2.4 2.3-6 .5-3.4-1-7.8-2.4-9.2-2.7-3-6.7-2.7-7.1-1-.6 1.6.7 3.7 2.1 5.4z" fill="url(#XMLID_192_)"/><linearGradient id="XMLID_193_" gradientUnits="userSpaceOnUse" x1="919.42" y1="696.028" x2="933.183" y2="696.028" gradientTransform="matrix(1 0 0 -1 0 1072)"><stop offset=".006" stop-color="#131536"/><stop offset=".096" stop-color="#161432"/><stop offset=".186" stop-color="#1a1528"/><stop offset=".994" stop-color="#14151c"/></linearGradient><path id="XMLID_152_" d="M923.1 375.1c1 .5 4.3 1.5 5.9 3.9 1.9 2.2 2.2 6 2 5.9-.2.2 2.3-3.6 2.3-7.7.2-4.1-2.2-8.4-4.3-9.2-3.9-2.3-9-.2-9.4 2-.6 2.2 1.4 4 3.5 5.1z" fill="url(#XMLID_193_)"/><linearGradient id="XMLID_194_" gradientUnits="userSpaceOnUse" x1="906.827" y1="674.577" x2="921.732" y2="674.577" gradientTransform="matrix(1 0 0 -1 0 1072)"><stop offset=".006" stop-color="#131536"/><stop offset=".096" stop-color="#161432"/><stop offset=".186" stop-color="#1a1528"/><stop offset=".994" stop-color="#14151c"/></linearGradient><path id="XMLID_151_" d="M911.2 397.4c1 .3 4.4.7 6.5 2.8 2.3 1.9 3.1 5.5 2.9 5.5-.1.2 1.7-4 .9-7.9-.5-4-3.5-7.9-5.8-8.3-4.3-1.6-8.9 1.3-8.9 3.5-.1 2.2 2.3 3.6 4.4 4.4z" fill="url(#XMLID_194_)"/><linearGradient id="XMLID_195_" gradientUnits="userSpaceOnUse" x1="943.558" y1="658.133" x2="954.446" y2="658.133" gradientTransform="matrix(1 0 0 -1 0 1072)"><stop offset=".006" stop-color="#131536"/><stop offset=".096" stop-color="#161432"/><stop offset=".186" stop-color="#1a1528"/><stop offset=".994" stop-color="#14151c"/></linearGradient><path id="XMLID_150_" d="M946.3 412.9c.8.5 3.4 1.4 4.6 3.5 1.4 1.9 1.4 5 1.3 4.9-.1.1 2.2-2.8 2.3-6.2.4-3.3-1.3-6.9-3-7.7-3-2.1-7.2-.7-7.7 1.1-.7 1.8.9 3.3 2.5 4.4z" fill="url(#XMLID_195_)"/><linearGradient id="XMLID_196_" gradientUnits="userSpaceOnUse" x1="957.904" y1="722.505" x2="968.457" y2="722.505" gradientTransform="matrix(1 0 0 -1 0 1072)"><stop offset=".006" stop-color="#131536"/><stop offset=".096" stop-color="#161432"/><stop offset=".186" stop-color="#1a1528"/><stop offset=".994" stop-color="#14151c"/></linearGradient><path id="XMLID_149_" d="M964.5 351.1c-.5-.4-1.6-1.7-3.1-2.3-1.5-.6-3.4-.4-3.4-.4-.1.1 1.4-1.3 3.4-1.6 2.1-.4 4.7.3 5.5 1.1 1.9 1.5 1.9 3.8.9 4.2-1.1.4-2.4-.3-3.3-1z" fill="url(#XMLID_196_)"/><linearGradient id="XMLID_197_" gradientUnits="userSpaceOnUse" x1="958.273" y1="728.687" x2="964.173" y2="728.687" gradientTransform="matrix(1 0 0 -1 0 1072)"><stop offset=".006" stop-color="#131536"/><stop offset=".096" stop-color="#161432"/><stop offset=".186" stop-color="#1a1528"/><stop offset=".994" stop-color="#14151c"/></linearGradient><path id="XMLID_148_" d="M960.2 341.6c0 .6.4 2.3-.2 3.9-.4 1.6-1.8 3-1.8 2.9-.1 0 1.9-.3 3.4-1.8 1.6-1.4 2.6-3.9 2.5-5.1 0-2.4-1.9-3.8-2.7-3.2-1 .6-1.2 2-1.2 3.3z" fill="url(#XMLID_197_)"/><linearGradient id="XMLID_198_" gradientUnits="userSpaceOnUse" x1="987.12" y1="680.012" x2="997.674" y2="680.012" gradientTransform="matrix(1 0 0 -1 0 1072)"><stop offset=".006" stop-color="#131536"/><stop offset=".096" stop-color="#161432"/><stop offset=".186" stop-color="#1a1528"/><stop offset=".994" stop-color="#14151c"/></linearGradient><path id="XMLID_147_" d="M993.7 393.5c-.5-.4-1.6-1.7-3.1-2.3-1.5-.6-3.4-.4-3.4-.4-.1.1 1.4-1.3 3.4-1.6 2.1-.4 4.7.3 5.5 1.1 1.9 1.5 1.9 3.8.9 4.2-1 .6-2.3-.2-3.3-1z" fill="url(#XMLID_198_)"/><linearGradient id="XMLID_199_" gradientUnits="userSpaceOnUse" x1="987.172" y1="686.238" x2="992.523" y2="686.238" gradientTransform="matrix(1 0 0 -1 0 1072)"><stop offset=".006" stop-color="#131536"/><stop offset=".096" stop-color="#161432"/><stop offset=".186" stop-color="#1a1528"/><stop offset=".994" stop-color="#14151c"/></linearGradient><path id="XMLID_146_" d="M988.5 384c.1.6.6 2.3.2 3.9-.3 1.6-1.5 3.1-1.6 3-.1 0 1.9-.5 3.2-2.1 1.5-1.5 2.3-4.1 2.1-5.2-.2-2.4-2.2-3.7-3-3-.9.7-1 2.2-.9 3.4z" fill="url(#XMLID_199_)"/></g><g id="XMLID_353_"><g id="XMLID_361_"><linearGradient id="XMLID_200_" gradientUnits="userSpaceOnUse" x1="908.038" y1="611.272" x2="985.079" y2="611.272" gradientTransform="matrix(1 0 0 -1 0 1072)"><stop offset=".006" stop-color="#131536"/><stop offset=".096" stop-color="#161432"/><stop offset=".186" stop-color="#1a1528"/><stop offset=".994" stop-color="#14151c"/></linearGradient><path id="XMLID_145_" d="M985 445.7c-21.6 2.3-41.8 11.9-61.2 21.2-13.1 6.3-12.4 8.1-15.1 9-.4.1-.9-.3-.7-.8 1-2.1 3.7-3.4 5.6-4.6 2.2-1.4 4.5-2.5 6.8-3.6 5-2.3 10-4.5 15.1-6.8 10.3-4.4 20.6-8.6 31.4-11.5 6-1.6 11.9-2.6 18.1-3.2.1.1.1.2 0 .3z" fill="url(#XMLID_200_)"/></g><linearGradient id="XMLID_201_" gradientUnits="userSpaceOnUse" x1="963.777" y1="630.469" x2="971.692" y2="630.469" gradientTransform="matrix(1 0 0 -1 0 1072)"><stop offset=".006" stop-color="#131536"/><stop offset=".096" stop-color="#161432"/><stop offset=".186" stop-color="#1a1528"/><stop offset=".994" stop-color="#14151c"/></linearGradient><path id="XMLID_144_" d="M965.4 438.9c.1.9 1.1 3.4.5 6-.3 2.5-2.2 5-2.2 4.9-.2 0 2.8-.8 4.9-3.4 2.2-2.3 3.4-6.6 2.9-8.3-.5-3.8-3.6-5.6-5-4.5-1.2 1-1.3 3.4-1.1 5.3z" fill="url(#XMLID_201_)"/><linearGradient id="XMLID_202_" gradientUnits="userSpaceOnUse" x1="944.713" y1="623.619" x2="952.627" y2="623.619" gradientTransform="matrix(1 0 0 -1 0 1072)"><stop offset=".006" stop-color="#131536"/><stop offset=".096" stop-color="#161432"/><stop offset=".186" stop-color="#1a1528"/><stop offset=".994" stop-color="#14151c"/></linearGradient><path id="XMLID_143_" d="M946.4 445.8c.1.9 1.1 3.4.5 6-.3 2.5-2.2 5-2.2 4.9-.2 0 2.8-.8 4.9-3.4 2.2-2.3 3.4-6.6 2.9-8.3-.5-3.8-3.6-5.6-5-4.5-1.2 1-1.2 3.3-1.1 5.3z" fill="url(#XMLID_202_)"/><linearGradient id="XMLID_203_" gradientUnits="userSpaceOnUse" x1="925.337" y1="615.006" x2="933.251" y2="615.006" gradientTransform="matrix(1 0 0 -1 0 1072)"><stop offset=".006" stop-color="#131536"/><stop offset=".096" stop-color="#161432"/><stop offset=".186" stop-color="#1a1528"/><stop offset=".994" stop-color="#14151c"/></linearGradient><path id="XMLID_142_" d="M927.1 454.4c.1.9 1.1 3.4.5 6-.3 2.5-2.2 5-2.2 4.9-.2 0 2.8-.8 4.9-3.4 2.2-2.3 3.4-6.6 2.9-8.3-.5-3.8-3.6-5.6-5-4.5-1.3 1-1.3 3.4-1.1 5.3z" fill="url(#XMLID_203_)"/><linearGradient id="XMLID_204_" gradientUnits="userSpaceOnUse" x1="963.846" y1="617.343" x2="976.96" y2="617.343" gradientTransform="matrix(1 0 0 -1 0 1072)"><stop offset=".006" stop-color="#131536"/><stop offset=".096" stop-color="#161432"/><stop offset=".186" stop-color="#1a1528"/><stop offset=".994" stop-color="#14151c"/></linearGradient><path id="XMLID_141_" d="M971.2 456.8c-.4-.8-1.2-3.1-3-4.7-1.7-1.7-4.4-2.4-4.3-2.3-.1.1 2.5-1 5.5-.2 2.9.6 6.2 2.9 6.8 4.5 1.8 3 .4 6.2-1.2 6.1-1.5-.2-2.9-1.9-3.8-3.4z" fill="url(#XMLID_204_)"/><linearGradient id="XMLID_205_" gradientUnits="userSpaceOnUse" x1="944.024" y1="610.297" x2="957.138" y2="610.297" gradientTransform="matrix(1 0 0 -1 0 1072)"><stop offset=".006" stop-color="#131536"/><stop offset=".096" stop-color="#161432"/><stop offset=".186" stop-color="#1a1528"/><stop offset=".994" stop-color="#14151c"/></linearGradient><path id="XMLID_140_" d="M951.3 463.8c-.4-.8-1.2-3.1-3-4.7-1.7-1.7-4.4-2.4-4.3-2.3-.1.1 2.5-1 5.5-.2 2.9.6 6.2 2.9 6.8 4.5 1.8 3 .4 6.2-1.2 6.1-1.5-.2-2.8-1.8-3.8-3.4z" fill="url(#XMLID_205_)"/><linearGradient id="XMLID_206_" gradientUnits="userSpaceOnUse" x1="980.736" y1="623.797" x2="989.999" y2="623.797" gradientTransform="matrix(1 0 0 -1 0 1072)"><stop offset=".006" stop-color="#131536"/><stop offset=".096" stop-color="#161432"/><stop offset=".186" stop-color="#1a1528"/><stop offset=".994" stop-color="#14151c"/></linearGradient><path id="XMLID_139_" d="M986.3 449.5c-.3-.4-1.2-1.9-2.5-2.5-1.3-.8-3-1-3-.9-.1.1 1.5-1 3.4-.9 1.9-.1 4.2 1 4.9 2 1.5 1.7 1.1 3.8.1 4-1.1.2-2.1-.8-2.9-1.7z" fill="url(#XMLID_206_)"/><linearGradient id="XMLID_207_" gradientUnits="userSpaceOnUse" x1="981.087" y1="630.293" x2="987.653" y2="630.293" gradientTransform="matrix(1 0 0 -1 0 1072)"><stop offset=".006" stop-color="#131536"/><stop offset=".096" stop-color="#161432"/><stop offset=".186" stop-color="#1a1528"/><stop offset=".994" stop-color="#14151c"/></linearGradient><path id="XMLID_138_" d="M984 440.2c-.1.6 0 2.2-.8 3.5-.6 1.4-2.2 2.4-2.2 2.3-.1 0 1.8.1 3.4-1.1 1.7-1 3-3 3.1-4.2.4-2.3-1.1-3.8-2-3.4-.9.5-1.3 1.7-1.5 2.9z" fill="url(#XMLID_207_)"/></g></g><g id="XMLID_337_"><g id="XMLID_350_"><linearGradient id="XMLID_208_" gradientUnits="userSpaceOnUse" x1="372.166" y1="820.42" x2="426.678" y2="820.42" gradientTransform="matrix(1 0 0 -1 0 1072)"><stop offset=".006" stop-color="#131536"/><stop offset=".096" stop-color="#161432"/><stop offset=".186" stop-color="#1a1528"/><stop offset=".994" stop-color="#14151c"/></linearGradient><path id="XMLID_137_" d="M426.7 313.3c-25.4-22.7-38.5-55.2-45-78.6-7-25.3-8.1-45.5-8.1-45.7l-1.4-.1c0 .2 1.1 20.6 8.1 46 6.6 23.6 19.8 56.5 45.5 79.4l.9-1z" fill="url(#XMLID_208_)"/></g><g id="XMLID_348_"><linearGradient id="XMLID_209_" gradientUnits="userSpaceOnUse" x1="364.72" y1="888.095" x2="376.974" y2="888.095" gradientTransform="matrix(1 0 0 -1 0 1072)"><stop offset=".006" stop-color="#131536"/><stop offset=".096" stop-color="#161432"/><stop offset=".186" stop-color="#1a1528"/><stop offset=".994" stop-color="#14151c"/></linearGradient><path id="XMLID_136_" d="M376.5 183.2c1.3 5.9.2 11.4-2.4 15.3-4.2-3-7.4-8-8.7-13.9-1.3-5.9-.2-11.4 2.4-15.3 4.1 3.2 7.4 8 8.7 13.9z" fill="url(#XMLID_209_)"/></g><g id="XMLID_346_"><linearGradient id="XMLID_210_" gradientUnits="userSpaceOnUse" x1="354.158" y1="867.837" x2="376.08" y2="867.837" gradientTransform="matrix(1 0 0 -1 0 1072)"><stop offset=".006" stop-color="#131536"/><stop offset=".096" stop-color="#161432"/><stop offset=".186" stop-color="#1a1528"/><stop offset=".994" stop-color="#14151c"/></linearGradient><path id="XMLID_135_" d="M368.6 199.8c4.4 4.1 6.9 9.4 7.4 14.6-4.8.2-10.1-1.8-14.5-5.8-4.4-4.1-6.9-9.4-7.4-14.6 4.9-.2 10.1 1.7 14.5 5.8z" fill="url(#XMLID_210_)"/></g><g id="XMLID_344_"><linearGradient id="XMLID_211_" gradientUnits="userSpaceOnUse" x1="351.908" y1="848.921" x2="379.152" y2="848.921" gradientTransform="matrix(1 0 0 -1 0 1072)"><stop offset=".006" stop-color="#131536"/><stop offset=".096" stop-color="#161432"/><stop offset=".186" stop-color="#1a1528"/><stop offset=".994" stop-color="#14151c"/></linearGradient><path id="XMLID_134_" d="M366.6 217.3c5.5 1.7 9.9 5.5 12.5 10.1-3.9 2.5-9.2 3.2-14.7 1.6-5.5-1.7-9.9-5.5-12.5-10.1 3.9-2.6 9.3-3.4 14.7-1.6z" fill="url(#XMLID_211_)"/></g><g id="XMLID_342_"><linearGradient id="XMLID_212_" gradientUnits="userSpaceOnUse" x1="363.128" y1="827.956" x2="384.714" y2="827.956" gradientTransform="matrix(1 0 0 -1 0 1072)"><stop offset=".006" stop-color="#131536"/><stop offset=".096" stop-color="#161432"/><stop offset=".186" stop-color="#1a1528"/><stop offset=".994" stop-color="#14151c"/></linearGradient><path id="XMLID_133_" d="M375 238.2c4.3 1.4 7.7 4.8 9.7 9.2-3.2 2.7-7.5 3.8-11.8 2.4-4.3-1.4-7.7-4.8-9.7-9.2 3.2-2.7 7.5-3.7 11.8-2.4z" fill="url(#XMLID_212_)"/></g><g id="XMLID_340_"><linearGradient id="XMLID_213_" gradientUnits="userSpaceOnUse" x1="377.582" y1="859.567" x2="394.604" y2="859.567" gradientTransform="matrix(1 0 0 -1 0 1072)"><stop offset=".006" stop-color="#131536"/><stop offset=".096" stop-color="#161432"/><stop offset=".186" stop-color="#1a1528"/><stop offset=".994" stop-color="#14151c"/></linearGradient><path id="XMLID_132_" d="M382.3 208.3c3.4-3.4 7.8-4.9 12.2-4.4.2 4.6-1.4 9.3-4.8 12.7-3.4 3.4-7.8 4.9-12.2 4.4-.1-4.6 1.4-9.3 4.8-12.7z" fill="url(#XMLID_213_)"/></g><g id="XMLID_338_"><linearGradient id="XMLID_214_" gradientUnits="userSpaceOnUse" x1="381.507" y1="844.496" x2="398.528" y2="844.496" gradientTransform="matrix(1 0 0 -1 0 1072)"><stop offset=".006" stop-color="#131536"/><stop offset=".096" stop-color="#161432"/><stop offset=".186" stop-color="#1a1528"/><stop offset=".994" stop-color="#14151c"/></linearGradient><path id="XMLID_131_" d="M386.3 223.3c3.4-3.4 7.8-4.9 12.2-4.4.2 4.6-1.4 9.3-4.8 12.7s-7.8 4.9-12.2 4.4c-.2-4.6 1.4-9.2 4.8-12.7z" fill="url(#XMLID_214_)"/></g></g><g id="XMLID_322_"><g id="XMLID_335_"><linearGradient id="XMLID_215_" gradientUnits="userSpaceOnUse" x1="331.93" y1="753.333" x2="411.3" y2="753.333" gradientTransform="matrix(1 0 0 -1 0 1072)"><stop offset=".006" stop-color="#28366f"/><stop offset=".227" stop-color="#242f66"/><stop offset=".541" stop-color="#221f53"/><stop offset=".765" stop-color="#1d1042"/><stop offset=".994" stop-color="#21122f"/></linearGradient><path id="XMLID_130_" d="M411.3 344.1c-23.5-3.4-43.6-17.3-56.3-28.4-13.8-12-22.1-23.4-22.2-23.5l-.8.5c.1.1 8.5 11.5 22.4 23.7 12.8 11.2 33.2 25.2 57 28.7l-.1-1z" fill="url(#XMLID_215_)"/></g><g id="XMLID_333_"><linearGradient id="XMLID_216_" gradientUnits="userSpaceOnUse" x1="321.799" y1="781.763" x2="336.645" y2="781.763" gradientTransform="matrix(1 0 0 -1 0 1072)"><stop offset=".006" stop-color="#28366f"/><stop offset=".227" stop-color="#242f66"/><stop offset=".541" stop-color="#221f53"/><stop offset=".765" stop-color="#1d1042"/><stop offset=".994" stop-color="#21122f"/></linearGradient><path id="XMLID_129_" d="M332.1 287.6c2.9 2.9 4.5 6.6 4.4 9.9-3.6-.2-7.4-1.8-10.4-4.7-2.9-2.9-4.5-6.6-4.4-9.9 3.7.2 7.5 1.9 10.4 4.7z" fill="url(#XMLID_216_)"/></g><g id="XMLID_331_"><linearGradient id="XMLID_217_" gradientUnits="userSpaceOnUse" x1="323.399" y1="767.719" x2="343.951" y2="767.719" gradientTransform="matrix(1 0 0 -1 0 1072)"><stop offset=".006" stop-color="#28366f"/><stop offset=".227" stop-color="#242f66"/><stop offset=".541" stop-color="#221f53"/><stop offset=".765" stop-color="#1d1042"/><stop offset=".994" stop-color="#21122f"/></linearGradient><path id="XMLID_128_" d="M334 300.4c4.1.7 7.6 2.8 9.9 5.7-2.7 2-6.6 2.8-10.7 2.2s-7.6-2.8-9.9-5.7c2.8-2 6.6-2.9 10.7-2.2z" fill="url(#XMLID_217_)"/></g><g id="XMLID_329_"><linearGradient id="XMLID_218_" gradientUnits="userSpaceOnUse" x1="331.589" y1="756.954" x2="350.7" y2="756.954" gradientTransform="matrix(1 0 0 -1 0 1072)"><stop offset=".006" stop-color="#28366f"/><stop offset=".227" stop-color="#242f66"/><stop offset=".541" stop-color="#221f53"/><stop offset=".765" stop-color="#1d1042"/><stop offset=".994" stop-color="#21122f"/></linearGradient><path id="XMLID_127_" d="M339.5 311.2c3.8-1.1 7.8-.6 11.2 1.1-1.4 3-4.1 5.5-7.9 6.6s-7.8.6-11.2-1.1c1.3-2.9 4.2-5.4 7.9-6.6z" fill="url(#XMLID_218_)"/></g><g id="XMLID_327_"><linearGradient id="XMLID_219_" gradientUnits="userSpaceOnUse" x1="346.491" y1="747.95" x2="361.661" y2="747.95" gradientTransform="matrix(1 0 0 -1 0 1072)"><stop offset=".006" stop-color="#28366f"/><stop offset=".227" stop-color="#242f66"/><stop offset=".541" stop-color="#221f53"/><stop offset=".765" stop-color="#1d1042"/><stop offset=".994" stop-color="#21122f"/></linearGradient><path id="XMLID_126_" d="M352.5 320.2c3-.9 6.4-.2 9.2 1.7-.9 2.8-2.9 5.1-6 6-3 .9-6.4.2-9.2-1.7.8-2.8 3-5.1 6-6z" fill="url(#XMLID_219_)"/></g><g id="XMLID_325_"><linearGradient id="XMLID_221_" gradientUnits="userSpaceOnUse" x1="345.022" y1="771.047" x2="353.006" y2="771.047" gradientTransform="matrix(1 0 0 -1 0 1072)"><stop offset=".006" stop-color="#28366f"/><stop offset=".227" stop-color="#242f66"/><stop offset=".541" stop-color="#221f53"/><stop offset=".765" stop-color="#1d1042"/><stop offset=".994" stop-color="#21122f"/></linearGradient><path id="XMLID_125_" d="M345.3 300c.7-3.3 2.7-5.9 5.5-7.2 1.9 2.5 2.7 5.9 2.2 9.2-.7 3.3-2.7 5.9-5.5 7.2-2.1-2.6-2.9-5.9-2.2-9.2z" fill="url(#XMLID_221_)"/></g><g id="XMLID_323_"><linearGradient id="XMLID_222_" gradientUnits="userSpaceOnUse" x1="353.087" y1="763.805" x2="361.065" y2="763.805" gradientTransform="matrix(1 0 0 -1 0 1072)"><stop offset=".006" stop-color="#28366f"/><stop offset=".227" stop-color="#242f66"/><stop offset=".541" stop-color="#221f53"/><stop offset=".765" stop-color="#1d1042"/><stop offset=".994" stop-color="#21122f"/></linearGradient><path id="XMLID_124_" d="M353.3 307.2c.7-3.3 2.7-5.9 5.5-7.2 1.9 2.5 2.7 5.9 2.2 9.2-.7 3.3-2.7 5.9-5.5 7.2-2-2.5-2.9-5.9-2.2-9.2z" fill="url(#XMLID_222_)"/></g></g><g id="XMLID_305_"><g id="XMLID_320_"><linearGradient id="XMLID_223_" gradientUnits="userSpaceOnUse" x1="309.825" y1="663.053" x2="425.992" y2="663.053" gradientTransform="matrix(1 0 0 -1 0 1072)"><stop offset=".006" stop-color="#28366f"/><stop offset=".227" stop-color="#242f66"/><stop offset=".541" stop-color="#221f53"/><stop offset=".765" stop-color="#1d1042"/><stop offset=".994" stop-color="#21122f"/></linearGradient><path id="XMLID_123_" d="M425.4 414.4c-27.1 10.3-56.9 4.9-77.1-1.5-22-6.9-37.8-16.4-37.9-16.5l-.6 1.2c.2.1 16.1 9.7 38.2 16.6 20.5 6.5 50.6 11.9 78 1.5l-.6-1.3z" fill="url(#XMLID_223_)"/></g><g id="XMLID_318_"><linearGradient id="XMLID_224_" gradientUnits="userSpaceOnUse" x1="293.188" y1="675.921" x2="317.788" y2="675.921" gradientTransform="matrix(1 0 0 -1 0 1072)"><stop offset=".006" stop-color="#28366f"/><stop offset=".227" stop-color="#242f66"/><stop offset=".541" stop-color="#221f53"/><stop offset=".765" stop-color="#1d1042"/><stop offset=".994" stop-color="#21122f"/></linearGradient><path id="XMLID_122_" d="M307.1 390.9c4.9 1.9 8.7 5.7 10.7 10-4 2.1-9 2.3-13.9.4s-8.7-5.7-10.7-10c3.9-2.1 9-2.4 13.9-.4z" fill="url(#XMLID_224_)"/></g><g id="XMLID_316_"><linearGradient id="XMLID_225_" gradientUnits="userSpaceOnUse" x1="306.645" y1="660.653" x2="330.648" y2="660.653" gradientTransform="matrix(1 0 0 -1 0 1072)"><stop offset=".006" stop-color="#28366f"/><stop offset=".227" stop-color="#242f66"/><stop offset=".541" stop-color="#221f53"/><stop offset=".765" stop-color="#1d1042"/><stop offset=".994" stop-color="#21122f"/></linearGradient><path id="XMLID_121_" d="M316.7 406.1c4.8-1.7 9.9-1.2 14 1.1-1.7 4.3-5.2 7.8-10.1 9.5-4.8 1.7-9.9 1.2-14-1.1 1.8-4.3 5.3-7.9 10.1-9.5z" fill="url(#XMLID_225_)"/></g><g id="XMLID_314_"><linearGradient id="XMLID_227_" gradientUnits="userSpaceOnUse" x1="324.579" y1="651.307" x2="341.748" y2="651.307" gradientTransform="matrix(1 0 0 -1 0 1072)"><stop offset=".006" stop-color="#28366f"/><stop offset=".227" stop-color="#242f66"/><stop offset=".541" stop-color="#221f53"/><stop offset=".765" stop-color="#1d1042"/><stop offset=".994" stop-color="#21122f"/></linearGradient><path id="XMLID_120_" d="M329.1 416.8c3.4-3.8 8-5.7 12.5-5.7.4 4.7-1.1 9.7-4.5 13.4-3.4 3.8-8 5.7-12.5 5.7-.4-4.7 1.2-9.6 4.5-13.4z" fill="url(#XMLID_227_)"/></g><g id="XMLID_312_"><linearGradient id="XMLID_228_" gradientUnits="userSpaceOnUse" x1="342.013" y1="645.827" x2="359.191" y2="645.827" gradientTransform="matrix(1 0 0 -1 0 1072)"><stop offset=".006" stop-color="#28366f"/><stop offset=".227" stop-color="#242f66"/><stop offset=".541" stop-color="#221f53"/><stop offset=".765" stop-color="#1d1042"/><stop offset=".994" stop-color="#21122f"/></linearGradient><path id="XMLID_119_" d="M346.6 422.3c3.4-3.8 8-5.7 12.5-5.7.4 4.7-1.1 9.7-4.5 13.4-3.4 3.8-8 5.7-12.5 5.7-.5-4.6 1.1-9.5 4.5-13.4z" fill="url(#XMLID_228_)"/></g><g id="XMLID_310_"><linearGradient id="XMLID_229_" gradientUnits="userSpaceOnUse" x1="326.127" y1="670.636" x2="341.224" y2="670.636" gradientTransform="matrix(1 0 0 -1 0 1072)"><stop offset=".006" stop-color="#28366f"/><stop offset=".227" stop-color="#242f66"/><stop offset=".541" stop-color="#221f53"/><stop offset=".765" stop-color="#1d1042"/><stop offset=".994" stop-color="#21122f"/></linearGradient><path id="XMLID_118_" d="M330.2 404.5c-3-3.9-4.3-8.6-4-12.9 3.9.5 8 2.7 11 6.7 3 3.9 4.3 8.6 4 12.9-4-.5-8.1-2.8-11-6.7z" fill="url(#XMLID_229_)"/></g><g id="XMLID_308_"><linearGradient id="XMLID_230_" gradientUnits="userSpaceOnUse" x1="344.041" y1="665.009" x2="359.382" y2="665.009" gradientTransform="matrix(1 0 0 -1 0 1072)"><stop offset=".006" stop-color="#28366f"/><stop offset=".227" stop-color="#242f66"/><stop offset=".541" stop-color="#221f53"/><stop offset=".765" stop-color="#1d1042"/><stop offset=".994" stop-color="#21122f"/></linearGradient><path id="XMLID_117_" d="M348.3 410.2c-3-3.9-4.5-8.5-4.2-12.8 3.9.4 8 2.6 11.1 6.5 3 3.9 4.5 8.5 4.2 12.8-4-.5-8.1-2.7-11.1-6.5z" fill="url(#XMLID_230_)"/></g><g id="XMLID_306_"><linearGradient id="XMLID_231_" gradientUnits="userSpaceOnUse" x1="368.959" y1="647.05" x2="374.503" y2="647.05" gradientTransform="matrix(1 0 0 -1 0 1072)"><stop offset=".006" stop-color="#28366f"/><stop offset=".227" stop-color="#242f66"/><stop offset=".541" stop-color="#221f53"/><stop offset=".765" stop-color="#1d1042"/><stop offset=".994" stop-color="#21122f"/></linearGradient><path id="XMLID_116_" d="M369.4 423.9c.8-2.1 2.3-3.4 4.3-4 .9 1.9 1.1 4.1.3 6.2-.8 2.1-2.3 3.4-4.3 4-.9-1.9-1.1-4.2-.3-6.2z" fill="url(#XMLID_231_)"/></g></g><linearGradient id="XMLID_232_" gradientUnits="userSpaceOnUse" x1="313.301" y1="716.289" x2="508.96" y2="716.289" gradientTransform="matrix(1 0 0 -1 0 1072)"><stop offset=".006" stop-color="#131536"/><stop offset=".096" stop-color="#161432"/><stop offset=".186" stop-color="#1a1528"/><stop offset=".994" stop-color="#14151c"/></linearGradient><path id="XMLID_115_" d="M483.5 475.7s34.5-136.5 23.1-150.2c-15.9-19-28.9 43.9-30.1 38.6-12.1-50.4-15.3-115-54.3-121.8-22.2-3.9 5.1 48 3.4 62-1.7 14-41.6-32.5-65.9-57-24.3-24.4-36.8-9-21.4 21.7 14.9 29.7 62.8 62 52.9 66-9.9 3.9-70-34.4-77.3-18.1-9 20.1 81 47.4 72.6 52-8.4 4.6-51.6-10.4-50.4 5 1.2 15.4 59 14.8 58 21.5-1.6 11-39.8-13.8-41.6 1.3-1.8 15.5 50.4 12.6 49.4 24.8-.5 6.9-11.6-3.5-13.3 6.1-3.7 21.9 64.9 48.6 64.9 48.6l30-.5z" fill="url(#XMLID_232_)"/><g id="XMLID_301_"><linearGradient id="XMLID_233_" gradientUnits="userSpaceOnUse" x1="374.924" y1="631.056" x2="509.864" y2="631.056" gradientTransform="matrix(1 0 0 -1 0 1072)"><stop offset=".006" stop-color="#28366f"/><stop offset=".227" stop-color="#242f66"/><stop offset=".541" stop-color="#221f53"/><stop offset=".765" stop-color="#1d1042"/><stop offset=".994" stop-color="#21122f"/></linearGradient><path id="XMLID_114_" d="M509.9 476.5s-32.9-50.4-48.6-59.9c-16.8-10.1-4 20.2-4 20.2s-34.4-40.9-43.9-32.6c-9.6 8.3-.9 17.9-.9 17.9s-30.9-9.2-36.5 2.2c-8.5 17.4 42.4 31.9 42.4 31.9s-21.8-.2-17.8 11.5c5.9 17.8 109.3 8.8 109.3 8.8z" fill="url(#XMLID_233_)"/><linearGradient id="XMLID_234_" gradientUnits="userSpaceOnUse" x1="375.885" y1="632.423" x2="509.864" y2="632.423" gradientTransform="matrix(1 0 0 -1 0 1072)"><stop offset=".006" stop-color="#28366f"/><stop offset=".227" stop-color="#242f66"/><stop offset=".541" stop-color="#221f53"/><stop offset=".765" stop-color="#1d1042"/><stop offset=".994" stop-color="#21122f"/></linearGradient><path id="XMLID_113_" d="M375.9 424.4c5.6-11.4 36.5-2.2 36.5-2.2s-8.7-9.7.9-17.9 37.1 16.5 37.1 16.5-2.8-20.6 17.8-2.4c14.8 12.9 41.7 58.1 41.7 58.1l-134-52.1z" fill="url(#XMLID_234_)"/></g><g id="XMLID_281_"><g id="XMLID_282_"><g id="XMLID_299_"><linearGradient id="XMLID_235_" gradientUnits="userSpaceOnUse" x1="431.891" y1="815.136" x2="471.51" y2="815.136" gradientTransform="matrix(1 0 0 -1 0 1072)"><stop offset=".006" stop-color="#28366f"/><stop offset=".227" stop-color="#242f66"/><stop offset=".541" stop-color="#221f53"/><stop offset=".765" stop-color="#1d1042"/><stop offset=".994" stop-color="#21122f"/></linearGradient><path id="XMLID_112_" d="M470 350.1l1.5-1c-26.7-40.5-34.9-88.6-37.1-121.7-2.3-36 1.8-62.8 1.8-63.1l-1.9-.6c0 .3-4.1 27.2-1.9 63.5 2.4 33.4 10.6 82 37.6 122.9z" fill="url(#XMLID_235_)"/></g><g id="XMLID_297_"><linearGradient id="XMLID_237_" gradientUnits="userSpaceOnUse" x1="426.687" y1="915.498" x2="441.534" y2="915.498" gradientTransform="matrix(1 0 0 -1 0 1072)"><stop offset=".006" stop-color="#28366f"/><stop offset=".227" stop-color="#242f66"/><stop offset=".541" stop-color="#221f53"/><stop offset=".765" stop-color="#1d1042"/><stop offset=".994" stop-color="#21122f"/></linearGradient><path id="XMLID_111_" d="M441.6 158c.1 8.1-2.7 14.9-7.2 18.9-4.6-5.9-7.5-13.7-7.5-21.8-.1-8.1 2.7-14.9 7.2-18.9 4.4 5.7 7.4 13.5 7.5 21.8z" fill="url(#XMLID_237_)"/></g><g id="XMLID_295_"><linearGradient id="XMLID_238_" gradientUnits="userSpaceOnUse" x1="409.774" y1="891.618" x2="432.914" y2="891.618" gradientTransform="matrix(1 0 0 -1 0 1072)"><stop offset=".006" stop-color="#28366f"/><stop offset=".227" stop-color="#242f66"/><stop offset=".541" stop-color="#221f53"/><stop offset=".765" stop-color="#1d1042"/><stop offset=".994" stop-color="#21122f"/></linearGradient><path id="XMLID_110_" d="M427.1 176.2c4.5 7.2 6.5 15.3 5.7 22.2-6.3-1.8-12.5-6.6-17.1-13.8-4.5-7.2-6.5-15.3-5.7-22.2 6.2 1.8 12.5 6.6 17.1 13.8z" fill="url(#XMLID_238_)"/></g><g id="XMLID_293_"><linearGradient id="XMLID_239_" gradientUnits="userSpaceOnUse" x1="400.351" y1="866.739" x2="433.17" y2="866.739" gradientTransform="matrix(1 0 0 -1 0 1072)"><stop offset=".006" stop-color="#28366f"/><stop offset=".227" stop-color="#242f66"/><stop offset=".541" stop-color="#221f53"/><stop offset=".765" stop-color="#1d1042"/><stop offset=".994" stop-color="#21122f"/></linearGradient><path id="XMLID_109_" d="M419.7 198.1c6.6 4.5 11.3 11.5 13.5 18.6-5.8 1.7-12.8.3-19.4-4.3-6.6-4.5-11.3-11.5-13.5-18.6 5.8-1.6 12.9-.3 19.4 4.3z" fill="url(#XMLID_239_)"/></g><g id="XMLID_291_"><linearGradient id="XMLID_240_" gradientUnits="userSpaceOnUse" x1="420.12" y1="832.669" x2="434.425" y2="832.669" gradientTransform="matrix(1 0 0 -1 0 1072)"><stop offset=".006" stop-color="#28366f"/><stop offset=".227" stop-color="#242f66"/><stop offset=".541" stop-color="#221f53"/><stop offset=".765" stop-color="#1d1042"/><stop offset=".994" stop-color="#21122f"/></linearGradient><path id="XMLID_108_" d="M428.2 236.2c2.8 1.7 5 4.4 6.2 7.4-2.3.9-5.3.6-8.1-1.2-2.8-1.7-5-4.4-6.2-7.4 2.4-.8 5.3-.5 8.1 1.2z" fill="url(#XMLID_240_)"/></g><g id="XMLID_289_"><linearGradient id="XMLID_241_" gradientUnits="userSpaceOnUse" x1="422.452" y1="818.512" x2="436.757" y2="818.512" gradientTransform="matrix(1 0 0 -1 0 1072)"><stop offset=".006" stop-color="#28366f"/><stop offset=".227" stop-color="#242f66"/><stop offset=".541" stop-color="#221f53"/><stop offset=".765" stop-color="#1d1042"/><stop offset=".994" stop-color="#21122f"/></linearGradient><path id="XMLID_107_" d="M430.6 250.4c2.8 1.7 5 4.4 6.2 7.4-2.3.9-5.3.6-8.1-1.2-2.8-1.7-5-4.4-6.2-7.4 2.3-.9 5.3-.6 8.1 1.2z" fill="url(#XMLID_241_)"/></g><g id="XMLID_287_"><linearGradient id="XMLID_242_" gradientUnits="userSpaceOnUse" x1="432.941" y1="871.916" x2="459.365" y2="871.916" gradientTransform="matrix(1 0 0 -1 0 1072)"><stop offset=".006" stop-color="#28366f"/><stop offset=".227" stop-color="#242f66"/><stop offset=".541" stop-color="#221f53"/><stop offset=".765" stop-color="#1d1042"/><stop offset=".994" stop-color="#21122f"/></linearGradient><path id="XMLID_106_" d="M442.4 193.1c5.3-3 11.5-2.9 16.9-.5-.9 6.1-4.2 11.5-9.5 14.5-5.3 2.9-11.5 2.9-16.9.5.9-6.1 4.2-11.5 9.5-14.5z" fill="url(#XMLID_242_)"/></g><g id="XMLID_285_"><linearGradient id="XMLID_243_" gradientUnits="userSpaceOnUse" x1="433.97" y1="850.563" x2="460.394" y2="850.563" gradientTransform="matrix(1 0 0 -1 0 1072)"><stop offset=".006" stop-color="#28366f"/><stop offset=".227" stop-color="#242f66"/><stop offset=".541" stop-color="#221f53"/><stop offset=".765" stop-color="#1d1042"/><stop offset=".994" stop-color="#21122f"/></linearGradient><path id="XMLID_105_" d="M443.5 214.4c5.3-3 11.5-2.9 16.9-.5-.9 6.1-4.2 11.5-9.5 14.5s-11.5 2.9-16.9.5c.9-6.1 4.2-11.4 9.5-14.5z" fill="url(#XMLID_243_)"/></g><g id="XMLID_283_"><linearGradient id="XMLID_244_" gradientUnits="userSpaceOnUse" x1="436.245" y1="822.573" x2="453.451" y2="822.573" gradientTransform="matrix(1 0 0 -1 0 1072)"><stop offset=".006" stop-color="#28366f"/><stop offset=".227" stop-color="#242f66"/><stop offset=".541" stop-color="#221f53"/><stop offset=".765" stop-color="#1d1042"/><stop offset=".994" stop-color="#21122f"/></linearGradient><path id="XMLID_104_" d="M442.4 244.9c3.4-2 7.4-2 11.1-.3-.6 4-2.7 7.4-6.2 9.4-3.4 2-7.4 2-11.1.3.7-3.9 2.8-7.5 6.2-9.4z" fill="url(#XMLID_244_)"/></g></g></g><g id="XMLID_277_"><path id="XMLID_103_" class="st69" d="M819.7 365c3.1.5 2.9 1 3.3 1.1.5.1 6.1-2.7 6.1-2.7s16.5-8.2 17.4-8.7l11.9-15.1 9.2 4.3s-13.4 16.1-14.3 16.7c-.9.7-24.7 9-26.7 9.9 0 0-2.1 1.9-3.4 3-1.4 1.2-3.1 1.7-3.6 1.9-.1 0-1.6.8-3.6 1.3-1.9.4-.3-.8-.3-.8s3.2-1.4 3-1.6c-.1-.2-1.9.7-3.8 1.1l-1.5.3c-1.2.3-1.8-.4-.6-1 .4-.2 1.2-.5 1.7-.6.6-.1 1.1-.4 1.6-.6 1-.4 1.7-.6 1.7-.7-.1-.1.1-.3-.5-.1-.7.1-2 .7-3 .8l-1.8.3s-2.1.2-2.1-.1c0-.6 1.2-1 2.1-1 .5-.3 1.8-.4 1.8-.4s2.3-1 2.3-1.3c-.1-.1-1.5.1-3 .2-1.7.1-2.7.1-2.8-.2-.1-.5 1.2-.7 1.2-.7s1.2-.2 1.5-.3c.4-.1 1.7-.5 1.7-.5s4.4-1.7 4.2-2-.9-1-1.2-1-.9.3-1.2.3-1-.1-1-.5 1.7-1.2 1.7-1.2 1.1-.2 2-.1z"/><path id="XMLID_102_" class="st70" d="M850.2 348.9s3 2.7 4.2 3.6c1 .8 6.1 3.1 6.1 3.1s5-7.6 7.2-11.5c2.6-4.7 4.5-11.6 3.9-11.8-1.8-.6-4.2-.9-6.5.2-7.6 3.6-14.9 16.4-14.9 16.4z"/><path id="XMLID_101_" class="st71" d="M822.6 369c-1.4.2-2.7-.1-3.2-1.3-.2 1.5 2.1 2.2 3.2 1.3z"/></g><path id="XMLID_100_" class="st72" d="M451.4 315.2c.2-4.5-.5-8.9-2.4-13-1.7-3.6-6-5.6-9.8-5.6-12.2 0-13.8 16.2-21.6 22.5-2.3 1.9-5.1 3.4-7.3 5.6-8.3 7.6-4.6 21.8 3 28.5 5.3 4.6 13.6 7.2 20.2 3.6 3.4-1.9 6-5 7.8-8.5 2.6-4.9 4.3-10.6 6.2-15.8 2-5.6 3.6-11.4 3.9-17.3z"/><linearGradient id="XMLID_245_" gradientUnits="userSpaceOnUse" x1="444.524" y1="734.298" x2="456.418" y2="734.298" gradientTransform="matrix(1 0 0 -1 0 1072)"><stop offset=".006" stop-color="#28366f"/><stop offset=".227" stop-color="#242f66"/><stop offset=".541" stop-color="#221f53"/><stop offset=".765" stop-color="#1d1042"/><stop offset=".994" stop-color="#21122f"/></linearGradient><path id="XMLID_99_" d="M453.4 336.8c-3.8-11.6-8.9-11.5-8.9-11.5l4.1 24.8c2.3-.7 5.5-2.1 7.8-2.7-.8-3.7-2-7.7-3-10.6z" fill="url(#XMLID_245_)"/><path id="XMLID_98_" d="M472.8 376.5l-14-10.7s-1.5-10-3.3-18.8c-2.3.7-4.5 2.5-6.9 3.1l3.5 19.8 18.3 9.5 5.2 6.7 1.2-6.9-4-2.7z" fill="#f58e81"/><linearGradient id="XMLID_246_" gradientUnits="userSpaceOnUse" x1="450.263" y1="718.112" x2="636.405" y2="718.112" gradientTransform="matrix(1 0 0 -1 0 1072)"><stop offset=".006" stop-color="#131536"/><stop offset=".096" stop-color="#161432"/><stop offset=".186" stop-color="#1a1528"/><stop offset=".994" stop-color="#14151c"/></linearGradient><path id="XMLID_97_" d="M600.4 359.8c4.3 0 8.4 1.2 11.9 3.1.5.3 1 .5 1.5.7 10.8 4.4 22.5-3.7 22.5-15.4V291H579c-11.6 0-19.9-11.7-15.4-22.5.2-.5.5-1 .7-1.5 2-3.5 3.1-7.6 3.1-11.9 0-13.8-11.5-24.9-25.4-24.3-12.6.6-22.7 11-23.1 23.6-.1 4.5 1 8.7 3 12.3.3.5.5 1 .7 1.5 4.4 11-3.9 22.8-15.8 22.8h-56.7v130.4c0 30.7 25 55.7 55.7 55.7h130.5V420c0-11.6-11.8-20-22.6-15.6-.5.2-1 .4-1.5.7-3.9 2.2-8.3 3.3-13.2 3-12.3-.7-22.3-10.7-22.9-23-.6-13.8 10.5-25.3 24.3-25.3z" fill="url(#XMLID_246_)"/><linearGradient id="XMLID_247_" gradientUnits="userSpaceOnUse" x1="592.953" y1="687.094" x2="843.295" y2="687.094" gradientTransform="matrix(1 0 0 -1 0 1072)"><stop offset="0" stop-color="#0a6895"/><stop offset="1" stop-color="#0c6d65"/></linearGradient><path id="XMLID_96_" d="M724.4 328.1c.2-4.3 1.6-8.3 3.7-11.8.3-.4.6-.9.8-1.5 4.9-10.6-2.7-22.7-14.3-23.2l-57.2-2.6-2.6 57.2c-.6 11.6-12.7 19.3-23.2 14.3-.5-.2-1-.5-1.5-.8-3.4-2.2-7.4-3.5-11.8-3.7-13.8-.7-25.3 10.3-25.3 24.3 0 12.6 9.9 23.2 22.4 24.2 4.5.3 8.7-.6 12.5-2.3l1.5-.6c11.2-3.9 22.6 5 22 16.7l-2.6 56.7 130.3 6.1c30.7 1.5 56.8-22.3 58.2-53l6.1-130.3-57-2.6c-11.6-.6-20.5 10.9-16.5 21.9.2.6.4 1 .6 1.5 2 3.9 2.9 8.5 2.4 13.3-1.2 12.3-11.7 21.8-24.1 21.8-14-.3-25-11.9-24.4-25.6z" fill="url(#XMLID_247_)"/><linearGradient id="XMLID_248_" gradientUnits="userSpaceOnUse" x1="443.348" y1="889.759" x2="691.233" y2="889.759" gradientTransform="matrix(1 0 0 -1 0 1072)"><stop offset="0" stop-color="#0a6895"/><stop offset="1" stop-color="#0c6d65"/></linearGradient><path id="XMLID_95_" d="M565.2 238c.2 4.3-.7 8.5-2.5 12.1l-.6 1.5c-3.9 11 4.9 22.3 16.5 21.7l57.2-2.8-2.8-57.2c-.6-11.6 10.8-20.4 21.7-16.5l1.5.6c3.6 1.9 7.7 2.7 12.1 2.5 13.8-.7 24.3-12.7 22.9-26.6-1.2-12.5-12-22.1-24.7-21.8-4.5.1-8.6 1.4-12.1 3.6-.5.3-.9.5-1.5.8-10.7 4.9-23-2.7-23.6-14.6l-2.8-56.7-130.2 6.6c-30.7 1.6-54.3 27.7-52.8 58.4l6.6 130.2 57-2.8c11.6-.6 19.3-12.8 14.4-23.4-.2-.5-.5-1-.8-1.5-2.3-3.7-3.7-8.2-3.7-13 0-12.3 9.6-22.8 21.8-24.1 13.6-1.2 25.7 9.3 26.4 23z" fill="url(#XMLID_248_)"/><linearGradient id="XMLID_249_" gradientUnits="userSpaceOnUse" x1="646.192" y1="859.605" x2="832.236" y2="859.605" gradientTransform="matrix(1 0 0 -1 0 1072)"><stop offset=".006" stop-color="#131536"/><stop offset=".096" stop-color="#161432"/><stop offset=".186" stop-color="#1a1528"/><stop offset=".994" stop-color="#14151c"/></linearGradient><path id="XMLID_94_" d="M682.1 206.5c-4.3 0-8.4-1.2-11.9-3.1-.5-.3-1-.5-1.5-.7-10.8-4.4-22.5 3.7-22.5 15.4v57.3h57.3c11.6 0 19.9 11.7 15.4 22.5-.2.5-.5 1-.7 1.5-2 3.5-3.1 7.6-3.1 11.9 0 13.8 11.5 24.9 25.4 24.3 12.6-.6 22.7-11 23.1-23.6.1-4.5-1-8.7-3-12.3-.3-.5-.5-1-.7-1.5-4.4-11 3.9-22.8 15.8-22.8h56.7V145c0-30.7-25-55.7-55.7-55.7H646.2v57.1c0 11.6 11.8 20 22.6 15.6.5-.2 1-.4 1.5-.7 3.9-2.2 8.3-3.3 13.2-3 12.3.7 22.3 10.7 22.9 23 .6 13.8-10.5 25.2-24.3 25.2z" fill="url(#XMLID_249_)"/><path id="XMLID_93_" class="st79" d="M413.1 459s-.9 6-2.3 7.9c-.5.7-1.5 1.5-2.1 2.6-1 1.9-.4 4.5.3 6.1.3.8 0 .8.8 1 2.3.8 4.9-.5 5.9-2.7.6-1.3 1.1-3 1.2-5.1.3-5.5 2-8.2 2-8.2l-5.8-1.6z"/><path id="XMLID_92_" class="st79" d="M439.1 461.6s.6 6.8.1 9c-.2 1.2-1.6 3.6-1 4.7.6 1.1 1.3 1.4 1.3 1.4l15.4.3c.8 0 .3-.5-.4-1-1.1-.8-2-1.4-5.5-3-.2-.1-1.1-.7-1.4-.8-.8-.5-1.6-1.2-2.2-2-1.1-1.2-1.2-7.2-1.2-7.2l-5.1-1.4z"/><linearGradient id="XMLID_250_" gradientUnits="userSpaceOnUse" x1="436.425" y1="654.879" x2="452.194" y2="654.879" gradientTransform="matrix(1 0 0 -1 0 1072)"><stop offset="0" stop-color="#0a6895"/><stop offset="1" stop-color="#0c6d65"/></linearGradient><path id="XMLID_91_" d="M451 371.7s2 11 .7 18.2c-1.3 7.2-7.3 74-7.3 74l-6.8.4s-1.5-27.9-1.2-31.8 2.3-10.4 2.3-10.4l-.7-22.5 8.5-29.7 4.5 1.8z" fill="url(#XMLID_250_)"/><linearGradient id="XMLID_251_" gradientUnits="userSpaceOnUse" x1="412.243" y1="657.913" x2="450.215" y2="657.913" gradientTransform="matrix(1 0 0 -1 0 1072)"><stop offset="0" stop-color="#0a6895"/><stop offset="1" stop-color="#0c6d65"/></linearGradient><path id="XMLID_90_" d="M431.2 369.4s-5.3 8-6.6 14.7c-1.3 6.7 1 27.1-1.5 35.8-1.3 4.7-6.4 12-7 18.1-.8 6.1-3.7 22-3.7 22l6.8 1.4 15.8-39.9 12.3-36 3.1-18.6-19.2 2.5z" fill="url(#XMLID_251_)"/><linearGradient id="XMLID_252_" gradientUnits="userSpaceOnUse" x1="425.131" y1="723.708" x2="451.347" y2="723.708" gradientTransform="matrix(1 0 0 -1 0 1072)"><stop offset=".006" stop-color="#28366f"/><stop offset=".227" stop-color="#242f66"/><stop offset=".541" stop-color="#221f53"/><stop offset=".765" stop-color="#1d1042"/><stop offset=".994" stop-color="#21122f"/></linearGradient><path id="XMLID_89_" d="M435.5 323.7s-7-.5-9.9 2.5c-2.7 3 6.2 27.2 6.8 31 .6 3.8-2.5 14.2-2.5 14.2s16.5 3.3 21.3.2c0 0 .5-27.9 0-30.7-.5-2.7-4.8-14.1-5.8-15.2-1.1-1-9.9-2-9.9-2z" fill="url(#XMLID_252_)"/><path id="XMLID_88_" class="st79" d="M437.8 314.2s0 .2-.1.6c-.3 1.7-1.6 7.3-2.3 8.9-1 1.9 3.4 7.8 7.6 7.1 1.3-.2-1.1-5.5-1-6.1.2-1.1.5-2.5.8-4 .2-.9.3-1.7.5-2.5.5-2.3.8-4.1.8-4.1l-6.3.1z"/><path id="XMLID_87_" class="st83" d="M437.7 314.8c.1-.3.1-.6.1-.6l6.4-.2s-.4 1.9-.8 4.1c-.2.8-.3 1.7-.5 2.5-1-.1-2-.6-3-1.5-1.1-1-1.9-2.2-2.3-3.4 0-.4.1-.7.1-.9z"/><path id="XMLID_86_" class="st79" d="M442.1 299.8s-3-.3-4.8 2.1c-1.9 2.4-3.9 9.9.8 14s9.2-.6 9.9-5.4c.6-4.9.8-10.9-5.9-10.7z"/><path id="XMLID_85_" class="st79" d="M449.3 310.3c-.6 1.1-1.5 1.7-2.1 1.4-.6-.3-.6-1.5-.1-2.5.6-1.1 1.5-1.7 2.1-1.4.6.3.6 1.5.1 2.5z"/><path id="XMLID_84_" class="st72" d="M442.4 299s-4 7.1-6.9 7.4c-2.8.3-3.2 4.1-3.2 4.1s1-8.7 3.8-10.4c2.9-1.6 6.3-1.1 6.3-1.1z"/><path id="XMLID_83_" class="st83" d="M416.1 472.6c-3.7.7-6.2-1.5-7.4-3.1-1 1.9-1.4 4.6-.7 6.1.6 1.4 2.3 1.3 3.8 1.4 1.5.1 2.6-.8 3.3-2.1.4-.6.7-1.3 1-2.3z"/><path id="XMLID_82_" class="st83" d="M447.6 472.1c-4.1 1.1-7 .3-8.7-.3-.4 1.2-1 2.7-.7 3.6.4 1.1.9 1.4 1.4 1.4 3.7.1 13.6.2 16.4.3.4 0 .6-.5.4-.8-.9-.9-8.5-4-8.8-4.2z"/><path id="XMLID_81_" class="st79" d="M436.4 308.2c.2 1.3-.2 2.4-1.1 2.5-.8.2-1.7-.7-1.9-2s.2-2.4 1.1-2.5c.8-.2 1.7.7 1.9 2z"/><path id="XMLID_80_" class="st0" d="M441 312.6l3.6.2s-.1 1.4-1.8 1.4c-1.8-.1-1.8-1.6-1.8-1.6z"/><linearGradient id="XMLID_253_" gradientUnits="userSpaceOnUse" x1="742.713" y1="1033.084" x2="756.08" y2="1033.084" gradientTransform="matrix(1 0 0 -1 0 1072)"><stop offset=".006" stop-color="#131536"/><stop offset=".096" stop-color="#161432"/><stop offset=".186" stop-color="#1a1528"/><stop offset=".994" stop-color="#14151c"/></linearGradient><path id="XMLID_79_" d="M747 26.4c.5 0 1.7.4 3.4 3.8 2.3 4.3 5.7 17.4 5.7 17.4l-10 3.7-1.3-2.7-2.2-20.9c.1-.1 4.3-1.3 4.4-1.3z" fill="url(#XMLID_253_)"/><linearGradient id="XMLID_254_" gradientUnits="userSpaceOnUse" x1="716.111" y1="1020.998" x2="747.589" y2="1020.998" gradientTransform="matrix(1 0 0 -1 0 1072)"><stop offset=".006" stop-color="#131536"/><stop offset=".096" stop-color="#161432"/><stop offset=".186" stop-color="#1a1528"/><stop offset=".994" stop-color="#14151c"/></linearGradient><path id="XMLID_78_" d="M733.8 24.6c2.8 0 9.9.8 13.2 1.9 0 0 2.4 20.6-2.2 36.4-1 3.5.9 14.6.9 14.6l-29.5-.5s3.5-26.7 2.2-31.1c-1.3-4.3-1.4-19.4-1.4-19.4s.2 0 6.7-1.2c2.8-.3 7-.7 10.1-.7z" fill="url(#XMLID_254_)"/><path id="XMLID_77_" class="st79" d="M730.4 115.8s.7 7.5 1.9 9.7c1.2 2.1-.1 5.7-.1 6.2-.1.5-2.5 1.2-6.5.8-3.9-.4-3.9-1.4-3.5-2.7.3-1.5 2.4-3.3 2.5-4.8.1-1.4-1.2-6.4-1.2-6.4l6.9-2.8z"/><linearGradient id="XMLID_255_" gradientUnits="userSpaceOnUse" x1="715.623" y1="991.552" x2="768.745" y2="991.552" gradientTransform="matrix(1 0 0 -1 0 1072)"><stop offset="0" stop-color="#0a6895"/><stop offset="1" stop-color="#0c6d65"/></linearGradient><path id="XMLID_76_" d="M742.3 71.2s20.5-1.2 25 1.7c4.5 2.7-3.2 16.3-3.2 16.3s-14.2-.7-42 1c-6.6.4-7.1-17.2-5.9-18.6 1.1-1.6 26.1-.4 26.1-.4z" fill="url(#XMLID_255_)"/><path id="XMLID_75_" class="st87" d="M725.2 132.9c-4-.4-3.5-2.4-3.2-3.9.2-1 1.4-2.1 2.1-3.1.4.3 1 .8 2.7 1.3 1.9.6 4.3-.6 5.9-1.2.6 2.2.6 4.8.6 5.2-.2.5-4.1 2.2-8.1 1.7z"/><linearGradient id="XMLID_256_" gradientUnits="userSpaceOnUse" x1="711.912" y1="974.532" x2="732.212" y2="974.532" gradientTransform="matrix(1 0 0 -1 0 1072)"><stop offset="0" stop-color="#0a6895"/><stop offset="1" stop-color="#0c6d65"/></linearGradient><path id="XMLID_74_" d="M727.4 85.8c.8 6.2 4.9 36.9 4.9 36.9l-9.4 1.2s-11.5-40-11-46.2c.6-6.2 4.9-6.7 4.9-6.7s8.4-1.5 10.6 14.8z" fill="url(#XMLID_256_)"/><path id="XMLID_73_" class="st79" d="M716.7 28.9c2.7-1 4.1 23.9 4.5 34.2 4.9.5 13.4 0 15.6-.1 1-.1 3.3-.9 4.3-1.1 1-.1 2-.2 2.4-.1.2 0 5.3 2.2 5.7 2.5.6.6 2 2 1.8 2.6-.3.6-2.8-1.8-2.8-1.8l-1.3-.7c1.6 1.6 4.5 3.5 4.1 4.3-.4.7-3.1-1.4-5-2.7 1.7 1.5 3.7 4.1 3.2 4.5-.4.4-2.7-2.7-5.2-3.6-.9-.3-1.9.6-2.5.7-.6.1-1.4.3-1.9.1l-2.6-.8c-.9.1-1 .6-1.9.8-1.1.2-2.8.5-4.2.8-7.8 2-10.5 2.8-12.9 2.8-7.5.2-7.9-40-1.3-42.4z"/><linearGradient id="XMLID_257_" gradientUnits="userSpaceOnUse" x1="711.178" y1="1032.359" x2="722.585" y2="1032.359" gradientTransform="matrix(1 0 0 -1 0 1072)"><stop offset=".006" stop-color="#131536"/><stop offset=".096" stop-color="#161432"/><stop offset=".186" stop-color="#1a1528"/><stop offset=".994" stop-color="#14151c"/></linearGradient><path id="XMLID_72_" d="M711.4 52.3c-.5-10.5-.5-23.4 5.5-25.6 2.3-.9 6.5 4.4 5.7 25.8-3.2.3-7.8.5-11.2-.2z" fill="url(#XMLID_257_)"/><path id="XMLID_71_" class="st79" d="M757.8 122.2s-.8 2.6.7 4.3c1.5 1.8 7.5 3.4 8.3 4.4.8 1 .8 1.8.8 1.8l-17-.5.2-5.2.8-3.7 6.2-1.1z"/><path id="XMLID_70_" class="st87" d="M759.4 127.5s-4.4 1.8-6.6.7c-2.2-1.1-2.1-1.4-2.6-1-.6.4-.8 5.2-.8 5.2l19.2.6c1.4 0 2.1-1 1-1.9-.8-.6-1.6-1-2.2-1.3-1.4-.7-8-2.3-8-2.3z"/><linearGradient id="XMLID_258_" gradientUnits="userSpaceOnUse" x1="750.713" y1="974.153" x2="772.104" y2="974.153" gradientTransform="matrix(1 0 0 -1 0 1072)"><stop offset="0" stop-color="#0a6895"/><stop offset="1" stop-color="#0c6d65"/></linearGradient><path id="XMLID_69_" d="M757.1 76.1c1.3-2.7 4.3-6.4 9.6-4.2 5 2.1 6.4 7.1 4.8 12.4s-12 35.9-12.4 40.1l-8.3.1s1.5-24.3 1.9-30.2c.3-5.7 2.1-13.4 4.4-18.2z" fill="url(#XMLID_258_)"/><path id="XMLID_68_" class="st91" d="M770.7 47.8h-27.9c-.8 0-1.4.5-1.7 1.2l-8.6 21h-15.4c-.4 0-.8.3-.8.8 0 .4.3.8.8.8H761c1.2 0 2.3-.7 2.7-1.9l8.6-19.4c.5-1.2-.3-2.5-1.6-2.5z"/><path id="XMLID_67_" class="st0" d="M755.6 60c-.2 1-1 1.6-1.9 1.5-.8-.2-1.4-1.1-1.2-2.1s1-1.6 1.9-1.5c.9.2 1.4 1.1 1.2 2.1z"/><g id="XMLID_236_"><path id="XMLID_66_" class="st92" d="M740.4-.7c-.9-.3-1.7-.6-2.4-1-.9-.4-2.1-1-2.8-1.1-1.6-.2-4.2-.1-5.7 1.6-1.9 2-5.1.4-4.5 10.8.8 11.8 7.3 10.6 7.4 10.4.1-.2 5.9-7.5 5.9-7.5s2 4.4 2 4.2c0-.2 10.2-13.9.1-17.4z"/><path id="XMLID_65_" class="st79" d="M735.4 20.8l.6 4.2s1.3 6.1-.4 7.2c-1.7 1.2-6.9-7.4-6.9-7.4l.6-10.8 6.1 6.8z"/><path id="XMLID_64_" class="st83" d="M729.1 17.6c1.4 3.6 4.6 5.9 6.9 6.8l-.5-3.6-6.2-6.7-.2 3.5z"/><path id="XMLID_63_" class="st79" d="M735.2 2.5c3.4-.6 6.6 2.3 6.5 5.7 0 1.5-.2 3.4-.5 5.5-.8 4.9-4.1 9.2-6.3 8.8-2.2-.4-7.7-4.6-6.8-11.5.6-4.4 3.3-8 7.1-8.5z"/><path id="XMLID_62_" class="st79" d="M729.6 11.7c-.2 1.1-1.1 1.9-2 1.7-.9-.1-1.5-1.2-1.3-2.3s1.1-1.9 2-1.7c.9.2 1.5 1.2 1.3 2.3z"/><path id="XMLID_61_" class="st92" d="M728.3 9.5s2.6.7 3.6-1.1c1-1.7 4.5-5.4 9-3.9 4.5 1.6-3.9-3.7-4.3-3.7h-4.7s-3.3 2.7-3.4 3c-.1.3-1.1 3.6-1.1 3.6l.9 2.1z"/></g><path id="XMLID_60_" class="st0" d="M733.2 16.7l4.8 1s-.5 1.9-2.6 1.5c-2.6-.6-2.2-2.5-2.2-2.5z"/><path id="XMLID_59_" class="st69" d="M651.3 354.1c.2.6.3.9.6 1.3 1.5 2.7 5 6.8 5 6.8l2.7-6.2s-.5-2-1.2-4.7c-2.7.5-5.3 1-7.1 2.8z"/><linearGradient id="XMLID_259_" gradientUnits="userSpaceOnUse" x1="644.875" y1="730.785" x2="666.895" y2="730.785" gradientTransform="matrix(1 0 0 -1 0 1072)"><stop offset=".006" stop-color="#28366f"/><stop offset=".227" stop-color="#242f66"/><stop offset=".541" stop-color="#221f53"/><stop offset=".765" stop-color="#1d1042"/><stop offset=".994" stop-color="#21122f"/></linearGradient><path id="XMLID_58_" d="M666.8 348.7s-15.2 6.6-15.7 6.5c-.3-.1-6.3-10-6.4-19.3 0-4.3 4.4-9.5 9.4-8.5 2.5.5 2.4 1.2 6.2 6.7 3.9 5.3 6.5 14.6 6.5 14.6z" fill="url(#XMLID_259_)"/><path id="XMLID_57_" class="st79" d="M679.9 466.2l-.4 6c-.1.8-.7 2.6-.7 3.3 0 2.5 12.3-2.2 9.6-3.3-.3-.1-1.6-.9-1.7-1.8-.1-1.4-.5-4.1-.5-4.1l-6.3-.1z"/><path id="XMLID_56_" class="st87" d="M688.4 472.1s-2.9.8-4.4 1c-1.5.2-3.4-1.5-4.5-1-1.2.5-1.1 5-1.1 5s15.5 1.3 19.9-.1c1.7-.5-4.1-3-9.9-4.9z"/><path id="XMLID_55_" class="st79" d="M654.7 466.2l-.4 6c-.1.8-.7 2.6-.7 3.3 0 2.5 12.3-2.2 9.6-3.3-.3-.1-2-1.5-2.1-2.3-.1-1.4-.1-3.5-.1-3.5l-6.3-.2z"/><path id="XMLID_54_" class="st87" d="M663.2 472.1s-2.9.8-4.4 1c-1.5.2-3.4-1.5-4.5-1-1.2.5-1.2 5-1.2 5s15.6 1.5 20-.1c1.7-.6-4-3-9.9-4.9z"/><g id="XMLID_226_"><path id="XMLID_53_" class="st79" d="M658.4 357.3l10.9-15.2c.1-.1.1-.4.3-.8.6-1.5 1.7-4.6 2.6-7.7.3-1.1 1-3 1.6-4.8.7-2.1 1.6-4.6 1.7-5 0-.1-.1-.2-.1-.4-.4-1-1-3.5-1.2-4.5-.1-.7-.2-2.3.6-2.3 1.3 0 .7 1.7 1.3 2.6.2-.7.7-2.1.9-3.4l.2-3.2c0-.3-.2-2.1.7-2.1.8.1.8 2 1.1 5.2l.3-1.2c0-.2.1-1.2.3-1.7-.2-.9-.1-2.3.9-2.2.5.1.4 2.1.4 2.1v2.7c.1-.7.5-3.6 1.2-3.6.6 0 .7.8.7 1.5 0 .4-.4 3.6-.4 4 .3-.5.6-3.3 1-3.3 1.2 0 .8 4 .3 5.1 0 .1-.1.3-.1.6-.1.7-.4 2-1 3-.8 1.3-1.8 3.3-2 3.6-.1.7-.5 2.9-1 5.9-.2 1.3-.4 2.6-.6 4 0 .3-.3 1.3-1.2 4.9-1.2 5-1.3 5.2-1.4 5.3-.5.9-12.2 16.7-12.7 17.4l-.3.4-5-6.9z"/><path id="XMLID_52_" class="st83" d="M678.6 321.9s-.9-2.3-2.4-2.3c0 0 .9-.3 1.7.3.6.7.7 2 .7 2z"/></g><g id="XMLID_220_"><path id="XMLID_51_" class="st79" d="M655.8 317.6l-1.4 8.8s5.3 4.3 8.4 3.3c2.5-.8.8-4.1.8-4.1s-1.4-4.7-1-7.1c.5-2.5-6.8-.9-6.8-.9z"/><path id="XMLID_50_" class="st71" d="M656.9 320.2c1.4.6 3.9 1.5 6.1 1.7-.2-1.2-.3-2.5-.1-3.5.2-1.2-1.3-1.5-2.8-1.4-2.2.2-4 .5-4 .5l-.3 1.7c.2.5.6.8 1.1 1z"/><path id="XMLID_49_" class="st79" d="M649.1 307.4c-.2 0 2.2 9.9 5.7 11.5 3.6 1.7 9 .8 10-1.9 1.1-2.9-2.9-13-8-14.3-5-1.1-7.7 4.7-7.7 4.7z"/><path id="XMLID_48_" class="st72" d="M653.3 298.4c-2.8 1.7-4.2 4.1-4.6 5.1-1.4.6-3 2.1-3.7 5.8-1 4.6 2.4 8.1 6.1 9.2 3.6 1.1 4.2 3.4 4.2 3.4l.4-2.5s-.8-2.3-2.1-3.4c-1.2-1.2.6-2.7.8-4.1.1-1-.6-3-.5-4.7 0 0 2.1-3 4-3.8 3.3-1.4-.9-7.1-4.6-5z"/><path id="XMLID_47_" class="st79" d="M654.8 313.5c.5 1.2.3 2.3-.4 2.5s-1.7-.5-2.2-1.6c-.5-1.2-.3-2.3.4-2.5.7-.3 1.7.5 2.2 1.6z"/></g><path id="XMLID_46_" class="st69" d="M668.2 357.6l20.9-3.4s-2.3-6-3.2-6c-.9 0-15.9 6.6-15.9 6.6l-1.2 2.3-.6.5z"/><linearGradient id="XMLID_260_" gradientUnits="userSpaceOnUse" x1="653.923" y1="652.53" x2="673.628" y2="652.53" gradientTransform="matrix(1 0 0 -1 0 1072)"><stop offset=".006" stop-color="#131536"/><stop offset=".096" stop-color="#161432"/><stop offset=".186" stop-color="#1a1528"/><stop offset=".994" stop-color="#14151c"/></linearGradient><path id="XMLID_45_" d="M657.4 371.9s-2.1 10.1-1.2 17.7c.9 7.6.9 34.7.9 34.7l-3.2 43.5 7.7.2s9.1-43.5 9-42.3c-.2 1.2 3-30.5 3-30.5l-10.9-24.3-5.3 1z" fill="url(#XMLID_260_)"/><linearGradient id="XMLID_261_" gradientUnits="userSpaceOnUse" x1="659.005" y1="653.509" x2="689.952" y2="653.509" gradientTransform="matrix(1 0 0 -1 0 1072)"><stop offset=".006" stop-color="#131536"/><stop offset=".096" stop-color="#161432"/><stop offset=".186" stop-color="#1a1528"/><stop offset=".994" stop-color="#14151c"/></linearGradient><path id="XMLID_44_" d="M659.5 371.4s-1.4 9.1.3 13c1.7 4 14.6 43.1 14.8 46.2.2 3.2 4.5 38.4 4.5 38.4l9-.3 2-39.1-4-49.1-3.9-12.4-22.7 3.3z" fill="url(#XMLID_261_)"/><path id="XMLID_43_" class="st79" d="M654.4 326.4s2.3 1.5 4.3 1.3c2.1-.2 5-2.1 5-2.1l-.4-1.4s-5.3-.8-5.5-.7c-.2.2-3.4 2.9-3.4 2.9z"/><path id="XMLID_42_" class="st69" d="M678 347.9s7.9 7.4 11.5 6.2 5-5.7-3.6-12c-7.9-5.7-7.9 5.8-7.9 5.8z"/><linearGradient id="XMLID_262_" gradientUnits="userSpaceOnUse" x1="647.072" y1="717.125" x2="686.07" y2="717.125" gradientTransform="matrix(1 0 0 -1 0 1072)"><stop offset=".006" stop-color="#28366f"/><stop offset=".227" stop-color="#242f66"/><stop offset=".541" stop-color="#221f53"/><stop offset=".765" stop-color="#1d1042"/><stop offset=".994" stop-color="#21122f"/></linearGradient><path id="XMLID_41_" d="M683.3 357.1c-1.2-6.4-9.7-26.3-10.4-29.9-.3-1.8-4.9-1.9-9.3-1.6-4.6.3-9.2.8-9.2.8s-4.1.7-5.9 2.3c-1.8 1.7-2.3 6.4.3 15.2 2.1 6.9 4.6 10.9 5.9 15.9.3 1.7.5 3.4.8 5.4.5 7.6 0 17.6 0 17.6s22.3 4.6 30.6-2.3c-.1 0-1.5-16.8-2.8-23.4z" fill="url(#XMLID_262_)"/><linearGradient id="XMLID_263_" gradientUnits="userSpaceOnUse" x1="664.088" y1="733.76" x2="688.994" y2="733.76" gradientTransform="matrix(1 0 0 -1 0 1072)"><stop offset=".006" stop-color="#28366f"/><stop offset=".227" stop-color="#242f66"/><stop offset=".541" stop-color="#221f53"/><stop offset=".765" stop-color="#1d1042"/><stop offset=".994" stop-color="#21122f"/></linearGradient><path id="XMLID_40_" d="M689 343.4s-8.7 7.2-9.2 7.2c-.3 0-12.4-8.9-15.3-16.2-1.6-4.1 1.7-8.6 5.4-8.6 2.5 0 3.7.7 8.8 5 5.1 4.3 10.3 12.6 10.3 12.6z" fill="url(#XMLID_263_)"/><path id="XMLID_39_" class="st91" d="M535.3 21.5c1.5-3.4 2.9-6.9 6.6-8.6 3-1.5 6.2-.9 8.8 1.2 7.5 5.7 1 11.9 9.6 22.7 2.6 3.3 5.9 6.1 7.5 10 2.3 5.5-.4 8.1-4.7 10.8-20.6 12.6-31.2-13.3-30.8-19.2.3-4.4 2.1-14.6 3-16.9z"/><path id="XMLID_38_" class="st79" d="M514.1 88.6c.9-.1 2.9-1.7 3.7-1.8.6-.1 1.9-.3 2.3-.4.7-2.4 3.9-15.7 4.3-19.5.4-4.2 3.3-22.3 3.3-22.3l7.6 1.4s-3.2 14-4.1 20.7c-.8 5.8-7.1 18.9-7.9 20.3v.1c-.1 2.1-1.1 1.4-1.1 1.4l-1.6.4s-5.7.6-6.1.7c-.2.2-1.3-.8-.4-1z"/><linearGradient id="XMLID_264_" gradientUnits="userSpaceOnUse" x1="525.971" y1="1028.907" x2="540.02" y2="1028.907" gradientTransform="matrix(1 0 0 -1 0 1072)"><stop offset=".006" stop-color="#28366f"/><stop offset=".227" stop-color="#242f66"/><stop offset=".541" stop-color="#221f53"/><stop offset=".765" stop-color="#1d1042"/><stop offset=".994" stop-color="#21122f"/></linearGradient><path id="XMLID_37_" d="M534.4 34.1c-5.5 1.9-8.5 16.5-8.5 16.5s8.5 2.3 10.7 1.2c0 0 2.4-11 3.3-10.6l-5.5-7.1z" fill="url(#XMLID_264_)"/><path id="XMLID_36_" class="st79" d="M492.5 114.1c-1.7 4.4-2.5 8.6-2.5 9.1 0 .3.3 1.5.3 1.7-3.3 4.5-8.1 5.6-12.2 5.9 2.2-2.1 5.2-4 5.3-4.6.2-1 1.5-5.6 2.2-11.9 2.3 1 4 0 6.9-.2z"/><linearGradient id="XMLID_265_" gradientUnits="userSpaceOnUse" x1="484.125" y1="980.86" x2="547.053" y2="980.86" gradientTransform="matrix(1 0 0 -1 0 1072)"><stop offset=".006" stop-color="#131536"/><stop offset=".096" stop-color="#161432"/><stop offset=".186" stop-color="#1a1528"/><stop offset=".994" stop-color="#14151c"/></linearGradient><path id="XMLID_35_" d="M539.7 65.1l7.3 20.6s-11.7 2.3-16.1 3c-4.4.8-29 1.9-29.7 2.3-.5.3-5.6 16.7-7.8 25.8-2.5.6-6.9-.1-9.3-.9 1.3-13 5.9-33.6 7.3-35.8 2.4-3.5 48.3-15 48.3-15z" fill="url(#XMLID_265_)"/><path id="XMLID_34_" class="st79" d="M511 123.1c-.8 4.6-.9 8.9-.9 9.4 0 .3.6 1.4.6 1.7-2.4 5.1-6.9 6.9-11 8 1.7-2.3 4.3-4.9 4.3-5.6 0-1.1.4-5.8-.2-12.1 3 .7 4.5-.6 7.2-1.4z"/><linearGradient id="XMLID_266_" gradientUnits="userSpaceOnUse" x1="502.549" y1="975.467" x2="553.052" y2="975.467" gradientTransform="matrix(1 0 0 -1 0 1072)"><stop offset=".006" stop-color="#131536"/><stop offset=".096" stop-color="#161432"/><stop offset=".186" stop-color="#1a1528"/><stop offset=".994" stop-color="#14151c"/></linearGradient><path id="XMLID_33_" d="M548.3 66.2l2.8 4.9c4.3 7.4 1 16.9-6.9 20.1-.1 0-.1 0-.1.1-4.2 1.7-28.2 7.2-28.7 7.8-.4.4-2.3 17.5-2.8 26.8-2.4 1.1-6.9 1.2-9.3.9-1.2-13-.6-34.1.5-36.5 1.5-4.2 44.5-24.1 44.5-24.1z" fill="url(#XMLID_266_)"/><path id="XMLID_32_" class="st72" d="M509.9 132.7c.6-.7 3 3.2 3.5 4 .7 1 .5 1.7.4 1.8-.2.4-12.5 7.6-15.6 8.1-.3.1-.8-.1-.9-.2-1.2-1.1 4.2-8.7 6.7-9.8 1.6-.6 3-.7 5.9-3.9z"/><path id="XMLID_31_" class="st72" d="M489.5 123.3c.8-.6 2.3 3.6 2.7 4.6.5 1.1.2 1.7.1 1.9-.3.3-13.8 5.2-16.8 5.1-.3 0-.8-.3-.9-.4-1-1.3 5.8-7.8 8.4-8.3 1.7-.4 3.1-.3 6.5-2.9z"/><linearGradient id="XMLID_267_" gradientUnits="userSpaceOnUse" x1="529.037" y1="1018.388" x2="553.362" y2="1018.388" gradientTransform="matrix(1 0 0 -1 0 1072)"><stop offset=".006" stop-color="#28366f"/><stop offset=".227" stop-color="#242f66"/><stop offset=".541" stop-color="#221f53"/><stop offset=".765" stop-color="#1d1042"/><stop offset=".994" stop-color="#21122f"/></linearGradient><path id="XMLID_30_" d="M539.6 34c-.1 0-.3-.1-.6-.1-1-.2-3.2-.5-4.9.3-2.1.9-5.3 9.1-5.1 17.5.1 1.3.1 2.4.2 3.2.6 6.4 2.3 18.3 2.4 18.4 2.4 1.6 17.5-4.6 18.5-6 1-1.4 1.7-17.9 2.2-18.8l1-14.4c-1.6-.4-11-.1-13.7-.1z" fill="url(#XMLID_267_)"/><path id="XMLID_29_" class="st79" d="M545.7 28.7s-1 5-.8 6.9-.8 8.4-4.9 8.4c-4.2 0-.8-8.1-.4-10 .4-2 .5-7.9.5-7.9l5.6 2.6z"/><path id="XMLID_28_" class="st83" d="M540 29.1c.1-1.7.1-3 .1-3l5.6 2.6s-.2 1-.4 2.3c-2.5.5-4.2-.4-5.3-1.9z"/><path id="XMLID_27_" class="st79" d="M547.7 14.9s2.2 1.2 2.9 3.8c.8 2.5-.1 9.3-5.7 10.9-5.6 1.6-8-3.7-6.9-7.8 1.3-4.2 3.8-9.5 9.7-6.9z"/><ellipse id="XMLID_26_" transform="matrix(-.09759 -.9952 .9952 -.09759 571.307 557.98)" class="st79" cx="538.6" cy="20" rx="2.1" ry="1.2"/><path id="XMLID_25_" class="st91" d="M547.1 14.6s1 7.4 3.4 8.8 1.4 4.7 1.4 4.7 2.2-7.6.3-10.2c-1.9-2.5-5.1-3.3-5.1-3.3z"/><ellipse id="XMLID_24_" transform="rotate(-56.06 550.282 25.257)" class="st79" cx="550.3" cy="25.3" rx="2.2" ry="1.5"/><path id="XMLID_23_" class="st0" d="M541 24.9l3.9 1s-.5 1.5-2.3 1.1c-2-.5-1.6-2.1-1.6-2.1z"/><path id="XMLID_22_" d="M560.5 88c.2 0 16.9-.9 16.9-.9s-6.9 5-7 5c-.1 0-5.5-2.2-5.8-2.2s-4.1-1.9-4.1-1.9z" fill="#54c0a6"/><path id="XMLID_21_" class="st79" d="M899.3 466.4l.3 5.9c.1.8.6 2.5.6 3.2 0 2.5-11.3-2.2-8.8-3.3.2-.1 1.5-.9 1.5-1.8.1-1.4.4-4 .4-4h6z"/><path id="XMLID_20_" class="st103" d="M891.3 472.3s2.6.8 4 1c1.4.2 3.1-1.5 4.1-1 1.1.5 1 4.9 1 4.9s-14.2 1.3-18.2-.1c-1.5-.5 3.8-3 9.1-4.8z"/><path id="XMLID_19_" class="st79" d="M918.2 466.2l.3 5.9c.1.8.6 2.5.6 3.2 0 2.5-11.3-2.2-8.8-3.3.2-.1 1.8-1.5 1.9-2.3.1-1.4.1-3.4.1-3.4l5.9-.1z"/><path id="XMLID_18_" class="st103" d="M910.3 471.9s2.6.8 4 1c1.4.2 3.1-1.5 4.1-1 1.1.5 1.1 4.9 1.1 4.9s-14.1.6-18.3-.1c-1.6-.2 3.7-2.9 9.1-4.8z"/><linearGradient id="XMLID_268_" gradientUnits="userSpaceOnUse" x1="899.939" y1="652.384" x2="918.652" y2="652.384" gradientTransform="matrix(1 0 0 -1 0 1072)"><stop offset=".006" stop-color="#28366f"/><stop offset=".227" stop-color="#242f66"/><stop offset=".541" stop-color="#221f53"/><stop offset=".765" stop-color="#1d1042"/><stop offset=".994" stop-color="#21122f"/></linearGradient><path id="XMLID_17_" d="M914.7 372.9s1.9 9.9 1.2 17.4c-.8 7.5-.9 34.2-.9 34.2l3.6 42.7-7.6.2s-8.3-42.7-8.2-41.6-2.8-30-2.8-30l10-23.8 4.7.9z" fill="url(#XMLID_268_)"/><linearGradient id="XMLID_269_" gradientUnits="userSpaceOnUse" x1="889.908" y1="654.39" x2="918.225" y2="654.39" gradientTransform="matrix(1 0 0 -1 0 1072)"><stop offset=".006" stop-color="#28366f"/><stop offset=".227" stop-color="#242f66"/><stop offset=".541" stop-color="#221f53"/><stop offset=".765" stop-color="#1d1042"/><stop offset=".994" stop-color="#21122f"/></linearGradient><path id="XMLID_16_" d="M912.1 366.5s8.7 9.1 5.5 19.1c-1.3 4-13.4 42.3-13.5 45.4-.1 3.1-4.1 37.7-4.1 37.7l-8.2-.3-1.8-38.5 2.3-51.8 5-8.7 14.8-2.9z" fill="url(#XMLID_269_)"/><linearGradient id="XMLID_270_" gradientUnits="userSpaceOnUse" x1="859.105" y1="718.931" x2="917.771" y2="718.931" gradientTransform="matrix(1 0 0 -1 0 1072)"><stop offset="0" stop-color="#0a6895"/><stop offset="1" stop-color="#0c6d65"/></linearGradient><path id="XMLID_15_" d="M859.4 336.8c2.8-3.1 9-7.6 9-7.6s3.6-3.1 5.2-3.6c2.3-.8 6-2.7 11.5 5.5 3.9 6 28.7 36.7 32.7 37.7l-26.5 12.7c-.8-6.1-13.8-17.5-15.7-19.7-4.2-4.9-18.9-22.1-16.2-25z" fill="url(#XMLID_270_)"/><path id="XMLID_14_" class="st79" d="M860.7 323.9l8.2 4.8s.2 7-2.4 8.9c-2.3 1.6-4-2.2-4-2.2s-3-4.3-5.4-5.6c-2.4-1.2 3.6-5.9 3.6-5.9z"/><path id="XMLID_13_" class="st83" d="M862.1 327c-.3 1.5-1 3.6-2.2 5.4-.9-1-2-2-2.8-2.4-1.1-.6-.4-2 .7-3.2 1.5-1.6 2.9-2.8 2.9-2.8l1.6 1c.1.4-.1 1.5-.2 2z"/><path id="XMLID_12_" class="st79" d="M856.4 311.8c.1-.2 6.9 8.3 6.1 12.2-.8 3.9-5 7.5-7.8 6.6-3.1-1.1-9-11.1-6.9-15.9 2.1-4.8 8.6-2.9 8.6-2.9z"/><path id="XMLID_11_" class="st72" d="M849 309.1c2.9-1.7 7.8-2.2 11.4-.2 4.4 2.3 5.5 8.1 4.1 11.7-1.4 3.5.2 5.6.2 5.6l-2.3-1.4s-1.4-2.2-1.6-3.8c-.2-1.7-2.6-1.4-3.9-2.2-1-.6-2.2-2.5-3.6-3.5 0 0-3.8-.5-5.7.6-3.3 1.7-2.8-4.4 1.4-6.8z"/><path id="XMLID_10_" class="st79" d="M858.8 320.2c0 1.3.6 2.3 1.4 2.3.8 0 1.4-1 1.5-2.3 0-1.3-.6-2.3-1.4-2.3-1 .1-1.5 1.1-1.5 2.3z"/><path id="XMLID_9_" class="st0" d="M851.8 326.9l3.6-2.6s1 1.5-.6 2.6c-1.9 1.5-3 0-3 0z"/><path id="XMLID_8_" class="st69" d="M842.7 380.3c.9-1.3 1.3-3.2 2.5-4.7.4-.5 1.1-1 1.9-1.6 6-3.5 21.5-12.5 22.2-13.2.7-.8 11.4-18.5 11.4-18.5l-9.6-2.2-9.3 16.5c-.8.6-15.7 11.5-15.7 11.5s-2.9 2.3-4.5 3.4c-.8.5-1.6.8-2.3 1-.9.3-2.5 1.2-2.8 1.5-.4.3-1.2 1.1-1.7 1.6s-1 1-1.3 1.2c-.1.2-.6.4-.9.6-.5.2-.4.9.1 1 .5.1 1.1-.1 1.5-.3 1.1-.5 2.3-1.9 2.4-1.7s-1.3 3-1.4 3.4c-.1.3-1.7 3.7-1.8 4.5-.1.8.4 1 .7.7.3-.2 2.7-4.8 2.7-4.8s.3-.6.4-.3c.1.3-2.2 4.5-2.3 5.1-.2.7-.1 1.2.6 1 .8-.3 2.8-4.8 2.8-4.8s.3-.6.5-.4-1.8 3.6-1.8 4.1c0 .4.3.8.9.5.6-.4 2.4-4.5 2.4-4.5s.2-.3.3-.1-1.4 3.2-1.3 3.7c.1.4.4.3.4.3 1.1 0 2.1-3.2 3-4.5z"/><path id="XMLID_7_" class="st70" d="M878 351.6s-3.1-1-5.1-1.9c-1.4-.6-7.1-3.5-7.1-3.5s2.5-10.6 4.2-14.4c6.3-14 13.3-4.3 14.3-2.2 2.2 5.2-6.3 22-6.3 22z"/><path id="XMLID_6_" class="st0" d="M660.7 315l2.9-2.3s.8 1.2-.5 2.3c-1.4 1.3-2.4 0-2.4 0z"/><path id="XMLID_5_" d="M1008.3 476.8H320.4c-.9 0-1.6.9-1.6 2s.7 2 1.6 2h687.9c.9 0 1.6-.9 1.6-2s-.7-2-1.6-2z" fill="#1c4755"/><path id="XMLID_4_" class="st79" d="M577.8 87.1c-.1-.2-.2-.2-.4-.2-1.6-.1-3.1-.1-4.6-.3-.3 0-.5-.1-.8-.2-.4-.2-.9-.2-1.3-.1-.2.1-.5.1-.7.1-.8 0-3-.8-4.1-1-.3-.1-.5-.3-.6-.5-1.2-4.5-3.5-14.5-3.9-17.7-.4-4.2-3.3-23.2-3.3-23.2l-7.7 2.2s3.2 14 4.1 20.7c.7 5.2 5.9 16.3 7.5 19.6.8 2.3 2.5 2.4 3 2.5.2 0 .5.1.6.3.3.3.6.6 1 .9.3.2.5.4.7.7l.9 1.5c.2.3.4.4.7.4.3-.1.5-.3.5-.7 0-.6-.2-1.1-.5-1.6s-.3-.7.1-1.1c.2-.2.3-.5.6-.7.2-.2.5-.3.8-.3.6.1 1.1.3 1.7.3l.5.1.3.1s.9.1 1.2.1h.9c.3 0 .9-.1.9-.1.3 0 .5-.1.7-.3.1-.1.2-.2.1-.3 0-.1-.1-.2-.3-.2-.2 0-1.2-.1-1.2-.2h1.5c.4 0 .7-.1 1-.4 0-.1.2-.2.1-.4z"/><linearGradient id="XMLID_271_" gradientUnits="userSpaceOnUse" x1="546.391" y1="1028.868" x2="560.44" y2="1028.868" gradientTransform="matrix(1 0 0 -1 0 1072)"><stop offset=".006" stop-color="#28366f"/><stop offset=".227" stop-color="#242f66"/><stop offset=".541" stop-color="#221f53"/><stop offset=".765" stop-color="#1d1042"/><stop offset=".994" stop-color="#21122f"/></linearGradient><path id="XMLID_3_" d="M553.4 34.2c3.8-.7 6.9 16.4 6.9 16.4s-8.5 2.3-10.7 1.2c0 0-2.4-11-3.3-10.6l7.1-7z" fill="url(#XMLID_271_)"/><path id="XMLID_2_" class="st79" d="M460.8 342.4c.3-.8-3.2-1.3-3.4-2.1-.2-.8 4.5-.8 4.6-1.5.3-1.2-5.1-.3-5-.8.1-.6 5.7-1.8 5-2.7-.6-1-5.6 1.9-5.8 1.3-.1-.7 4.9-2.3 4.8-3.6-.1-.8-8.3 3.8-9.2 3.4-1-.4 1-4 .3-4.5-.8-.6-2.9 7.2-3.4 7.5-.5.3-11.6 6.6-15.6 7.6-.5-1.4-1.5-3.1-2-4.3-2.3 1.6-3.9 2.3-6.2 3.8 1.7 4.1 4 8.7 5.2 9.2 3.5 1.6 17.1-9.7 19.9-11.6s4.3-1.3 6.1-1.9c1.8-.8 4.4.8 4.7.2z"/><linearGradient id="XMLID_272_" gradientUnits="userSpaceOnUse" x1="421.926" y1="735.571" x2="435.016" y2="735.571" gradientTransform="matrix(1 0 0 -1 0 1072)"><stop offset=".006" stop-color="#28366f"/><stop offset=".227" stop-color="#242f66"/><stop offset=".541" stop-color="#221f53"/><stop offset=".765" stop-color="#1d1042"/><stop offset=".994" stop-color="#21122f"/></linearGradient><path id="XMLID_1_" d="M424.5 348.3s-3-13.4-2.5-17.3c.6-3.9 5.2-7.5 8.3-6.2 3.2 1.4 4.7 20.1 4.7 20.1l-10.5 3.4z" fill="url(#XMLID_272_)"/></g></svg>